<?xml version="1.0" encoding="UTF-8" standalone="no"?>
<!-- Created with Inkscape (http://www.inkscape.org/) -->

<svg
   width="123.48906mm"
   height="113.91995mm"
   viewBox="0 0 123.48906 113.91995"
   version="1.1"
   id="svg1"
   xml:space="preserve"
   xmlns:inkscape="http://www.inkscape.org/namespaces/inkscape"
   xmlns:sodipodi="http://sodipodi.sourceforge.net/DTD/sodipodi-0.dtd"
   xmlns="http://www.w3.org/2000/svg"
   xmlns:svg="http://www.w3.org/2000/svg"><sodipodi:namedview
     id="namedview1"
     pagecolor="#ffffff"
     bordercolor="#000000"
     borderopacity="0.25"
     inkscape:showpageshadow="2"
     inkscape:pageopacity="0.0"
     inkscape:pagecheckerboard="0"
     inkscape:deskcolor="#d1d1d1"
     inkscape:document-units="mm" /><defs
     id="defs1" /><g
     inkscape:label="Layer 1"
     inkscape:groupmode="layer"
     id="layer1"
     transform="translate(-43.226525,-91.540029)"><g
       id="g1"
       transform="matrix(0.26458333,0,0,0.26458333,38.872089,80.880435)"><g
         id="Background_Simple">&#10;	<g
   id="g2">&#10;		<path
   style="fill:#92e3a9"
   d="m 467.327,299.943 c -13.177,39.938 -41.563,83.708 -83.338,97.957 -63.12,21.535 -68.759,73.303 -183.319,72.95 -17.861,-0.053 -34.441,-1.924 -49.738,-5.341 -8.223,-1.836 -16.078,-4.131 -23.552,-6.836 C 59.516,434.193 22.359,375.975 17.057,313.763 10.07,231.941 65.752,190.661 102.038,166.347 138.324,142.034 179.698,51.659 292.32,51.121 c 17.171,-0.075 34.371,1.608 51.124,5.462 38.241,8.78 77.589,29.948 101.225,62.204 1.775,2.423 3.474,4.908 5.107,7.443 31.88,49.601 35.519,119.266 17.551,173.713 z"
   id="path1" />&#10;		<path
   style="opacity:0.7;fill:#ffffff"
   d="m 467.327,299.943 c -13.177,39.938 -41.563,83.708 -83.338,97.957 -63.12,21.535 -68.759,73.303 -183.319,72.95 -17.861,-0.053 -34.441,-1.924 -49.738,-5.341 -8.223,-1.836 -16.078,-4.131 -23.552,-6.836 C 59.516,434.193 22.359,375.975 17.057,313.763 10.07,231.941 65.752,190.661 102.038,166.347 138.324,142.034 179.698,51.659 292.32,51.121 c 17.171,-0.075 34.371,1.608 51.124,5.462 38.241,8.78 77.589,29.948 101.225,62.204 1.775,2.423 3.474,4.908 5.107,7.443 31.88,49.601 35.519,119.266 17.551,173.713 z"
   id="path2" />&#10;	</g>&#10;</g><g
         id="Floor">&#10;	&#10;		<line
   style="fill:none;stroke:#263238;stroke-linecap:round;stroke-linejoin:round;stroke-miterlimit:10"
   x1="482.68799"
   y1="453.12799"
   x2="20.945"
   y2="453.12799"
   id="line2" />&#10;</g><g
         id="Plants">&#10;	<g
   id="g6">&#10;		<g
   id="g5">&#10;			<path
   style="fill:#263238"
   d="m 38.162,389.862 c 2.154,0.94 7.42,0.822 7.424,0.822 0.055,-0.001 -1.132,-3.448 -1.232,-3.656 -1.155,-2.417 -4.81,-6.409 -7.783,-6.007 -2.142,0.29 -3.333,2.433 -2.85,4.45 0.495,2.059 2.608,3.589 4.441,4.391 z"
   id="path3" />&#10;			<path
   style="fill:#263238"
   d="m 39.98,405.116 c 2.234,0.326 6.934,-1.037 7.307,-1.147 0.742,2.631 1.717,5.271 2.851,7.888 0.646,1.497 1.344,2.984 2.063,4.467 -0.429,-0.628 -0.817,-1.186 -0.879,-1.259 -1.754,-2.027 -6.332,-4.911 -9.093,-3.738 -1.99,0.845 -2.572,3.227 -1.574,5.044 1.02,1.856 3.463,2.774 5.443,3.062 2.01,0.293 6.04,-0.789 7.103,-1.089 0.281,0.566 0.556,1.134 0.84,1.699 1.361,2.71 2.731,5.408 3.993,8.096 0.445,0.947 0.849,1.896 1.257,2.844 -0.381,-0.558 -0.707,-1.024 -0.764,-1.09 -1.753,-2.026 -6.331,-4.911 -9.093,-3.737 -1.99,0.845 -2.573,3.227 -1.574,5.044 1.021,1.856 3.463,2.774 5.443,3.063 1.918,0.28 5.647,-0.685 6.911,-1.036 0.388,0.984 0.779,1.968 1.11,2.938 0.212,0.668 0.462,1.296 0.636,1.978 0.188,0.672 0.373,1.337 0.557,1.997 0.308,1.282 0.633,2.603 0.901,3.861 0.194,0.874 0.362,1.71 0.534,2.552 -0.432,-0.948 -1.318,-2.786 -1.41,-2.931 -1.425,-2.268 -5.514,-5.813 -8.422,-5.072 -2.095,0.534 -3.031,2.8 -2.319,4.748 0.727,1.989 3.002,3.267 4.916,3.852 2.107,0.644 6.772,0.056 7.354,-0.022 0.28,1.394 0.538,2.752 0.762,4.038 0.12,0.68 0.224,1.32 0.33,1.962 h 1.855 c -0.137,-0.741 -0.28,-1.498 -0.438,-2.289 -0.278,-1.416 -0.603,-2.924 -0.952,-4.47 0.351,-0.139 2.34,-0.944 4.103,-1.929 1.536,1.663 5.471,3.609 5.98,3.857 -0.535,1.317 -1.069,2.592 -1.592,3.788 -0.157,0.362 -0.309,0.699 -0.463,1.043 h 1.954 c 0.049,-0.118 0.097,-0.23 0.146,-0.352 0.549,-1.335 1.11,-2.773 1.672,-4.254 0.564,0.118 5.182,1.056 7.334,0.57 1.952,-0.441 4.316,-1.546 5.19,-3.475 0.855,-1.889 0.09,-4.219 -1.96,-4.907 -2.844,-0.956 -7.185,2.275 -8.776,4.431 -0.094,0.127 -0.958,1.621 -1.487,2.572 0.226,-0.606 0.452,-1.193 0.678,-1.82 0.454,-1.237 0.871,-2.485 1.324,-3.826 0.196,-0.655 0.394,-1.318 0.594,-1.986 0.212,-0.659 0.353,-1.382 0.534,-2.078 0.387,-1.624 0.7,-3.289 0.978,-4.972 1.084,0.394 4.955,1.741 6.961,1.6 1.996,-0.14 4.5,-0.873 5.656,-2.648 1.132,-1.738 0.728,-4.157 -1.193,-5.148 -2.667,-1.375 -7.448,1.16 -9.346,3.05 -0.118,0.117 -1.329,1.627 -1.977,2.469 0.159,-1.013 0.323,-2.024 0.451,-3.055 0.369,-2.975 0.65,-5.998 0.944,-9.012 0.089,-0.923 0.19,-1.842 0.287,-2.763 0.384,0.145 4.951,1.845 7.197,1.687 1.996,-0.14 4.5,-0.873 5.656,-2.649 1.132,-1.737 0.728,-4.157 -1.193,-5.147 -2.667,-1.375 -7.447,1.16 -9.346,3.05 -0.143,0.142 -1.881,2.317 -2.296,2.891 0.214,-2.027 0.446,-4.045 0.756,-6.025 0.423,-2.732 0.99,-5.39 1.729,-7.924 0.179,0.068 4.937,1.863 7.237,1.702 1.996,-0.14 4.501,-0.874 5.656,-2.649 1.132,-1.738 0.728,-4.157 -1.193,-5.147 -2.667,-1.375 -7.447,1.16 -9.346,3.05 -0.149,0.148 -2.018,2.489 -2.327,2.937 0.045,-0.151 0.074,-0.311 0.12,-0.461 0.824,-2.695 1.96,-5.203 3.139,-7.498 0.682,-1.335 1.41,-2.573 2.144,-3.762 0.852,0.425 4.767,2.326 6.853,2.41 2,0.08 4.569,-0.374 5.913,-2.011 1.316,-1.603 1.18,-4.052 -0.62,-5.247 -2.5,-1.66 -7.53,0.335 -9.625,2.005 -0.114,0.091 -1.17,1.142 -1.928,1.919 0.339,-0.532 0.68,-1.086 1.015,-1.589 1.255,-1.89 2.521,-3.544 3.654,-4.999 0.651,-0.822 1.255,-1.553 1.829,-2.231 1.053,-0.018 5.299,-0.147 7.155,-1.018 1.811,-0.851 3.883,-2.437 4.321,-4.51 0.429,-2.029 -0.82,-4.14 -2.969,-4.371 -2.983,-0.322 -6.528,3.767 -7.618,6.214 -0.094,0.212 -1.187,3.689 -1.132,3.688 0,0 0.051,0 0.064,-10e-4 -0.565,0.641 -1.162,1.335 -1.801,2.106 -1.167,1.434 -2.473,3.064 -3.773,4.934 -1.305,1.866 -2.671,3.929 -3.913,6.233 -1.248,2.307 -2.443,4.798 -3.342,7.524 -0.01,0.031 -0.017,0.064 -0.027,0.095 0.016,-0.879 -0.023,-3.338 -0.048,-3.526 -0.345,-2.657 -2.571,-7.589 -5.522,-8.134 -2.125,-0.393 -3.926,1.272 -4.095,3.34 -0.173,2.111 1.358,4.224 2.85,5.557 1.683,1.504 6.355,2.959 6.727,3.074 -0.833,2.603 -1.476,5.343 -1.974,8.15 -0.286,1.605 -0.525,3.231 -0.743,4.864 -0.011,-0.76 -0.026,-1.44 -0.039,-1.535 -0.344,-2.657 -2.571,-7.588 -5.522,-8.134 -2.126,-0.393 -3.926,1.272 -4.095,3.339 -0.173,2.111 1.358,4.224 2.85,5.557 1.514,1.353 5.473,2.674 6.524,3.01 -0.077,0.627 -0.161,1.253 -0.236,1.881 -0.36,3.011 -0.706,6.017 -1.136,8.956 -0.151,1.036 -0.338,2.05 -0.521,3.065 -0.011,-0.675 -0.025,-1.244 -0.036,-1.33 -0.345,-2.658 -2.571,-7.589 -5.521,-8.134 -2.126,-0.392 -3.927,1.272 -4.096,3.34 -0.173,2.11 1.358,4.224 2.851,5.557 1.445,1.291 5.088,2.544 6.336,2.948 -0.219,1.034 -0.436,2.071 -0.695,3.063 -0.192,0.673 -0.33,1.335 -0.56,2.001 -0.215,0.663 -0.427,1.322 -0.637,1.972 -0.451,1.239 -0.908,2.52 -1.378,3.717 -0.321,0.836 -0.642,1.626 -0.962,2.422 0.162,-1.029 0.437,-3.05 0.441,-3.222 0.041,-1.779 -0.591,-4.673 -1.849,-6.707 0.008,-0.263 -0.007,-0.525 -0.049,-0.785 -0.329,-2.048 -2.253,-3.569 -4.342,-3.012 -2.899,0.772 -4.738,5.861 -4.875,8.537 -0.008,0.158 0.095,1.88 0.178,2.966 -0.146,-0.631 -0.28,-1.245 -0.439,-1.892 -0.304,-1.282 -0.646,-2.553 -1.007,-3.922 -0.198,-0.655 -0.398,-1.316 -0.6,-1.984 -0.186,-0.666 -0.468,-1.347 -0.701,-2.028 -0.574,-1.568 -1.231,-3.129 -1.928,-4.687 1.123,-0.269 5.094,-1.281 6.689,-2.505 1.588,-1.218 3.271,-3.212 3.256,-5.329 -0.015,-2.074 -1.685,-3.869 -3.835,-3.636 -2.983,0.324 -5.572,5.076 -6.113,7.7 -0.034,0.164 -0.21,2.09 -0.287,3.15 -0.426,-0.933 -0.847,-1.867 -1.309,-2.797 -1.333,-2.685 -2.765,-5.361 -4.184,-8.037 -0.435,-0.82 -0.858,-1.641 -1.285,-2.462 0.401,-0.092 5.147,-1.193 6.934,-2.564 1.587,-1.218 3.271,-3.211 3.256,-5.329 -0.015,-2.074 -1.686,-3.869 -3.835,-3.635 -2.983,0.324 -5.572,5.076 -6.113,7.7 -0.041,0.198 -0.291,2.97 -0.32,3.678 -0.939,-1.808 -1.859,-3.619 -2.693,-5.442 -1.154,-2.513 -2.147,-5.041 -2.929,-7.563 0.187,-0.042 5.146,-1.17 6.976,-2.573 1.588,-1.218 3.272,-3.211 3.256,-5.329 -0.015,-2.074 -1.686,-3.869 -3.835,-3.635 -2.983,0.324 -5.571,5.076 -6.113,7.7 -0.043,0.206 -0.31,3.189 -0.32,3.733 -0.046,-0.15 -0.111,-0.3 -0.155,-0.45 -0.799,-2.703 -1.235,-5.421 -1.518,-7.986 -0.168,-1.49 -0.244,-2.923 -0.287,-4.32 0.945,-0.116 5.259,-0.69 7.045,-1.771 1.712,-1.037 3.605,-2.833 3.822,-4.939 0.213,-2.063 -1.251,-4.031 -3.412,-4.035 -3.001,-0.006 -6.095,4.433 -6.922,6.982 -0.045,0.139 -0.346,1.598 -0.55,2.664 -0.01,-0.631 -0.032,-1.281 -0.029,-1.885 0.004,-2.269 0.147,-4.347 0.29,-6.185 0.089,-1.045 0.191,-1.988 0.295,-2.87 0.868,-0.597 4.338,-3.047 5.405,-4.798 1.042,-1.709 1.894,-4.174 1.116,-6.144 -0.762,-1.929 -2.968,-3.001 -4.887,-2.009 -2.666,1.378 -3.367,6.744 -2.926,9.386 0.039,0.228 1.045,3.731 1.091,3.701 0,0 0.042,-0.029 0.052,-0.036 -0.118,0.846 -0.233,1.755 -0.34,2.75 -0.183,1.839 -0.372,3.919 -0.425,6.197 -0.059,2.276 -0.06,4.751 0.175,7.357 0.232,2.612 0.609,5.349 1.363,8.119 0.008,0.031 0.022,0.063 0.03,0.094 -0.472,-0.742 -1.861,-2.771 -1.986,-2.915 -1.753,-2.026 -6.331,-4.911 -9.093,-3.738 -1.989,0.845 -2.573,3.227 -1.573,5.045 1.021,1.857 3.463,2.774 5.443,3.063 z"
   id="path4" />&#10;			<path
   style="fill:#263238"
   d="m 91.432,391.02 c 0.047,0.029 0.958,-3.5 0.99,-3.729 0.369,-2.654 -0.477,-7.999 -3.178,-9.304 -1.946,-0.94 -4.122,0.191 -4.831,2.14 -0.724,1.99 0.194,4.432 1.282,6.112 1.275,1.972 5.733,4.778 5.737,4.781 z"
   id="path5" />&#10;		</g>&#10;	</g>&#10;	<g
   id="g9">&#10;		<g
   id="g8">&#10;			<path
   style="fill:#263238"
   d="m 180.195,423.924 c 0.994,0.434 3.425,0.379 3.427,0.379 0.025,-10e-4 -0.523,-1.591 -0.569,-1.688 -0.533,-1.116 -2.22,-2.958 -3.593,-2.773 -0.989,0.134 -1.538,1.123 -1.315,2.054 0.228,0.952 1.203,1.659 2.05,2.028 z"
   id="path6" />&#10;			<path
   style="fill:#263238"
   d="m 181.034,430.966 c 1.031,0.15 3.201,-0.479 3.373,-0.53 0.343,1.214 0.793,2.433 1.316,3.641 0.298,0.691 0.62,1.378 0.952,2.062 -0.198,-0.29 -0.377,-0.548 -0.406,-0.581 -0.809,-0.935 -2.923,-2.267 -4.197,-1.725 -0.919,0.39 -1.187,1.489 -0.726,2.328 0.471,0.857 1.599,1.28 2.512,1.414 0.927,0.135 2.788,-0.364 3.279,-0.503 0.13,0.261 0.257,0.524 0.388,0.784 0.628,1.251 1.26,2.496 1.843,3.737 0.206,0.437 0.392,0.875 0.58,1.313 -0.176,-0.257 -0.327,-0.473 -0.353,-0.503 -0.809,-0.935 -2.922,-2.267 -4.197,-1.725 -0.919,0.39 -1.188,1.489 -0.726,2.328 0.471,0.857 1.598,1.281 2.512,1.414 0.885,0.129 2.606,-0.316 3.19,-0.478 0.179,0.454 0.359,0.908 0.512,1.356 0.098,0.308 0.213,0.598 0.294,0.913 0.087,0.31 0.172,0.617 0.257,0.922 0.142,0.591 0.292,1.201 0.416,1.782 0.089,0.403 0.167,0.789 0.246,1.178 -0.2,-0.438 -0.608,-1.286 -0.651,-1.353 -0.658,-1.047 -2.545,-2.683 -3.887,-2.341 -0.967,0.247 -1.399,1.293 -1.07,2.192 0.336,0.918 1.386,1.508 2.269,1.778 0.973,0.297 3.126,0.026 3.395,-0.01 0.129,0.643 0.248,1.27 0.352,1.864 0.055,0.314 0.103,0.609 0.152,0.906 h 0.856 c -0.063,-0.342 -0.129,-0.691 -0.202,-1.057 -0.128,-0.654 -0.279,-1.35 -0.44,-2.063 0.162,-0.064 1.08,-0.436 1.894,-0.891 0.709,0.768 2.525,1.666 2.76,1.78 -0.247,0.608 -0.493,1.197 -0.735,1.749 -0.073,0.167 -0.143,0.323 -0.214,0.482 h 0.902 c 0.023,-0.054 0.045,-0.106 0.068,-0.162 0.254,-0.616 0.512,-1.28 0.772,-1.964 0.26,0.055 2.392,0.487 3.385,0.263 0.901,-0.204 1.992,-0.714 2.396,-1.604 0.395,-0.872 0.041,-1.947 -0.905,-2.265 -1.313,-0.441 -3.317,1.05 -4.051,2.045 -0.043,0.059 -0.442,0.748 -0.686,1.187 0.104,-0.28 0.209,-0.551 0.313,-0.84 0.21,-0.571 0.402,-1.147 0.611,-1.766 0.09,-0.303 0.182,-0.608 0.274,-0.917 0.098,-0.304 0.163,-0.638 0.247,-0.959 0.179,-0.75 0.323,-1.518 0.451,-2.295 0.5,0.182 2.287,0.804 3.213,0.738 0.921,-0.065 2.077,-0.403 2.611,-1.223 0.523,-0.802 0.336,-1.919 -0.551,-2.376 -1.231,-0.635 -3.438,0.536 -4.314,1.408 -0.055,0.054 -0.613,0.751 -0.913,1.14 0.074,-0.468 0.149,-0.934 0.208,-1.41 0.17,-1.373 0.3,-2.768 0.436,-4.16 0.041,-0.426 0.088,-0.85 0.132,-1.275 0.177,0.067 2.285,0.852 3.322,0.779 0.921,-0.065 2.077,-0.403 2.611,-1.223 0.523,-0.802 0.336,-1.919 -0.551,-2.376 -1.231,-0.635 -3.437,0.535 -4.314,1.408 -0.066,0.066 -0.868,1.069 -1.06,1.335 0.099,-0.936 0.206,-1.867 0.349,-2.781 0.195,-1.261 0.457,-2.488 0.798,-3.658 0.082,0.031 2.279,0.86 3.341,0.786 0.921,-0.065 2.077,-0.403 2.611,-1.223 0.522,-0.802 0.336,-1.919 -0.551,-2.376 -1.231,-0.635 -3.437,0.536 -4.314,1.408 -0.069,0.069 -0.931,1.149 -1.074,1.356 0.021,-0.069 0.034,-0.144 0.055,-0.213 0.38,-1.244 0.905,-2.401 1.449,-3.461 0.315,-0.616 0.651,-1.188 0.99,-1.737 0.393,0.196 2.2,1.074 3.163,1.112 0.923,0.037 2.109,-0.173 2.729,-0.928 0.607,-0.74 0.545,-1.87 -0.286,-2.422 -1.154,-0.766 -3.476,0.155 -4.443,0.925 -0.053,0.042 -0.54,0.527 -0.89,0.886 0.157,-0.245 0.314,-0.501 0.469,-0.733 0.579,-0.872 1.164,-1.636 1.687,-2.308 0.3,-0.38 0.579,-0.717 0.844,-1.03 0.486,-0.008 2.446,-0.068 3.303,-0.47 0.836,-0.393 1.792,-1.125 1.994,-2.082 0.198,-0.937 -0.378,-1.911 -1.37,-2.018 -1.377,-0.148 -3.013,1.739 -3.516,2.868 -0.043,0.098 -0.548,1.703 -0.522,1.703 0,0 0.024,0 0.029,0 -0.261,0.296 -0.537,0.616 -0.831,0.972 -0.539,0.662 -1.141,1.414 -1.742,2.277 -0.602,0.861 -1.233,1.814 -1.806,2.877 -0.576,1.065 -1.128,2.215 -1.543,3.473 -0.005,0.014 -0.008,0.03 -0.013,0.044 0.007,-0.406 -0.011,-1.541 -0.022,-1.628 -0.159,-1.226 -1.187,-3.503 -2.549,-3.755 -0.981,-0.181 -1.812,0.587 -1.89,1.542 -0.08,0.975 0.627,1.95 1.316,2.565 0.777,0.694 2.934,1.366 3.105,1.419 -0.385,1.202 -0.681,2.466 -0.911,3.762 -0.132,0.741 -0.242,1.491 -0.343,2.245 -0.005,-0.351 -0.012,-0.665 -0.018,-0.709 -0.159,-1.227 -1.187,-3.503 -2.549,-3.755 -0.981,-0.182 -1.812,0.587 -1.89,1.541 -0.08,0.974 0.627,1.95 1.315,2.565 0.699,0.624 2.526,1.234 3.012,1.389 -0.036,0.289 -0.074,0.578 -0.109,0.868 -0.166,1.39 -0.326,2.777 -0.524,4.134 -0.07,0.478 -0.156,0.946 -0.24,1.415 -0.005,-0.311 -0.012,-0.574 -0.017,-0.614 -0.159,-1.227 -1.187,-3.503 -2.549,-3.755 -0.981,-0.181 -1.813,0.587 -1.891,1.542 -0.08,0.974 0.627,1.95 1.316,2.565 0.667,0.596 2.348,1.174 2.925,1.361 -0.101,0.478 -0.201,0.956 -0.321,1.414 -0.089,0.311 -0.152,0.616 -0.259,0.924 -0.099,0.306 -0.197,0.61 -0.294,0.91 -0.208,0.572 -0.419,1.163 -0.636,1.716 -0.148,0.386 -0.296,0.75 -0.444,1.118 0.075,-0.475 0.202,-1.408 0.204,-1.487 0.019,-0.821 -0.273,-2.157 -0.854,-3.096 0.004,-0.121 -0.003,-0.242 -0.023,-0.362 -0.152,-0.945 -1.04,-1.647 -2.004,-1.39 -1.338,0.356 -2.187,2.706 -2.25,3.94 -0.004,0.073 0.044,0.868 0.082,1.369 -0.068,-0.291 -0.129,-0.575 -0.202,-0.873 -0.14,-0.592 -0.298,-1.178 -0.465,-1.81 -0.091,-0.302 -0.184,-0.607 -0.277,-0.916 -0.086,-0.307 -0.216,-0.622 -0.323,-0.936 -0.265,-0.724 -0.568,-1.444 -0.89,-2.163 0.518,-0.124 2.351,-0.591 3.087,-1.156 0.733,-0.562 1.51,-1.482 1.503,-2.46 -0.007,-0.958 -0.778,-1.786 -1.77,-1.678 -1.377,0.15 -2.572,2.343 -2.822,3.554 -0.015,0.076 -0.097,0.965 -0.133,1.454 -0.197,-0.431 -0.391,-0.862 -0.604,-1.291 -0.615,-1.24 -1.277,-2.475 -1.931,-3.71 -0.201,-0.378 -0.396,-0.757 -0.593,-1.136 0.185,-0.042 2.376,-0.551 3.201,-1.183 0.733,-0.562 1.51,-1.482 1.503,-2.46 -0.007,-0.957 -0.778,-1.786 -1.77,-1.678 -1.377,0.149 -2.572,2.343 -2.822,3.554 -0.019,0.091 -0.134,1.371 -0.148,1.698 -0.434,-0.835 -0.858,-1.671 -1.243,-2.512 -0.533,-1.16 -0.991,-2.327 -1.352,-3.491 0.086,-0.02 2.375,-0.54 3.22,-1.188 0.733,-0.562 1.51,-1.482 1.503,-2.46 -0.007,-0.957 -0.778,-1.786 -1.77,-1.678 -1.377,0.15 -2.572,2.343 -2.822,3.554 -0.02,0.095 -0.143,1.472 -0.148,1.723 -0.021,-0.069 -0.051,-0.138 -0.072,-0.208 -0.369,-1.248 -0.57,-2.502 -0.701,-3.686 -0.077,-0.688 -0.113,-1.349 -0.133,-1.994 0.436,-0.053 2.428,-0.318 3.252,-0.818 0.79,-0.478 1.664,-1.307 1.764,-2.28 0.098,-0.952 -0.577,-1.861 -1.575,-1.862 -1.385,-0.003 -2.814,2.046 -3.195,3.223 -0.021,0.064 -0.16,0.738 -0.254,1.23 -0.005,-0.291 -0.015,-0.591 -0.013,-0.87 0.002,-1.047 0.068,-2.006 0.134,-2.855 0.041,-0.483 0.088,-0.918 0.136,-1.325 0.401,-0.276 2.002,-1.406 2.495,-2.214 0.481,-0.789 0.874,-1.927 0.515,-2.836 -0.352,-0.891 -1.37,-1.385 -2.256,-0.927 -1.23,0.636 -1.554,3.113 -1.351,4.333 0.018,0.105 0.482,1.722 0.504,1.708 0,0 0.02,-0.013 0.024,-0.017 -0.054,0.39 -0.108,0.81 -0.157,1.269 -0.084,0.849 -0.172,1.809 -0.196,2.861 -0.027,1.051 -0.028,2.193 0.081,3.396 0.107,1.206 0.281,2.469 0.629,3.747 0.004,0.014 0.01,0.029 0.014,0.043 -0.218,-0.342 -0.859,-1.279 -0.917,-1.345 -0.809,-0.935 -2.922,-2.267 -4.197,-1.725 -0.918,0.39 -1.188,1.49 -0.726,2.329 0.473,0.857 1.6,1.281 2.514,1.414 z"
   id="path7" />&#10;			<path
   style="fill:#263238"
   d="m 204.784,424.459 c 0.021,0.013 0.442,-1.616 0.457,-1.721 0.17,-1.225 -0.22,-3.692 -1.467,-4.294 -0.898,-0.434 -1.903,0.088 -2.23,0.988 -0.334,0.919 0.089,2.046 0.592,2.821 0.588,0.91 2.646,2.205 2.648,2.206 z"
   id="path8" />&#10;		</g>&#10;	</g>&#10;</g><g
         id="Clouds">&#10;	<g
   id="g12">&#10;		<path
   style="fill:none;stroke:#263238;stroke-linecap:round;stroke-linejoin:round;stroke-miterlimit:10"
   d="m 224.317,58.275 c -6.054,3.539 -8.338,10.393 -9.434,13.679 -1.514,4.543 -6.815,-3.029 -17.415,0.757 -10.6,3.786 -12.115,12.115 -14.386,14.386 -2.271,2.271 -17.415,8.329 -17.415,8.329 h 151.954"
   id="path9" />&#10;		<path
   style="fill:none;stroke:#263238;stroke-linecap:round;stroke-linejoin:round;stroke-miterlimit:10"
   d="m 325.193,95.427 h 18.41 c 0,0 3.029,-16.658 -3.786,-24.987 -6.815,-8.329 -21.958,3.786 -26.501,-8.329 0,0 -13.629,-19.686 -30.287,-21.201 -16.658,-1.514 -23.472,11.358 -28.773,18.172 -5.3,6.815 -8.329,-3.029 -21.201,-3.029"
   id="path10" />&#10;		<path
   style="fill:none;stroke:#263238;stroke-linecap:round;stroke-linejoin:round;stroke-miterlimit:10"
   d="m 252.47,81.904 c -3.088,2.875 -3.514,6.708 -3.514,6.708"
   id="path11" />&#10;		<path
   style="fill:none;stroke:#263238;stroke-linecap:round;stroke-linejoin:round;stroke-miterlimit:10"
   d="m 310.287,68.926 c 0,0 -10.6,-10.6 -22.715,-9.843 C 275.457,59.84 280,74.226 274.7,78.769 c -5.3,4.543 -11.357,-1.514 -18.172,0.757"
   id="path12" />&#10;	</g>&#10;	<g
   id="g16">&#10;		<path
   style="fill:none;stroke:#263238;stroke-linecap:round;stroke-linejoin:round;stroke-miterlimit:10"
   d="m 72.437,105.565 c -3.955,2.312 -5.447,6.79 -6.163,8.937 -0.989,2.968 -4.452,-1.979 -11.378,0.495 -6.926,2.473 -7.915,7.915 -9.399,9.399 -1.484,1.484 -11.378,5.442 -11.378,5.442 h 99.276"
   id="path13" />&#10;		<path
   style="fill:none;stroke:#263238;stroke-linecap:round;stroke-linejoin:round;stroke-miterlimit:10"
   d="m 138.342,129.837 h 12.028 c 0,0 1.979,-10.883 -2.473,-16.325 -4.452,-5.442 -14.346,2.473 -17.314,-5.441 0,0 -8.904,-12.862 -19.787,-13.851 -10.883,-0.989 -15.335,7.42 -18.798,11.872 -3.463,4.452 -5.441,-1.979 -13.851,-1.979"
   id="path14" />&#10;		<path
   style="fill:none;stroke:#263238;stroke-linecap:round;stroke-linejoin:round;stroke-miterlimit:10"
   d="m 90.83,121.003 c -2.017,1.878 -2.296,4.383 -2.296,4.383"
   id="path15" />&#10;		<path
   style="fill:none;stroke:#263238;stroke-linecap:round;stroke-linejoin:round;stroke-miterlimit:10"
   d="m 128.604,112.524 c 0,0 -6.926,-6.926 -14.84,-6.431 -7.915,0.495 -4.947,9.894 -8.41,12.862 -3.463,2.968 -7.42,-0.989 -11.872,0.495"
   id="path16" />&#10;	</g>&#10;	<g
   id="g20">&#10;		<path
   style="fill:none;stroke:#263238;stroke-linecap:round;stroke-linejoin:round;stroke-miterlimit:10"
   d="m 274.58,145.419 c -2.758,1.612 -3.799,4.735 -4.298,6.232 -0.69,2.07 -3.105,-1.38 -7.934,0.345 -4.829,1.725 -5.519,5.519 -6.554,6.554 -1.035,1.035 -7.934,3.795 -7.934,3.795 h 69.23"
   id="path17" />&#10;		<path
   style="fill:none;stroke:#263238;stroke-linecap:round;stroke-linejoin:round;stroke-miterlimit:10"
   d="m 320.538,162.345 h 8.387 c 0,0 1.38,-7.589 -1.725,-11.384 -3.105,-3.795 -10.004,1.725 -12.074,-3.795 0,0 -6.209,-8.969 -13.798,-9.659 -7.589,-0.69 -10.694,5.174 -13.109,8.279 -2.415,3.105 -3.795,-1.38 -9.659,-1.38"
   id="path18" />&#10;		<path
   style="fill:none;stroke:#263238;stroke-linecap:round;stroke-linejoin:round;stroke-miterlimit:10"
   d="m 287.406,156.184 c -1.407,1.31 -1.601,3.056 -1.601,3.056"
   id="path19" />&#10;		<path
   style="fill:none;stroke:#263238;stroke-linecap:round;stroke-linejoin:round;stroke-miterlimit:10"
   d="m 313.747,150.271 c 0,0 -4.829,-4.829 -10.349,-4.485 -5.52,0.345 -3.45,6.899 -5.864,8.969 -2.415,2.07 -5.174,-0.69 -8.279,0.345"
   id="path20" />&#10;	</g>&#10;</g><g
         id="Text_1_">&#10;	<g
   id="g23">&#10;		<path
   style="fill:#263238;stroke:#263238;stroke-linecap:round;stroke-linejoin:round;stroke-miterlimit:10"
   d="M 103.594,362.904 V 321.198 H 52.876 v -24.73 L 97.097,193.146 h 33.742 v 104.999 h 17.395 v 23.053 h -17.395 v 41.706 z M 77.187,298.145 h 26.407 v -73.771 z"
   id="path21" />&#10;		<path
   style="fill:#263238;stroke:#263238;stroke-linecap:round;stroke-linejoin:round;stroke-miterlimit:10"
   d="m 207.753,365.419 c -9.922,0 -18.128,-2.096 -24.625,-6.287 -6.497,-4.192 -11.389,-9.988 -14.67,-17.395 -3.285,-7.404 -4.925,-15.928 -4.925,-25.568 V 240.93 c 0,-9.919 1.572,-18.617 4.715,-26.092 3.144,-7.473 7.964,-13.308 14.461,-17.5 6.497,-4.192 14.844,-6.287 25.044,-6.287 10.197,0 18.548,2.095 25.044,6.287 6.497,4.192 11.318,10.027 14.461,17.5 3.144,7.475 4.716,16.173 4.716,26.092 v 75.238 c 0,9.64 -1.644,18.165 -4.925,25.568 -3.285,7.408 -8.173,13.203 -14.671,17.395 -6.496,4.192 -14.705,6.288 -24.625,6.288 z m 0,-24.939 c 4.329,0 7.545,-1.327 9.641,-3.982 2.095,-2.653 3.49,-5.869 4.191,-9.641 0.698,-3.772 1.048,-7.473 1.048,-11.108 v -74.4 c 0,-3.91 -0.314,-7.787 -0.943,-11.631 -0.629,-3.841 -1.991,-7.09 -4.087,-9.746 -2.096,-2.652 -5.38,-3.982 -9.85,-3.982 -4.473,0 -7.754,1.33 -9.85,3.982 -2.095,2.656 -3.458,5.905 -4.087,9.746 -0.629,3.844 -0.943,7.721 -0.943,11.631 v 74.4 c 0,3.635 0.383,7.336 1.153,11.108 0.767,3.772 2.201,6.988 4.296,9.641 2.096,2.654 5.24,3.982 9.431,3.982 z"
   id="path22" />&#10;		<path
   style="fill:#263238;stroke:#263238;stroke-linecap:round;stroke-linejoin:round;stroke-miterlimit:10"
   d="m 321.135,362.904 v -41.706 h -50.718 v -24.73 l 44.221,-103.322 h 33.741 v 104.999 h 17.395 v 23.053 h -17.395 v 41.706 z m -26.408,-64.759 h 26.408 v -73.771 z"
   id="path23" />&#10;	</g>&#10;	<g
   id="g26">&#10;		<path
   style="fill:#ffffff;stroke:#263238;stroke-linecap:round;stroke-linejoin:round;stroke-miterlimit:10"
   d="M 116.231,362.904 V 321.198 H 65.513 v -24.73 l 44.221,-103.322 h 33.742 v 104.999 h 17.395 v 23.053 h -17.395 v 41.706 z M 89.824,298.145 h 26.407 v -73.771 z"
   id="path24" />&#10;		<path
   style="fill:#ffffff;stroke:#263238;stroke-linecap:round;stroke-linejoin:round;stroke-miterlimit:10"
   d="m 220.39,365.419 c -9.922,0 -18.128,-2.096 -24.625,-6.287 -6.497,-4.192 -11.389,-9.988 -14.67,-17.395 -3.285,-7.404 -4.925,-15.928 -4.925,-25.568 V 240.93 c 0,-9.919 1.572,-18.617 4.716,-26.092 3.144,-7.473 7.964,-13.308 14.461,-17.5 6.497,-4.192 14.844,-6.287 25.044,-6.287 10.198,0 18.548,2.095 25.045,6.287 6.497,4.192 11.318,10.027 14.461,17.5 3.144,7.475 4.716,16.173 4.716,26.092 v 75.238 c 0,9.64 -1.644,18.165 -4.925,25.568 -3.284,7.408 -8.173,13.203 -14.671,17.395 -6.498,4.192 -14.708,6.288 -24.627,6.288 z m 0,-24.939 c 4.329,0 7.545,-1.327 9.641,-3.982 2.096,-2.653 3.49,-5.869 4.191,-9.641 0.698,-3.772 1.048,-7.473 1.048,-11.108 v -74.4 c 0,-3.91 -0.314,-7.787 -0.943,-11.631 -0.629,-3.841 -1.991,-7.09 -4.087,-9.746 -2.096,-2.652 -5.38,-3.982 -9.85,-3.982 -4.473,0 -7.754,1.33 -9.85,3.982 -2.096,2.656 -3.458,5.905 -4.087,9.746 -0.629,3.844 -0.943,7.721 -0.943,11.631 v 74.4 c 0,3.635 0.383,7.336 1.153,11.108 0.766,3.772 2.201,6.988 4.296,9.641 2.096,2.654 5.24,3.982 9.431,3.982 z"
   id="path25" />&#10;		<path
   style="fill:#ffffff;stroke:#263238;stroke-linecap:round;stroke-linejoin:round;stroke-miterlimit:10"
   d="m 333.771,362.904 v -41.706 h -50.718 v -24.73 l 44.221,-103.322 h 33.741 v 104.999 h 17.395 v 23.053 h -17.395 v 41.706 z m -26.408,-64.759 h 26.408 v -73.771 z"
   id="path26" />&#10;	</g>&#10;	<g
   id="g31">&#10;		<path
   style="fill:#263238"
   d="m 108.52,184.942 c -2.355,0 -4.23,-0.438 -5.627,-1.314 -1.396,-0.876 -2.396,-2.136 -2.998,-3.778 -0.602,-1.643 -0.903,-3.587 -0.903,-5.832 v -12.444 c 0,-2.245 0.301,-4.169 0.903,-5.77 0.602,-1.602 1.602,-2.827 2.998,-3.676 1.397,-0.848 3.271,-1.273 5.627,-1.273 2.409,0 4.305,0.425 5.688,1.273 1.382,0.849 2.382,2.074 2.998,3.676 0.616,1.602 0.924,3.526 0.924,5.77 v 12.486 c 0,2.218 -0.308,4.142 -0.924,5.77 -0.616,1.63 -1.616,2.889 -2.998,3.779 -1.383,0.888 -3.279,1.333 -5.688,1.333 z m 0,-4.477 c 1.013,0 1.759,-0.219 2.239,-0.657 0.479,-0.438 0.801,-1.04 0.965,-1.807 0.164,-0.766 0.246,-1.602 0.246,-2.505 v -15.32 c 0,-0.93 -0.082,-1.766 -0.246,-2.505 -0.164,-0.739 -0.486,-1.32 -0.965,-1.745 -0.479,-0.424 -1.226,-0.637 -2.239,-0.637 -0.959,0 -1.684,0.212 -2.177,0.637 -0.493,0.425 -0.821,1.006 -0.986,1.745 -0.165,0.739 -0.246,1.575 -0.246,2.505 v 15.32 c 0,0.904 0.075,1.739 0.226,2.505 0.15,0.767 0.472,1.369 0.965,1.807 0.493,0.438 1.232,0.657 2.218,0.657 z"
   id="path27" />&#10;		<path
   style="fill:#263238"
   d="m 131.642,184.942 c -2.355,0 -4.23,-0.438 -5.627,-1.314 -1.396,-0.876 -2.396,-2.136 -2.998,-3.778 -0.602,-1.643 -0.903,-3.587 -0.903,-5.832 v -12.444 c 0,-2.245 0.301,-4.169 0.903,-5.77 0.602,-1.602 1.602,-2.827 2.998,-3.676 1.396,-0.848 3.271,-1.273 5.627,-1.273 2.409,0 4.305,0.425 5.689,1.273 1.382,0.849 2.382,2.074 2.998,3.676 0.616,1.602 0.924,3.526 0.924,5.77 v 12.486 c 0,2.218 -0.308,4.142 -0.924,5.77 -0.616,1.63 -1.616,2.889 -2.998,3.779 -1.384,0.888 -3.28,1.333 -5.689,1.333 z m 0,-4.477 c 1.013,0 1.759,-0.219 2.239,-0.657 0.479,-0.438 0.801,-1.04 0.965,-1.807 0.164,-0.766 0.246,-1.602 0.246,-2.505 v -15.32 c 0,-0.93 -0.082,-1.766 -0.246,-2.505 -0.164,-0.739 -0.486,-1.32 -0.965,-1.745 -0.48,-0.424 -1.226,-0.637 -2.239,-0.637 -0.959,0 -1.684,0.212 -2.177,0.637 -0.493,0.425 -0.821,1.006 -0.986,1.745 -0.164,0.739 -0.247,1.575 -0.247,2.505 v 15.32 c 0,0.904 0.075,1.739 0.226,2.505 0.15,0.767 0.472,1.369 0.965,1.807 0.494,0.438 1.233,0.657 2.219,0.657 z"
   id="path28" />&#10;		<path
   style="fill:#263238"
   d="m 145.729,184.49 v -33.267 h 9.775 c 1.999,0 3.621,0.37 4.867,1.109 1.246,0.739 2.163,1.814 2.752,3.224 0.589,1.411 0.883,3.115 0.883,5.113 0,2.163 -0.37,3.909 -1.109,5.236 -0.739,1.329 -1.773,2.293 -3.101,2.895 -1.328,0.603 -2.895,0.904 -4.702,0.904 h -3.286 v 14.785 h -6.079 z m 6.078,-19.056 h 2.3 c 1.095,0 1.951,-0.157 2.567,-0.472 0.616,-0.314 1.04,-0.821 1.273,-1.52 0.232,-0.698 0.349,-1.636 0.349,-2.813 0,-1.204 -0.089,-2.183 -0.267,-2.936 -0.178,-0.753 -0.561,-1.307 -1.15,-1.663 -0.589,-0.356 -1.513,-0.534 -2.772,-0.534 h -2.3 z"
   id="path29" />&#10;		<path
   style="fill:#263238"
   d="m 175.587,184.942 c -1.999,0 -3.67,-0.39 -5.011,-1.171 -1.342,-0.78 -2.355,-1.923 -3.039,-3.429 -0.685,-1.506 -1.068,-3.354 -1.15,-5.544 l 5.216,-1.027 c 0.055,1.287 0.212,2.423 0.472,3.409 0.26,0.986 0.657,1.746 1.191,2.279 0.534,0.534 1.238,0.801 2.115,0.801 0.986,0 1.684,-0.294 2.095,-0.883 0.411,-0.589 0.616,-1.335 0.616,-2.238 0,-1.451 -0.328,-2.642 -0.986,-3.573 -0.657,-0.931 -1.533,-1.862 -2.628,-2.793 l -4.189,-3.696 c -1.178,-1.012 -2.115,-2.142 -2.814,-3.388 -0.698,-1.246 -1.047,-2.786 -1.047,-4.62 0,-2.629 0.766,-4.654 2.3,-6.078 1.533,-1.423 3.628,-2.136 6.284,-2.136 1.561,0 2.861,0.24 3.902,0.719 1.04,0.48 1.869,1.144 2.485,1.992 0.616,0.849 1.074,1.814 1.376,2.895 0.301,1.082 0.493,2.225 0.575,3.429 l -5.175,0.904 c -0.055,-1.04 -0.171,-1.971 -0.349,-2.793 -0.178,-0.822 -0.493,-1.464 -0.945,-1.931 -0.452,-0.465 -1.116,-0.698 -1.992,-0.698 -0.903,0 -1.595,0.295 -2.074,0.883 -0.479,0.589 -0.719,1.322 -0.719,2.197 0,1.123 0.232,2.047 0.698,2.772 0.465,0.726 1.136,1.472 2.012,2.239 l 4.148,3.655 c 1.369,1.15 2.54,2.499 3.512,4.046 0.972,1.547 1.458,3.416 1.458,5.606 0,1.588 -0.349,2.998 -1.047,4.23 -0.698,1.232 -1.67,2.197 -2.916,2.896 -1.246,0.697 -2.704,1.046 -4.374,1.046 z"
   id="path30" />&#10;		<path
   style="fill:#263238"
   d="m 186.635,184.49 v -5.421 h 5.421 v 5.421 z m 1.725,-7.803 -1.684,-25.423 h 5.585 l -1.971,25.423 z"
   id="path31" />&#10;	</g>&#10;</g><g
         id="Suitcase">&#10;	<g
   id="g34">&#10;		<path
   style="fill:#263238;stroke:#263238;stroke-linecap:round;stroke-linejoin:round;stroke-miterlimit:10"
   d="m 336.19,383.5 v 7.15 h 3.725 v -4.194 c 0,-1.839 1.491,-3.33 3.33,-3.33 h 12.224 c 1.839,0 3.33,1.491 3.33,3.33 v 4.194 h 3.725 v -7.15 c 0,-1.839 -1.491,-3.33 -3.33,-3.33 H 339.52 c -1.839,0 -3.33,1.491 -3.33,3.33 z"
   id="path32" />&#10;		<path
   style="fill:#263238;stroke:#263238;stroke-linecap:round;stroke-linejoin:round;stroke-miterlimit:10"
   d="m 375.457,388.702 h -70.539 c -2.597,0 -4.702,2.105 -4.702,4.702 V 450.1 c 0,1.672 1.355,3.027 3.027,3.027 h 73.89 c 1.672,0 3.027,-1.355 3.027,-3.027 v -56.696 c -0.001,-2.596 -2.106,-4.702 -4.703,-4.702 z"
   id="path33" />&#10;		<path
   style="fill:#8a8a8a;stroke:#263238;stroke-linecap:round;stroke-linejoin:round;stroke-miterlimit:10"
   d="m 385.233,388.702 h -70.539 c -2.597,0 -4.702,2.105 -4.702,4.702 V 450.1 c 0,1.672 1.355,3.027 3.027,3.027 h 73.89 c 1.672,0 3.027,-1.355 3.027,-3.027 v -56.696 c -10e-4,-2.596 -2.106,-4.702 -4.703,-4.702 z"
   id="path34" />&#10;	</g>&#10;</g><g
         id="Character">&#10;	<g
   id="g81">&#10;		<g
   id="g40">&#10;			<path
   style="fill:#263238;stroke:#263238;stroke-linecap:round;stroke-linejoin:round;stroke-miterlimit:10"
   d="m 410.001,262.16 c 0,0 -20.105,60.397 -21.843,71.33 -1.737,10.933 -0.62,24.508 0.425,31.376 1.045,6.867 11.75,66.18 11.75,66.18 0,0 -2.65,-0.894 -2.844,1.023 -0.194,1.917 0.474,10.028 0.474,10.028 0,0 -2.777,3.89 -10.088,8.124 -7.311,4.235 -10.866,5.513 -8.683,6.896 2.184,1.383 11.518,1.881 15.329,1.314 3.811,-0.567 14.062,-1.764 15.728,-2.042 1.667,-0.278 6.712,0.799 8.317,-2.107 1.605,-2.906 0.443,-11.723 0.848,-14.84 0.405,-3.117 -1.863,-8.083 -1.879,-8.8 -0.017,-0.717 -2.02,-67.755 -2.02,-67.755 l 1.267,-16.649 c 0,0 -0.373,15.856 1.451,17.624 1.824,1.768 20.842,67.948 20.842,67.948 l -1.844,2.912 2.301,6.4 -1.816,4.106 c 0,0 -8.655,8.091 -12.193,10.086 -3.539,1.995 -7.111,2.557 -5.161,4.184 1.95,1.628 21.051,0.702 21.051,0.702 l 19.984,-4.054 c 0,0 3.027,-3.417 2.482,-6.273 -0.545,-2.856 -3.175,-13.072 -3.175,-13.072 0,0 0.642,-13.401 -0.086,-13.862 -0.728,-0.461 -4.429,-5.394 -4.713,-7.3 -0.284,-1.906 -2.362,-39.339 -4.558,-45.633 -2.197,-6.293 -4.925,-16.139 -4.925,-16.139 0,0 1.549,-1.566 1.65,-3.253 0.101,-1.687 -0.392,-4.763 -0.392,-4.763 0,0 20.866,-54.3 21.822,-57.407 0.956,-3.107 5.257,-19.834 5.257,-26.525 0,-6.691 -0.478,-11.709 -0.478,-11.709 0,0 -16.25,7.408 -32.738,8.125 -16.489,0.717 -31.066,-0.239 -31.066,-0.239 z"
   id="path35" />&#10;			<g
   id="g39">&#10;				<path
   style="fill:none;stroke:#ffffff;stroke-linecap:round;stroke-linejoin:round;stroke-miterlimit:10"
   d="m 459.945,264.311 c 0,0 0,16.25 8.125,19.356"
   id="path36" />&#10;				<path
   style="fill:none;stroke:#ffffff;stroke-linecap:round;stroke-linejoin:round;stroke-miterlimit:10"
   d="m 471.655,259.532 c 0,0 0.478,10.992 -1.673,20.79"
   id="path37" />&#10;				<path
   style="fill:none;stroke:#ffffff;stroke-linecap:round;stroke-linejoin:round;stroke-miterlimit:10"
   d="m 456.071,309.339 c -2.226,4.739 -3.931,8.418 -4.012,8.739"
   id="path38" />&#10;				<path
   style="fill:none;stroke:#ffffff;stroke-linecap:round;stroke-linejoin:round;stroke-miterlimit:10"
   d="m 466.875,286.535 c 0,0 -5.213,10.938 -9.455,19.937"
   id="path39" />&#10;				<polyline
   style="fill:none;stroke:#ffffff;stroke-linecap:round;stroke-linejoin:round;stroke-miterlimit:10"
   points="      418.864,331.294 427.685,293.465 418.365,285.34     "
   id="polyline39" />&#10;				&#10;					<line
   style="fill:none;stroke:#ffffff;stroke-linecap:round;stroke-linejoin:round;stroke-miterlimit:10"
   x1="416.948"
   y1="339.51199"
   x2="417.86401"
   y2="335.58401"
   id="line39" />&#10;			</g>&#10;		</g>&#10;		<g
   id="g50">&#10;			<path
   style="fill:#92e3a9;stroke:#263238;stroke-linecap:round;stroke-linejoin:round;stroke-miterlimit:10"
   d="m 371.072,175.597 -23.931,10.421 c 0,0 14.281,-29.72 14.86,-31.457 0.579,-1.737 -7.913,-16.404 -7.72,-16.983 0.193,-0.579 7.527,-9.456 7.72,-11.386 0.193,-1.93 4.246,-8.685 1.158,-9.07 -3.088,-0.386 -19.492,14.86 -19.878,18.72 -0.386,3.86 7.334,16.983 8.106,18.141 0.772,1.158 -39.756,44.58 -40.528,51.528 -0.772,6.948 2.509,11.386 8.299,12.158 5.79,0.772 51.335,-14.86 58.283,-16.79 6.948,-1.93 9.263,1.158 9.263,1.158 0,0 21.808,26.439 23.352,29.72 1.544,3.281 0.772,15.439 -0.965,19.106 -1.737,3.667 -3.667,10.035 -2.702,11 0.965,0.965 1.674,2.154 4.568,2.926 2.895,0.772 23.029,3.25 34.416,1.513 11.386,-1.737 24.896,-7.72 27.983,-10.035 3.088,-2.316 3.474,-5.018 3.474,-8.492 0,-3.474 -2.316,-6.562 -3.86,-10.036 -1.544,-3.474 -11.772,-35.317 -16.018,-45.546 -4.246,-10.228 -2.895,-17.948 -18.913,-27.018 -16.018,-9.07 -34.806,-7.168 -34.806,-7.168 z"
   id="path40" />&#10;			<g
   id="g49">&#10;				<g
   id="g44">&#10;					&#10;						<line
   style="fill:none;stroke:#263238;stroke-linecap:round;stroke-linejoin:round;stroke-miterlimit:10"
   x1="346.18201"
   y1="200.573"
   x2="345.983"
   y2="203.58"
   id="line40" />&#10;					<polyline
   style="fill:none;stroke:#263238;stroke-linecap:round;stroke-linejoin:round;stroke-miterlimit:10"
   points="       340.966,205.317 347.141,186.018 346.331,198.303      "
   id="polyline40" />&#10;					<path
   style="fill:none;stroke:#263238;stroke-linecap:round;stroke-linejoin:round;stroke-miterlimit:10"
   d="m 340.387,168.842 c 0,0 0.965,7.334 10.421,7.72"
   id="path41" />&#10;					<path
   style="fill:#ffffff;stroke:#263238;stroke-linecap:round;stroke-linejoin:round;stroke-miterlimit:10"
   d="m 384.581,200.299 c 0,0 -6.948,-4.632 -14.088,-6.948"
   id="path42" />&#10;					<path
   style="fill:none;stroke:#263238;stroke-linecap:round;stroke-linejoin:round;stroke-miterlimit:10"
   d="m 368.387,195.839 c -0.771,-0.13 -1.551,-0.253 -2.333,-0.364"
   id="path43" />&#10;					<path
   style="fill:none;stroke:#263238;stroke-linecap:round;stroke-linejoin:round;stroke-miterlimit:10"
   d="m 382.072,198.948 c 0,0 -4.919,-1.44 -10.974,-2.617"
   id="path44" />&#10;				</g>&#10;				<path
   style="fill:none;stroke:#263238;stroke-linecap:round;stroke-linejoin:round;stroke-miterlimit:10"
   d="m 417.452,238.368 c 0.679,0.559 1.162,0.915 1.288,0.915"
   id="path45" />&#10;				<path
   style="fill:none;stroke:#263238;stroke-linecap:round;stroke-linejoin:round;stroke-miterlimit:10"
   d="m 410.056,231.757 c 0,0 3.404,3.161 5.957,5.385"
   id="path46" />&#10;				&#10;					<line
   style="fill:none;stroke:#263238;stroke-linecap:round;stroke-linejoin:round;stroke-miterlimit:10"
   x1="451.741"
   y1="265.14401"
   x2="468.91699"
   y2="254.336"
   id="line46" />&#10;				<path
   style="fill:none;stroke:#263238;stroke-linecap:round;stroke-linejoin:round;stroke-miterlimit:10"
   d="m 461.525,223.011 c -1.937,7.845 -5.694,21.209 -10.169,27.659"
   id="path47" />&#10;				<path
   style="fill:none;stroke:#263238;stroke-linecap:round;stroke-linejoin:round;stroke-miterlimit:10"
   d="m 462.935,216.896 c 0,0 -0.244,1.184 -0.695,3.13"
   id="path48" />&#10;				<path
   style="fill:none;stroke:#263238;stroke-linecap:round;stroke-linejoin:round;stroke-miterlimit:10"
   d="m 462.935,227.125 c 0,0 -3.667,16.018 -6.562,20.457"
   id="path49" />&#10;			</g>&#10;		</g>&#10;		<g
   id="g52">&#10;			<path
   style="fill:#ffffff;stroke:#263238;stroke-linecap:round;stroke-linejoin:round;stroke-miterlimit:10"
   d="m 357.196,164.958 c 2.526,-5.335 4.593,-9.759 4.805,-10.398 0.579,-1.737 -7.913,-16.404 -7.72,-16.983 0.193,-0.579 7.527,-9.456 7.72,-11.386 0.193,-1.93 4.246,-8.685 1.158,-9.07 -3.088,-0.386 -19.492,14.86 -19.878,18.72 -0.386,3.86 7.334,16.983 8.106,18.141 0.163,0.245 -1.522,2.381 -4.282,5.657 1.074,2.619 3.699,5.94 10.091,5.319 z"
   id="path50" />&#10;			<path
   style="fill:none;stroke:#263238;stroke-linecap:round;stroke-linejoin:round;stroke-miterlimit:10"
   d="m 353.835,127.237 c 0,0 -4.837,9.372 -4.659,10.084"
   id="path51" />&#10;			<path
   style="fill:none;stroke:#263238;stroke-linecap:round;stroke-linejoin:round;stroke-miterlimit:10"
   d="m 350.243,127.354 c 0,0 -5.518,7.832 -5.162,9.078"
   id="path52" />&#10;		</g>&#10;		<g
   id="g60">&#10;			<polygon
   style="fill:#8a8a8a;stroke:#263238;stroke-linecap:round;stroke-linejoin:round;stroke-miterlimit:10"
   points="403.687,191.615 401.95,202.615 397.318,202.422 391.915,194.317 391.722,197.404 399.441,213.037 403.108,213.23 406.196,195.667 "
   id="polygon52" />&#10;			<polygon
   style="fill:#8a8a8a;stroke:#263238;stroke-linecap:round;stroke-linejoin:round;stroke-miterlimit:10"
   points="403.108,213.23 399.441,213.037 393.044,259.625 400.442,275.187 408.368,259.017 "
   id="polygon53" />&#10;			<g
   id="g55">&#10;				<polygon
   style="fill:#263238"
   points="401.95,202.615 397.318,202.422 397.155,202.177 394.814,203.667 398.294,210.712 404.213,206.944 406.047,196.516 402.563,198.734 "
   id="polygon54" />&#10;				<polygon
   style="fill:#263238"
   points="403.117,213.177 403.041,213.226 403.108,213.23 "
   id="polygon55" />&#10;			</g>&#10;			<g
   id="g59">&#10;				<polygon
   style="fill:#263238"
   points="404.687,226.975 396.842,231.969 395.448,242.116 405.678,235.604 "
   id="polygon56" />&#10;				<polygon
   style="fill:#263238"
   points="397.675,225.903 404.094,221.816 403.108,213.23 403.041,213.226 399.068,215.755 "
   id="polygon57" />&#10;				<polygon
   style="fill:#263238"
   points="406.271,240.762 394.615,248.183 393.222,258.33 407.262,249.392 "
   id="polygon58" />&#10;				<polygon
   style="fill:#263238"
   points="398.013,270.077 405.185,265.51 408.368,259.017 407.855,254.55 394.633,262.967 "
   id="polygon59" />&#10;			</g>&#10;		</g>&#10;		<path
   style="fill:#92e3a9;stroke:#263238;stroke-linecap:round;stroke-linejoin:round;stroke-miterlimit:10"
   d="m 386.318,179.456 c 0,0 -1.544,9.456 -1.351,13.702 0.193,4.246 2.316,11.772 2.316,11.772 l 9.457,-10.807 15.825,9.842 c 0,0 -0.579,-20.071 -0.579,-20.65 0,-0.579 -3.667,-22.194 -4.825,-24.317 -1.158,-2.123 -4.246,-3.281 -5.983,-2.895 -1.737,0.388 -14.86,23.353 -14.86,23.353 z"
   id="path60" />&#10;		<g
   id="g71">&#10;			<g
   id="g66">&#10;				<path
   style="fill:#ffffff;stroke:#263238;stroke-linecap:round;stroke-linejoin:round;stroke-miterlimit:10"
   d="m 359.656,126.738 c 0,0 -0.499,14.137 -0.166,19.793 0.333,5.655 -0.499,10.146 0.998,14.803 1.497,4.657 3.16,13.639 4.657,16.632 1.497,2.994 4.657,5.821 9.314,5.821 4.657,0 9.813,-3.825 12.308,-6.32 2.495,-2.495 6.819,-5.988 9.148,-10.478 2.329,-4.491 0.333,-15.801 0.665,-18.961 0.333,-3.16 0.998,-8.649 0.998,-8.649 0,0 3.326,-8.15 0.665,-11.975 -2.661,-3.826 -14.47,-8.15 -23.452,-7.318 -8.981,0.831 -15.135,6.652 -15.135,6.652 z"
   id="path61" />&#10;				<path
   style="fill:none;stroke:#263238;stroke-linecap:round;stroke-linejoin:round;stroke-miterlimit:10"
   d="m 367.473,142.705 1.331,4.99 c 0,0 -3.992,11.643 -2.994,12.308 0.998,0.665 9.148,-0.166 9.148,-0.166"
   id="path62" />&#10;				<path
   style="fill:#263238;stroke:#263238;stroke-linecap:round;stroke-linejoin:round;stroke-miterlimit:10"
   d="m 373.96,137.549 c 0,0 -0.166,1.83 0.499,2.162 0.665,0.333 7.152,2.827 8.15,2.495 0.998,-0.333 -0.333,-1.663 -1.164,-1.996 -0.832,-0.332 -7.818,-4.158 -7.485,-2.661 z"
   id="path63" />&#10;				<path
   style="fill:#263238;stroke:#263238;stroke-linecap:round;stroke-linejoin:round;stroke-miterlimit:10"
   d="m 367.473,140.21 c 0,0 -5.322,2.994 -6.32,3.16 -0.998,0.166 0.665,-1.996 0.665,-1.996 0,0 3.992,-4.491 4.99,-3.826 0.998,0.667 0.665,2.662 0.665,2.662 z"
   id="path64" />&#10;				<path
   style="fill:none;stroke:#263238;stroke-linecap:round;stroke-linejoin:round;stroke-miterlimit:10"
   d="m 375.956,146.863 c 0,0 2.828,2.994 6.653,0.665"
   id="path65" />&#10;				<path
   style="fill:none;stroke:#263238;stroke-linecap:round;stroke-linejoin:round;stroke-miterlimit:10"
   d="m 362.151,148.194 c 0,0 2.661,1.663 5.322,-0.998"
   id="path66" />&#10;			</g>&#10;			<path
   style="fill:#263238;stroke:#263238;stroke-linecap:round;stroke-linejoin:round;stroke-miterlimit:10"
   d="m 396.58,148.028 c 0.302,-2.865 0.875,-7.631 0.98,-8.498 l -3.308,-1.814 c 0,0 0.998,12.308 -0.333,19.127 -1.33,6.819 -3.659,8.981 -6.32,9.979 -2.661,0.998 -3.992,-0.333 -3.992,-0.333 0,0 -6.32,-5.988 -11.975,-6.154 -4.936,-0.145 -8.731,5.284 -9.616,6.667 1.051,4.276 2.127,8.96 3.129,10.963 1.497,2.994 4.657,5.821 9.314,5.821 4.657,0 9.813,-3.825 12.308,-6.32 2.495,-2.495 6.819,-5.988 9.148,-10.478 2.328,-4.49 0.332,-15.8 0.665,-18.96 z"
   id="path67" />&#10;			<path
   style="fill:#ffffff;stroke:#263238;stroke-linecap:round;stroke-linejoin:round;stroke-miterlimit:10"
   d="m 379.615,171.479 c 0,0 -3.493,-4.99 -6.819,-5.821 -3.327,-0.832 -6.819,5.655 -5.655,6.819 1.164,1.164 2.827,-3.16 5.988,-1.829 3.159,1.33 4.989,3.493 6.486,0.831 z"
   id="path68" />&#10;			<path
   style="fill:#263238;stroke:#263238;stroke-linecap:round;stroke-linejoin:round;stroke-miterlimit:10"
   d="m 359.157,117.923 c 0,0 -4.99,-1.497 -8.15,0.166 -3.16,1.663 -4.657,5.322 -4.657,5.322 l 6.487,0.499 2.994,1.497 c 0,0 -1.331,0 -1.996,1.83 -0.665,1.83 -1.164,3.992 -1.164,3.992 0,0 2.329,-1.331 5.988,-1.829 3.659,-0.499 10.811,-2.661 10.811,-2.661 l 0.832,5.489 c 0,0 4.158,-2.661 7.485,-3.659 3.326,-0.998 5.322,-3.16 5.322,-3.16 0,0 8.649,3.327 8.482,4.823 -0.166,1.497 -3.16,5.156 -2.162,6.32 0.998,1.164 3.659,3.659 3.659,3.659 l 9.979,5.655 c 0,0 3.659,-5.655 5.489,-14.636 1.83,-8.981 -6.487,-18.628 -13.472,-21.289 -6.985,-2.661 -12.142,-1.663 -16.466,-1.497 -4.324,0.166 -10.312,-1.164 -10.312,-1.164 l 3.992,4.158 c 0,0 -3.825,1.497 -5.489,1.83 -1.663,0.333 -4.491,1.164 -5.156,0.832 -0.665,-0.333 -2.994,-1.829 -2.994,-1.829 0,0 -1.165,4.987 0.498,5.652 z"
   id="path69" />&#10;			<path
   style="fill:#ffffff;stroke:#263238;stroke-linecap:round;stroke-linejoin:round;stroke-miterlimit:10"
   d="m 399.241,155.013 c 0,0 2.495,-1.331 3.825,-3.326 1.331,-1.996 5.156,-9.647 0.665,-11.809 -3.402,-1.638 -5.656,1.303 -6.55,2.826 -0.203,1.732 -0.441,3.798 -0.602,5.324 -0.333,3.16 1.663,14.47 -0.665,18.961 -2.328,4.491 -6.653,7.984 -9.148,10.478 -0.957,0.958 -2.309,2.11 -3.872,3.168 l 4.205,1.156 c 0,0 1.331,4.158 4.99,8.815 3.659,4.657 6.819,7.651 6.819,7.651 0,0 0.998,-5.988 3.659,-19.294 2.661,-13.306 0.665,-20.957 0.665,-20.957 z"
   id="path70" />&#10;			<path
   style="fill:#263238;stroke:#263238;stroke-linecap:round;stroke-linejoin:round;stroke-miterlimit:10"
   d="m 387.099,181.791 5.821,1.663 -2.827,4.158 c 0,0.001 -2.328,-3.825 -2.994,-5.821 z"
   id="path71" />&#10;		</g>&#10;		<g
   id="g76">&#10;			<path
   style="fill:#92e3a9;stroke:#263238;stroke-linecap:round;stroke-linejoin:round;stroke-miterlimit:10"
   d="m 422.214,177.334 4.825,120.618 10.807,0.772 c 0,0 9.263,-38.984 11.965,-52.3 2.702,-13.316 3.667,-21.808 3.474,-32.422 -0.193,-10.614 -2.702,-32.615 -2.702,-32.615 0,0 -5.597,-9.456 -10.421,-12.737"
   id="path72" />&#10;			<path
   style="fill:none;stroke:#263238;stroke-linecap:round;stroke-linejoin:round;stroke-miterlimit:10"
   d="m 444.163,199.889 c 0.999,-3.153 1.595,-5.186 1.595,-5.186"
   id="path73" />&#10;			<path
   style="fill:none;stroke:#263238;stroke-linecap:round;stroke-linejoin:round;stroke-miterlimit:10"
   d="m 425.109,247.196 c 0,0 4.632,-10.807 10.035,-22.773 2.943,-6.517 5.829,-14.753 7.847,-20.9"
   id="path74" />&#10;			<path
   style="fill:none;stroke:#263238;stroke-linecap:round;stroke-linejoin:round;stroke-miterlimit:10"
   d="m 437.945,230.857 c -0.304,0.83 -0.597,1.53 -0.871,2.058"
   id="path75" />&#10;			<path
   style="fill:none;stroke:#263238;stroke-linecap:round;stroke-linejoin:round;stroke-miterlimit:10"
   d="m 443.636,208.791 c 0,0 -2.381,11.338 -4.623,18.806"
   id="path76" />&#10;			&#10;				<line
   style="fill:none;stroke:#263238;stroke-linecap:round;stroke-linejoin:round;stroke-miterlimit:10"
   x1="427.039"
   y1="287.33701"
   x2="439.96899"
   y2="287.91599"
   id="line76" />&#10;		</g>&#10;		<g
   id="g80">&#10;			<path
   style="fill:#ffffff;stroke:#263238;stroke-linecap:round;stroke-linejoin:round;stroke-miterlimit:10"
   d="m 427.039,297.952 c 0,0 -1.509,18.62 -1.509,20.229 0,1.609 1.288,13.358 1.609,14.324 0.322,0.966 8.53,7.082 9.335,7.082 0.805,0 5.311,0.483 6.116,-0.805 0.805,-1.288 1.127,-2.092 0,-2.414 -1.127,-0.322 -4.185,-0.161 -4.185,-0.161 l -1.77,-0.805 c 0,0 6.599,-0.644 7.082,-0.805 0.483,-0.161 2.897,-1.77 3.38,-2.897 0.483,-1.127 -0.322,-2.414 -0.322,-2.414 0,0 2.414,-2.253 2.575,-3.058 0.161,-0.805 0.322,-3.058 -0.805,-2.736 -1.127,0.322 -2.736,2.092 -2.736,2.092 h -4.024 c 0,0 4.185,-2.736 4.667,-3.541 0.483,-0.805 1.127,-4.185 0.966,-5.15 -0.161,-0.966 -2.253,0.161 -2.736,1.127 -0.483,0.966 -1.288,3.541 -1.288,3.541 l -4.828,0.644 -1.609,-2.092 c 0,0 3.219,-9.979 3.219,-12.071 0,-2.092 -2.33,-9.318 -2.33,-9.318 z"
   id="path77" />&#10;			<path
   style="fill:none;stroke:#263238;stroke-linecap:round;stroke-linejoin:round;stroke-miterlimit:10"
   d="m 432.934,322.366 c 0,0 3.541,3.058 4.507,3.38 0.966,0.322 4.345,-0.161 4.345,-0.161"
   id="path78" />&#10;			<path
   style="fill:none;stroke:#263238;stroke-linecap:round;stroke-linejoin:round;stroke-miterlimit:10"
   d="m 430.841,325.907 c 0,0 5.472,4.828 6.921,4.828 1.448,0 9.013,-1.448 9.013,-1.448"
   id="path79" />&#10;			<path
   style="fill:none;stroke:#263238;stroke-linecap:round;stroke-linejoin:round;stroke-miterlimit:10"
   d="m 429.715,330.091 c 0,0 3.219,3.863 4.185,4.184 0.966,0.321 2.736,1.127 2.736,1.127"
   id="path80" />&#10;		</g>&#10;	</g>&#10;</g></g></g></svg>
