<?xml version="1.0" encoding="UTF-8" standalone="no"?>
<!-- Created with Inkscape (http://www.inkscape.org/) -->

<svg
   width="661.41083mm"
   height="279.92917mm"
   viewBox="0 0 661.41083 279.92917"
   version="1.1"
   id="svg1"
   xml:space="preserve"
   xmlns:inkscape="http://www.inkscape.org/namespaces/inkscape"
   xmlns:sodipodi="http://sodipodi.sourceforge.net/DTD/sodipodi-0.dtd"
   xmlns="http://www.w3.org/2000/svg"
   xmlns:svg="http://www.w3.org/2000/svg"><sodipodi:namedview
     id="namedview1"
     pagecolor="#ffffff"
     bordercolor="#000000"
     borderopacity="0.25"
     inkscape:showpageshadow="2"
     inkscape:pageopacity="0.0"
     inkscape:pagecheckerboard="0"
     inkscape:deskcolor="#d1d1d1"
     inkscape:document-units="mm" /><defs
     id="defs1"><style
       id="style1">.a{clip-path:url(#b);}.b{fill:#122455;}.c{fill:#00afec;}</style></defs><g
     inkscape:label="Layer 1"
     inkscape:groupmode="layer"
     id="layer1"
     transform="translate(169.06855,38.794478)"><path
       d="m -121.82522,107.57832 c 0,10.8452 -4.43642,25.38759 -17.58358,25.38759 a 9.2824471,9.2824471 0 0 1 -10.4745,-10.14596 c 0,-12.7354 18.65027,-15.24163 28.05808,-15.24163 m 18.8567,37.26056 V 84.695891 c 0,-19.51378 -12.81754,-26.25002 -30.72967,-26.25002 -17.91213,0 -32.20811,7.43547 -32.20811,26.7839 h 19.2263 c -0.77272,-6.3731 3.76745,-12.16801 10.14272,-12.94074 a 11.650341,11.650341 0 0 1 2.79802,0 c 9.73636,0 11.91296,7.06586 11.91296,15.4059 v 8.21684 c -19.18415,0.69816 -47.24224,3.20331 -47.24224,28.756239 0,14.3792 11.37908,22.18428 24.64944,22.18428 9.24354,0 17.74678,-3.04011 22.01893,-11.7087 h 0.32963 v 9.73636 h 18.85561 m 58.623481,-55.583369 h 20.95116 c 0,-20.78689 -11.50336,-30.89285 -32.12598,-30.89285 -25.34652,0 -38.69902,15.9387 -38.69902,40.42387 0,29.455479 15.07628,47.941479 45.18885,47.941479 a 82.691485,82.691485 0 0 0 24.64944,-4.10896 v -11.78976 a 43.398061,43.398061 0 0 1 -14.17278,2.09447 c -22.43069,0 -34.7954,-16.4326 -34.7954,-37.630169 0,-10.10705 3.73827,-23.04671 16.14404,-23.04671 10.27025,0 12.77647,8.21684 12.77647,17.00755 m 75.6721,0.001 h 20.95225 c 0,-20.78689 -11.54443,-30.89285 -32.12598,-30.89285 -25.3886704,0 -38.69902,15.9387 -38.69902,40.42387 0,29.455479 15.0762796,47.941479 45.18884,47.941479 a 82.554231,82.554231 0 0 0 24.64944,-4.10896 v -11.78976 a 43.240274,43.240274 0 0 1 -14.21385,2.09447 c -22.34855,0 -34.7964704,-16.4326 -34.7964704,-37.630169 0,-10.10705 3.77933,-23.04671 16.1872704,-23.04671 10.27024,0 12.77539,8.21684 12.77539,17.00755 m 77.233759,-3.73719 H 77.419401 c 0.60845,-8.30221 7.57596,-14.69369 15.89871,-14.58346 7.568399,-0.69707 14.268969,4.87521 14.964959,12.44361 0.0659,0.71112 0.0757,1.42657 0.0292,2.13985 m 18.65136,11.91405 v -4.76497 c 0,-20.54156 -10.63986,-34.26152 -32.125979,-34.26152 -25.18333,0 -36.23278,15.77552 -36.23278,39.76679 0,27.852749 12.61112,48.640719 42.600479,48.640719 a 74.851821,74.851821 0 0 0 23.58059,-3.36866 v -13.67997 a 50.430415,50.430415 0 0 1 -16.10297,3.16332 c -19.144169,0 -31.797439,-17.54144 -31.797439,-35.453569 h 50.119159 m 58.33601,47.365449 h 19.76019 V 86.297461 c 0,-14.54239 -6.82053,-27.85167 -22.92351,-27.85167 a 26.207864,26.207864 0 0 0 -25.01797,17.74678 h -0.32963 v -15.85765 h -19.80017 v 84.544949 h 19.75911 v -36.5624 c 0,-11.379079 5.66954,-31.426739 19.84232,-31.426739 a 7.8872161,7.8872161 0 0 1 5.71061,1.60165 c 3.32651,3.16331 2.99797,14.00851 2.99797,18.0764 V 144.87987 M 245.8533,74.055951 h 25.10119 v -13.72095 h -25.10121 v -28.01809 l -19.59591,7.97044 v 20.00658 h -16.4326 v 13.7621 h 16.4326 v 49.708489 c 0,17.58358 8.58537,23.25205 25.88148,23.25205 a 97.821798,97.821798 0 0 0 16.10298,-1.39632 v -14.04957 a 37.63125,37.63125 0 0 1 -9.03712,1.39631 c -12.32473,0 -13.35143,-9.03712 -13.35143,-18.9799 V 74.056031 m 82.16301,70.823919 h 19.71912 V 60.335001 h -19.71912 v 36.60347 c 0,11.379079 -5.66955,31.427819 -19.92554,31.427819 a 7.9304456,7.9304456 0 0 1 -5.66847,-1.56166 c -3.40972,-3.20438 -2.99904,-14.04958 -2.99904,-18.11747 V 60.335001 h -19.67805 v 58.623479 c 0,14.54239 6.69624,27.85275 22.88243,27.85275 a 26.662854,26.662854 0 0 0 25.06013,-17.74786 h 0.32962 v 15.77551 m 51.84402,-36.97308 c 0,-19.883389 7.43547,-28.756239 27.6474,-28.756239 v -20.54156 c -14.17278,0 -20.78689,5.87596 -27.31886,17.54143 h -0.32854 v -15.77551 h -19.71912 v 84.544949 h 19.71912 v -36.97308 m 81.34164,-22.182119 h -30.89394 c 0.62899,-8.30871 7.60947,-14.69478 15.93979,-14.58454 7.57056,-0.6733 14.25384,4.91843 14.92821,12.49007 0.0605,0.69599 0.0703,1.39523 0.0259,2.09447 m 18.65027,11.91296 v -4.93032 c 0,-20.54156 -10.63985,-34.26152 -32.12597,-34.26152 -25.18333,0 -36.19171,15.77552 -36.19171,39.76679 0,27.852739 12.61111,48.640709 42.56049,48.640709 a 75.402997,75.402997 0 0 0 23.62058,-3.36865 v -13.67997 a 50.529842,50.529842 0 0 1 -16.10298,3.16332 c -19.2263,0 -31.8385,-17.54144 -31.8385,-35.453569 h 50.24241 m -270.15175,-136.3079 v 13.92638 l 44.98459,17.4593001 -44.98459,17.29611 V 23.772611 L 271.15981,-1.1221589 V -13.857559 l -61.29398,-24.93692 M -142.07822,227.04295 v -21.40399 h -18.77348 v 21.40399 h -5.09459 v -45.18884 h 5.09459 v 19.637 h 18.77348 v -19.7602 h 5.13566 v 45.18885 z m 12.32472,-39.39717 v -5.91595 h 5.87488 v 5.91595 z m 0.73922,39.39717 V 195.7794 h 4.31322 v 31.26355 z m 19.47272,13.68105 a 40.376322,40.376322 0 0 1 -8.46325,-1.06777 v -4.51964 a 18.008315,18.008315 0 0 0 7.80616,1.84914 c 7.23013,0 9.44888,-3.69828 9.44888,-10.39344 v -5.50528 a 8.220083,8.220083 0 0 1 -8.21684,5.95703 c -8.58645,0 -10.5588,-8.21685 -10.5588,-15.40591 0,-7.18906 2.17769,-16.4326 10.72199,-16.4326 a 8.2179215,8.2179215 0 0 1 8.21684,5.87489 v -5.29885 h 4.478571 v 31.34568 c -0.32854,8.87285 -4.601771,13.59783 -13.597831,13.59783 h 0.16428 z m 1.43738,-41.9034 c -5.71062,0 -6.49091,8.79071 -6.49091,12.85753 0,4.0668 0.78029,11.62657 6.3677,11.62657 5.58741,0 7.47762,-8.21684 7.47762,-12.32472 0,-4.10789 -1.93128,-12.15938 -7.51869,-12.15938 z m 36.439191,28.22236 v -17.3361 c 0,-3.53401 0.53389,-10.18919 -4.60069,-10.18919 -6.53197,0 -8.99713,9.73636 -8.99713,14.62453 v 12.85861 h -4.47858 v -45.18885 h 4.47858 v 21.27972 a 9.7374373,9.7374373 0 0 1 9.77742,-7.92937 c 5.50527,0 8.21684,4.72498 8.21684,9.6553 v 22.30748 z m 36.97309,0.73923 a 8.2168408,8.2168408 0 0 1 -8.21576,-5.83274 v 19.18524 h -4.76605 v -45.18884 h 4.47857 v 5.33992 a 8.462168,8.462168 0 0 1 8.21684,-6.03916 c 8.99714,0 10.72199,8.79179 10.72199,16.10406 0,7.31226 -2.09447,16.43152 -10.59878,16.43152 z m -0.98563,-28.75624 c -5.6274,0 -7.35334,8.21684 -7.35334,12.32472 0,4.10788 1.31418,12.77539 7.23013,12.77539 5.91595,0 6.40877,-9.48887 6.40877,-13.80317 0,-4.31322 -0.7403,-11.50228 -6.44984,-11.50228 z m 20.54156,9.65314 v 1.84914 c 0,6.82053 3.40864,13.72103 11.0915996,13.72103 a 24.275507,24.275507 0 0 0 6.16236,-0.86244 v 3.6972 c -2.32249998,0.65925 -4.73363,0.96511 -7.14799,0.90351 -10.8451996,0 -15.2416296,-7.27229 -15.2416296,-17.41823 0,-8.21686 3.04011,-15.32378 12.3236396,-15.32378 7.27227002,0 10.88734,5.01246 10.88734,11.87189 v 1.5206 z m 6.9015796,-9.65314 a 6.5719596,6.5719596 0 0 0 -6.5730396,5.91595 h 12.5711296 a 5.7916677,5.7916677 0 0 0 -6.3677,-6.12021 z m 20.5815504,15.11734 v 12.94182 H 7.8696706 V 195.7805 h 4.4774904 v 6.03915 a 10.476661,10.476661 0 0 1 10.43451,-6.77838 v 4.80712 c -7.92828,-0.001 -10.43451,7.43439 -10.43451,14.2949 z m 30.27684,-28.75624 c -7.10693,0 -6.57304,5.13566 -6.57304,10.51665 h 8.99605 v 3.73827 h -8.99605 v 27.52528 h -4.43643 v -27.52528 h -5.25778 v -3.73827 h 5.25778 v -4.43642 a 9.0781879,9.0781879 0 0 1 10.2281,-9.90063 c 1.78213,0 3.55886,0.19237 5.29993,0.57495 v 4.10896 a 13.54055,13.54055 0 0 0 -4.51856,-0.86351 z m 16.4326,42.47727 c -9.6553,0 -12.7354,-7.88721 -12.7354,-16.4326 0,-8.5443 3.08118,-16.43152 12.7354,-16.43152 9.65422,0 12.85752,7.92829 12.85752,16.43152 0,8.50432 -2.99796,16.35047 -12.73432,16.35047 z m 0,-28.75624 c -6.4909,0 -7.59974,7.64081 -7.59974,12.6122 0,4.97138 1.10884,12.61219 7.59974,12.61219 6.4909,0 7.76401,-7.55867 7.76401,-12.61219 0,-5.05352 -1.10775,-12.89968 -7.63973,-12.89968 z m 22.9235,15.03521 v 12.94182 h -4.5607 V 195.7805 h 4.47857 v 6.03915 a 10.515568,10.515568 0 0 1 10.43451,-6.77838 v 4.80712 c -7.84615,-0.001 -10.35238,7.43439 -10.35238,14.2949 z m 48.146819,12.94182 v -17.37716 c 0,-3.53401 0.53497,-10.18919 -4.60069,-10.18919 -5.79167,0 -7.80616,10.31131 -7.80616,14.6656 v 12.8586 h -4.43643 v -17.33609 c 0,-3.53401 0.53389,-10.18919 -4.60069,-10.18919 -5.13566,0 -7.80616,10.51665 -7.80616,14.62453 v 12.85861 h -4.478579 v -31.22249 h 4.478579 v 7.23013 c 1.23312,-4.47857 3.61506,-7.92936 8.75072,-7.92936 a 7.1479922,7.1479922 0 0 1 7.8883,7.14907 9.4888678,9.4888678 0 0 1 9.20247,-7.14799 c 5.50527,0 8.21684,4.72498 8.21684,9.6553 v 22.30748 z m 27.85275,0 v -4.10896 a 11.045129,11.045129 0 0 1 -9.57101,4.84711 7.8882969,7.8882969 0 0 1 -8.21684,-8.70858 c 0,-7.14799 9.11926,-9.73636 14.91201,-9.73636 a 15.96248,15.96248 0 0 0 3.08226,0 v -0.65708 c 0,-4.64177 0.32854,-9.65422 -5.91595,-9.65422 -3.65614,0 -5.91596,1.23312 -6.3677,4.97138 h -5.29994 c 0,-6.32663 5.66955,-8.75072 11.25696,-8.75072 7.10584,0 10.51556,3.08118 10.51556,10.0649 v 21.93679 z m -2.75156,-14.17386 c -4.10788,0 -10.22917,1.6438 -10.22917,6.65518 a 4.10788,4.10788 0 0 0 4.39644,4.51856 8.2179215,8.2179215 0 0 0 7.31334,-4.84711 13.019635,13.019635 0 0 0 1.19097,-6.32663 z m 32.04384,14.17386 v -17.37716 c 0,-3.53401 0.53389,-10.18919 -4.60177,-10.18919 -6.2445,0 -8.87393,9.73636 -8.87393,14.6656 v 12.8586 h -4.43643 v -31.26355 h 4.47858 v 7.23013 a 9.7374373,9.7374373 0 0 1 9.77742,-7.92936 c 5.50527,0 8.01042,4.72498 8.01042,9.6553 v 22.30748 z m 28.01702,-21.73253 c 0,-3.61615 -1.56058,-6.49199 -5.58741,-6.49199 -5.70953,0 -7.3944,6.2445 -7.3944,10.92733 0,8.21684 3.53401,14.33814 12.32364,14.33814 a 16.410986,16.410986 0 0 0 5.05353,-0.65709 v 3.53401 a 21.267817,21.267817 0 0 1 -6.49091,0.86242 c -10.76305,0 -16.10297,-6.65517 -16.10297,-17.08968 0,-8.54539 3.16331,-15.65231 12.73432,-15.65231 5.19402,-0.7014 9.97412,2.93852 10.67659,8.13146 0.0962,0.70896 0.11132,1.42657 0.0465,2.13878 z m 12.32472,3.16332 v 1.84806 c 0,6.82052 3.40865,13.72103 11.0916,13.72103 a 24.226874,24.226874 0 0 0 6.16236,-0.86244 v 3.69721 a 23.972901,23.972901 0 0 1 -7.18906,0.9035 c -10.84519,0 -15.24163,-7.27121 -15.24163,-17.41825 0,-8.21684 2.99905,-15.32376 12.32472,-15.32376 7.2712,0 10.88626,5.01246 10.88626,11.87298 v 1.51952 z m 6.90159,-9.65531 a 6.5330531,6.5330531 0 0 0 -6.57304,5.91704 h 12.53006 a 5.7927485,5.7927485 0 0 0 -5.87381,-5.95702 z m 14.66559,28.22452 v -6.57304 h 6.57304 v 6.57304 z m 42.51943,-1.23312 a 28.794067,28.794067 0 0 1 -9.44889,1.23312 h -8.5443 v -45.18884 h 10.18919 c 14.58346,0 18.6092,9.4478 18.6092,22.51175 0.0821,8.46324 -1.47845,18.24067 -10.68092,21.40399 z m -2.5473,-38.82222 a 21.754148,21.754148 0 0 0 -7.43655,-0.98563 h -2.87476 v 36.97308 h 3.49078 a 19.161461,19.161461 0 0 0 7.68188,-1.23312 c 6.28556,-2.87476 6.90266,-11.25587 6.90266,-17.21289 0,-5.95702 -0.57495,-15.07628 -7.64081,-17.58359 z m 22.5139,21.48613 v 1.84806 c 0,6.82052 3.40865,13.72103 11.13267,13.72103 a 24.083136,24.083136 0 0 0 6.16236,-0.86244 v 3.69721 c -2.3225,0.6614 -4.73362,0.96618 -7.14799,0.9035 -10.84519,0 -15.24163,-7.27121 -15.24163,-17.41825 0,-8.21684 3.04011,-15.32376 12.32364,-15.32376 7.31335,0 10.92733,5.01246 10.92733,11.87298 v 1.51952 z m 6.90051,-9.65531 a 6.5719596,6.5719596 0 0 0 -6.57304,5.91704 h 12.57113 a 5.7927485,5.7927485 0 0 0 -5.87381,-5.95702 z m 16.92542,28.22452 v -45.18884 h 4.47857 v 45.18884 z m 11.70762,-39.39825 v -5.95702 h 5.91703 v 5.91595 z m 0.7403,39.39825 V 195.7805 h 4.7239 v 31.26355 z m 24.36089,0 h -4.51856 l -11.83191,-31.26355 h 4.93032 l 9.20355,24.64944 8.21576,-24.64945 h 4.80712 z m 16.68008,-18.56921 v 1.84806 c 0,6.82052 3.40973,13.72103 11.09269,13.72103 a 24.129607,24.129607 0 0 0 6.16128,-0.86244 v 3.69721 c -2.32251,0.65924 -4.73363,0.9651 -7.148,0.9035 -10.84519,0 -15.24163,-7.27121 -15.24163,-17.41825 0,-8.21684 3.04012,-15.32376 12.32472,-15.32376 7.2712,0 10.92733,5.01246 10.92733,11.87298 v 1.51952 z m 6.90051,-9.65531 a 6.5719596,6.5719596 0 0 0 -6.57304,5.91704 h 12.65326 a 5.7516805,5.7516805 0 0 0 -5.99809,-5.95702 z m 21.36292,15.2827 v 12.94182 h -4.43642 V 195.7805 h 4.43642 v 6.03915 a 10.515568,10.515568 0 0 1 10.43451,-6.77838 v 4.80712 c -7.92828,-0.001 -10.43451,7.43439 -10.43451,14.2949 z m 17.5825,-5.66846 v 1.84806 c 0,6.82053 3.4508,13.72103 11.13375,13.72103 a 24.028018,24.028018 0 0 0 6.16128,-0.86243 v 3.6972 c -2.3225,0.66141 -4.73362,0.96618 -7.14799,0.9035 -10.84519,0 -15.24163,-7.2712 -15.24163,-17.41823 0,-8.21685 3.04011,-15.32377 12.32472,-15.32377 7.2712,0 10.92733,5.01245 10.92733,11.87297 v 1.51952 z m 6.90159,-9.65422 a 6.5708789,6.5708789 0 0 0 -6.57304,5.91595 h 12.57113 a 5.790587,5.790587 0 0 0 -6.1213,-5.91487 h 0.12321 z m 33.89298,28.22235 v -5.29885 a 8.4600066,8.4600066 0 0 1 -8.21684,6.03808 c -8.99605,0 -10.68092,-8.79071 -10.68092,-16.10298 0,-7.31226 2.09447,-16.4326 10.63985,-16.4326 a 8.2179215,8.2179215 0 0 1 8.21684,5.87489 V 181.732 h 4.43643 v 45.18884 z m -7.27228,-28.22235 c -6.12021,0 -6.65409,9.40673 -6.65409,13.71995 0,4.31322 0.69815,11.50336 6.4909,11.50336 5.79167,0 7.35333,-8.21684 7.35333,-12.32364 0,-4.10897 -1.39631,-12.89968 -7.31226,-12.89968 z m 17.54144,28.22235 v -6.57304 h 6.45092 v 6.57304 z"
       id="path1"
       style="stroke-width:1.08074" /></g></svg>
