<?xml version="1.0" encoding="UTF-8" standalone="no"?>
<!-- Created with Inkscape (http://www.inkscape.org/) -->

<svg
   width="183.67612mm"
   height="105.30335mm"
   viewBox="0 0 183.67612 105.30335"
   version="1.1"
   id="svg1"
   xml:space="preserve"
   xmlns:inkscape="http://www.inkscape.org/namespaces/inkscape"
   xmlns:sodipodi="http://sodipodi.sourceforge.net/DTD/sodipodi-0.dtd"
   xmlns="http://www.w3.org/2000/svg"
   xmlns:svg="http://www.w3.org/2000/svg"><sodipodi:namedview
     id="namedview1"
     pagecolor="#ffffff"
     bordercolor="#000000"
     borderopacity="0.25"
     inkscape:showpageshadow="2"
     inkscape:pageopacity="0.0"
     inkscape:pagecheckerboard="0"
     inkscape:deskcolor="#d1d1d1"
     inkscape:document-units="mm" /><defs
     id="defs1" /><g
     inkscape:label="Layer 1"
     inkscape:groupmode="layer"
     id="layer1"
     transform="translate(-13.132987,-95.848325)"><g
       id="g1"
       transform="matrix(0.26458333,0,0,0.26458333,5.5227766,82.257399)"><g
         id="Background_Simple">&#10;	<g
   id="g2">&#10;		<path
   style="fill:#92e3a9"
   d="M 690.009,163.245 C 637.91,59.447 474.665,0.469 379.17,110.101 c -3.757,4.313 -7.309,8.826 -10.646,13.501 -24.351,34.116 -60.904,93.183 -105.521,78.739 -30.545,-9.889 -51.496,-37.17 -81.705,-47.784 -39.824,-13.992 -77.676,14.651 -102.055,51.253 -28.339,42.549 -41.893,92.482 -25.77,138.645 30.033,85.984 146.954,105.336 226.969,97.451 58.602,-5.775 115.164,-37.049 173.861,-39.025 42.23,-1.422 82.624,10.091 120.681,24.407 17.633,6.633 35.251,13.942 54.33,15.77 68.257,6.542 81.288,-60.708 82.919,-117.276 1.621,-56.188 2.084,-114.105 -22.224,-162.537 z"
   id="path1" />&#10;		<path
   style="opacity:0.7;fill:#ffffff"
   d="M 690.009,163.245 C 637.91,59.447 474.665,0.469 379.17,110.101 c -3.757,4.313 -7.309,8.826 -10.646,13.501 -24.351,34.116 -60.904,93.183 -105.521,78.739 -30.545,-9.889 -51.496,-37.17 -81.705,-47.784 -39.824,-13.992 -77.676,14.651 -102.055,51.253 -28.339,42.549 -41.893,92.482 -25.77,138.645 30.033,85.984 146.954,105.336 226.969,97.451 58.602,-5.775 115.164,-37.049 173.861,-39.025 42.23,-1.422 82.624,10.091 120.681,24.407 17.633,6.633 35.251,13.942 54.33,15.77 68.257,6.542 81.288,-60.708 82.919,-117.276 1.621,-56.188 2.084,-114.105 -22.224,-162.537 z"
   id="path2" />&#10;	</g>&#10;</g><g
         id="Floor_1_">&#10;	&#10;		<line
   style="fill:none;stroke:#263238;stroke-linecap:round;stroke-linejoin:round;stroke-miterlimit:10"
   x1="29.263"
   y1="447.03201"
   x2="722.47198"
   y2="447.03201"
   id="line2" />&#10;</g><g
         id="Plant">&#10;	<g
   id="g6">&#10;		<g
   id="g3">&#10;			<path
   style="fill:#92e3a9"
   d="m 54.485,354.291 c -0.139,-0.734 -0.425,-1.511 -0.76,-2.338 -0.344,-0.817 -0.718,-1.702 -1.172,-2.505 -0.906,-1.608 -1.906,-3.125 -2.61,-3.977 -0.156,-0.2 -0.472,-0.039 -0.408,0.206 0.133,0.533 0.308,1.235 0.508,2.034 0.18,0.803 0.354,1.714 0.534,2.621 0.384,1.796 0.642,3.716 0.972,5.08 0.208,0.844 0.404,1.639 0.583,2.365 0.189,0.72 0.384,1.35 0.584,1.874 l -1.747,-1.587 c -0.581,-0.53 -1.225,-0.988 -1.835,-1.486 0.257,-0.419 0.38,-1.355 0.261,-2.57 -0.141,-1.187 -0.469,-2.738 -1.132,-4.32 -0.289,-0.676 -0.688,-1.431 -1.157,-2.214 -0.477,-0.771 -1.059,-1.527 -1.644,-2.278 -1.194,-1.464 -2.521,-2.766 -3.4,-3.497 -0.198,-0.171 -0.484,0.044 -0.37,0.276 0.248,0.51 0.576,1.169 0.919,1.927 0.32,0.761 0.679,1.614 1.047,2.489 0.661,1.719 1.353,3.518 1.873,4.87 0.336,0.82 0.665,1.569 0.982,2.229 0.296,0.692 0.581,1.295 0.854,1.789 l -1.43,-0.975 -1.49,-0.882 c -0.043,-0.234 -0.19,-0.513 -0.43,-0.825 -0.249,-0.294 -0.596,-0.612 -1.02,-0.944 -0.838,-0.682 -2.044,-1.33 -3.434,-1.839 -1.238,-0.438 -2.936,-0.716 -4.539,-0.729 -1.603,-0.027 -3.09,0.174 -3.958,0.387 -0.201,0.051 -0.18,0.408 -0.007,0.459 0.822,0.237 2.153,0.73 3.51,1.309 1.366,0.564 2.752,1.254 3.874,1.646 2.328,0.848 4.438,1.397 5.434,1.227 l 1.478,0.875 c 0.486,0.303 0.948,0.642 1.424,0.961 -0.548,-0.063 -1.173,-0.098 -1.854,-0.073 -0.696,0.05 -1.44,0.148 -2.197,0.3 -0.629,0.114 -1.36,0.361 -2.097,0.663 -0.74,0.311 -1.472,0.629 -2.179,1.053 -0.702,0.406 -1.349,0.827 -1.903,1.216 -0.557,0.406 -1.022,0.797 -1.363,1.088 -0.155,0.134 -0.155,0.453 -10e-4,0.41 0.676,-0.208 1.83,-0.463 3.162,-0.719 0.682,-0.12 1.387,-0.244 2.064,-0.363 0.687,-0.099 1.369,-0.214 1.986,-0.354 1.401,-0.309 2.74,-0.576 3.866,-0.918 1.111,-0.317 1.949,-0.619 2.325,-0.978 0.586,0.477 1.201,0.919 1.763,1.423 l 1.679,1.525 c -0.537,-0.142 -1.161,-0.262 -1.842,-0.344 -0.677,-0.088 -1.417,-0.132 -2.215,-0.082 -1.325,0.062 -3.004,0.38 -4.557,0.932 -0.771,0.263 -1.49,0.535 -2.124,0.817 -0.64,0.298 -1.182,0.578 -1.584,0.796 -0.183,0.1 -0.237,0.416 -0.071,0.406 0.744,-0.072 1.952,-0.057 3.353,-0.073 0.7,-0.009 1.408,0.047 2.131,0.046 0.731,-0.004 1.432,-0.009 2.054,-0.012 1.42,-0.026 2.857,-0.156 3.992,-0.278 1.133,-0.121 2.027,-0.32 2.447,-0.614 1.079,1.063 2.034,2.24 3.003,3.404 -1.038,-0.414 -2.379,-0.846 -3.966,-0.999 -1.341,-0.116 -3.047,-0.079 -4.681,0.206 -1.637,0.281 -3.087,0.653 -3.971,0.947 -0.203,0.069 -0.302,0.371 -0.128,0.388 0.77,0.123 2.038,0.326 3.395,0.543 1.354,0.296 2.952,0.522 4.194,0.705 1.434,0.179 2.853,0.275 4.03,0.277 1.146,0.034 2.056,-0.052 2.509,-0.292 l 1.353,1.83 1.258,1.896 c -0.971,-0.535 -2.276,-1.092 -3.855,-1.438 -1.313,-0.288 -3.033,-0.501 -4.716,-0.432 -1.666,0.038 -3.184,0.198 -4.103,0.333 -0.216,0.04 -0.346,0.318 -0.182,0.377 0.73,0.246 1.96,0.648 3.364,1.066 1.363,0.498 2.893,1.013 4.174,1.303 1.415,0.355 2.813,0.615 3.98,0.744 1.171,0.126 2.055,0.15 2.538,-0.049 l 1.151,1.961 1.056,2.013 c -0.91,-0.634 -2.155,-1.32 -3.683,-1.825 -1.257,-0.439 -2.972,-0.768 -4.654,-0.913 -1.667,-0.159 -3.192,-0.199 -4.173,-0.165 -0.219,0.005 -0.385,0.284 -0.214,0.358 0.761,0.322 1.923,0.913 3.294,1.505 1.337,0.605 2.762,1.282 4.015,1.692 1.368,0.493 2.732,0.895 3.88,1.145 1.119,0.262 2.025,0.369 2.519,0.228 0.657,1.367 1.21,2.778 1.762,4.189 -0.839,-0.73 -2.018,-1.544 -3.455,-2.219 -1.224,-0.561 -2.866,-1.079 -4.524,-1.392 -1.638,-0.327 -3.151,-0.514 -4.125,-0.576 -0.218,-0.016 -0.412,0.243 -0.251,0.333 0.721,0.39 1.809,1.086 3.108,1.807 1.215,0.749 2.643,1.534 3.773,2.098 2.672,1.237 5.178,2.239 6.218,2.073 l 0.658,2.173 0.561,2.199 c -0.736,-0.832 -1.799,-1.783 -3.153,-2.617 -1.095,-0.712 -2.762,-1.385 -4.305,-1.893 -1.592,-0.501 -3.111,-0.833 -4.023,-1.01 -0.211,-0.039 -0.435,0.195 -0.294,0.303 0.606,0.476 1.726,1.241 2.849,2.111 1.174,0.855 2.398,1.807 3.502,2.483 2.464,1.53 4.853,2.839 5.874,2.824 0.274,1.48 0.47,2.984 0.533,4.468 0.009,0.188 0.206,0.326 0.452,0.331 0.244,0.005 0.443,-0.165 0.433,-0.362 -0.066,-1.555 -0.268,-3.078 -0.546,-4.59 0.959,-0.269 2.776,-2.463 4.006,-5.624 0.511,-1.344 0.932,-3.201 1.134,-4.975 0.253,-1.796 0.247,-3.477 0.278,-4.538 0.004,-0.241 -0.342,-0.285 -0.441,-0.061 -0.442,0.97 -1.166,2.559 -1.927,4.229 -0.797,1.665 -1.576,3.344 -2.109,4.663 -0.611,1.617 -1.124,3.066 -1.378,4.159 -0.178,-0.766 -0.384,-1.525 -0.577,-2.287 l -0.683,-2.257 c 0.454,-0.204 1.045,-0.896 1.643,-1.954 0.614,-1.064 1.182,-2.478 1.603,-4.101 0.396,-1.412 0.515,-3.241 0.571,-5.042 -0.017,-1.753 -0.097,-3.479 -0.233,-4.491 -0.028,-0.233 -0.377,-0.236 -0.449,-0.005 -0.3,1.001 -0.882,2.684 -1.453,4.393 -0.547,1.702 -1.218,3.503 -1.544,4.847 -0.428,1.678 -0.747,3.172 -0.859,4.288 -0.565,-1.465 -1.142,-2.928 -1.821,-4.344 0.427,-0.256 0.945,-1.018 1.431,-2.143 0.455,-1.108 0.867,-2.576 1.131,-4.241 0.181,-1.401 0.183,-3.277 0.016,-5.035 -0.193,-1.734 -0.445,-3.431 -0.677,-4.417 -0.051,-0.227 -0.398,-0.192 -0.447,0.043 -0.197,1.019 -0.611,2.748 -1.004,4.503 -0.373,1.747 -0.825,3.589 -1.026,4.972 -0.215,1.695 -0.395,3.23 -0.376,4.351 l -1.092,-2.087 -1.192,-2.031 c 0.39,-0.296 0.849,-1.128 1.184,-2.278 0.337,-1.15 0.596,-2.651 0.691,-4.33 0.047,-1.417 -0.165,-3.243 -0.472,-4.996 -0.394,-1.732 -0.887,-3.391 -1.21,-4.404 -0.071,-0.233 -0.429,-0.159 -0.441,0.083 -0.109,1.067 -0.287,2.816 -0.475,4.655 -0.153,1.79 -0.479,3.674 -0.513,5.057 -0.039,1.701 -0.063,3.25 0.073,4.363 l -1.299,-1.963 -1.399,-1.893 c 0.365,-0.34 0.713,-1.193 0.962,-2.393 0.216,-1.18 0.298,-2.701 0.192,-4.394 -0.064,-1.472 -0.597,-3.255 -1.148,-5.011 -0.613,-1.708 -1.381,-3.297 -1.859,-4.276 -0.12,-0.215 -0.458,-0.102 -0.436,0.145 0.089,1.089 0.153,2.9 0.227,4.716 0.08,1.819 0.025,3.758 0.169,5.134 0.161,1.718 0.287,3.271 0.556,4.351 -1.007,-1.207 -1.994,-2.431 -3.116,-3.536 0.32,-0.382 0.559,-1.27 0.644,-2.499 0.085,-1.226 -0.071,-2.726 -0.418,-4.412 z"
   id="path3" />&#10;		</g>&#10;		<g
   id="g4">&#10;			<path
   style="fill:#92e3a9"
   d="m 88.159,317.191 c 1.307,-1.607 3.052,-3.806 4.6,-5.9 1.583,-2.064 3.087,-4.025 4.004,-5.221 0.216,-0.267 0.046,-0.627 -0.22,-0.463 -1.157,0.72 -2.981,1.982 -4.956,3.471 -1.941,1.495 -3.88,3.274 -5.346,4.863 -1.698,1.993 -3.15,4.034 -4.143,5.732 l 1.201,-4.251 0.612,-2.122 0.705,-2.094 c 1.012,0.124 4.063,-2.402 7.583,-5.772 3.027,-2.941 7.522,-8.164 9.649,-10.28 0.233,-0.249 0.09,-0.626 -0.184,-0.485 -1.193,0.623 -3.218,1.665 -5.255,3.001 -1.023,0.663 -2.112,1.367 -3.089,2.114 -0.975,0.747 -1.898,1.51 -2.685,2.239 -0.989,0.894 -1.859,1.827 -2.636,2.732 -0.783,0.903 -1.478,1.776 -2.056,2.572 0.797,-2.005 1.503,-4.046 2.374,-6.021 0.558,-0.389 1.392,-1.556 2.339,-3.231 1.029,-1.639 2.101,-3.822 3.325,-6.171 0.524,-1.051 1.071,-2.28 1.669,-3.555 0.286,-0.645 0.578,-1.305 0.872,-1.967 0.301,-0.659 0.602,-1.32 0.899,-1.971 1.177,-2.612 2.319,-5.061 3.075,-6.524 0.172,-0.333 -0.116,-0.543 -0.379,-0.26 -1.14,1.226 -2.895,3.327 -4.612,5.697 -0.424,0.597 -0.854,1.203 -1.283,1.807 -0.402,0.622 -0.802,1.241 -1.193,1.847 -0.786,1.213 -1.451,2.42 -1.989,3.495 -1.161,2.228 -1.965,4.412 -2.587,6.183 -0.565,1.798 -0.845,3.233 -0.839,4.042 l -0.652,1.518 -0.594,1.542 -1.187,3.084 c 0.096,-0.961 0.162,-2.054 0.194,-3.241 0.015,-1.189 0.03,-2.462 0.047,-3.778 0.003,-1.103 -0.055,-2.348 -0.147,-3.651 -0.085,-1.299 -0.173,-2.645 -0.257,-3.944 -0.224,-2.625 -0.359,-5.058 -0.478,-6.561 -0.025,-0.342 -0.432,-0.207 -0.524,0.174 -0.193,0.833 -0.448,1.932 -0.737,3.183 -0.243,1.262 -0.499,2.671 -0.736,4.109 -0.259,1.428 -0.387,2.934 -0.526,4.326 -0.123,1.4 -0.219,2.703 -0.171,3.84 0.073,5.134 1.073,9.021 1.933,9.622 l -0.695,2.064 c -0.217,0.693 -0.403,1.395 -0.606,2.091 l -1.194,4.189 c 0.02,-1.927 -0.144,-4.373 -0.442,-7.017 -0.165,-2.182 -0.679,-4.944 -1.103,-7.53 -0.434,-2.606 -0.836,-5.024 -1.08,-6.491 -0.051,-0.335 -0.449,-0.167 -0.513,0.218 -0.215,1.715 -0.606,4.487 -0.778,7.41 -0.144,2.938 -0.224,5.961 0.086,8.219 0.295,2.557 0.713,4.765 1.296,6.425 0.545,1.649 1.103,2.711 1.564,2.97 l -0.49,2.122 -0.374,2.146 -0.743,4.294 c -0.185,-1.918 -0.6,-4.333 -1.188,-6.941 -0.39,-2.158 -1.13,-4.847 -1.859,-7.404 -0.633,-2.521 -1.28,-4.91 -1.678,-6.371 -0.091,-0.333 -0.463,-0.122 -0.479,0.272 -0.206,3.459 -0.244,11.262 0.847,15.682 1.04,5.04 2.915,8.648 3.86,9.048 -0.404,2.881 -0.449,5.791 -0.598,8.693 -0.212,-0.943 -0.495,-2.001 -0.84,-3.142 -0.172,-0.57 -0.36,-1.161 -0.562,-1.767 -0.213,-0.607 -0.414,-1.228 -0.591,-1.856 -0.627,-2.103 -1.701,-4.709 -2.674,-7.177 -0.896,-2.448 -1.791,-4.769 -2.34,-6.191 -0.125,-0.324 -0.473,-0.074 -0.448,0.323 0.063,0.864 0.146,2.005 0.24,3.302 0.112,1.29 0.206,2.715 0.477,4.189 0.238,1.467 0.505,2.953 0.792,4.337 0.148,0.693 0.283,1.357 0.455,1.987 0.19,0.632 0.382,1.223 0.574,1.761 0.879,2.451 1.794,4.528 2.652,6.004 0.896,1.464 1.674,2.38 2.18,2.535 -0.027,2.897 0.015,5.794 0.062,8.691 -0.557,-1.857 -1.377,-4.147 -2.433,-6.545 -0.429,-1.005 -0.97,-2.109 -1.565,-3.244 -0.305,-0.565 -0.615,-1.139 -0.925,-1.714 -0.299,-0.593 -0.599,-1.186 -0.893,-1.769 -1.24,-2.375 -2.39,-4.579 -3.088,-5.916 -0.164,-0.31 -0.478,-0.019 -0.404,0.376 0.326,1.727 0.875,4.55 1.565,7.397 0.791,2.725 1.682,5.543 2.584,7.558 2.01,4.601 4.245,7.887 5.262,8.16 0.09,2.896 0.211,5.79 0.356,8.683 -0.592,-1.839 -1.534,-4.098 -2.641,-6.459 -1.9,-3.937 -5.506,-9.498 -7.091,-11.949 -0.182,-0.278 -0.478,0.019 -0.382,0.383 0.812,3.2 2.916,10.386 4.83,14.343 2.172,4.526 4.508,7.739 5.531,7.978 0.19,2.891 0.393,5.78 0.643,8.667 -0.669,-1.817 -1.663,-4.046 -2.854,-6.369 -2.019,-3.875 -5.822,-9.308 -7.478,-11.699 -0.189,-0.271 -0.478,0.035 -0.372,0.395 0.93,3.162 3.251,10.27 5.301,14.164 2.311,4.455 4.757,7.591 5.792,7.794 0.281,2.877 0.589,5.75 0.959,8.622 0.047,0.362 0.284,0.63 0.526,0.596 0.242,-0.035 0.398,-0.351 0.352,-0.711 -0.368,-2.852 -0.675,-5.718 -0.955,-8.584 0.971,-0.294 2.774,-3.853 4.445,-8.551 1.417,-4.06 2.978,-11.07 3.683,-14.123 0.081,-0.349 -0.228,-0.618 -0.398,-0.347 -1.49,2.37 -4.766,7.974 -6.209,12.058 -0.906,2.515 -1.553,4.938 -1.893,6.871 -0.257,-2.94 -0.464,-5.885 -0.658,-8.83 0.984,-0.26 2.909,-3.76 4.725,-8.403 1.556,-4.013 3.33,-10.963 4.148,-13.983 0.09,-0.345 -0.212,-0.625 -0.389,-0.359 -1.558,2.312 -5.034,7.8 -6.602,11.836 -0.997,2.484 -1.699,4.885 -2.119,6.806 -0.151,-2.948 -0.274,-5.897 -0.366,-8.847 0.989,-0.227 3.024,-3.665 5.002,-8.239 0.833,-1.974 1.776,-4.685 2.588,-7.269 0.911,-2.457 1.712,-4.718 2.176,-6.098 0.107,-0.313 -0.181,-0.598 -0.37,-0.366 -0.83,1.019 -2.186,2.749 -3.581,4.762 -0.348,0.503 -0.701,1.021 -1.043,1.551 -0.322,0.548 -0.638,1.101 -0.941,1.65 -0.605,1.098 -1.157,2.18 -1.595,3.17 -1.049,2.447 -1.88,4.824 -2.336,6.73 -0.052,-2.951 -0.092,-5.902 -0.066,-8.853 0.496,-0.096 1.287,-0.986 2.208,-2.413 0.952,-1.416 2.105,-3.307 3.202,-5.437 0.238,-0.458 0.48,-0.959 0.724,-1.489 0.269,-0.529 0.551,-1.085 0.842,-1.658 0.57,-1.145 1.137,-2.352 1.67,-3.522 0.499,-1.174 1.113,-2.299 1.609,-3.301 0.492,-0.998 0.924,-1.876 1.251,-2.541 0.146,-0.301 -0.103,-0.619 -0.321,-0.408 -0.955,0.926 -2.524,2.5 -4.163,4.343 -1.558,1.845 -3.087,3.977 -4.179,5.836 -0.348,0.573 -0.639,1.148 -0.892,1.718 -0.263,0.57 -0.51,1.133 -0.738,1.682 -0.457,1.1 -0.841,2.147 -1.138,3.085 0.155,-2.939 0.189,-5.886 0.601,-8.805 1.039,-0.091 3.409,-3.209 6.234,-7.174 2.274,-3.48 5.834,-9.368 7.443,-11.855 0.178,-0.287 -0.035,-0.63 -0.275,-0.441 -1.052,0.829 -2.783,2.242 -4.611,3.909 -1.726,1.683 -3.524,3.632 -4.816,5.359 -1.467,2.155 -2.687,4.338 -3.513,6.13 l 0.754,-4.351 0.377,-2.176 0.497,-2.152 c 0.506,0.012 1.475,-0.687 2.682,-1.852 1.169,-1.176 2.723,-2.779 4.301,-4.625 z"
   id="path4" />&#10;		</g>&#10;		<g
   id="g5">&#10;			<path
   style="fill:#92e3a9"
   d="m 111.279,350.843 c 2.771,-1.186 6.765,-3.572 8.483,-4.541 0.198,-0.109 0.058,-0.42 -0.181,-0.4 -1.045,0.094 -2.757,0.308 -4.589,0.647 -1.802,0.366 -3.747,0.839 -5.139,1.432 -1.743,0.711 -3.25,1.549 -4.305,2.325 0.969,-1.616 1.993,-3.197 3.019,-4.776 0.909,0.453 3.869,-0.18 7.154,-1.283 1.413,-0.477 3.136,-1.271 4.731,-1.976 1.586,-0.734 3.044,-1.354 3.907,-1.738 0.198,-0.079 0.08,-0.394 -0.153,-0.404 -1.021,-0.043 -2.717,-0.014 -4.543,0.163 -1.819,0.186 -3.762,0.532 -5.194,1.019 -1.785,0.583 -3.32,1.346 -4.435,2.045 0.794,-1.126 1.578,-2.262 2.407,-3.362 1.023,-0.158 3.081,-2.149 5.239,-4.706 0.476,-0.571 0.999,-1.236 1.511,-1.974 0.525,-0.723 1.074,-1.48 1.609,-2.216 1.057,-1.492 2.159,-2.81 2.877,-3.612 0.161,-0.185 -0.039,-0.48 -0.264,-0.376 -0.991,0.44 -2.616,1.279 -4.156,2.415 -0.787,0.552 -1.537,1.182 -2.252,1.797 -0.682,0.637 -1.331,1.26 -1.825,1.858 -2.098,2.484 -3.298,4.989 -3.34,6.139 -0.856,1.12 -1.648,2.286 -2.466,3.432 0.275,-1.265 0.441,-2.955 0.555,-4.819 0.076,-1.569 0.003,-3.621 -0.066,-5.6 -0.06,-1.973 -0.125,-3.876 -0.126,-5.049 0,-0.267 -0.366,-0.309 -0.472,-0.052 -0.431,1.125 -1.112,2.958 -1.609,4.904 -0.528,1.943 -0.9,3.998 -0.979,5.588 -0.184,3.625 0.431,6.601 1.153,7.313 -1.01,1.556 -2.022,3.112 -2.976,4.703 0.178,-1.292 0.27,-2.972 0.248,-4.836 -0.041,-1.571 -0.237,-3.586 -0.495,-5.537 -0.247,-1.952 -0.48,-3.795 -0.622,-4.917 -0.031,-0.258 -0.392,-0.274 -0.466,-0.021 -0.63,2.239 -1.758,7.301 -1.667,10.457 0.07,3.61 0.805,6.532 1.588,7.217 -0.945,1.596 -1.851,3.214 -2.742,4.84 0.139,-1.286 0.113,-2.987 0.007,-4.835 -0.228,-3.096 -1.329,-8.082 -1.745,-10.306 -0.051,-0.253 -0.409,-0.249 -0.461,0.005 -0.493,2.226 -1.271,7.31 -1.039,10.442 0.252,3.587 1.129,6.476 1.94,7.122 -0.879,1.633 -1.695,3.298 -2.528,4.954 0.082,-1.292 -0.002,-2.981 -0.208,-4.828 -0.363,-3.079 -1.702,-7.988 -2.256,-10.177 -0.063,-0.248 -0.421,-0.228 -0.461,0.026 -0.161,1.117 -0.393,2.951 -0.535,4.886 -0.112,1.95 -0.177,3.981 0.025,5.551 0.405,3.558 1.413,6.424 2.247,7.028 -0.812,1.668 -1.538,3.376 -2.293,5.071 0.013,-1.295 -0.141,-2.975 -0.438,-4.82 -0.229,-1.53 -0.767,-3.517 -1.292,-5.381 -0.522,-1.856 -1.07,-3.614 -1.411,-4.687 -0.078,-0.245 -0.431,-0.209 -0.455,0.047 -0.225,2.228 -0.587,7.341 -0.054,10.469 0.557,3.556 1.742,6.367 2.595,6.918 -0.689,1.723 -1.366,3.452 -1.978,5.205 -0.09,-1.303 -0.329,-2.967 -0.727,-4.794 -0.344,-1.534 -0.941,-3.466 -1.584,-5.326 -0.608,-1.837 -1.231,-3.581 -1.617,-4.648 -0.088,-0.243 -0.44,-0.188 -0.454,0.072 -0.14,2.275 -0.254,7.436 0.464,10.542 0.771,3.544 2.114,6.265 3.022,6.764 -0.591,1.761 -1.112,3.546 -1.601,5.339 -0.185,-1.29 -0.554,-2.937 -1.077,-4.742 -0.876,-2.988 -2.949,-7.709 -3.792,-9.811 -0.1,-0.239 -0.45,-0.162 -0.451,0.099 -0.045,2.285 0.176,7.521 1.107,10.595 1.025,3.522 2.593,6.129 3.546,6.541 -0.42,1.81 -0.777,3.632 -0.999,5.497 -0.027,0.236 0.153,0.453 0.398,0.468 0.244,0.015 0.457,-0.145 0.482,-0.372 0.215,-1.801 0.566,-3.606 0.981,-5.39 0.988,0.092 3.568,-1.487 6.283,-3.579 2.325,-1.834 5.53,-5.134 6.978,-6.534 0.162,-0.161 -0.056,-0.428 -0.281,-0.343 -1.99,0.72 -6.44,2.651 -8.854,4.527 -1.478,1.141 -2.697,2.354 -3.498,3.391 0.495,-1.813 1.019,-3.62 1.618,-5.404 0.977,0.185 3.684,-1.176 6.567,-3.102 2.458,-1.691 5.922,-4.831 7.428,-6.175 0.17,-0.155 -0.032,-0.436 -0.261,-0.362 -1.003,0.325 -2.653,0.89 -4.386,1.6 -1.693,0.718 -3.504,1.575 -4.755,2.424 -1.56,1.043 -2.874,2.162 -3.747,3.136 0.62,-1.777 1.304,-3.532 2.004,-5.279 0.982,0.258 3.749,-0.932 6.764,-2.701 2.563,-1.552 6.2,-4.546 7.785,-5.857 0.179,-0.15 -0.009,-0.443 -0.242,-0.378 -1.023,0.288 -2.703,0.79 -4.472,1.422 -1.76,0.631 -3.568,1.408 -4.897,2.177 -1.613,0.959 -2.984,2.002 -3.934,2.913 0.762,-1.722 1.501,-3.455 2.324,-5.15 0.954,0.306 3.798,-0.717 6.899,-2.368 1.315,-0.725 2.948,-1.795 4.403,-2.855 1.484,-1.043 2.832,-2.054 3.646,-2.669 0.188,-0.138 0.016,-0.437 -0.222,-0.384 -2.072,0.451 -6.817,1.729 -9.519,3.183 -1.668,0.884 -3.075,1.868 -4.077,2.725 0.847,-1.684 1.675,-3.377 2.568,-5.037 0.933,0.348 3.837,-0.555 6.992,-2.064 2.727,-1.316 6.578,-3.995 8.28,-5.086 0.192,-0.128 0.033,-0.434 -0.205,-0.394 -2.094,0.317 -6.881,1.359 -9.64,2.69 -1.721,0.796 -3.151,1.729 -4.191,2.54 0.906,-1.652 1.824,-3.298 2.785,-4.919 0.914,0.392 3.866,-0.373 7.08,-1.711 z"
   id="path5" />&#10;		</g>&#10;		<path
   style="fill:#263238"
   d="M 72.953,447.032 H 85.25 c 9.727,-4.269 16.871,-18.403 16.871,-35.193 0,-7.069 -1.27,-13.665 -3.462,-19.256 H 59.544 c -2.192,5.591 -3.461,12.187 -3.461,19.256 0,16.79 7.144,30.924 16.87,35.193 z"
   id="path6" />&#10;	</g>&#10;</g><g
         id="Picture">&#10;	<g
   id="g8">&#10;		<rect
   x="496.263"
   y="127.396"
   style="fill:#263238;stroke:#263238;stroke-miterlimit:10"
   width="53.285999"
   height="72.232002"
   id="rect6" />&#10;		<rect
   x="499.508"
   y="131.79601"
   style="fill:#ffffff;stroke:#263238;stroke-miterlimit:10"
   width="46.793999"
   height="63.431999"
   id="rect7" />&#10;		<rect
   x="509.578"
   y="145.44501"
   style="fill:#263238;stroke:#263238;stroke-miterlimit:10"
   width="26.655001"
   height="36.132999"
   id="rect8" />&#10;	</g>&#10;</g><g
         id="Clock">&#10;	<g
   id="g10">&#10;		<circle
   style="fill:#263238;stroke:#263238;stroke-miterlimit:10"
   cx="281.07401"
   cy="155.067"
   r="30.709"
   id="circle8" />&#10;		<circle
   style="fill:#ffffff;stroke:#263238;stroke-miterlimit:10"
   cx="281.07401"
   cy="155.067"
   r="27.229"
   id="circle9" />&#10;		<circle
   style="fill:#263238;stroke:#263238;stroke-miterlimit:10"
   cx="281.07401"
   cy="155.067"
   r="2.8729999"
   id="circle10" />&#10;		<polyline
   style="fill:none;stroke:#263238;stroke-linecap:round;stroke-miterlimit:10"
   points="294.471,155.067 281.074,155.067     289.929,133.917   "
   id="polyline10" />&#10;	</g>&#10;</g><g
         id="Windows">&#10;	<g
   id="g53">&#10;		<g
   id="g30">&#10;			<polygon
   style="fill:none;stroke:#263238;stroke-miterlimit:10"
   points="160.194,122.016 97.208,122.016 96.377,130.675 160.194,130.675 "
   id="polygon10" />&#10;			<polygon
   style="fill:none;stroke:#263238;stroke-miterlimit:10"
   points="160.194,130.675 97.208,130.675 96.377,139.334 160.194,139.334 "
   id="polygon11" />&#10;			<polygon
   style="fill:none;stroke:#263238;stroke-miterlimit:10"
   points="160.194,139.334 97.208,139.334 96.377,147.994 160.194,147.994 "
   id="polygon12" />&#10;			<polygon
   style="fill:none;stroke:#263238;stroke-miterlimit:10"
   points="160.194,147.994 97.208,147.994 96.377,156.653 160.194,156.653 "
   id="polygon13" />&#10;			<polygon
   style="fill:none;stroke:#263238;stroke-miterlimit:10"
   points="160.194,156.653 97.208,156.653 96.377,165.312 160.194,165.312 "
   id="polygon14" />&#10;			<polygon
   style="fill:none;stroke:#263238;stroke-miterlimit:10"
   points="160.194,165.312 97.208,165.312 96.377,173.972 160.194,173.972 "
   id="polygon15" />&#10;			<polygon
   style="fill:none;stroke:#263238;stroke-miterlimit:10"
   points="160.194,173.972 97.208,173.972 96.377,182.631 160.194,182.631 "
   id="polygon16" />&#10;			<polygon
   style="fill:none;stroke:#263238;stroke-miterlimit:10"
   points="160.194,182.631 97.208,182.631 96.377,191.29 160.194,191.29 "
   id="polygon17" />&#10;			<polygon
   style="fill:none;stroke:#263238;stroke-miterlimit:10"
   points="160.194,191.29 97.208,191.29 96.377,199.95 160.194,199.95 "
   id="polygon18" />&#10;			<polygon
   style="fill:none;stroke:#263238;stroke-miterlimit:10"
   points="160.194,199.95 97.208,199.95 96.377,208.609 160.194,208.609 "
   id="polygon19" />&#10;			<polygon
   style="fill:none;stroke:#263238;stroke-miterlimit:10"
   points="160.194,208.609 97.208,208.609 96.377,217.268 160.194,217.268 "
   id="polygon20" />&#10;			<polygon
   style="fill:none;stroke:#263238;stroke-miterlimit:10"
   points="160.194,217.268 97.208,217.268 96.377,225.928 160.194,225.928 "
   id="polygon21" />&#10;			<polygon
   style="fill:none;stroke:#263238;stroke-miterlimit:10"
   points="160.194,225.928 97.208,225.928 96.377,234.587 160.194,234.587 "
   id="polygon22" />&#10;			<polygon
   style="fill:none;stroke:#263238;stroke-miterlimit:10"
   points="160.194,234.587 97.208,234.587 96.377,243.247 160.194,243.247 "
   id="polygon23" />&#10;			<polygon
   style="fill:none;stroke:#263238;stroke-miterlimit:10"
   points="160.194,243.247 97.208,243.247 96.377,251.906 160.194,251.906 "
   id="polygon24" />&#10;			<polygon
   style="fill:none;stroke:#263238;stroke-miterlimit:10"
   points="160.194,251.891 97.208,251.891 96.377,260.55 160.194,260.55 "
   id="polygon25" />&#10;			<polygon
   style="fill:none;stroke:#263238;stroke-miterlimit:10"
   points="160.194,260.535 97.208,260.535 96.377,269.195 160.194,269.195 "
   id="polygon26" />&#10;			<polygon
   style="fill:none;stroke:#263238;stroke-miterlimit:10"
   points="160.194,269.18 97.208,269.18 96.377,277.839 160.194,277.839 "
   id="polygon27" />&#10;			<polygon
   style="fill:none;stroke:#263238;stroke-miterlimit:10"
   points="160.194,277.824 97.208,277.824 96.377,286.484 160.194,286.484 "
   id="polygon28" />&#10;			<polygon
   style="fill:none;stroke:#263238;stroke-miterlimit:10"
   points="160.194,286.469 97.208,286.469 96.377,295.128 160.194,295.128 "
   id="polygon29" />&#10;			<polygon
   style="fill:none;stroke:#263238;stroke-miterlimit:10"
   points="160.194,295.113 97.208,295.113 96.377,303.773 160.194,303.773 "
   id="polygon30" />&#10;		</g>&#10;		<g
   id="g51">&#10;			<polygon
   style="fill:none;stroke:#263238;stroke-miterlimit:10"
   points="224.942,122.016 161.956,122.016 161.124,130.675 224.942,130.675 "
   id="polygon31" />&#10;			<polygon
   style="fill:none;stroke:#263238;stroke-miterlimit:10"
   points="224.942,130.675 161.956,130.675 161.124,139.334 224.942,139.334 "
   id="polygon32" />&#10;			<polygon
   style="fill:none;stroke:#263238;stroke-miterlimit:10"
   points="224.942,139.334 161.956,139.334 161.124,147.994 224.942,147.994 "
   id="polygon33" />&#10;			<polygon
   style="fill:none;stroke:#263238;stroke-miterlimit:10"
   points="224.942,147.994 161.956,147.994 161.124,156.653 224.942,156.653 "
   id="polygon34" />&#10;			<polygon
   style="fill:none;stroke:#263238;stroke-miterlimit:10"
   points="224.942,156.653 161.956,156.653 161.124,165.312 224.942,165.312 "
   id="polygon35" />&#10;			<polygon
   style="fill:none;stroke:#263238;stroke-miterlimit:10"
   points="224.942,165.312 161.956,165.312 161.124,173.972 224.942,173.972 "
   id="polygon36" />&#10;			<polygon
   style="fill:none;stroke:#263238;stroke-miterlimit:10"
   points="224.942,173.972 161.956,173.972 161.124,182.631 224.942,182.631 "
   id="polygon37" />&#10;			<polygon
   style="fill:none;stroke:#263238;stroke-miterlimit:10"
   points="224.942,182.631 161.956,182.631 161.124,191.29 224.942,191.29 "
   id="polygon38" />&#10;			<polygon
   style="fill:none;stroke:#263238;stroke-miterlimit:10"
   points="224.942,191.29 161.956,191.29 161.124,199.95 224.942,199.95 "
   id="polygon39" />&#10;			<polygon
   style="fill:none;stroke:#263238;stroke-miterlimit:10"
   points="224.942,199.95 161.956,199.95 161.124,208.609 224.942,208.609 "
   id="polygon40" />&#10;			<polygon
   style="fill:none;stroke:#263238;stroke-miterlimit:10"
   points="224.942,208.609 161.956,208.609 161.124,217.268 224.942,217.268 "
   id="polygon41" />&#10;			<polygon
   style="fill:none;stroke:#263238;stroke-miterlimit:10"
   points="224.942,217.268 161.956,217.268 161.124,225.928 224.942,225.928 "
   id="polygon42" />&#10;			<polygon
   style="fill:none;stroke:#263238;stroke-miterlimit:10"
   points="224.942,225.928 161.956,225.928 161.124,234.587 224.942,234.587 "
   id="polygon43" />&#10;			<polygon
   style="fill:none;stroke:#263238;stroke-miterlimit:10"
   points="224.942,234.587 161.956,234.587 161.124,243.247 224.942,243.247 "
   id="polygon44" />&#10;			<polygon
   style="fill:none;stroke:#263238;stroke-miterlimit:10"
   points="224.942,243.247 161.956,243.247 161.124,251.906 224.942,251.906 "
   id="polygon45" />&#10;			<polygon
   style="fill:none;stroke:#263238;stroke-miterlimit:10"
   points="224.942,251.891 161.956,251.891 161.124,260.55 224.942,260.55 "
   id="polygon46" />&#10;			<polygon
   style="fill:none;stroke:#263238;stroke-miterlimit:10"
   points="224.942,260.535 161.956,260.535 161.124,269.195 224.942,269.195 "
   id="polygon47" />&#10;			<polygon
   style="fill:none;stroke:#263238;stroke-miterlimit:10"
   points="224.942,269.18 161.956,269.18 161.124,277.839 224.942,277.839 "
   id="polygon48" />&#10;			<polygon
   style="fill:none;stroke:#263238;stroke-miterlimit:10"
   points="224.942,277.824 161.956,277.824 161.124,286.484 224.942,286.484 "
   id="polygon49" />&#10;			<polygon
   style="fill:none;stroke:#263238;stroke-miterlimit:10"
   points="224.942,286.469 161.956,286.469 161.124,295.128 224.942,295.128 "
   id="polygon50" />&#10;			<polygon
   style="fill:none;stroke:#263238;stroke-miterlimit:10"
   points="224.942,295.113 161.956,295.113 161.124,303.773 224.942,303.773 "
   id="polygon51" />&#10;		</g>&#10;		<rect
   x="94.903999"
   y="115.312"
   style="fill:none;stroke:#263238;stroke-miterlimit:10"
   width="133.192"
   height="6.533"
   id="rect51" />&#10;		<line
   style="fill:none;stroke:#263238;stroke-miterlimit:10"
   x1="228.09599"
   y1="121.844"
   x2="228.09599"
   y2="236.89"
   id="line51" />&#10;		<line
   style="fill:none;stroke:#263238;stroke-miterlimit:10"
   x1="226.645"
   y1="122.028"
   x2="226.645"
   y2="200.961"
   id="line52" />&#10;		<rect
   x="227.248"
   y="236.636"
   style="fill:#263238;stroke:#263238;stroke-miterlimit:10"
   width="1.791"
   height="2.9300001"
   id="rect52" />&#10;		<rect
   x="225.636"
   y="200.33299"
   style="fill:#263238;stroke:#263238;stroke-miterlimit:10"
   width="1.791"
   height="2.9300001"
   id="rect53" />&#10;	</g>&#10;	<g
   id="g96">&#10;		<g
   id="g73">&#10;			<polygon
   style="fill:none;stroke:#263238;stroke-miterlimit:10"
   points="401.258,122.016 338.272,122.016 337.44,130.675 401.258,130.675 "
   id="polygon53" />&#10;			<polygon
   style="fill:none;stroke:#263238;stroke-miterlimit:10"
   points="401.258,130.675 338.272,130.675 337.44,139.334 401.258,139.334 "
   id="polygon54" />&#10;			<polygon
   style="fill:none;stroke:#263238;stroke-miterlimit:10"
   points="401.258,139.334 338.272,139.334 337.44,147.994 401.258,147.994 "
   id="polygon55" />&#10;			<polygon
   style="fill:none;stroke:#263238;stroke-miterlimit:10"
   points="401.258,147.994 338.272,147.994 337.44,156.653 401.258,156.653 "
   id="polygon56" />&#10;			<polygon
   style="fill:none;stroke:#263238;stroke-miterlimit:10"
   points="401.258,156.653 338.272,156.653 337.44,165.312 401.258,165.312 "
   id="polygon57" />&#10;			<polygon
   style="fill:none;stroke:#263238;stroke-miterlimit:10"
   points="401.258,165.312 338.272,165.312 337.44,173.972 401.258,173.972 "
   id="polygon58" />&#10;			<polygon
   style="fill:none;stroke:#263238;stroke-miterlimit:10"
   points="401.258,173.972 338.272,173.972 337.44,182.631 401.258,182.631 "
   id="polygon59" />&#10;			<polygon
   style="fill:none;stroke:#263238;stroke-miterlimit:10"
   points="401.258,182.631 338.272,182.631 337.44,191.29 401.258,191.29 "
   id="polygon60" />&#10;			<polygon
   style="fill:none;stroke:#263238;stroke-miterlimit:10"
   points="401.258,191.29 338.272,191.29 337.44,199.95 401.258,199.95 "
   id="polygon61" />&#10;			<polygon
   style="fill:none;stroke:#263238;stroke-miterlimit:10"
   points="401.258,199.95 338.272,199.95 337.44,208.609 401.258,208.609 "
   id="polygon62" />&#10;			<polygon
   style="fill:none;stroke:#263238;stroke-miterlimit:10"
   points="401.258,208.609 338.272,208.609 337.44,217.268 401.258,217.268 "
   id="polygon63" />&#10;			<polygon
   style="fill:none;stroke:#263238;stroke-miterlimit:10"
   points="401.258,217.268 338.272,217.268 337.44,225.928 401.258,225.928 "
   id="polygon64" />&#10;			<polygon
   style="fill:none;stroke:#263238;stroke-miterlimit:10"
   points="401.258,225.928 338.272,225.928 337.44,234.587 401.258,234.587 "
   id="polygon65" />&#10;			<polygon
   style="fill:none;stroke:#263238;stroke-miterlimit:10"
   points="401.258,234.587 338.272,234.587 337.44,243.247 401.258,243.247 "
   id="polygon66" />&#10;			<polygon
   style="fill:none;stroke:#263238;stroke-miterlimit:10"
   points="401.258,243.247 338.272,243.247 337.44,251.906 401.258,251.906 "
   id="polygon67" />&#10;			<polygon
   style="fill:none;stroke:#263238;stroke-miterlimit:10"
   points="401.258,251.891 338.272,251.891 337.44,260.55 401.258,260.55 "
   id="polygon68" />&#10;			<polygon
   style="fill:none;stroke:#263238;stroke-miterlimit:10"
   points="401.258,260.535 338.272,260.535 337.44,269.195 401.258,269.195 "
   id="polygon69" />&#10;			<polygon
   style="fill:none;stroke:#263238;stroke-miterlimit:10"
   points="401.258,269.18 338.272,269.18 337.44,277.839 401.258,277.839 "
   id="polygon70" />&#10;			<polygon
   style="fill:none;stroke:#263238;stroke-miterlimit:10"
   points="401.258,277.824 338.272,277.824 337.44,286.484 401.258,286.484 "
   id="polygon71" />&#10;			<polygon
   style="fill:none;stroke:#263238;stroke-miterlimit:10"
   points="401.258,286.469 338.272,286.469 337.44,295.128 401.258,295.128 "
   id="polygon72" />&#10;			<polygon
   style="fill:none;stroke:#263238;stroke-miterlimit:10"
   points="401.258,295.113 338.272,295.113 337.44,303.773 401.258,303.773 "
   id="polygon73" />&#10;		</g>&#10;		<g
   id="g94">&#10;			<polygon
   style="fill:none;stroke:#263238;stroke-miterlimit:10"
   points="466.005,122.016 403.019,122.016 402.188,130.675 466.005,130.675 "
   id="polygon74" />&#10;			<polygon
   style="fill:none;stroke:#263238;stroke-miterlimit:10"
   points="466.005,130.675 403.019,130.675 402.188,139.334 466.005,139.334 "
   id="polygon75" />&#10;			<polygon
   style="fill:none;stroke:#263238;stroke-miterlimit:10"
   points="466.005,139.334 403.019,139.334 402.188,147.994 466.005,147.994 "
   id="polygon76" />&#10;			<polygon
   style="fill:none;stroke:#263238;stroke-miterlimit:10"
   points="466.005,147.994 403.019,147.994 402.188,156.653 466.005,156.653 "
   id="polygon77" />&#10;			<polygon
   style="fill:none;stroke:#263238;stroke-miterlimit:10"
   points="466.005,156.653 403.019,156.653 402.188,165.312 466.005,165.312 "
   id="polygon78" />&#10;			<polygon
   style="fill:none;stroke:#263238;stroke-miterlimit:10"
   points="466.005,165.312 403.019,165.312 402.188,173.972 466.005,173.972 "
   id="polygon79" />&#10;			<polygon
   style="fill:none;stroke:#263238;stroke-miterlimit:10"
   points="466.005,173.972 403.019,173.972 402.188,182.631 466.005,182.631 "
   id="polygon80" />&#10;			<polygon
   style="fill:none;stroke:#263238;stroke-miterlimit:10"
   points="466.005,182.631 403.019,182.631 402.188,191.29 466.005,191.29 "
   id="polygon81" />&#10;			<polygon
   style="fill:none;stroke:#263238;stroke-miterlimit:10"
   points="466.005,191.29 403.019,191.29 402.188,199.95 466.005,199.95 "
   id="polygon82" />&#10;			<polygon
   style="fill:none;stroke:#263238;stroke-miterlimit:10"
   points="466.005,199.95 403.019,199.95 402.188,208.609 466.005,208.609 "
   id="polygon83" />&#10;			<polygon
   style="fill:none;stroke:#263238;stroke-miterlimit:10"
   points="466.005,208.609 403.019,208.609 402.188,217.268 466.005,217.268 "
   id="polygon84" />&#10;			<polygon
   style="fill:none;stroke:#263238;stroke-miterlimit:10"
   points="466.005,217.268 403.019,217.268 402.188,225.928 466.005,225.928 "
   id="polygon85" />&#10;			<polygon
   style="fill:none;stroke:#263238;stroke-miterlimit:10"
   points="466.005,225.928 403.019,225.928 402.188,234.587 466.005,234.587 "
   id="polygon86" />&#10;			<polygon
   style="fill:none;stroke:#263238;stroke-miterlimit:10"
   points="466.005,234.587 403.019,234.587 402.188,243.247 466.005,243.247 "
   id="polygon87" />&#10;			<polygon
   style="fill:none;stroke:#263238;stroke-miterlimit:10"
   points="466.005,243.247 403.019,243.247 402.188,251.906 466.005,251.906 "
   id="polygon88" />&#10;			<polygon
   style="fill:none;stroke:#263238;stroke-miterlimit:10"
   points="466.005,251.891 403.019,251.891 402.188,260.55 466.005,260.55 "
   id="polygon89" />&#10;			<polygon
   style="fill:none;stroke:#263238;stroke-miterlimit:10"
   points="466.005,260.535 403.019,260.535 402.188,269.195 466.005,269.195 "
   id="polygon90" />&#10;			<polygon
   style="fill:none;stroke:#263238;stroke-miterlimit:10"
   points="466.005,269.18 403.019,269.18 402.188,277.839 466.005,277.839 "
   id="polygon91" />&#10;			<polygon
   style="fill:none;stroke:#263238;stroke-miterlimit:10"
   points="466.005,277.824 403.019,277.824 402.188,286.484 466.005,286.484 "
   id="polygon92" />&#10;			<polygon
   style="fill:none;stroke:#263238;stroke-miterlimit:10"
   points="466.005,286.469 403.019,286.469 402.188,295.128 466.005,295.128 "
   id="polygon93" />&#10;			<polygon
   style="fill:none;stroke:#263238;stroke-miterlimit:10"
   points="466.005,295.113 403.019,295.113 402.188,303.773 466.005,303.773 "
   id="polygon94" />&#10;		</g>&#10;		<rect
   x="335.96799"
   y="115.312"
   style="fill:none;stroke:#263238;stroke-miterlimit:10"
   width="133.192"
   height="6.533"
   id="rect94" />&#10;		<line
   style="fill:none;stroke:#263238;stroke-miterlimit:10"
   x1="469.16"
   y1="121.844"
   x2="469.16"
   y2="236.89"
   id="line94" />&#10;		<line
   style="fill:none;stroke:#263238;stroke-miterlimit:10"
   x1="467.70801"
   y1="122.028"
   x2="467.70801"
   y2="200.961"
   id="line95" />&#10;		<rect
   x="468.311"
   y="236.636"
   style="fill:#263238;stroke:#263238;stroke-miterlimit:10"
   width="1.791"
   height="2.9300001"
   id="rect95" />&#10;		<rect
   x="466.69901"
   y="200.33299"
   style="fill:#263238;stroke:#263238;stroke-miterlimit:10"
   width="1.791"
   height="2.9300001"
   id="rect96" />&#10;	</g>&#10;	<g
   id="g139">&#10;		<g
   id="g116">&#10;			<polygon
   style="fill:none;stroke:#263238;stroke-miterlimit:10"
   points="642.321,122.016 579.335,122.016 578.503,130.675 642.321,130.675 "
   id="polygon96" />&#10;			<polygon
   style="fill:none;stroke:#263238;stroke-miterlimit:10"
   points="642.321,130.675 579.335,130.675 578.503,139.334 642.321,139.334 "
   id="polygon97" />&#10;			<polygon
   style="fill:none;stroke:#263238;stroke-miterlimit:10"
   points="642.321,139.334 579.335,139.334 578.503,147.994 642.321,147.994 "
   id="polygon98" />&#10;			<polygon
   style="fill:none;stroke:#263238;stroke-miterlimit:10"
   points="642.321,147.994 579.335,147.994 578.503,156.653 642.321,156.653 "
   id="polygon99" />&#10;			<polygon
   style="fill:none;stroke:#263238;stroke-miterlimit:10"
   points="642.321,156.653 579.335,156.653 578.503,165.312 642.321,165.312 "
   id="polygon100" />&#10;			<polygon
   style="fill:none;stroke:#263238;stroke-miterlimit:10"
   points="642.321,165.312 579.335,165.312 578.503,173.972 642.321,173.972 "
   id="polygon101" />&#10;			<polygon
   style="fill:none;stroke:#263238;stroke-miterlimit:10"
   points="642.321,173.972 579.335,173.972 578.503,182.631 642.321,182.631 "
   id="polygon102" />&#10;			<polygon
   style="fill:none;stroke:#263238;stroke-miterlimit:10"
   points="642.321,182.631 579.335,182.631 578.503,191.29 642.321,191.29 "
   id="polygon103" />&#10;			<polygon
   style="fill:none;stroke:#263238;stroke-miterlimit:10"
   points="642.321,191.29 579.335,191.29 578.503,199.95 642.321,199.95 "
   id="polygon104" />&#10;			<polygon
   style="fill:none;stroke:#263238;stroke-miterlimit:10"
   points="642.321,199.95 579.335,199.95 578.503,208.609 642.321,208.609 "
   id="polygon105" />&#10;			<polygon
   style="fill:none;stroke:#263238;stroke-miterlimit:10"
   points="642.321,208.609 579.335,208.609 578.503,217.268 642.321,217.268 "
   id="polygon106" />&#10;			<polygon
   style="fill:none;stroke:#263238;stroke-miterlimit:10"
   points="642.321,217.268 579.335,217.268 578.503,225.928 642.321,225.928 "
   id="polygon107" />&#10;			<polygon
   style="fill:none;stroke:#263238;stroke-miterlimit:10"
   points="642.321,225.928 579.335,225.928 578.503,234.587 642.321,234.587 "
   id="polygon108" />&#10;			<polygon
   style="fill:none;stroke:#263238;stroke-miterlimit:10"
   points="642.321,234.587 579.335,234.587 578.503,243.247 642.321,243.247 "
   id="polygon109" />&#10;			<polygon
   style="fill:none;stroke:#263238;stroke-miterlimit:10"
   points="642.321,243.247 579.335,243.247 578.503,251.906 642.321,251.906 "
   id="polygon110" />&#10;			<polygon
   style="fill:none;stroke:#263238;stroke-miterlimit:10"
   points="642.321,251.891 579.335,251.891 578.503,260.55 642.321,260.55 "
   id="polygon111" />&#10;			<polygon
   style="fill:none;stroke:#263238;stroke-miterlimit:10"
   points="642.321,260.535 579.335,260.535 578.503,269.195 642.321,269.195 "
   id="polygon112" />&#10;			<polygon
   style="fill:none;stroke:#263238;stroke-miterlimit:10"
   points="642.321,269.18 579.335,269.18 578.503,277.839 642.321,277.839 "
   id="polygon113" />&#10;			<polygon
   style="fill:none;stroke:#263238;stroke-miterlimit:10"
   points="642.321,277.824 579.335,277.824 578.503,286.484 642.321,286.484 "
   id="polygon114" />&#10;			<polygon
   style="fill:none;stroke:#263238;stroke-miterlimit:10"
   points="642.321,286.469 579.335,286.469 578.503,295.128 642.321,295.128 "
   id="polygon115" />&#10;			<polygon
   style="fill:none;stroke:#263238;stroke-miterlimit:10"
   points="642.321,295.113 579.335,295.113 578.503,303.773 642.321,303.773 "
   id="polygon116" />&#10;		</g>&#10;		<g
   id="g137">&#10;			<polygon
   style="fill:none;stroke:#263238;stroke-miterlimit:10"
   points="707.068,122.016 644.083,122.016 643.251,130.675 707.068,130.675 "
   id="polygon117" />&#10;			<polygon
   style="fill:none;stroke:#263238;stroke-miterlimit:10"
   points="707.068,130.675 644.083,130.675 643.251,139.334 707.068,139.334 "
   id="polygon118" />&#10;			<polygon
   style="fill:none;stroke:#263238;stroke-miterlimit:10"
   points="707.068,139.334 644.083,139.334 643.251,147.994 707.068,147.994 "
   id="polygon119" />&#10;			<polygon
   style="fill:none;stroke:#263238;stroke-miterlimit:10"
   points="707.068,147.994 644.083,147.994 643.251,156.653 707.068,156.653 "
   id="polygon120" />&#10;			<polygon
   style="fill:none;stroke:#263238;stroke-miterlimit:10"
   points="707.068,156.653 644.083,156.653 643.251,165.312 707.068,165.312 "
   id="polygon121" />&#10;			<polygon
   style="fill:none;stroke:#263238;stroke-miterlimit:10"
   points="707.068,165.312 644.083,165.312 643.251,173.972 707.068,173.972 "
   id="polygon122" />&#10;			<polygon
   style="fill:none;stroke:#263238;stroke-miterlimit:10"
   points="707.068,173.972 644.083,173.972 643.251,182.631 707.068,182.631 "
   id="polygon123" />&#10;			<polygon
   style="fill:none;stroke:#263238;stroke-miterlimit:10"
   points="707.068,182.631 644.083,182.631 643.251,191.29 707.068,191.29 "
   id="polygon124" />&#10;			<polygon
   style="fill:none;stroke:#263238;stroke-miterlimit:10"
   points="707.068,191.29 644.083,191.29 643.251,199.95 707.068,199.95 "
   id="polygon125" />&#10;			<polygon
   style="fill:none;stroke:#263238;stroke-miterlimit:10"
   points="707.068,199.95 644.083,199.95 643.251,208.609 707.068,208.609 "
   id="polygon126" />&#10;			<polygon
   style="fill:none;stroke:#263238;stroke-miterlimit:10"
   points="707.068,208.609 644.083,208.609 643.251,217.268 707.068,217.268 "
   id="polygon127" />&#10;			<polygon
   style="fill:none;stroke:#263238;stroke-miterlimit:10"
   points="707.068,217.268 644.083,217.268 643.251,225.928 707.068,225.928 "
   id="polygon128" />&#10;			<polygon
   style="fill:none;stroke:#263238;stroke-miterlimit:10"
   points="707.068,225.928 644.083,225.928 643.251,234.587 707.068,234.587 "
   id="polygon129" />&#10;			<polygon
   style="fill:none;stroke:#263238;stroke-miterlimit:10"
   points="707.068,234.587 644.083,234.587 643.251,243.247 707.068,243.247 "
   id="polygon130" />&#10;			<polygon
   style="fill:none;stroke:#263238;stroke-miterlimit:10"
   points="707.068,243.247 644.083,243.247 643.251,251.906 707.068,251.906 "
   id="polygon131" />&#10;			<polygon
   style="fill:none;stroke:#263238;stroke-miterlimit:10"
   points="707.068,251.891 644.083,251.891 643.251,260.55 707.068,260.55 "
   id="polygon132" />&#10;			<polygon
   style="fill:none;stroke:#263238;stroke-miterlimit:10"
   points="707.068,260.535 644.083,260.535 643.251,269.195 707.068,269.195 "
   id="polygon133" />&#10;			<polygon
   style="fill:none;stroke:#263238;stroke-miterlimit:10"
   points="707.068,269.18 644.083,269.18 643.251,277.839 707.068,277.839 "
   id="polygon134" />&#10;			<polygon
   style="fill:none;stroke:#263238;stroke-miterlimit:10"
   points="707.068,277.824 644.083,277.824 643.251,286.484 707.068,286.484 "
   id="polygon135" />&#10;			<polygon
   style="fill:none;stroke:#263238;stroke-miterlimit:10"
   points="707.068,286.469 644.083,286.469 643.251,295.128 707.068,295.128 "
   id="polygon136" />&#10;			<polygon
   style="fill:none;stroke:#263238;stroke-miterlimit:10"
   points="707.068,295.113 644.083,295.113 643.251,303.773 707.068,303.773 "
   id="polygon137" />&#10;		</g>&#10;		<rect
   x="577.03101"
   y="115.312"
   style="fill:none;stroke:#263238;stroke-miterlimit:10"
   width="133.192"
   height="6.533"
   id="rect137" />&#10;		<line
   style="fill:none;stroke:#263238;stroke-miterlimit:10"
   x1="710.22302"
   y1="121.844"
   x2="710.22302"
   y2="236.89"
   id="line137" />&#10;		<line
   style="fill:none;stroke:#263238;stroke-miterlimit:10"
   x1="708.771"
   y1="122.028"
   x2="708.771"
   y2="200.961"
   id="line138" />&#10;		<rect
   x="709.375"
   y="236.636"
   style="fill:#263238;stroke:#263238;stroke-miterlimit:10"
   width="1.791"
   height="2.9300001"
   id="rect138" />&#10;		<rect
   x="707.763"
   y="200.33299"
   style="fill:#263238;stroke:#263238;stroke-miterlimit:10"
   width="1.791"
   height="2.9300001"
   id="rect139" />&#10;	</g>&#10;</g><g
         id="Lamps">&#10;	<g
   id="g140">&#10;		<polygon
   style="fill:#263238;stroke:#263238;stroke-miterlimit:10"
   points="623.36,112.655 598.283,138.05 660.054,138.05 634.977,112.655 "
   id="polygon139" />&#10;		<rect
   x="623.35999"
   y="109.275"
   style="fill:#263238;stroke:#263238;stroke-miterlimit:10"
   width="11.493"
   height="3.381"
   id="rect140" />&#10;		<line
   style="fill:none;stroke:#263238;stroke-miterlimit:10"
   x1="629.026"
   y1="109.275"
   x2="629.026"
   y2="65.577003"
   id="line140" />&#10;	</g>&#10;	<g
   id="g141">&#10;		<polygon
   style="fill:#263238;stroke:#263238;stroke-miterlimit:10"
   points="77.36,112.655 52.283,138.05 114.054,138.05 88.977,112.655 "
   id="polygon140" />&#10;		<rect
   x="77.360001"
   y="109.275"
   style="fill:#263238;stroke:#263238;stroke-miterlimit:10"
   width="11.493"
   height="3.381"
   id="rect141" />&#10;		<line
   style="fill:none;stroke:#263238;stroke-miterlimit:10"
   x1="83.026001"
   y1="109.275"
   x2="83.026001"
   y2="65.577003"
   id="line141" />&#10;	</g>&#10;</g><g
         id="File_Cabinet">&#10;	<g
   id="g150">&#10;		<g
   id="g142">&#10;			<polyline
   style="fill:#92e3a9"
   points="669.846,208.912 673.187,199.782 671.405,201.786 671.405,198.669 667.62,204.459      670.96,183.749 666.506,195.106 666.061,185.085 665.393,188.425 664.502,177.068 662.943,194.438 660.716,188.425      661.162,196.219 655.149,178.404 658.044,200.673 653.813,197.555 656.263,201.564 653.145,199.337 656.708,209.581      669.624,209.803    "
   id="polyline141" />&#10;			<polygon
   style="fill:#263238;stroke:#263238;stroke-linecap:round;stroke-linejoin:round;stroke-miterlimit:10"
   points="655.559,231.402 669.486,231.402 673.236,207.275 651.809,207.275 "
   id="polygon141" />&#10;		</g>&#10;		<g
   id="g149">&#10;			&#10;				<rect
   x="630.90698"
   y="231.23599"
   transform="rotate(180,661.82245,339.1343)"
   style="fill:#ffffff;stroke:#263238;stroke-linecap:round;stroke-linejoin:round;stroke-miterlimit:10"
   width="61.830002"
   height="215.79601"
   id="rect142" />&#10;			<g
   id="g144">&#10;				&#10;					<rect
   x="635.10901"
   y="238.325"
   transform="rotate(180,662.12255,264.3146)"
   style="fill:#ffffff;stroke:#263238;stroke-linecap:round;stroke-linejoin:round;stroke-miterlimit:10"
   width="54.026001"
   height="51.98"
   id="rect143" />&#10;				&#10;					<rect
   x="651.31702"
   y="259.58899"
   transform="rotate(180,662.12255,264.3146)"
   style="fill:#263238"
   width="21.611"
   height="9.4510002"
   id="rect144" />&#10;			</g>&#10;			<g
   id="g146">&#10;				&#10;					<rect
   x="635.10901"
   y="298.96799"
   transform="rotate(180,662.12255,324.9579)"
   style="fill:#ffffff;stroke:#263238;stroke-linecap:round;stroke-linejoin:round;stroke-miterlimit:10"
   width="54.026001"
   height="51.98"
   id="rect145" />&#10;				&#10;					<rect
   x="651.31702"
   y="320.23199"
   transform="rotate(180,662.12255,324.9579)"
   style="fill:#263238"
   width="21.611"
   height="9.4510002"
   id="rect146" />&#10;			</g>&#10;			<g
   id="g148">&#10;				&#10;					<rect
   x="635.10901"
   y="359.61099"
   transform="rotate(180,662.12255,385.60125)"
   style="fill:#ffffff;stroke:#263238;stroke-linecap:round;stroke-linejoin:round;stroke-miterlimit:10"
   width="54.026001"
   height="51.98"
   id="rect147" />&#10;				&#10;					<rect
   x="651.31702"
   y="380.87601"
   transform="rotate(180,662.12255,385.6012)"
   style="fill:#263238"
   width="21.611"
   height="9.4510002"
   id="rect148" />&#10;			</g>&#10;		</g>&#10;	</g>&#10;</g><g
         id="Character_2">&#10;	<g
   id="g190">&#10;		<g
   id="g154">&#10;			&#10;				<line
   style="fill:none;stroke:#263238;stroke-width:4;stroke-linecap:round;stroke-miterlimit:10"
   x1="494.246"
   y1="446.32599"
   x2="497.94199"
   y2="367.55099"
   id="line150" />&#10;			&#10;				<line
   style="fill:none;stroke:#263238;stroke-width:4;stroke-linecap:round;stroke-miterlimit:10"
   x1="500.09799"
   y1="446.302"
   x2="505.02701"
   y2="342.60001"
   id="line151" />&#10;			&#10;				<line
   style="fill:none;stroke:#263238;stroke-width:4;stroke-linecap:round;stroke-miterlimit:10"
   x1="568.48199"
   y1="446.302"
   x2="563.245"
   y2="343.832"
   id="line152" />&#10;			&#10;				<line
   style="fill:none;stroke:#263238;stroke-width:4;stroke-linecap:round;stroke-miterlimit:10"
   x1="573.71802"
   y1="446.32599"
   x2="570.02197"
   y2="367.55099"
   id="line153" />&#10;			<path
   style="fill:#c4c4c4;stroke:#263238;stroke-linecap:round;stroke-linejoin:round;stroke-miterlimit:10"
   d="m 562.179,346.469 h -57 c -2.485,0 -4.5,-2.015 -4.5,-4.5 v -50.977 c 0,-2.485 2.015,-4.5 4.5,-4.5 h 57 c 2.485,0 4.5,2.015 4.5,4.5 v 50.977 c 0,2.485 -2.015,4.5 -4.5,4.5 z"
   id="path153" />&#10;			<path
   style="fill:#c4c4c4;stroke:#263238;stroke-linecap:round;stroke-linejoin:round;stroke-miterlimit:10"
   d="m 574.052,372.199 h -77.58 c -2.071,0 -3.75,-1.679 -3.75,-3.75 v 0 c 0,-2.071 1.679,-3.75 3.75,-3.75 h 77.58 c 2.071,0 3.75,1.679 3.75,3.75 v 0 c 0,2.071 -1.679,3.75 -3.75,3.75 z"
   id="path154" />&#10;		</g>&#10;		<g
   id="g189">&#10;			<g
   id="g164">&#10;				<path
   style="fill:#c4c4c4;stroke:#263238;stroke-linecap:round;stroke-linejoin:round;stroke-miterlimit:10"
   d="m 507.857,309.127 -3.599,14.738 c 0,0 -3.07,1.387 -6.878,2.079 -3.519,0.64 -5.032,0.439 -4.813,-0.435 0.218,-0.874 5.898,-23.591 5.898,-23.591 z"
   id="path155" />&#10;				<path
   style="fill:#c4c4c4;stroke:#263238;stroke-linecap:round;stroke-linejoin:round;stroke-miterlimit:10"
   d="m 525.218,265.222 c 0,0 -0.219,7.427 -1.529,9.611 -1.311,2.184 -7.645,3.277 -11.359,4.15 -3.713,0.874 -7.645,2.84 -9.829,5.898 -2.184,3.058 -9.174,21.625 -9.174,21.625 l 14.854,7.864 1.966,-7.208 5.898,10.048 c 0,0 -8.737,14.198 -11.796,22.936 -3.058,8.737 -2.84,15.509 1.966,20.751 4.806,5.242 10.266,5.898 15.509,6.116 5.242,0.218 30.144,0.874 35.823,-1.311 5.679,-2.184 9.174,-6.771 8.519,-18.13 -0.655,-11.359 -12.451,-28.396 -13.106,-29.926 -0.655,-1.529 -1.311,-2.84 -1.311,-2.84 l 1.747,-9.393 2.84,6.771 13.761,-9.393 c 0,0 -6.772,-16.164 -10.485,-20.096 -3.713,-3.932 -9.174,-4.587 -13.325,-5.242 -4.15,-0.655 -5.898,-1.747 -7.427,-4.15 -1.529,-2.403 -1.311,-8.082 -1.311,-8.082 h -12.231 z"
   id="path156" />&#10;				<polygon
   style="fill:#263238;stroke:#263238;stroke-linecap:round;stroke-linejoin:round;stroke-miterlimit:10"
   points="529.98,268.576 525.218,265.222 524.69,270.611 "
   id="polygon156" />&#10;				<path
   style="fill:#c4c4c4;stroke:#263238;stroke-linecap:round;stroke-linejoin:round;stroke-miterlimit:10"
   d="m 557.547,309.127 5.461,20.533 c 0,0 3.058,3.495 6.771,2.403 3.713,-1.092 3.276,-5.679 3.058,-6.553 -0.218,-0.874 -5.898,-23.591 -5.898,-23.591 z"
   id="path157" />&#10;				<g
   id="g160">&#10;					<path
   style="fill:#92e3a9;stroke:#263238;stroke-linecap:round;stroke-linejoin:round;stroke-miterlimit:10"
   d="m 566.065,347.572 c -0.655,-11.359 -12.451,-28.396 -13.106,-29.926 -0.655,-1.529 -1.311,-2.84 -1.311,-2.84 l 1.747,-9.393 2.84,6.771 13.761,-9.393 c 0,0 -6.772,-16.164 -10.485,-20.096 -2.666,-2.823 -6.232,-3.954 -9.568,-4.612 l -4.193,16.408 h -27.086 l -5.192,-15.769 c -0.399,0.089 -0.785,0.176 -1.143,0.26 -3.713,0.874 -7.645,2.84 -9.829,5.898 -2.184,3.058 -9.174,21.625 -9.174,21.625 l 14.854,7.864 1.966,-7.208 5.898,10.048 c 0,0 -8.737,14.198 -11.796,22.936 -3.058,8.737 -2.84,15.509 1.966,20.751 4.806,5.242 10.266,5.898 15.509,6.116 5.242,0.218 30.144,0.874 35.823,-1.311 5.68,-2.183 9.175,-6.77 8.519,-18.129 z"
   id="path158" />&#10;					&#10;						<line
   style="fill:none;stroke:#263238;stroke-linecap:round;stroke-linejoin:round;stroke-miterlimit:10"
   x1="523.58197"
   y1="315.59698"
   x2="540.18701"
   y2="312.95001"
   id="line158" />&#10;					&#10;						<line
   style="fill:none;stroke:#263238;stroke-linecap:round;stroke-linejoin:round;stroke-miterlimit:10"
   x1="529.59802"
   y1="317.28101"
   x2="540.66901"
   y2="314.875"
   id="line159" />&#10;					&#10;						<line
   style="fill:none;stroke:#263238;stroke-linecap:round;stroke-linejoin:round;stroke-miterlimit:10"
   x1="553.396"
   y1="305.414"
   x2="551.01703"
   y2="294.659"
   id="line160" />&#10;				</g>&#10;				<g
   id="g161">&#10;					<path
   style="fill:#c4c4c4;stroke:#263238;stroke-linecap:round;stroke-linejoin:round;stroke-miterlimit:10"
   d="m 525.437,421.553 c 0,0 -10.048,-54.759 -10.485,-61.094 -0.437,-6.335 4.15,-10.048 9.393,-11.14 5.243,-1.092 9.611,4.369 10.048,8.082 0.371,3.151 0.27,49.502 0.23,63.3 -0.007,2.572 -0.266,5.128 -0.771,7.65 -0.419,2.091 -0.876,4.431 -0.988,5.216 -0.218,1.529 -0.218,7.864 -2.84,11.359 -2.621,3.495 -6.553,5.898 -7.864,1.747 -1.311,-4.151 -0.218,-10.266 0.874,-13.543 1.092,-3.276 2.184,-5.898 2.184,-5.898 z"
   id="path160" />&#10;					<path
   style="fill:#263238;stroke:#263238;stroke-linecap:round;stroke-miterlimit:10"
   d="m 532.645,430.509 c -1.529,3.932 -2.621,6.99 -5.898,7.208 -3.276,0.218 -3.713,-4.587 -3.713,-4.587 -1.092,3.277 -2.184,9.393 -0.874,13.543 1.31,4.15 5.242,1.747 7.864,-1.747 2.621,-3.495 2.621,-9.829 2.84,-11.359 0.112,-0.785 0.57,-3.125 0.988,-5.216 0.097,-0.484 0.177,-0.97 0.255,-1.457 -0.508,1.221 -1.021,2.481 -1.462,3.615 z"
   id="path161" />&#10;				</g>&#10;				<g
   id="g163">&#10;					<path
   style="fill:#c4c4c4;stroke:#263238;stroke-linecap:round;stroke-linejoin:round;stroke-miterlimit:10"
   d="m 545.121,421.553 c 0,0 10.048,-54.759 10.485,-61.094 0.437,-6.335 -4.15,-10.048 -9.393,-11.14 -5.242,-1.092 -9.611,4.369 -10.048,8.082 -0.371,3.151 -0.27,49.502 -0.231,63.3 0.007,2.572 0.266,5.128 0.771,7.65 0.419,2.091 0.876,4.431 0.989,5.216 0.219,1.529 0.219,7.864 2.84,11.359 2.621,3.495 6.553,5.898 7.864,1.747 1.311,-4.151 0.219,-10.266 -0.874,-13.543 -1.092,-3.276 -2.184,-5.898 -2.184,-5.898 z"
   id="path162" />&#10;					<path
   style="fill:#263238;stroke:#263238;stroke-linecap:round;stroke-miterlimit:10"
   d="m 537.913,430.509 c 1.529,3.932 2.621,6.99 5.898,7.208 3.276,0.218 3.713,-4.587 3.713,-4.587 1.092,3.277 2.184,9.393 0.874,13.543 -1.31,4.15 -5.242,1.747 -7.864,-1.747 -2.621,-3.495 -2.621,-9.829 -2.84,-11.359 -0.112,-0.785 -0.57,-3.125 -0.989,-5.216 -0.097,-0.484 -0.177,-0.97 -0.255,-1.457 0.509,1.221 1.022,2.481 1.463,3.615 z"
   id="path163" />&#10;				</g>&#10;			</g>&#10;			<g
   id="g177">&#10;				&#10;					<ellipse
   style="fill:#263238;stroke:#263238;stroke-linecap:round;stroke-linejoin:round;stroke-miterlimit:10"
   cx="531.09198"
   cy="245.901"
   rx="21.266001"
   ry="20.240999"
   id="ellipse164" />&#10;				<g
   id="g176">&#10;					<path
   style="fill:#c4c4c4;stroke:#263238;stroke-linecap:round;stroke-linejoin:round;stroke-miterlimit:10"
   d="m 519.59,251.125 c 0,0 -2.057,-2.057 -3.394,0.103 -1.337,2.16 3.085,6.787 3.497,5.965 0.411,-0.823 -0.103,-6.068 -0.103,-6.068 z"
   id="path164" />&#10;					<path
   style="fill:#c4c4c4;stroke:#263238;stroke-linecap:round;stroke-linejoin:round;stroke-miterlimit:10"
   d="m 542.021,251.125 c 0,0 2.057,-2.057 3.394,0.103 1.337,2.16 -3.085,6.787 -3.496,5.965 -0.412,-0.823 0.102,-6.068 0.102,-6.068 z"
   id="path165" />&#10;					<path
   style="fill:#c4c4c4;stroke:#263238;stroke-linecap:round;stroke-linejoin:round;stroke-miterlimit:10"
   d="m 542.707,246.926 c 0,-6.604 -5.2,-11.957 -11.615,-11.957 -6.415,0 -11.615,5.353 -11.615,11.957 0,0.288 0.013,0.573 0.033,0.855 l -0.033,-0.001 c 0,0 -0.854,8.199 0.342,11.103 1.196,2.904 7.8,9.865 9.338,10.548 1.537,0.683 3.702,0.72 5.01,-0.641 0.638,-0.663 7.516,-6.491 7.857,-10.59 0.286,-3.435 0.452,-7.826 0.499,-9.161 0.119,-0.687 0.184,-1.392 0.184,-2.113 z"
   id="path166" />&#10;					<path
   style="fill:none;stroke:#263238;stroke-linecap:round;stroke-linejoin:round;stroke-miterlimit:10"
   d="m 528.64,255.341 c 0,0 -0.309,0.823 0.206,1.44 0.514,0.617 1.337,0.926 2.365,0.926 1.028,0 2.263,-0.411 2.16,-2.468"
   id="path167" />&#10;					<g
   id="g169">&#10;						<path
   style="fill:#9e9e9e;stroke:#263238;stroke-linecap:round;stroke-linejoin:round;stroke-miterlimit:10"
   d="m 531.52,259.352 c 0,0 -1.131,0.103 -2.468,0.411 -1.337,0.308 -3.085,0.617 -3.085,0.617 0,0 1.337,1.954 3.394,2.571 2.057,0.617 2.982,0.411 4.011,0 1.028,-0.411 3.188,-2.777 3.188,-2.777 0,0 -2.16,-0.206 -2.982,-0.514 -0.824,-0.308 -2.058,-0.308 -2.058,-0.308 z"
   id="path168" />&#10;						<path
   style="fill:#9e9e9e;stroke:#263238;stroke-linecap:round;stroke-linejoin:round;stroke-miterlimit:10"
   d="m 531.52,259.352 c 0,0 -1.131,0.103 -2.468,0.411 -1.337,0.308 -3.085,0.617 -3.085,0.617 0,0 6.171,2.057 10.593,-0.206 0,0 -2.16,-0.206 -2.982,-0.514 -0.824,-0.308 -2.058,-0.308 -2.058,-0.308 z"
   id="path169" />&#10;					</g>&#10;					<g
   id="g175">&#10;						<path
   style="fill:#263238"
   d="m 526.658,251.251 c 0,0.653 -0.391,1.183 -0.874,1.183 -0.483,0 -0.874,-0.529 -0.874,-1.183 0,-0.653 0.391,-1.183 0.874,-1.183 0.482,0 0.874,0.53 0.874,1.183 z"
   id="path170" />&#10;						<path
   style="fill:#263238"
   d="m 536.433,251.251 c 0,0.653 -0.391,1.183 -0.874,1.183 -0.483,0 -0.874,-0.529 -0.874,-1.183 0,-0.653 0.391,-1.183 0.874,-1.183 0.483,0 0.874,0.53 0.874,1.183 z"
   id="path171" />&#10;						<path
   style="fill:none;stroke:#263238;stroke-linecap:round;stroke-linejoin:round;stroke-miterlimit:10"
   d="m 529.977,250.611 c 0,-2.669 -2.164,-4.833 -4.833,-4.833 -2.669,0 -4.834,2.164 -4.834,4.833 0,2.669 2.164,4.834 4.834,4.834 2.67,0 4.833,-2.165 4.833,-4.834 z"
   id="path172" />&#10;						<path
   style="fill:none;stroke:#263238;stroke-linecap:round;stroke-linejoin:round;stroke-miterlimit:10"
   d="m 541.495,250.611 c 0,-2.669 -2.164,-4.833 -4.833,-4.833 -2.669,0 -4.834,2.164 -4.834,4.833 0,2.669 2.164,4.834 4.834,4.834 2.669,-0.001 4.833,-2.165 4.833,-4.834 z"
   id="path173" />&#10;						&#10;							<line
   style="fill:none;stroke:#263238;stroke-linecap:round;stroke-linejoin:round;stroke-miterlimit:10"
   x1="520.31"
   y1="250.61099"
   x2="519.28101"
   y2="250.61099"
   id="line173" />&#10;						&#10;							<line
   style="fill:none;stroke:#263238;stroke-linecap:round;stroke-linejoin:round;stroke-miterlimit:10"
   x1="531.41699"
   y1="250.61099"
   x2="530.388"
   y2="250.61099"
   id="line174" />&#10;						&#10;							<line
   style="fill:none;stroke:#263238;stroke-linecap:round;stroke-linejoin:round;stroke-miterlimit:10"
   x1="542.52301"
   y1="250.61099"
   x2="541.495"
   y2="250.61099"
   id="line175" />&#10;					</g>&#10;					<path
   style="fill:none;stroke:#263238;stroke-linecap:round;stroke-linejoin:round;stroke-miterlimit:10"
   d="m 521.544,245.88 c 0,0 2.057,-2.262 5.553,-0.514"
   id="path175" />&#10;					<path
   style="fill:none;stroke:#263238;stroke-linecap:round;stroke-linejoin:round;stroke-miterlimit:10"
   d="m 533.885,245.88 c 0,0 2.88,-1.851 5.862,0.206"
   id="path176" />&#10;				</g>&#10;			</g>&#10;			<path
   style="fill:#c4c4c4;stroke:#263238;stroke-linecap:round;stroke-linejoin:round;stroke-miterlimit:10"
   d="m 566.16,320.346 c -2.079,0.48 -7.998,3.519 -7.998,3.519 l -5.758,-1.44 -3.727,2.386 c 0,0 2.927,1.772 5.326,2.252 2.399,0.48 5.598,0.96 6.078,1.12 0.48,0.16 12.316,0 12.316,0 0,0 0.878,-0.87 0.439,-2.674 -0.439,-1.804 -1.719,-4.684 -1.719,-4.684"
   id="path177" />&#10;			<path
   style="fill:#c4c4c4;stroke:#263238;stroke-linecap:round;stroke-linejoin:round;stroke-miterlimit:10"
   d="m 498.382,319.524 c 2.132,0.102 10.195,0.662 10.195,0.662 l 3.711,-1.065 4.092,1.685 c 0,0 -2.565,2.265 -4.84,3.164 -2.276,0.899 -5.338,1.941 -5.782,2.184 -0.444,0.243 -12.12,2.192 -12.12,2.192 0,0 -1.182,-0.983 -1.071,-2.837 0.111,-1.854 2.103,-8.259 2.103,-8.259"
   id="path178" />&#10;			<g
   id="g183">&#10;				<path
   style="fill:#c4c4c4;stroke:#263238;stroke-linecap:round;stroke-linejoin:round;stroke-miterlimit:10"
   d="m 544.518,321.453 c 0,0 -2.879,-1.12 -3.359,-0.96 -0.48,0.16 -2.399,2.719 -3.039,3.519 -0.64,0.8 -0.16,1.919 0.8,1.76 0.96,-0.16 3.039,-2.154 3.039,-2.154 0,0 6.718,1.674 6.718,1.194 0,-0.48 -4.159,-3.359 -4.159,-3.359 z"
   id="path179" />&#10;				<path
   style="fill:#c4c4c4;stroke:#263238;stroke-linecap:round;stroke-linejoin:round;stroke-miterlimit:10"
   d="m 548.615,318.509 c 0,0 -2.219,-0.881 -3.513,-0.705 -1.294,0.176 -3.143,4.581 -3.143,5.814 0,1.233 1.479,1.586 2.219,0.705 0.74,-0.881 1.849,-4.052 1.849,-4.052"
   id="path180" />&#10;				<path
   style="fill:#c4c4c4;stroke:#263238;stroke-linecap:round;stroke-linejoin:round;stroke-miterlimit:10"
   d="m 549.472,318.718 c 0,0 -2.138,-1.924 -2.993,1.283 -0.855,3.207 -1.924,6.201 -0.855,6.414 1.069,0.214 2.566,-1.069 2.993,-2.993 0.427,-1.925 1.71,-2.566 0.855,-4.704 z"
   id="path181" />&#10;				<path
   style="fill:#c4c4c4;stroke:#263238;stroke-linecap:round;stroke-linejoin:round;stroke-miterlimit:10"
   d="m 552.351,319.358 c 0,0 -2.138,-1.924 -2.993,1.283 -0.855,3.207 -1.924,6.201 -0.855,6.414 1.069,0.214 2.566,-1.069 2.993,-2.993 0.427,-1.925 1.71,-2.566 0.855,-4.704 z"
   id="path182" />&#10;				<path
   style="fill:#c4c4c4;stroke:#263238;stroke-linecap:round;stroke-linejoin:round;stroke-miterlimit:10"
   d="m 554.34,320.332 c 0,0 -1.624,-1.436 -2.273,0.957 -0.65,2.393 -1.461,4.626 -0.65,4.785 0.812,0.159 1.949,-0.798 2.273,-2.233 0.325,-1.435 1.299,-1.914 0.65,-3.509 z"
   id="path183" />&#10;			</g>&#10;			<g
   id="g188">&#10;				<path
   style="fill:#c4c4c4;stroke:#263238;stroke-linecap:round;stroke-linejoin:round;stroke-miterlimit:10"
   d="m 515.684,321.453 c 0,0 2.879,-1.12 3.359,-0.96 0.48,0.16 2.399,2.719 3.039,3.519 0.64,0.8 0.16,1.919 -0.8,1.76 -0.96,-0.16 -3.039,-2.154 -3.039,-2.154 0,0 -6.718,1.674 -6.718,1.194 0,-0.48 4.159,-3.359 4.159,-3.359 z"
   id="path184" />&#10;				<path
   style="fill:#c4c4c4;stroke:#263238;stroke-linecap:round;stroke-linejoin:round;stroke-miterlimit:10"
   d="m 511.587,318.509 c 0,0 2.219,-0.881 3.513,-0.705 1.294,0.176 3.143,4.581 3.143,5.814 0,1.233 -1.479,1.586 -2.219,0.705 -0.74,-0.881 -1.849,-4.052 -1.849,-4.052"
   id="path185" />&#10;				<path
   style="fill:#c4c4c4;stroke:#263238;stroke-linecap:round;stroke-linejoin:round;stroke-miterlimit:10"
   d="m 510.73,318.718 c 0,0 2.138,-1.924 2.993,1.283 0.855,3.207 1.924,6.201 0.855,6.414 -1.069,0.214 -2.566,-1.069 -2.993,-2.993 -0.427,-1.925 -1.71,-2.566 -0.855,-4.704 z"
   id="path186" />&#10;				<path
   style="fill:#c4c4c4;stroke:#263238;stroke-linecap:round;stroke-linejoin:round;stroke-miterlimit:10"
   d="m 507.851,319.358 c 0,0 2.138,-1.924 2.993,1.283 0.855,3.207 1.924,6.201 0.855,6.414 -1.069,0.214 -2.566,-1.069 -2.993,-2.993 -0.428,-1.925 -1.711,-2.566 -0.855,-4.704 z"
   id="path187" />&#10;				<path
   style="fill:#c4c4c4;stroke:#263238;stroke-linecap:round;stroke-linejoin:round;stroke-miterlimit:10"
   d="m 505.862,320.332 c 0,0 1.624,-1.436 2.273,0.957 0.65,2.393 1.461,4.626 0.65,4.785 -0.812,0.159 -1.949,-0.798 -2.273,-2.233 -0.325,-1.435 -1.299,-1.914 -0.65,-3.509 z"
   id="path188" />&#10;			</g>&#10;		</g>&#10;	</g>&#10;</g><g
         id="Pencils">&#10;	<g
   id="g199">&#10;		<g
   id="g192">&#10;			&#10;				<rect
   x="586.71503"
   y="299.08701"
   transform="matrix(0.9936,-0.1133,0.1133,0.9936,-31.4676,68.5941)"
   style="fill:#ffffff;stroke:#263238;stroke-linecap:round;stroke-linejoin:round;stroke-miterlimit:10"
   width="2.3829999"
   height="24.261999"
   id="rect190" />&#10;			&#10;				<rect
   x="586.71503"
   y="299.08701"
   transform="matrix(0.9936,-0.1133,0.1133,0.9936,-31.4676,68.5941)"
   style="fill:#ffffff;stroke:#263238;stroke-linecap:round;stroke-linejoin:round;stroke-miterlimit:10"
   width="2.3829999"
   height="24.261999"
   id="rect191" />&#10;			&#10;				<rect
   x="585.51099"
   y="299.155"
   transform="matrix(0.9936,-0.1132,0.1132,0.9936,-30.2731,68.3741)"
   style="fill:#92e3a9;stroke:#263238;stroke-linecap:round;stroke-linejoin:round;stroke-miterlimit:10"
   width="2.3829999"
   height="3.0009999"
   id="rect192" />&#10;		</g>&#10;		<g
   id="g195">&#10;			&#10;				<rect
   x="590.68298"
   y="301.41901"
   transform="matrix(0.9965,0.0833,-0.0833,0.9965,28.0607,-48.1814)"
   style="fill:#ffffff;stroke:#263238;stroke-linecap:round;stroke-linejoin:round;stroke-miterlimit:10"
   width="2.152"
   height="21.916"
   id="rect193" />&#10;			&#10;				<rect
   x="590.68298"
   y="301.41901"
   transform="matrix(0.9965,0.0833,-0.0833,0.9965,28.0607,-48.1814)"
   style="fill:#ffffff;stroke:#263238;stroke-linecap:round;stroke-linejoin:round;stroke-miterlimit:10"
   width="2.152"
   height="21.916"
   id="rect194" />&#10;			&#10;				<rect
   x="591.203"
   y="301.73199"
   transform="matrix(0.0832,-0.9965,0.9965,0.0832,241.4734,868.1022)"
   style="fill:#92e3a9;stroke:#263238;stroke-linecap:round;stroke-linejoin:round;stroke-miterlimit:10"
   width="2.711"
   height="2.152"
   id="rect195" />&#10;		</g>&#10;		<g
   id="g198">&#10;			&#10;				<rect
   x="594.35602"
   y="298.927"
   transform="matrix(0.9965,0.0832,-0.0832,0.9965,27.8494,-48.4695)"
   style="fill:#ffffff;stroke:#263238;stroke-linecap:round;stroke-linejoin:round;stroke-miterlimit:10"
   width="2.152"
   height="21.916"
   id="rect196" />&#10;			&#10;				<rect
   x="594.35602"
   y="298.927"
   transform="matrix(0.9965,0.0832,-0.0832,0.9965,27.8494,-48.4695)"
   style="fill:#ffffff;stroke:#263238;stroke-linecap:round;stroke-linejoin:round;stroke-miterlimit:10"
   width="2.152"
   height="21.916"
   id="rect197" />&#10;			&#10;				<rect
   x="594.875"
   y="299.23999"
   transform="matrix(0.0832,-0.9965,0.9965,0.0832,247.3229,869.4772)"
   style="fill:#92e3a9;stroke:#263238;stroke-linecap:round;stroke-linejoin:round;stroke-miterlimit:10"
   width="2.711"
   height="2.152"
   id="rect198" />&#10;		</g>&#10;		&#10;			<rect
   x="584.51501"
   y="308.90799"
   style="fill:#263238;stroke:#263238;stroke-linecap:round;stroke-linejoin:round;stroke-miterlimit:10"
   width="12.997"
   height="15.38"
   id="rect199" />&#10;	</g>&#10;</g><g
         id="Mug_2">&#10;	<g
   id="g202">&#10;		<g
   id="g200">&#10;			<path
   style="fill:#ffffff;stroke:#263238;stroke-linecap:round;stroke-linejoin:round;stroke-miterlimit:10"
   d="m 459.2,322.084 h -1.267 c -0.553,0 -1,-0.447 -1,-1 0,-0.553 0.447,-1 1,-1 h 1.267 c 1.045,0 1.896,-0.851 1.896,-1.896 v -4.344 c 0,-1.045 -0.851,-1.896 -1.896,-1.896 h -1.629 c -0.553,0 -1,-0.448 -1,-1 0,-0.552 0.447,-1 1,-1 h 1.629 c 2.148,0 3.896,1.748 3.896,3.896 v 4.344 c -10e-4,2.149 -1.748,3.896 -3.896,3.896 z"
   id="path199" />&#10;		</g>&#10;		<g
   id="g201">&#10;			&#10;				<rect
   x="447.617"
   y="306.60599"
   style="fill:#ffffff;stroke:#263238;stroke-linecap:round;stroke-linejoin:round;stroke-miterlimit:10"
   width="12.126"
   height="17.917"
   id="rect200" />&#10;		</g>&#10;	</g>&#10;</g><g
         id="Device_2">&#10;	<g
   id="g212">&#10;		&#10;			<rect
   x="504.30099"
   y="322.34"
   style="fill:#ffffff;stroke:#263238;stroke-linecap:round;stroke-linejoin:round;stroke-miterlimit:10"
   width="53.541"
   height="2.3740001"
   id="rect202" />&#10;		<g
   id="g211">&#10;			<g
   id="g204">&#10;				<g
   id="g203">&#10;					&#10;						<rect
   x="456.323"
   y="268.267"
   style="fill:#ffffff;stroke:#263238;stroke-linecap:round;stroke-linejoin:round;stroke-miterlimit:10"
   width="57.979"
   height="44.598999"
   id="rect203" />&#10;				</g>&#10;			</g>&#10;			<g
   id="g206">&#10;				<g
   id="g205">&#10;					&#10;						<rect
   x="454.85901"
   y="268.267"
   style="fill:#ffffff;stroke:#263238;stroke-linecap:round;stroke-linejoin:round;stroke-miterlimit:10"
   width="57.979"
   height="44.598999"
   id="rect204" />&#10;				</g>&#10;			</g>&#10;			<g
   id="g208">&#10;				<g
   id="g207">&#10;					<polygon
   style="fill:#c7c7c7;stroke:#263238;stroke-linecap:round;stroke-linejoin:round;stroke-miterlimit:10"
   points="496.609,322.099 482.219,322.099 478.194,324.378 496.609,324.378 "
   id="polygon206" />&#10;				</g>&#10;			</g>&#10;			<g
   id="g210">&#10;				<g
   id="g209">&#10;					<polygon
   style="fill:#c7c7c7;stroke:#263238;stroke-linecap:round;stroke-linejoin:round;stroke-miterlimit:10"
   points="488.302,324.378 474.272,324.378 478.297,284.185 492.327,284.185 "
   id="polygon208" />&#10;				</g>&#10;			</g>&#10;		</g>&#10;	</g>&#10;</g><g
         id="Table_2">&#10;	<g
   id="g218">&#10;		<g
   id="g215">&#10;			<path
   style="fill:#263238;stroke:#263238;stroke-linecap:round;stroke-linejoin:round;stroke-miterlimit:10"
   d="m 594.675,333.884 9.414,112.014 c 0.103,0.71 0.785,1.185 1.471,1.024 0.582,-0.137 0.97,-0.689 0.909,-1.294 L 600.06,333.884 Z"
   id="path212" />&#10;			<path
   style="fill:#263238;stroke:#263238;stroke-linecap:round;stroke-linejoin:round;stroke-miterlimit:10"
   d="m 588.532,333.884 9.445,112.388 c 0.103,0.71 0.785,1.185 1.471,1.024 0.582,-0.137 0.971,-0.689 0.909,-1.294 l -6.43,-112.117 h -5.395 z"
   id="path213" />&#10;			<path
   style="fill:#263238;stroke:#263238;stroke-linecap:round;stroke-linejoin:round;stroke-miterlimit:10"
   d="m 428.816,333.884 -4.967,111.033 c -0.053,0.604 0.342,1.162 0.926,1.306 v 0 c 0.689,0.17 1.365,-0.296 1.459,-1.005 l 7.957,-111.335 h -5.375 z"
   id="path214" />&#10;			<path
   style="fill:#263238;stroke:#263238;stroke-linecap:round;stroke-linejoin:round;stroke-miterlimit:10"
   d="m 421.329,333.884 -4.951,110.66 c -0.053,0.604 0.342,1.162 0.926,1.306 0.689,0.17 1.365,-0.296 1.459,-1.005 l 7.931,-110.961 z"
   id="path215" />&#10;		</g>&#10;		<g
   id="g217">&#10;			&#10;				<rect
   x="417.815"
   y="327.67999"
   style="fill:#ffffff;stroke:#263238;stroke-linecap:round;stroke-linejoin:round;stroke-miterlimit:10"
   width="190.222"
   height="9.618"
   id="rect215" />&#10;			&#10;				<rect
   x="417.815"
   y="327.67999"
   style="fill:#263238;stroke:#263238;stroke-linecap:round;stroke-linejoin:round;stroke-miterlimit:10"
   width="190.222"
   height="3.299"
   id="rect216" />&#10;			&#10;				<rect
   x="414.82999"
   y="324.479"
   style="fill:#ffffff;stroke:#263238;stroke-linecap:round;stroke-linejoin:round;stroke-miterlimit:10"
   width="196.194"
   height="3.6670001"
   id="rect217" />&#10;		</g>&#10;	</g>&#10;</g><g
         id="Mug_1">&#10;	<g
   id="g220">&#10;		&#10;			<rect
   x="323.26801"
   y="306.60599"
   style="fill:#ffffff;stroke:#263238;stroke-linecap:round;stroke-linejoin:round;stroke-miterlimit:10"
   width="12.126"
   height="17.917"
   id="rect218" />&#10;		<g
   id="g219">&#10;			<path
   style="fill:#ffffff;stroke:#263238;stroke-linecap:round;stroke-linejoin:round;stroke-miterlimit:10"
   d="m 334.851,322.084 h -1.267 c -0.553,0 -1,-0.447 -1,-1 0,-0.553 0.447,-1 1,-1 h 1.267 c 1.045,0 1.895,-0.851 1.895,-1.896 v -4.344 c 0,-1.045 -0.851,-1.896 -1.895,-1.896 h -1.629 c -0.553,0 -1,-0.448 -1,-1 0,-0.552 0.447,-1 1,-1 h 1.629 c 2.148,0 3.895,1.748 3.895,3.896 v 4.344 c 0,2.149 -1.747,3.896 -3.895,3.896 z"
   id="path218" />&#10;		</g>&#10;	</g>&#10;</g><g
         id="Device_1">&#10;	<g
   id="g224">&#10;		<g
   id="g223">&#10;			<g
   id="g222">&#10;				<polygon
   style="fill:#c7c7c7;stroke:#263238;stroke-linecap:round;stroke-linejoin:round;stroke-miterlimit:10"
   points="285.462,324.306 271.993,324.306 268.6,307.188 282.069,307.188 "
   id="polygon220" />&#10;				&#10;					<rect
   x="248.04201"
   y="268.267"
   style="fill:#ffffff;stroke:#263238;stroke-linecap:round;stroke-linejoin:round;stroke-miterlimit:10"
   width="57.979"
   height="44.598999"
   id="rect220" />&#10;				&#10;					<rect
   x="251.528"
   y="271.77301"
   style="fill:#92e3a9;stroke:#263238;stroke-linecap:round;stroke-linejoin:round;stroke-miterlimit:10"
   width="51.007"
   height="37.587002"
   id="rect221" />&#10;				&#10;					<rect
   x="251.528"
   y="271.77301"
   style="fill:#92e3a9;stroke:#263238;stroke-linecap:round;stroke-linejoin:round;stroke-miterlimit:10"
   width="51.007"
   height="6.2620001"
   id="rect222" />&#10;				&#10;					<line
   style="fill:none;stroke:#263238;stroke-linecap:round;stroke-linejoin:round;stroke-miterlimit:10"
   x1="290.724"
   y1="278.63699"
   x2="290.724"
   y2="309.34299"
   id="line222" />&#10;			</g>&#10;			&#10;				<rect
   x="214.666"
   y="322.34"
   style="fill:#ffffff;stroke:#263238;stroke-linecap:round;stroke-linejoin:round;stroke-miterlimit:10"
   width="46.799"
   height="2.3740001"
   id="rect223" />&#10;			<polygon
   style="fill:#c7c7c7;stroke:#263238;stroke-linecap:round;stroke-linejoin:round;stroke-miterlimit:10"
   points="284.767,323.231 264.053,323.231 264.053,324.714 285.445,324.714 "
   id="polygon223" />&#10;		</g>&#10;		<path
   style="fill:#263238;stroke:#263238;stroke-linecap:round;stroke-linejoin:round;stroke-miterlimit:10"
   d="m 291.647,321.034 c 0,0 4.113,1.345 4.432,3.445 h -16.917 c 0,0 1.077,-4.196 3.176,-5.245 2.098,-1.049 8.545,0.452 9.309,1.8 z"
   id="path223" />&#10;	</g>&#10;</g><g
         id="Table_1">&#10;	<g
   id="g232">&#10;		<g
   id="g227">&#10;			<path
   style="fill:#263238;stroke:#263238;stroke-linecap:round;stroke-linejoin:round;stroke-miterlimit:10"
   d="m 300.884,333.884 9.414,112.014 c 0.103,0.71 0.785,1.185 1.472,1.024 0.582,-0.137 0.97,-0.689 0.909,-1.294 L 306.27,333.884 Z"
   id="path224" />&#10;			<path
   style="fill:#263238;stroke:#263238;stroke-linecap:round;stroke-linejoin:round;stroke-miterlimit:10"
   d="m 364.113,333.884 9.445,112.388 c 0.103,0.71 0.785,1.185 1.471,1.024 0.582,-0.137 0.971,-0.689 0.909,-1.294 l -6.43,-112.117 h -5.395 z"
   id="path225" />&#10;			<path
   style="fill:#263238;stroke:#263238;stroke-linecap:round;stroke-linejoin:round;stroke-miterlimit:10"
   d="m 199.855,333.884 -4.967,111.033 c -0.054,0.604 0.342,1.162 0.926,1.306 v 0 c 0.689,0.17 1.365,-0.296 1.459,-1.005 l 7.957,-111.335 h -5.375 z"
   id="path226" />&#10;			<path
   style="fill:#263238;stroke:#263238;stroke-linecap:round;stroke-linejoin:round;stroke-miterlimit:10"
   d="m 141.578,333.884 -4.951,110.66 c -0.053,0.604 0.342,1.162 0.926,1.306 0.689,0.17 1.365,-0.296 1.459,-1.005 l 7.931,-110.961 z"
   id="path227" />&#10;		</g>&#10;		<g
   id="g231">&#10;			&#10;				<rect
   x="138.064"
   y="327.67999"
   style="fill:#ffffff;stroke:#263238;stroke-linecap:round;stroke-linejoin:round;stroke-miterlimit:10"
   width="238.34801"
   height="9.618"
   id="rect227" />&#10;			&#10;				<rect
   x="138.064"
   y="327.67999"
   style="fill:#263238;stroke:#263238;stroke-linecap:round;stroke-linejoin:round;stroke-miterlimit:10"
   width="238.34801"
   height="3.299"
   id="rect228" />&#10;			&#10;				<rect
   x="292.586"
   y="327.67999"
   style="fill:#263238;stroke:#263238;stroke-linecap:round;stroke-linejoin:round;stroke-miterlimit:10"
   width="83.825996"
   height="9.618"
   id="rect229" />&#10;			&#10;				<rect
   x="135.07899"
   y="324.479"
   style="fill:#ffffff;stroke:#263238;stroke-linecap:round;stroke-linejoin:round;stroke-miterlimit:10"
   width="244.319"
   height="3.6670001"
   id="rect230" />&#10;			&#10;				<rect
   x="296.07901"
   y="324.479"
   style="fill:#263238;stroke:#263238;stroke-linecap:round;stroke-linejoin:round;stroke-miterlimit:10"
   width="83.319"
   height="3.6670001"
   id="rect231" />&#10;		</g>&#10;	</g>&#10;</g><g
         id="Character_1">&#10;	<g
   id="g259">&#10;		<g
   id="g255">&#10;			<g
   id="g239">&#10;				<g
   id="g234">&#10;					<path
   style="fill:#ffffff;stroke:#263238;stroke-linecap:round;stroke-linejoin:round;stroke-miterlimit:10"
   d="m 212.138,230.765 c 0,0 2.747,8.517 2.747,10.166 0,1.649 -0.275,3.572 -0.275,3.572 l 2.43,3.756 c 0.323,0.499 0.165,1.166 -0.347,1.467 l -3.732,2.195 c 0,0 -0.549,8.792 -1.099,9.891 -0.549,1.099 -9.891,0.824 -9.891,0.824 l -3.022,5.77 -15.661,-6.045 4.121,-11.265 -0.824,-17.035 c 0,0.001 9.617,-8.516 25.553,-3.296 z"
   id="path232" />&#10;					<path
   style="fill:none;stroke:#263238;stroke-linecap:round;stroke-linejoin:round;stroke-miterlimit:10"
   d="m 201.148,251.921 2.198,0.549 c 0,0 -0.549,3.297 1.648,5.77"
   id="path233" />&#10;					&#10;						<line
   style="fill:none;stroke:#263238;stroke-linecap:round;stroke-linejoin:round;stroke-miterlimit:10"
   x1="203.683"
   y1="246.036"
   x2="219.155"
   y2="242.207"
   id="line233" />&#10;					<path
   style="fill:none;stroke:#263238;stroke-linecap:round;stroke-linejoin:round;stroke-miterlimit:10"
   d="m 215.172,241.9 3.523,0.153 c 0,0 1.225,3.983 -2.451,4.442"
   id="path234" />&#10;				</g>&#10;				<g
   id="g238">&#10;					<path
   style="fill:#263238;stroke:#263238;stroke-linecap:round;stroke-linejoin:round;stroke-miterlimit:10"
   d="m 194.004,224.446 c 0,0 -6.045,-1.923 -9.067,6.319 -3.022,8.243 2.473,18.958 2.473,20.332 0,1.374 4.671,2.473 8.243,2.473 3.572,0 5.495,-1.648 5.495,-1.648 0,0 -1.374,-5.495 -0.275,-6.594 1.099,-1.099 3.847,1.374 3.847,1.374 0,0 1.648,-0.275 2.473,-0.824 0.824,-0.549 4.946,-2.747 3.572,-5.22 -1.374,-2.473 -4.121,-4.671 -1.923,-6.319 2.198,-1.649 7.968,-1.923 8.243,-7.144 0.275,-5.22 -3.022,-6.319 -6.319,-5.77 -3.297,0.549 -2.198,-4.671 -8.517,-3.847 -6.322,0.823 -9.344,4.395 -8.245,6.868 z"
   id="path235" />&#10;					&#10;						<path
   style="fill:none;stroke:#ffffff;stroke-width:0.5;stroke-linecap:round;stroke-linejoin:round;stroke-miterlimit:10"
   d="m 194.962,243.155 c -0.752,1.481 -0.98,2.618 -0.98,2.618"
   id="path236" />&#10;					&#10;						<path
   style="fill:none;stroke:#ffffff;stroke-width:0.5;stroke-linecap:round;stroke-linejoin:round;stroke-miterlimit:10"
   d="m 209.042,233.341 c 0,0 -1.913,1.673 -7.889,4.064 -2.484,0.994 -4.143,2.607 -5.232,4.154"
   id="path237" />&#10;					&#10;						<path
   style="fill:none;stroke:#ffffff;stroke-width:0.5;stroke-linecap:round;stroke-linejoin:round;stroke-miterlimit:10"
   d="m 208.564,237.883 c 0,0 -6.933,4.542 -10.04,5.498"
   id="path238" />&#10;				</g>&#10;			</g>&#10;			<g
   id="g241">&#10;				<g
   id="g240">&#10;					<path
   style="fill:#263238;stroke:#263238;stroke-linecap:round;stroke-linejoin:round;stroke-miterlimit:10"
   d="m 215.848,432.814 c 0,0 14.25,9 16.75,9 2.5,0 3.75,2.25 2.5,2.5 -1.25,0.25 -9,0.5 -14.25,0.75 -5.25,0.25 -8.75,-0.25 -11.75,-0.25 -3,0 -6.5,0.25 -8,-0.5 -1.5,-0.75 1,-9.25 1,-10.75 0,-1.5 12,-1.75 13.75,-0.75 z"
   id="path239" />&#10;					<path
   style="fill:#ffffff;stroke:#263238;stroke-linecap:round;stroke-linejoin:round;stroke-miterlimit:10"
   d="m 234.235,442.179 c -5.536,1.825 -14.503,0.625 -19.887,0.136 -4.258,-0.387 -10.896,-0.474 -13.684,-0.494 -0.11,1.283 -0.031,2.262 0.434,2.494 1.5,0.75 5,0.5 8,0.5 3,0 6.5,0.5 11.75,0.25 5.25,-0.25 13,-0.5 14.25,-0.75 0.933,-0.187 0.471,-1.489 -0.863,-2.136 z"
   id="path240" />&#10;				</g>&#10;				<path
   style="fill:#92e3a9;stroke:#263238;stroke-linecap:round;stroke-linejoin:round;stroke-miterlimit:10"
   d="m 234.066,362.723 -18.207,64.671 2.342,5.855 c 0,0 -2.354,3.797 -7.104,4.797 -4.75,1 -9.75,1 -9.75,1 0,0 -1.25,-6.25 -0.5,-7 0.75,-0.75 1,-3.75 1,-3.75 l 8.306,-64.763 z"
   id="path241" />&#10;			</g>&#10;			<g
   id="g249">&#10;				<g
   id="g243">&#10;					<path
   style="fill:#263238;stroke:#263238;stroke-linecap:round;stroke-linejoin:round;stroke-miterlimit:10"
   d="m 244.292,433.274 c 0,0 8.75,7.25 12.75,8.5 4,1.25 8.25,2.5 8.25,3.75 0,1.25 -9.5,2.5 -16.75,1.75 -7.25,-0.75 -18.25,-4 -20.75,-4 -2.5,0 -2,-6.5 -2,-7.5 0,-1 12.25,-9 18.5,-2.5 z"
   id="path242" />&#10;					<path
   style="fill:#ffffff;stroke:#263238;stroke-linecap:round;stroke-linejoin:round;stroke-miterlimit:10"
   d="m 265.293,445.524 c 0,-0.45 -0.556,-0.899 -1.446,-1.349 -5.401,0.803 -13.068,1.061 -21.554,-0.151 -7.196,-1.028 -13.216,-2.408 -16.293,-3.175 0.26,1.344 0.776,2.425 1.793,2.425 2.5,0 13.5,3.25 20.75,4 7.25,0.75 16.75,-0.5 16.75,-1.75 z"
   id="path243" />&#10;				</g>&#10;				<path
   style="fill:#92e3a9;stroke:#263238;stroke-linecap:round;stroke-linejoin:round;stroke-miterlimit:10"
   d="m 201.579,339.372 c 0,0 15.508,0.515 28.258,2.015 12.75,1.5 34.18,6.592 34.68,9.842 0.5,3.25 -21.602,74.827 -21.602,76.577 0,1.75 2,3.5 2.5,4.5 0.5,1 0.5,2.25 0.5,2.25 0,0 -4.816,2.618 -9.566,4.368 -4.75,1.75 -9.35,1.925 -10.35,1.925 -1,0 -1.699,-4.57 -0.949,-7.82 0.75,-3.25 2,-11.5 2.25,-12.25 0.25,-0.75 13.28,-55.889 13.28,-55.889 0,0 -33.241,4.365 -58.76,3.693 -22.382,-0.589 -23.743,-3.105 -24.993,-8.355 -1.25,-5.25 1.25,-20.607 1.25,-20.607 z"
   id="path244" />&#10;				<path
   style="fill:none;stroke:#263238;stroke-linecap:round;stroke-linejoin:round;stroke-miterlimit:10"
   d="m 198.765,355.566 c -0.563,0.797 -1.13,1.499 -1.687,2.056"
   id="path245" />&#10;				<path
   style="fill:none;stroke:#263238;stroke-linecap:round;stroke-linejoin:round;stroke-miterlimit:10"
   d="m 205.579,342.122 c 0,0 -2.24,5.725 -4.964,10.501"
   id="path246" />&#10;				<path
   style="fill:none;stroke:#263238;stroke-linecap:round;stroke-linejoin:round;stroke-miterlimit:10"
   d="m 202.579,344.622 c 0,0 -4,7.5 -13,11"
   id="path247" />&#10;				<path
   style="fill:#ffffff;stroke:#263238;stroke-linecap:round;stroke-linejoin:round;stroke-miterlimit:10"
   d="m 258.066,360.158 c 0.849,-0.326 1.672,-0.665 2.451,-1.017"
   id="path248" />&#10;				<path
   style="fill:#ffffff;stroke:#263238;stroke-linecap:round;stroke-linejoin:round;stroke-miterlimit:10"
   d="m 240.767,364.891 c 0,0 7.286,-1.366 14.17,-3.625"
   id="path249" />&#10;			</g>&#10;			<g
   id="g251">&#10;				<path
   style="fill:#ffffff;stroke:#263238;stroke-linecap:round;stroke-linejoin:round;stroke-miterlimit:10"
   d="m 233.932,302.641 6.028,6.1 38.312,8.156 c 0,0 8.381,-2.633 10.417,-1.555 2.643,1.399 5.471,3.736 5.751,4.574 0.279,0.838 -1.956,1.676 -2.794,1.117 -0.838,-0.559 -0.838,-0.559 -0.838,-0.559 0,0 -4.361,1.552 -6.317,1.552 -1.956,0 -7.152,-0.466 -7.152,-0.466 0,0 -38.218,1.708 -39.056,1.708 -0.838,0 -15.063,-8.007 -15.063,-8.007 z"
   id="path250" />&#10;				<path
   style="fill:#ffffff;stroke:#263238;stroke-linecap:round;stroke-linejoin:round;stroke-miterlimit:10"
   d="m 288.223,318.14 2.332,-0.311 c 0,0 4.975,2.332 5.442,2.488 0.466,0.155 0.619,1.46 -1.866,1.088 -2.485,-0.372 -2.485,-0.372 -2.485,-0.372 l -2.179,-0.095 -1.866,0.466"
   id="path251" />&#10;			</g>&#10;			<g
   id="g254">&#10;				<g
   id="g252">&#10;					<path
   style="fill:#ffffff;stroke:#263238;stroke-linecap:round;stroke-linejoin:round;stroke-miterlimit:10"
   d="m 208.675,318.956 c 0,0 3.613,-2.125 4.463,-2.125 0.85,0 7.014,3.401 7.014,3.401 0,0 3.826,-0.85 3.613,0.212 -0.212,1.063 -0.425,1.7 -1.7,1.7 -1.275,0 -1.275,0 -1.275,0 0,0 -3.826,0.212 -6.589,0.425 -2.763,0.213 -17.428,0 -17.428,0 l 4.038,-6.376 z"
   id="path252" />&#10;					&#10;						<line
   style="fill:none;stroke:#263238;stroke-linecap:round;stroke-linejoin:round;stroke-miterlimit:10"
   x1="215.144"
   y1="319.69601"
   x2="219.569"
   y2="320.34"
   id="line252" />&#10;				</g>&#10;				<path
   style="fill:#ffffff;stroke:#263238;stroke-linecap:round;stroke-linejoin:round;stroke-miterlimit:10"
   d="m 277.031,315.747 -36.277,-8.727 -5.652,-6.108 c -0.422,-0.61 -0.843,-1.299 -1.254,-2.028 L 218.904,274.71 c -1,-1.25 -18.325,-8.232 -22.325,-10.982 -4,-2.75 -9,-4.75 -16,-2.75 0,0 -19.5,9.25 -22.25,11 -2.75,1.75 -4.5,23.5 -4.5,27.25 0,3.75 2.75,35.643 3.5,41.893 0.75,6.25 24.75,10.5 32.75,8.25 8,-2.25 15.75,-8 15.75,-10 0,-2 -0.75,-14.143 -0.25,-17.393 0.5,-3.25 5,-17 5,-17 l 22.63,19.874 44.131,-3.292 z"
   id="path253" />&#10;				&#10;					<line
   style="fill:none;stroke:#263238;stroke-linecap:round;stroke-linejoin:round;stroke-miterlimit:10"
   x1="210.57899"
   y1="304.979"
   x2="202.34399"
   y2="304.048"
   id="line253" />&#10;				&#10;					<line
   style="fill:none;stroke:#263238;stroke-linecap:round;stroke-linejoin:round;stroke-miterlimit:10"
   x1="210.57899"
   y1="304.979"
   x2="198.07899"
   y2="297.979"
   id="line254" />&#10;			</g>&#10;			<path
   style="fill:#ffffff;stroke:#263238;stroke-linecap:round;stroke-linejoin:round;stroke-miterlimit:10"
   d="m 178.019,260.802 c 0,0 2.745,-3.956 4.396,-4.231 1.652,-0.275 8.533,0 12.937,1.927 4.404,1.927 8.258,8.533 8.258,8.533 0,0 -4.679,-2.202 -12.937,-2.477 -8.258,-0.275 -15.169,-0.934 -15.169,-0.934 z"
   id="path254" />&#10;		</g>&#10;		<g
   id="g258">&#10;			&#10;				<line
   style="fill:none;stroke:#263238;stroke-width:4;stroke-linecap:round;stroke-miterlimit:10"
   x1="237.552"
   y1="446.32599"
   x2="233.856"
   y2="367.55099"
   id="line255" />&#10;			&#10;				<line
   style="fill:none;stroke:#263238;stroke-width:4;stroke-linecap:round;stroke-miterlimit:10"
   x1="204.269"
   y1="446.32599"
   x2="200.573"
   y2="367.55099"
   id="line256" />&#10;			<path
   style="fill:#c4c4c4;stroke:#263238;stroke-linecap:round;stroke-linejoin:round;stroke-miterlimit:10"
   d="m 199.214,346.469 h -57 c -2.485,0 -4.5,-2.015 -4.5,-4.5 v -50.977 c 0,-2.485 2.015,-4.5 4.5,-4.5 h 57 c 2.485,0 4.5,2.015 4.5,4.5 v 50.977 c 0,2.485 -2.014,4.5 -4.5,4.5 z"
   id="path256" />&#10;			<path
   style="fill:#c4c4c4;stroke:#263238;stroke-linecap:round;stroke-linejoin:round;stroke-miterlimit:10"
   d="m 235.523,372.199 h -92.225 c -2.462,0 -4.458,-1.679 -4.458,-3.75 v 0 c 0,-2.071 1.996,-3.75 4.458,-3.75 h 92.225 c 2.462,0 4.458,1.679 4.458,3.75 v 0 c 0,2.071 -1.996,3.75 -4.458,3.75 z"
   id="path257" />&#10;			<polyline
   style="fill:none;stroke:#263238;stroke-width:4;stroke-linecap:round;stroke-miterlimit:10"
   points="188.868,446.326      192.565,367.551 192.565,306.793    "
   id="polyline257" />&#10;			<polyline
   style="fill:none;stroke:#263238;stroke-width:4;stroke-linecap:round;stroke-miterlimit:10"
   points="143.88,446.326      147.577,367.551 147.577,306.793    "
   id="polyline258" />&#10;		</g>&#10;	</g>&#10;</g></g></g></svg>
