<?xml version="1.0" encoding="UTF-8" standalone="no"?>
<!-- Created with Inkscape (http://www.inkscape.org/) -->

<svg
   width="202.61403mm"
   height="47.250748mm"
   viewBox="0 0 202.61403 57.250748"
   version="1.1"
   id="svg1"
   xml:space="preserve"
   xmlns:inkscape="http://www.inkscape.org/namespaces/inkscape"
   xmlns:sodipodi="http://sodipodi.sourceforge.net/DTD/sodipodi-0.dtd"
   xmlns:xlink="http://www.w3.org/1999/xlink"
   xmlns="http://www.w3.org/2000/svg"
   xmlns:svg="http://www.w3.org/2000/svg"><sodipodi:namedview
     id="namedview1"
     pagecolor="#ffffff"
     bordercolor="#000000"
     borderopacity="0.25"
     inkscape:showpageshadow="2"
     inkscape:pageopacity="0.0"
     inkscape:pagecheckerboard="0"
     inkscape:deskcolor="#d1d1d1"
     inkscape:document-units="mm" /><defs
     id="defs1"><rect
       id="SVGID_1_"
       width="851"
       height="315"
       x="0"
       y="0" /></defs><g
     inkscape:label="Layer 1"
     inkscape:groupmode="layer"
     id="layer1"
     transform="translate(-3.5373703,-39.442305)"><g
       id="g2"
       transform="matrix(0.26458333,0,0,0.26458333,-7.6091575,106.82813)"><g
         id="BACKGROUND"
         transform="matrix(0.89986524,0,0,0.68692304,42.128609,-254.68659)"
         style="fill:#15b75e;fill-opacity:1"
         inkscape:export-filename="coverpic.svg"
         inkscape:export-xdpi="86.552383"
         inkscape:export-ydpi="86.552383">&#10;	<rect
   style="fill:#15b75e;fill-opacity:1"
   width="851"
   height="315"
   id="rect1"
   x="0"
   y="0" />&#10;</g><g
         id="OBJECTS"
         transform="matrix(0.89986524,0,0,0.68692304,42.128609,-254.68659)">&#10;	<g
   id="g7">&#10;		<defs
   id="defs1-7" />&#10;		<clipPath
   id="SVGID_00000080916785831761250330000011963678800014929557_">&#10;			<use
   xlink:href="#SVGID_1_"
   style="overflow:visible"
   id="use1" />&#10;		</clipPath>&#10;		<path
   style="fill:#264370"
   d="m 294.481,203.389 c -21.528,38.557 -63.839,59.878 -95.607,90.556 -24.426,23.57 -42.863,53.296 -53.144,85.643 -6.734,21.169 -9.191,46.644 5.258,63.522 8.667,10.129 21.749,15.097 34.031,20.286 25.13,10.64 50.867,25.627 61.645,50.701 8.901,20.714 5.644,43.098 -3.202,64.294 H -17.234 V 190.914 c 23.681,-3.823 46.948,-14.807 66.985,-28.414 33.438,-22.687 61.714,-52.537 96.2,-73.596 34.486,-21.045 79.116,-32.306 115.12,-13.952 44.009,22.439 57.505,85.312 33.41,128.437 z"
   clip-path="url(#SVGID_00000080916785831761250330000011963678800014929557_)"
   id="path1" />&#10;		<path
   style="fill:#264370"
   d="m 869,-167 v 313 c -2.02,-0.06 -4.04,0 -6.04,0.17 -19.18,1.61 -36.79,10.69 -54.21,18.85 -36.34,17.03 -75.56,31.01 -115.62,28.71 -40.06,-2.3 -81.11,-24.12 -96.21,-61.3 -12.57,-30.97 -5.57,-66.19 3.92,-98.23 9.43,-31.87 21.31,-64.27 18.27,-97.35 -0.01,-0.18 -0.03,-0.37 -0.05,-0.55 -0.92,-9.52 -3.19,-19.16 -8.59,-27.06 -8.7,-12.71 -24.01,-19.03 -35.21,-29.61 -12.74,-12.03 -19.53,-29.13 -21.79,-46.63 z"
   clip-path="url(#SVGID_00000080916785831761250330000011963678800014929557_)"
   id="path2" />&#10;		&#10;			<path
   style="fill:none;stroke:#2d8eb9;stroke-miterlimit:10"
   d="m 696.641,-18.145 c 0,0 40.355,16.496 42.133,51.714 1.778,35.218 -18.283,66.981 11.251,79.241 C 779.56,125.068 880.422,97.832 893.796,0"
   clip-path="url(#SVGID_00000080916785831761250330000011963678800014929557_)"
   id="path3" />&#10;		&#10;			<path
   style="fill:none;stroke:#2d8eb9;stroke-miterlimit:10"
   d="m 703.391,-22.603 c 0,0 41.496,11.702 43.786,49.038 2.291,37.336 -13.935,73.547 15.075,82.468 29.01,8.921 126.529,-35.102 113.712,-120.361"
   clip-path="url(#SVGID_00000080916785831761250330000011963678800014929557_)"
   id="path4" />&#10;		&#10;			<path
   style="fill:none;stroke:#2d8eb9;stroke-miterlimit:10"
   d="m -11.368,220.436 c 0,0 20.158,31.343 54.202,24.301 34.044,-7.042 63.609,-23.418 84.214,0 20.605,23.418 -14.442,92.402 -43.953,107.184"
   clip-path="url(#SVGID_00000080916785831761250330000011963678800014929557_)"
   id="path5" />&#10;		&#10;			<path
   style="fill:none;stroke:#2d8eb9;stroke-miterlimit:10"
   d="m -31.973,211.269 c 0,0 27.496,39.794 58.233,42.995 35.388,3.686 59.129,-24.523 86.902,-4.42 27.773,20.103 -21.949,99.389 -21.949,99.389"
   clip-path="url(#SVGID_00000080916785831761250330000011963678800014929557_)"
   id="path6" />&#10;		<path
   style="fill:#264370"
   d="m 361.008,353.825 c 20.87,-51.218 63.535,-122.13 125.017,-125.235 91.011,-4.595 101.739,99.911 81.816,165.323 z"
   clip-path="url(#SVGID_00000080916785831761250330000011963678800014929557_)"
   id="path7" />&#10;	</g>&#10;	<g
   id="g9">&#10;		&#10;			<rect
   x="73.595001"
   y="36.16"
   transform="matrix(0.7071,-0.7071,0.7071,0.7071,-7.9487,72.1307)"
   style="fill:#ffffff"
   width="19"
   height="19"
   id="rect7" />&#10;		<g
   id="g8">&#10;			&#10;				<text
   transform="translate(104.9815,50.3277)"
   style="font-size:10px;font-family:Montserrat-Light;letter-spacing:10;fill:#ffffff"
   id="text7">JOBIFY</text>&#10;		</g>&#10;	</g>&#10;	<g
   id="g10"
   transform="translate(-39.267879,4.7392267)">&#10;		&#10;			<text
   transform="translate(117.3169,168.9043)"
   style="font-size:25.7692px;font-family:Montserrat-Bold;letter-spacing:8;fill:#ffffff"
   id="text9">WE PROMOTE YOU TO THE WORLD</text>&#10;	</g>&#10;	<g
   id="g42">&#10;		<g
   id="g41">&#10;			<g
   id="g40">&#10;				<g
   id="g15">&#10;					<path
   style="fill:#ffffff"
   d="m 674.16,33.568 c -1.305,0 -2.361,-1.052 -2.361,-2.35 0,-1.3 1.057,-2.352 2.361,-2.352 1.305,0 2.361,1.052 2.361,2.352 0,1.299 -1.057,2.35 -2.361,2.35 z"
   id="path10" />&#10;					<path
   style="fill:#ffffff"
   d="m 674.16,45.064 c -1.305,0 -2.361,-1.052 -2.361,-2.348 0,-1.299 1.057,-2.354 2.361,-2.354 1.305,0 2.361,1.056 2.361,2.354 0,1.297 -1.057,2.348 -2.361,2.348 z"
   id="path11" />&#10;					<path
   style="fill:#ffffff"
   d="m 674.16,56.564 c -1.305,0 -2.361,-1.053 -2.361,-2.35 0,-1.301 1.057,-2.354 2.361,-2.354 1.305,0 2.361,1.053 2.361,2.354 0,1.298 -1.057,2.35 -2.361,2.35 z"
   id="path12" />&#10;					<path
   style="fill:#ffffff"
   d="m 674.16,68.066 c -1.305,0 -2.361,-1.056 -2.361,-2.352 0,-1.299 1.057,-2.354 2.361,-2.354 1.305,0 2.361,1.056 2.361,2.354 0,1.297 -1.057,2.352 -2.361,2.352 z"
   id="path13" />&#10;					<path
   style="fill:#ffffff"
   d="m 674.16,79.563 c -1.305,0 -2.361,-1.053 -2.361,-2.352 0,-1.297 1.057,-2.352 2.361,-2.352 1.305,0 2.361,1.055 2.361,2.352 0,1.299 -1.057,2.352 -2.361,2.352 z"
   id="path14" />&#10;					<path
   style="fill:#ffffff"
   d="m 674.16,91.061 c -1.305,0 -2.361,-1.053 -2.361,-2.352 0,-1.296 1.057,-2.351 2.361,-2.351 1.305,0 2.361,1.055 2.361,2.351 0,1.299 -1.057,2.352 -2.361,2.352 z"
   id="path15" />&#10;				</g>&#10;				<g
   id="g21">&#10;					<path
   style="fill:#ffffff"
   d="m 662.464,33.568 c -1.305,0 -2.361,-1.052 -2.361,-2.35 0,-1.3 1.057,-2.352 2.361,-2.352 1.301,0 2.357,1.052 2.357,2.352 10e-4,1.299 -1.056,2.35 -2.357,2.35 z"
   id="path16" />&#10;					<path
   style="fill:#ffffff"
   d="m 662.464,45.064 c -1.305,0 -2.361,-1.052 -2.361,-2.348 0,-1.299 1.057,-2.354 2.361,-2.354 1.301,0 2.357,1.056 2.357,2.354 10e-4,1.297 -1.056,2.348 -2.357,2.348 z"
   id="path17" />&#10;					<path
   style="fill:#ffffff"
   d="m 662.464,56.564 c -1.305,0 -2.361,-1.053 -2.361,-2.35 0,-1.301 1.057,-2.354 2.361,-2.354 1.301,0 2.357,1.053 2.357,2.354 10e-4,1.298 -1.056,2.35 -2.357,2.35 z"
   id="path18" />&#10;					<path
   style="fill:#ffffff"
   d="m 662.464,68.066 c -1.305,0 -2.361,-1.056 -2.361,-2.352 0,-1.299 1.057,-2.354 2.361,-2.354 1.301,0 2.357,1.056 2.357,2.354 10e-4,1.297 -1.056,2.352 -2.357,2.352 z"
   id="path19" />&#10;					<path
   style="fill:#ffffff"
   d="m 662.464,79.563 c -1.305,0 -2.361,-1.053 -2.361,-2.352 0,-1.297 1.057,-2.352 2.361,-2.352 1.301,0 2.357,1.055 2.357,2.352 10e-4,1.299 -1.056,2.352 -2.357,2.352 z"
   id="path20" />&#10;					<path
   style="fill:#ffffff"
   d="m 662.464,91.061 c -1.305,0 -2.361,-1.053 -2.361,-2.352 0,-1.296 1.057,-2.351 2.361,-2.351 1.301,0 2.357,1.055 2.357,2.351 10e-4,1.299 -1.056,2.352 -2.357,2.352 z"
   id="path21" />&#10;				</g>&#10;				<g
   id="g27">&#10;					<path
   style="fill:#ffffff"
   d="m 650.765,33.568 c -1.303,0 -2.359,-1.052 -2.359,-2.35 0,-1.3 1.057,-2.352 2.359,-2.352 1.305,0 2.359,1.052 2.359,2.352 10e-4,1.299 -1.054,2.35 -2.359,2.35 z"
   id="path22" />&#10;					<path
   style="fill:#ffffff"
   d="m 650.765,45.064 c -1.303,0 -2.359,-1.052 -2.359,-2.348 0,-1.299 1.057,-2.354 2.359,-2.354 1.305,0 2.359,1.056 2.359,2.354 10e-4,1.297 -1.054,2.348 -2.359,2.348 z"
   id="path23" />&#10;					<path
   style="fill:#ffffff"
   d="m 650.765,56.564 c -1.303,0 -2.359,-1.053 -2.359,-2.35 0,-1.301 1.057,-2.354 2.359,-2.354 1.305,0 2.359,1.053 2.359,2.354 10e-4,1.298 -1.054,2.35 -2.359,2.35 z"
   id="path24" />&#10;					<path
   style="fill:#ffffff"
   d="m 650.765,68.066 c -1.303,0 -2.359,-1.056 -2.359,-2.352 0,-1.299 1.057,-2.354 2.359,-2.354 1.305,0 2.359,1.056 2.359,2.354 10e-4,1.297 -1.054,2.352 -2.359,2.352 z"
   id="path25" />&#10;					<path
   style="fill:#ffffff"
   d="m 650.765,79.563 c -1.303,0 -2.359,-1.053 -2.359,-2.352 0,-1.297 1.057,-2.352 2.359,-2.352 1.305,0 2.359,1.055 2.359,2.352 10e-4,1.299 -1.054,2.352 -2.359,2.352 z"
   id="path26" />&#10;					<path
   style="fill:#ffffff"
   d="m 650.765,91.061 c -1.303,0 -2.359,-1.053 -2.359,-2.352 0,-1.296 1.057,-2.351 2.359,-2.351 1.305,0 2.359,1.055 2.359,2.351 10e-4,1.299 -1.054,2.352 -2.359,2.352 z"
   id="path27" />&#10;				</g>&#10;				<g
   id="g33">&#10;					<path
   style="fill:#ffffff"
   d="m 639.068,33.568 c -1.303,0 -2.361,-1.052 -2.361,-2.35 0,-1.3 1.059,-2.352 2.361,-2.352 1.305,0 2.361,1.052 2.361,2.352 0,1.299 -1.057,2.35 -2.361,2.35 z"
   id="path28" />&#10;					<path
   style="fill:#ffffff"
   d="m 639.068,45.064 c -1.303,0 -2.361,-1.052 -2.361,-2.348 0,-1.299 1.059,-2.354 2.361,-2.354 1.305,0 2.361,1.056 2.361,2.354 0,1.297 -1.057,2.348 -2.361,2.348 z"
   id="path29" />&#10;					<path
   style="fill:#ffffff"
   d="m 639.068,56.564 c -1.303,0 -2.361,-1.053 -2.361,-2.35 0,-1.301 1.059,-2.354 2.361,-2.354 1.305,0 2.361,1.053 2.361,2.354 0,1.298 -1.057,2.35 -2.361,2.35 z"
   id="path30" />&#10;					<path
   style="fill:#ffffff"
   d="m 639.068,68.066 c -1.303,0 -2.361,-1.056 -2.361,-2.352 0,-1.299 1.059,-2.354 2.361,-2.354 1.305,0 2.361,1.056 2.361,2.354 0,1.297 -1.057,2.352 -2.361,2.352 z"
   id="path31" />&#10;					<path
   style="fill:#ffffff"
   d="m 639.068,79.563 c -1.303,0 -2.361,-1.053 -2.361,-2.352 0,-1.297 1.059,-2.352 2.361,-2.352 1.305,0 2.361,1.055 2.361,2.352 0,1.299 -1.057,2.352 -2.361,2.352 z"
   id="path32" />&#10;					<path
   style="fill:#ffffff"
   d="m 639.068,91.061 c -1.303,0 -2.361,-1.053 -2.361,-2.352 0,-1.296 1.059,-2.351 2.361,-2.351 1.305,0 2.361,1.055 2.361,2.351 0,1.299 -1.057,2.352 -2.361,2.352 z"
   id="path33" />&#10;				</g>&#10;				<g
   id="g39">&#10;					<path
   style="fill:#ffffff"
   d="m 627.371,33.568 c -1.305,0 -2.361,-1.052 -2.361,-2.35 0,-1.3 1.057,-2.352 2.361,-2.352 1.303,0 2.363,1.052 2.363,2.352 0,1.299 -1.061,2.35 -2.363,2.35 z"
   id="path34" />&#10;					<path
   style="fill:#ffffff"
   d="m 627.371,45.064 c -1.305,0 -2.361,-1.052 -2.361,-2.348 0,-1.299 1.057,-2.354 2.361,-2.354 1.303,0 2.363,1.056 2.363,2.354 0,1.297 -1.061,2.348 -2.363,2.348 z"
   id="path35" />&#10;					<path
   style="fill:#ffffff"
   d="m 627.371,56.564 c -1.305,0 -2.361,-1.053 -2.361,-2.35 0,-1.301 1.057,-2.354 2.361,-2.354 1.303,0 2.363,1.053 2.363,2.354 0,1.298 -1.061,2.35 -2.363,2.35 z"
   id="path36" />&#10;					<path
   style="fill:#ffffff"
   d="m 627.371,68.066 c -1.305,0 -2.361,-1.056 -2.361,-2.352 0,-1.299 1.057,-2.354 2.361,-2.354 1.303,0 2.363,1.056 2.363,2.354 0,1.297 -1.061,2.352 -2.363,2.352 z"
   id="path37" />&#10;					<path
   style="fill:#ffffff"
   d="m 627.371,79.563 c -1.305,0 -2.361,-1.053 -2.361,-2.352 0,-1.297 1.057,-2.352 2.361,-2.352 1.303,0 2.363,1.055 2.363,2.352 0,1.299 -1.061,2.352 -2.363,2.352 z"
   id="path38" />&#10;					<path
   style="fill:#ffffff"
   d="m 627.371,91.061 c -1.305,0 -2.361,-1.053 -2.361,-2.352 0,-1.296 1.057,-2.351 2.361,-2.351 1.303,0 2.363,1.055 2.363,2.351 0,1.299 -1.061,2.352 -2.363,2.352 z"
   id="path39" />&#10;				</g>&#10;			</g>&#10;		</g>&#10;	</g>&#10;	<g
   id="g47">&#10;		<g
   id="g43">&#10;			<path
   style="fill:#ffffff;stroke:#ffffff;stroke-width:0.5;stroke-miterlimit:10"
   d="m 381.87,115.334 c -1.324,-1.999 -2.564,-4.061 -3.626,-6.211 -0.923,-1.871 -0.674,-3.082 -0.45,-5.057 0.698,-6.131 1.25,-13.542 -1.49,-19.247 -2.286,-4.76 -11.152,-4.978 -15.603,-5.502 -7.176,-0.844 -14.56,-0.943 -21.705,0.209 -5.868,0.945 -11.378,2.937 -13.992,8.585 -2.864,6.188 -4.405,13.725 -1.655,20.208 4.753,11.207 21.156,10.261 31.026,8.724 6.151,-0.959 12.413,-2.774 18.026,-5.505 0.729,-0.355 2.512,0.72 3.082,0.944 2.473,0.971 4.946,1.943 7.418,2.914 0.811,0.319 -0.464,0.242 -0.754,0.128 -2.044,-0.803 -4.088,-1.606 -6.132,-2.409 -1.022,-0.401 -2.044,-0.803 -3.066,-1.204 0.476,0.187 0.961,-0.031 -0.335,0.552 -6.54,2.94 -13.638,4.725 -20.742,5.563 -12.634,1.49 -30.529,-0.724 -31.293,-16.64 -0.263,-5.504 1.569,-13.187 5.384,-17.326 3.596,-3.899 10.076,-4.874 15.04,-5.449 10.242,-1.188 22.907,-0.845 32.62,3.08 6.211,2.51 6.024,10.853 5.922,16.515 -0.052,2.868 -0.23,5.819 -0.749,8.647 -0.463,2.526 3.052,6.724 4.382,8.733 0.068,0.098 -1.1,0.063 -1.308,-0.252 z"
   id="path42" />&#10;		</g>&#10;		<g
   id="g44">&#10;			<path
   style="fill:#3877b3"
   d="m 362.342,98.236 c 0.059,1.098 0.727,2.211 1.983,2.006 0.974,-0.159 1.554,-1.098 1.7,-1.991 0.189,-1.157 -0.766,-2.376 -1.968,-2.18 -1.083,0.176 -1.661,1.272 -1.715,2.263 -0.024,0.451 -1.36,0.171 -1.332,-0.357 0.207,-3.838 6.169,-3.354 6.363,0.258 0.21,3.894 -6.166,3.513 -6.364,-0.159 -0.032,-0.566 1.308,-0.301 1.333,0.16 z"
   id="path43" />&#10;		</g>&#10;		<g
   id="g45">&#10;			<path
   style="fill:#3877b3"
   d="m 348.822,98.335 c 0.068,1.27 0.987,2.361 2.348,1.827 0.881,-0.346 1.303,-1.305 1.35,-2.184 0.07,-1.3 -1.108,-2.312 -2.348,-1.826 -0.881,0.346 -1.303,1.305 -1.35,2.183 -0.017,0.324 -1.355,0.077 -1.332,-0.357 0.207,-3.851 6.171,-3.194 6.362,0.357 0.094,1.742 -1.783,2.877 -3.346,2.622 -1.614,-0.263 -2.924,-1.259 -3.016,-2.979 -0.016,-0.286 1.308,-0.094 1.332,0.357 z"
   id="path44" />&#10;		</g>&#10;		<g
   id="g46">&#10;			<path
   style="fill:#3877b3"
   d="m 335.303,98.335 c 0.071,1.316 1.087,2.491 2.491,1.763 0.793,-0.41 1.161,-1.274 1.207,-2.12 0.073,-1.357 -1.213,-2.425 -2.492,-1.762 -0.792,0.41 -1.16,1.273 -1.206,2.119 -0.013,0.258 -1.353,0.028 -1.332,-0.357 0.206,-3.823 6.174,-3.146 6.362,0.357 0.095,1.757 -1.778,2.835 -3.335,2.581 -1.598,-0.26 -2.935,-1.219 -3.027,-2.938 -0.011,-0.218 1.311,-0.05 1.332,0.357 z"
   id="path45" />&#10;		</g>&#10;	</g>&#10;	<g
   id="g49">&#10;		<g
   id="g48">&#10;			<path
   style="fill:#ffffff;stroke:#ffffff;stroke-width:0.5;stroke-miterlimit:10"
   d="m 209.785,227.759 c 0.298,-1.718 0.597,-3.437 0.895,-5.155 0.037,-0.216 -0.152,-0.377 -0.351,-0.412 -2.355,-0.41 -3.138,0.16 -3.266,-2.277 -0.066,-1.268 -1.08,-4.977 -0.331,-5.251 0.862,-0.315 1.726,-0.631 2.589,-0.946 0.207,-0.076 0.615,-0.358 0.513,-0.638 -0.599,-1.638 -1.198,-3.277 -1.798,-4.915 -0.171,-0.469 -0.891,-0.295 -1.226,-0.172 -1.166,0.427 -2.332,0.854 -3.498,1.281 0.409,0.057 0.817,0.115 1.226,0.172 -0.982,-1.836 -2.068,-3.508 -3.372,-5.139 -1.198,-1.499 0.012,-1.927 1.278,-3.443 0.106,-0.127 0.284,-0.376 0.098,-0.532 -1.339,-1.118 -2.677,-2.236 -4.016,-3.354 -0.387,-0.323 -1.188,-0.211 -1.51,0.175 -0.589,0.705 -1.178,1.41 -1.767,2.114 -0.462,0.797 -0.624,0.693 -0.485,-0.313 -0.865,-0.504 -1.758,-0.953 -2.677,-1.348 -0.936,-0.435 -2.717,-0.497 -2.521,-1.622 0.157,-0.904 0.315,-1.809 0.473,-2.713 0.037,-0.216 -0.152,-0.377 -0.351,-0.412 -1.718,-0.299 -3.436,-0.598 -5.153,-0.897 -0.428,-0.075 -1.3,0.054 -1.396,0.603 -0.213,1.222 -0.426,2.443 -0.639,3.665 0.4,-0.21 0.8,-0.421 1.199,-0.632 -2.045,-0.053 -4.088,-0.082 -6.107,0.343 -1.598,0.336 -1.527,-1.3 -2.1,-2.861 -0.172,-0.469 -0.891,-0.295 -1.226,-0.172 -1.638,0.6 -3.276,1.2 -4.914,1.801 -0.207,0.076 -0.616,0.358 -0.513,0.638 0.45,1.226 1.696,2.91 0.467,3.568 -1.906,1.019 -3.563,2.389 -5.154,3.833 0.503,-0.058 1.006,-0.117 1.51,-0.175 -0.953,-0.795 -1.905,-1.591 -2.858,-2.386 -0.387,-0.323 -1.188,-0.211 -1.511,0.175 -1.117,1.339 -2.235,2.678 -3.354,4.017 -0.105,0.127 -0.283,0.376 -0.097,0.532 0.88,0.735 1.76,1.471 2.641,2.207 -0.218,-0.182 -2.835,6.178 -3.013,6.73 0.466,-0.201 0.931,-0.402 1.396,-0.603 -1.221,-0.214 -2.441,-0.429 -3.663,-0.643 -0.428,-0.075 -1.3,0.054 -1.395,0.603 -0.3,1.72 -0.6,3.439 -0.899,5.159 -0.037,0.216 0.152,0.377 0.351,0.412 2.352,0.408 3.144,-0.161 3.271,2.272 0.066,1.267 1.079,4.978 0.327,5.254 -0.862,0.316 -1.726,0.633 -2.588,0.95 -0.207,0.076 -0.616,0.357 -0.513,0.638 0.6,1.639 1.2,3.277 1.801,4.917 0.172,0.468 0.891,0.295 1.226,0.172 1.166,-0.428 2.331,-0.856 3.497,-1.285 -0.408,-0.058 -0.817,-0.115 -1.226,-0.172 0.98,1.836 2.066,3.507 3.372,5.137 1.199,1.497 -0.012,1.927 -1.279,3.443 -0.105,0.127 -0.283,0.375 -0.097,0.531 1.339,1.119 2.678,2.238 4.017,3.357 0.387,0.323 1.188,0.211 1.51,-0.176 0.59,-0.705 1.179,-1.411 1.768,-2.116 0.463,-0.799 0.625,-0.693 0.486,0.314 0.864,0.504 1.756,0.953 2.676,1.347 0.936,0.434 2.715,0.495 2.519,1.62 -0.158,0.905 -0.315,1.81 -0.474,2.716 -0.037,0.216 0.152,0.377 0.35,0.412 1.719,0.299 3.438,0.598 5.156,0.897 0.427,0.074 1.3,-0.054 1.395,-0.604 0.212,-1.223 0.424,-2.445 0.637,-3.668 -0.4,0.211 -0.8,0.421 -1.199,0.632 2.047,0.054 4.089,0.08 6.11,-0.34 1.596,-0.332 1.528,1.305 2.101,2.861 0.172,0.468 0.891,0.295 1.226,0.172 1.637,-0.601 3.274,-1.201 4.911,-1.803 0.207,-0.076 0.615,-0.357 0.513,-0.639 -0.448,-1.225 -1.692,-2.91 -0.464,-3.565 1.908,-1.017 3.564,-2.395 5.154,-3.839 -0.503,0.059 -1.006,0.117 -1.51,0.176 0.952,0.798 1.904,1.597 2.857,2.395 0.386,0.323 1.188,0.211 1.511,-0.176 1.118,-1.34 2.236,-2.68 3.355,-4.021 0.105,-0.127 0.283,-0.375 0.097,-0.531 -0.882,-0.736 -1.765,-1.474 -2.646,-2.21 0.224,0.188 2.836,-6.171 3.013,-6.723 -0.466,0.201 -0.931,0.402 -1.396,0.603 1.222,0.212 2.443,0.425 3.666,0.637 0.608,0.106 2.058,-0.839 1.045,-1.015 -1.222,-0.212 -2.443,-0.425 -3.666,-0.637 -0.485,-0.084 -1.224,0.064 -1.396,0.603 -0.762,2.385 -1.775,4.549 -3.099,6.665 -0.067,0.108 -0.104,0.301 0.013,0.398 0.457,0.382 2.5,2.401 2.812,2.028 -1.07,1.282 -2.141,2.564 -3.212,3.848 0.504,-0.059 1.008,-0.117 1.511,-0.176 -0.952,-0.798 -1.904,-1.597 -2.856,-2.395 -0.424,-0.355 -1.134,-0.167 -1.51,0.176 -1.788,1.623 -3.646,2.953 -5.784,4.093 -0.196,0.105 -0.623,0.338 -0.513,0.639 0.361,0.985 0.729,3.247 1.582,2.934 -1.566,0.575 -3.134,1.15 -4.7,1.725 0.409,0.058 0.817,0.115 1.226,0.172 -0.428,-1.163 -0.855,-2.326 -1.283,-3.49 -0.143,-0.387 -0.689,-0.315 -0.999,-0.251 -2.306,0.564 -4.645,0.77 -7.015,0.614 -0.387,-0.01 -1.116,0.157 -1.199,0.632 -0.212,1.223 -0.424,2.445 -0.637,3.668 0.466,-0.201 0.931,-0.402 1.395,-0.604 -1.45,-0.252 -2.9,-0.505 -4.351,-0.757 -0.895,-0.156 -0.043,-2.094 0.184,-3.395 0.041,-0.236 -0.158,-0.351 -0.351,-0.412 -2.424,-0.776 -4.502,-1.753 -6.644,-3.092 -0.371,-0.232 -1.121,-0.058 -1.393,0.268 -0.795,0.952 -1.59,1.904 -2.385,2.857 0.503,-0.059 1.006,-0.117 1.51,-0.176 -1.13,-0.944 -2.26,-1.889 -3.389,-2.833 -0.863,-0.721 0.733,-1.738 1.664,-2.852 0.123,-0.148 0.262,-0.35 0.097,-0.531 -1.703,-1.875 -3.052,-3.761 -4.254,-6.012 -0.236,-0.443 -0.838,-0.314 -1.226,-0.172 -1.166,0.428 -2.331,0.857 -3.497,1.285 0.409,0.058 0.817,0.115 1.226,0.172 -0.506,-1.382 -1.013,-2.765 -1.52,-4.148 -0.316,-0.865 -0.967,-0.066 0.111,-0.462 0.863,-0.316 1.726,-0.633 2.588,-0.95 0.241,-0.088 0.575,-0.342 0.513,-0.638 -0.526,-2.525 -0.735,-4.701 -0.665,-7.333 0.006,-0.219 -0.127,-0.373 -0.351,-0.412 -0.674,-0.117 -3.238,-0.681 -3.279,-0.446 0.287,-1.646 0.574,-3.292 0.861,-4.937 -0.466,0.201 -0.931,0.402 -1.395,0.603 1.221,0.214 2.441,0.429 3.663,0.643 0.485,0.085 1.223,-0.066 1.396,-0.603 0.766,-2.385 1.777,-4.553 3.098,-6.672 0.067,-0.108 0.104,-0.3 -0.013,-0.397 -0.457,-0.382 -2.493,-2.397 -2.805,-2.024 1.069,-1.281 2.14,-2.563 3.21,-3.844 -0.504,0.058 -1.008,0.117 -1.511,0.175 0.953,0.795 1.905,1.591 2.858,2.386 0.425,0.354 1.133,0.167 1.51,-0.175 1.789,-1.621 3.65,-2.948 5.785,-4.09 0.195,-0.105 0.623,-0.338 0.513,-0.638 -0.362,-0.986 -0.731,-3.247 -1.586,-2.934 1.567,-0.575 3.136,-1.149 4.703,-1.724 -0.409,-0.057 -0.817,-0.115 -1.226,-0.172 0.427,1.165 0.854,2.33 1.281,3.495 0.142,0.387 0.689,0.317 0.999,0.252 2.305,-0.571 4.643,-0.779 7.013,-0.623 0.387,0.01 1.116,-0.157 1.199,-0.632 0.213,-1.222 0.426,-2.443 0.639,-3.665 -0.466,0.201 -0.931,0.402 -1.395,0.603 1.449,0.252 2.898,0.505 4.348,0.757 0.895,0.156 0.044,2.09 -0.183,3.391 -0.041,0.236 0.158,0.351 0.351,0.412 2.424,0.777 4.504,1.757 6.647,3.093 0.371,0.231 1.121,0.057 1.393,-0.268 0.794,-0.952 1.589,-1.903 2.383,-2.854 -0.503,0.058 -1.006,0.117 -1.51,0.175 1.129,0.943 2.259,1.886 3.389,2.83 0.861,0.72 -0.732,1.735 -1.664,2.849 -0.123,0.148 -0.261,0.35 -0.097,0.532 1.699,1.878 3.05,3.766 4.253,6.016 0.237,0.444 0.837,0.315 1.226,0.172 1.166,-0.427 2.332,-0.854 3.498,-1.281 -0.409,-0.057 -0.817,-0.115 -1.226,-0.172 0.506,1.382 1.011,2.765 1.517,4.147 0.316,0.865 0.967,0.066 -0.112,0.461 -0.863,0.315 -1.725,0.631 -2.589,0.946 -0.241,0.088 -0.575,0.342 -0.513,0.638 0.532,2.527 0.74,4.699 0.67,7.336 -0.006,0.219 0.127,0.373 0.351,0.412 0.674,0.117 3.233,0.682 3.274,0.447 -0.286,1.645 -0.571,3.289 -0.857,4.934 -0.129,0.743 1.633,0.459 1.746,-0.19 z"
   id="path47" />&#10;			<path
   style="fill:#ffffff;stroke:#ffffff;stroke-width:0.5;stroke-miterlimit:10"
   d="m 180.838,228.482 c -8.991,-2.07 -8.962,-16.184 1.176,-16.081 10.275,0.105 9.708,17.369 -1.371,16.052 -0.727,-0.086 -1.826,0.933 -0.654,1.072 4.274,0.509 9.164,-1.512 10.674,-5.866 1.923,-5.544 -1.211,-10.889 -6.864,-12.191 -4.224,-0.973 -9.432,1.702 -10.865,5.841 -1.918,5.541 1.208,10.886 6.86,12.187 0.61,0.142 2.057,-0.78 1.044,-1.014 z"
   id="path48" />&#10;		</g>&#10;	</g>&#10;	<g
   id="g66">&#10;		<g
   id="g51">&#10;			<g
   id="g50">&#10;				<path
   style="fill:#ffffff"
   d="m 321.371,280.331 c -2.016,-3.043 -3.903,-6.181 -5.519,-9.455 -1.406,-2.847 -1.026,-4.691 -0.685,-7.698 1.063,-9.332 1.902,-20.614 -2.268,-29.298 -3.48,-7.246 -16.975,-7.578 -23.752,-8.375 -10.923,-1.284 -22.163,-1.435 -33.039,0.318 -8.932,1.439 -17.319,4.471 -21.298,13.067 -4.359,9.419 -6.705,20.892 -2.52,30.76 7.235,17.059 32.203,15.62 47.228,13.279 9.364,-1.459 18.895,-4.223 27.439,-8.38 1.109,-0.54 3.824,1.095 4.692,1.437 3.764,1.478 7.528,2.958 11.292,4.436 1.235,0.485 -0.706,0.368 -1.148,0.195 -3.112,-1.223 -6.223,-2.445 -9.334,-3.667 -1.556,-0.611 -3.112,-1.222 -4.667,-1.833 0.725,0.285 1.463,-0.048 -0.51,0.84 -9.955,4.476 -20.761,7.192 -31.573,8.467 -19.232,2.268 -46.472,-1.102 -47.634,-25.329 -0.401,-8.378 2.388,-20.074 8.196,-26.373 5.473,-5.935 15.337,-7.419 22.894,-8.294 15.59,-1.808 34.87,-1.286 49.654,4.689 9.455,3.821 9.17,16.521 9.014,25.139 -0.08,4.366 -0.351,8.857 -1.14,13.162 -0.705,3.845 4.645,10.235 6.671,13.294 0.102,0.152 -1.676,0.098 -1.993,-0.381 z"
   id="path49" />&#10;			</g>&#10;		</g>&#10;		<g
   id="g65">&#10;			<g
   id="g52">&#10;				<path
   style="fill:#3877b3"
   d="m 272.047,272.28 c 0,-2.121 0,-4.243 0,-6.365 -0.018,-0.04 -0.049,-0.065 -0.094,-0.073 -5.004,-1.624 -8.115,-6.467 -8.557,-11.531 -0.762,-8.734 7.861,-13.706 15.689,-11.223 5.954,1.889 8.657,9.817 6.488,15.225 -0.891,2.22 -2.671,3.965 -4.526,5.399 -0.621,0.48 -2.439,1.009 -2.439,1.886 0,2.318 0,4.637 0,6.956 0.243,-0.121 0.485,-0.242 0.728,-0.363 -2.528,0 -5.056,0 -7.584,0 -0.298,0 -1.115,0.452 -0.432,0.452 2.528,0 5.056,0 7.584,0 0.182,0 0.728,-0.11 0.728,-0.363 0,-1.477 0,-2.954 0,-4.432 0,-0.755 0,-1.51 0,-2.266 0,-0.845 2.167,-1.776 2.88,-2.327 3.399,-2.63 5.342,-6.562 4.835,-10.86 -0.847,-7.194 -7.399,-11.139 -14.14,-10.172 -3.364,0.482 -6.542,1.758 -8.746,4.434 -2.969,3.605 -2.581,9.34 -0.647,13.295 1.34,2.742 3.882,4.832 6.634,6.05 1.369,0.606 0.576,4.923 0.576,6.552 0,0.204 1.023,0.045 1.023,-0.274 z"
   id="path51" />&#10;			</g>&#10;			<g
   id="g53">&#10;				<path
   style="fill:#3877b3"
   d="m 271.027,272.492 c -0.497,3.421 1.119,6.515 4.871,6.4 3.635,-0.112 4.562,-3.605 3.733,-6.612 -0.032,-0.115 -0.213,-0.118 -0.303,-0.118 -2.528,0 -5.056,0 -7.584,0 -0.337,0 -1.105,0.511 -0.416,0.511 1.931,0 3.862,0 5.793,0 0.428,0 0.856,0 1.284,0 0.654,0 0.25,0.054 0.216,-0.074 0.167,0.628 0.243,1.279 0.274,1.926 0.053,1.128 -0.171,2.291 -0.931,3.157 -1.259,1.433 -3.846,0.67 -4.928,-0.571 -1.049,-1.203 -1.211,-3.248 -0.991,-4.769 0.05,-0.346 -0.974,-0.153 -1.018,0.15 z"
   id="path52" />&#10;			</g>&#10;			<g
   id="g54">&#10;				<path
   style="fill:#3877b3"
   d="m 270.954,259.011 c 1.144,4.514 2.289,9.029 3.434,13.543 0.064,0.254 0.976,0.002 1.018,-0.222 1.045,-5.598 2.09,-11.196 3.135,-16.794 0.052,-0.277 -0.962,-0.101 -1.013,0.169 -1.045,5.598 -2.09,11.196 -3.135,16.794 0.34,-0.074 0.679,-0.148 1.018,-0.222 -1.145,-4.514 -2.289,-9.029 -3.434,-13.543 -0.065,-0.257 -1.09,0.011 -1.023,0.275 z"
   id="path53" />&#10;			</g>&#10;			<g
   id="g55">&#10;				<path
   style="fill:#3877b3"
   d="m 269.556,261.778 c 3.521,-1.128 7.042,-2.257 10.563,-3.385 0.589,-0.189 0.494,-0.583 -0.105,-0.392 -3.521,1.129 -7.042,2.258 -10.563,3.386 -0.588,0.189 -0.494,0.583 0.105,0.391 z"
   id="path54" />&#10;			</g>&#10;			<g
   id="g56">&#10;				<path
   style="fill:#3877b3"
   d="m 274.923,229.265 c 0,3.386 0,6.771 0,10.156 0,0.49 1.03,0.299 1.03,-0.101 0,-3.386 0,-6.771 0,-10.156 0,-0.49 -1.03,-0.299 -1.03,0.101 z"
   id="path55" />&#10;			</g>&#10;			<g
   id="g60">&#10;				<g
   id="g57">&#10;					<path
   style="fill:#3877b3"
   d="m 260.773,232.823 c 1.535,2.483 3.069,4.966 4.604,7.449 0.237,0.383 1.215,0.002 0.938,-0.446 -1.535,-2.483 -3.069,-4.966 -4.604,-7.449 -0.237,-0.384 -1.215,-0.003 -0.938,0.446 z"
   id="path56" />&#10;				</g>&#10;				<g
   id="g58">&#10;					<path
   style="fill:#3877b3"
   d="m 251.097,239.668 c 2.844,1.671 5.689,3.342 8.533,5.012 0.391,0.23 1.287,-0.301 0.787,-0.594 -2.844,-1.671 -5.689,-3.342 -8.533,-5.012 -0.391,-0.23 -1.287,0.301 -0.787,0.594 z"
   id="path57" />&#10;				</g>&#10;				<g
   id="g59">&#10;					<path
   style="fill:#3877b3"
   d="m 248.725,250.297 c 3.296,0.451 6.591,0.902 9.887,1.354 0.243,0.033 1.187,-0.379 0.654,-0.452 -3.296,-0.451 -6.591,-0.902 -9.887,-1.354 -0.243,-0.033 -1.187,0.38 -0.654,0.452 z"
   id="path58" />&#10;				</g>&#10;			</g>&#10;			<g
   id="g64">&#10;				<g
   id="g61">&#10;					<path
   style="fill:#3877b3"
   d="m 289.752,232.43 c -1.535,2.483 -3.07,4.966 -4.605,7.449 -0.347,0.562 0.599,0.772 0.867,0.34 1.535,-2.483 3.07,-4.966 4.605,-7.449 0.347,-0.562 -0.6,-0.772 -0.867,-0.34 z"
   id="path60" />&#10;				</g>&#10;				<g
   id="g62">&#10;					<path
   style="fill:#3877b3"
   d="m 299.606,239.171 c -2.844,1.671 -5.688,3.342 -8.533,5.012 -0.597,0.351 0.276,0.626 0.661,0.4 2.844,-1.671 5.688,-3.341 8.533,-5.012 0.598,-0.352 -0.276,-0.626 -0.661,-0.4 z"
   id="path61" />&#10;				</g>&#10;				<g
   id="g63">&#10;					<path
   style="fill:#3877b3"
   d="m 302.448,249.805 c -3.296,0.451 -6.591,0.902 -9.887,1.354 -0.479,0.065 -0.861,0.63 -0.15,0.532 3.296,-0.451 6.592,-0.902 9.888,-1.354 0.479,-0.065 0.861,-0.63 0.149,-0.532 z"
   id="path62" />&#10;				</g>&#10;			</g>&#10;		</g>&#10;	</g>&#10;	<g
   id="g75">&#10;		<g
   id="g74">&#10;			<g
   id="g67">&#10;				<path
   style="fill:#ffffff"
   d="m 417.134,70.794 c 0.37,14.126 0.739,28.251 1.108,42.377 0.009,0.333 0.308,0.416 0.595,0.41 18.134,-0.355 36.468,-1.241 54.589,-0.3 2.156,0.112 2.01,0.228 1.866,2.758 -0.08,1.417 0.166,0.778 0.391,0.774 -0.404,0.007 -0.809,0.013 -1.212,0.019 -3.813,0.059 -7.625,0.112 -11.438,0.161 -11.703,0.151 -23.41,0.285 -35.115,0.24 -3.607,-0.014 -7.857,0.494 -11.413,-0.32 -0.401,-0.091 -0.586,-11.208 -0.646,-12.486 -0.338,-7.266 -0.617,-14.535 -0.811,-21.806 -0.074,-2.794 -0.135,-5.589 -0.132,-8.384 10e-4,-0.801 0.013,-1.601 0.047,-2.402 0.064,-1.488 1.198,-0.986 2.45,-0.667 0.542,0.138 1.534,-0.656 0.752,-0.856 -3.023,-0.771 -4.467,-0.433 -4.542,2.512 -0.12,4.687 0.09,9.394 0.236,14.078 0.308,9.918 0.492,19.916 1.381,29.804 0.145,1.61 1.893,1.249 3.212,1.304 4.165,0.175 8.343,0.151 12.511,0.155 11.647,0.011 23.293,-0.131 34.939,-0.287 3.284,-0.044 6.568,-0.09 9.853,-0.144 0.278,-0.005 0.676,-0.208 0.716,-0.515 0.428,-3.371 0.655,-4.671 -2.591,-4.86 -4.084,-0.238 -8.194,-0.192 -12.283,-0.197 -11.543,-0.014 -23.085,0.16 -34.626,0.35 -2.654,0.044 -5.307,0.09 -7.961,0.142 0.536,-0.011 0.552,0.743 0.532,-0.002 -0.013,-0.497 -0.026,-0.993 -0.039,-1.489 -0.053,-2.052 -0.107,-4.104 -0.161,-6.157 -0.279,-10.691 -0.559,-21.382 -0.839,-32.073 -0.02,-0.748 -0.039,-1.497 -0.058,-2.245 -0.018,-0.668 -1.326,-0.457 -1.311,0.106 z"
   id="path66" />&#10;			</g>&#10;			<g
   id="g68">&#10;				<path
   style="fill:#ffffff"
   d="m 424.204,96.258 c -0.036,3.525 -0.026,7.072 0.271,10.586 0.073,0.868 -0.02,2.325 0.986,2.61 1.572,0.446 3.613,0.081 5.209,-0.068 0.22,-0.021 0.932,-0.128 0.922,-0.457 -0.126,-4.044 -0.261,-8.094 -0.558,-12.129 -0.063,-0.859 0.161,-2.472 -1.069,-2.438 -1.831,0.05 -3.68,0.845 -5.345,1.55 -0.844,0.357 -0.047,0.561 0.461,0.345 0.844,-0.357 4.285,-1.999 4.488,-0.79 0.26,1.54 0.273,3.145 0.356,4.701 0.164,3.034 0.276,6.071 0.371,9.108 0.307,-0.152 0.615,-0.305 0.922,-0.457 -0.945,0.088 -4.533,0.765 -5.049,-0.085 -0.649,-1.069 -0.472,-3.052 -0.536,-4.241 -0.153,-2.855 -0.164,-5.724 -0.135,-8.582 0.004,-0.25 -1.29,-0.056 -1.294,0.347 z"
   id="path67" />&#10;			</g>&#10;			<g
   id="g69">&#10;				<path
   style="fill:#ffffff"
   d="m 436.526,88.951 c 0.023,3.301 0.039,6.601 0.052,9.902 0.011,2.976 0.731,7.002 -0.052,9.902 -0.061,0.225 0.242,0.344 0.411,0.344 1.708,0 3.416,0 5.124,0 0.253,0 0.886,-0.115 0.891,-0.479 0.066,-4.985 0.059,-9.976 -0.118,-14.959 -0.048,-1.335 0.328,-4.834 -0.688,-5.928 -1.163,-1.252 -4.101,0.262 -5.238,0.836 -0.797,0.401 -0.071,0.939 0.538,0.631 1.953,-0.985 3.535,-1.693 3.831,0.742 0.304,2.501 0.306,5.052 0.355,7.566 0.073,3.748 0.068,7.499 0.018,11.247 0.297,-0.16 0.594,-0.32 0.891,-0.479 -0.989,0 -1.978,0 -2.967,0 -0.587,0 -1.174,0 -1.762,0 -0.706,0 0.023,0.331 0.034,0.2 0.167,-2.02 0.044,-4.098 0.042,-6.122 -0.004,-4.513 -0.03,-9.025 -0.061,-13.538 -0.003,-0.605 -1.304,-0.354 -1.301,0.135 z"
   id="path68" />&#10;			</g>&#10;			<g
   id="g70">&#10;				<path
   style="fill:#ffffff"
   d="m 448.58,84.676 c -0.205,5.157 -0.354,10.317 -0.417,15.478 -0.033,2.661 -0.144,5.39 0.177,8.039 0.22,1.821 3.774,0.798 5.063,0.846 0.216,0.008 0.89,-0.126 0.902,-0.438 0.242,-6.403 0.428,-12.814 0.432,-19.222 10e-4,-1.042 0.586,-5.856 -0.476,-6.561 -1.121,-0.746 -5.032,0.597 -5.773,1.62 -0.058,0.08 -0.075,0.176 -0.002,0.254 0.046,0.049 0.092,0.098 0.138,0.147 0.296,0.317 1.527,-0.153 1.204,-0.497 0.323,0.345 3.117,-1.82 3.373,-0.643 0.179,0.823 0.161,1.714 0.191,2.55 0.111,3.006 0.046,6.023 -0.004,9.029 -0.075,4.499 -0.207,8.998 -0.377,13.495 0.3,-0.146 0.601,-0.292 0.902,-0.438 -2.127,-0.08 -4.2,0.92 -4.373,-1.491 -0.185,-2.574 -0.106,-5.178 -0.074,-7.756 0.059,-4.862 0.212,-9.725 0.405,-14.583 0.021,-0.512 -1.275,-0.237 -1.291,0.171 z"
   id="path69" />&#10;			</g>&#10;			<g
   id="g71">&#10;				<path
   style="fill:#ffffff"
   d="m 461.458,79.389 c -0.12,6.272 -0.208,12.545 -0.24,18.817 -0.016,3.061 -0.07,6.139 0.102,9.197 0.114,2.028 3.336,1.072 4.806,1.018 0.24,-0.009 0.915,-0.132 0.919,-0.465 0.098,-6.803 0.169,-13.608 0.184,-20.412 0.007,-2.947 0.108,-5.937 -0.126,-8.878 -0.143,-1.806 -4.442,0.051 -5.231,0.367 -0.852,0.342 -0.051,0.571 0.466,0.363 0.985,-0.395 3.365,-1.715 3.487,-0.175 0.081,1.016 0.074,2.043 0.088,3.062 0.046,3.338 0.022,6.678 0.004,10.016 -0.031,5.335 -0.09,10.669 -0.166,16.003 0.306,-0.155 0.613,-0.31 0.919,-0.465 -0.496,0.018 -3.878,0.298 -3.97,0.003 -0.21,-0.668 -0.123,-1.53 -0.143,-2.219 -0.097,-3.313 -0.054,-6.633 -0.03,-9.948 0.039,-5.545 0.121,-11.09 0.227,-16.633 0.003,-0.259 -1.288,-0.065 -1.296,0.349 z"
   id="path70" />&#10;			</g>&#10;			<g
   id="g72">&#10;				<path
   style="fill:#ffffff"
   d="m 424.57,85.855 c 15.557,-5.771 31.113,-11.541 46.67,-17.312 0.841,-0.312 0.085,-0.882 -0.543,-0.649 -15.557,5.771 -31.114,11.541 -46.67,17.312 -0.841,0.311 -0.085,0.882 0.543,0.649 z"
   id="path71" />&#10;			</g>&#10;			<g
   id="g73">&#10;				<path
   style="fill:#ffffff"
   d="m 456.179,68.601 c 5.351,-0.217 10.701,-0.433 16.051,-0.65 0.47,-0.019 0.216,-0.664 0.01,-0.512 -0.294,0.215 -0.587,0.432 -0.88,0.647 -1.322,0.972 -2.642,1.944 -3.964,2.916 -2.176,1.601 -4.352,3.202 -6.529,4.803 -0.708,0.52 0.392,0.723 0.812,0.415 3.831,-2.819 7.662,-5.637 11.494,-8.456 0.308,-0.226 0.312,-0.609 -0.158,-0.59 -5.447,0.22 -10.894,0.441 -16.341,0.662 -0.495,0.02 -1.366,0.8 -0.495,0.765 z"
   id="path72" />&#10;			</g>&#10;		</g>&#10;	</g>&#10;	<path
   style="fill:#ffffff"
   d="m 512.09,82.684 c -3.202,9.719 0.476,21.148 8.744,27.176 4.138,3.021 9.215,4.532 14.293,4.532 5.061,0 10.123,-1.501 14.255,-4.503 7.8,-5.668 11.605,-16.455 9.18,-25.831 0.481,-0.234 0.962,-0.468 1.438,-0.711 1.625,0.978 3.491,1.488 5.369,1.488 0.862,0 1.726,-0.107 2.57,-0.324 2.718,-0.699 5.07,-2.5 6.451,-4.942 0.097,-0.172 0.108,-0.379 0.029,-0.56 -0.079,-0.181 -0.238,-0.314 -0.43,-0.36 -2.207,-0.527 -4.503,-0.561 -6.72,-0.125 0.117,-0.285 0.175,-0.602 0.133,-0.951 -0.088,-0.728 -0.392,-1.249 -0.904,-1.548 -0.051,-0.029 -0.104,-0.053 -0.157,-0.078 1.719,-1.55 2.769,-3.797 2.802,-6.13 0.003,-0.179 -0.072,-0.351 -0.204,-0.472 -0.132,-0.121 -0.309,-0.178 -0.488,-0.161 -1.689,0.176 -3.436,0.357 -5.118,0.887 -1.932,0.609 -3.49,1.622 -4.505,2.929 -1.203,1.55 -1.597,3.519 -1.064,5.192 -0.461,0.158 -0.92,0.321 -1.377,0.489 -3.087,-5.493 -8.521,-9.841 -14.651,-11.683 -7.513,-2.26 -15.783,-0.463 -22.118,4.808 -3.562,2.966 -6.165,6.727 -7.528,10.878 z m 40.413,4.023 c 0.972,5.652 -1.441,11.776 -6.028,15.11 v 0 c -5.214,3.788 -12.777,3.782 -17.983,-0.015 -5.207,-3.799 -7.524,-10.999 -5.508,-17.119 0.855,-2.604 2.495,-4.969 4.743,-6.84 2.86,-2.382 6.342,-3.64 9.824,-3.64 1.376,0 2.752,0.197 4.089,0.598 3.553,1.069 6.689,3.408 8.701,6.465 -0.163,0.079 -0.325,0.161 -0.488,0.241 -0.182,0.089 -0.364,0.178 -0.545,0.269 -0.291,0.146 -0.581,0.294 -0.87,0.444 -0.172,0.089 -0.344,0.177 -0.516,0.267 -0.312,0.164 -0.622,0.332 -0.931,0.5 -0.145,0.079 -0.291,0.156 -0.435,0.236 -0.283,0.157 -0.563,0.316 -0.843,0.476 -1.329,-1.844 -3.288,-3.259 -5.469,-3.913 -3.126,-0.941 -6.56,-0.195 -9.186,1.993 -1.474,1.223 -2.556,2.784 -3.127,4.516 -1.327,4.033 0.199,8.777 3.63,11.281 1.718,1.254 3.826,1.881 5.934,1.881 2.101,0 4.201,-0.623 5.917,-1.868 0,0 0,0 0,0 2.772,-2.016 4.367,-5.628 4.08,-9.124 0.332,-0.105 0.664,-0.209 0.995,-0.318 0.165,-0.054 0.33,-0.112 0.495,-0.167 0.329,-0.111 0.656,-0.222 0.983,-0.336 0.193,-0.068 0.385,-0.138 0.578,-0.207 0.298,-0.107 0.596,-0.215 0.893,-0.326 0.198,-0.074 0.395,-0.149 0.593,-0.224 0.157,-0.061 0.317,-0.119 0.474,-0.18 z m -8.574,-1.963 c -0.341,0.207 -0.678,0.413 -1.003,0.619 -0.582,0.365 -1.147,0.734 -1.7,1.102 -0.618,-0.76 -1.468,-1.341 -2.416,-1.627 -1.493,-0.449 -3.129,-0.096 -4.379,0.944 -0.704,0.586 -1.218,1.331 -1.488,2.153 -0.631,1.918 0.095,4.174 1.728,5.365 0.818,0.597 1.821,0.896 2.824,0.896 1,0 2.001,-0.297 2.817,-0.891 1.059,-0.772 1.766,-2.034 1.92,-3.375 0.539,-0.131 1.074,-0.267 1.606,-0.408 0.111,-0.029 0.222,-0.058 0.333,-0.088 0.647,-0.174 1.287,-0.354 1.92,-0.541 0.057,-0.017 0.116,-0.032 0.173,-0.049 0.151,2.983 -1.236,6.017 -3.59,7.729 -3.008,2.185 -7.37,2.181 -10.373,-0.011 -3.003,-2.191 -4.34,-6.344 -3.178,-9.874 0.498,-1.507 1.444,-2.871 2.738,-3.944 1.65,-1.375 3.658,-2.102 5.665,-2.102 0.793,0 1.587,0.114 2.358,0.346 1.88,0.564 3.577,1.763 4.745,3.336 -0.128,0.076 -0.252,0.151 -0.379,0.227 -0.108,0.065 -0.215,0.129 -0.321,0.193 z m -5.528,3.694 c -0.085,0.062 -0.169,0.126 -0.254,0.189 -0.567,0.42 -1.132,0.848 -1.691,1.286 -0.057,0.044 -0.104,0.097 -0.141,0.155 -0.074,0.116 -0.109,0.253 -0.097,0.391 0.006,0.069 0.023,0.137 0.052,0.203 0.028,0.062 0.065,0.117 0.109,0.165 0.014,0.015 0.031,0.026 0.046,0.04 0.033,0.03 0.066,0.058 0.105,0.08 0.021,0.012 0.043,0.02 0.065,0.03 0.037,0.016 0.073,0.03 0.113,0.038 0.012,0.003 0.022,0.009 0.034,0.012 0.014,0.002 0.03,-0.002 0.044,0 0.02,0.002 0.038,0.008 0.058,0.008 0.035,0 0.071,-0.003 0.106,-0.009 0.743,-0.127 1.488,-0.269 2.232,-0.419 0.236,-0.048 0.468,-0.099 0.703,-0.149 0.341,-0.072 0.683,-0.14 1.023,-0.216 -0.2,0.823 -0.676,1.567 -1.336,2.048 -1.187,0.863 -2.976,0.862 -4.162,-0.003 -1.185,-0.865 -1.733,-2.567 -1.275,-3.96 0.196,-0.598 0.576,-1.145 1.098,-1.58 0.664,-0.553 1.471,-0.845 2.276,-0.845 0.316,0 0.632,0.045 0.939,0.137 0.672,0.203 1.282,0.602 1.736,1.127 -0.052,0.036 -0.104,0.075 -0.156,0.111 -0.544,0.378 -1.086,0.764 -1.627,1.161 z m 14.338,-3.173 c -1.985,0.794 -4.04,1.519 -6.107,2.157 -1.66,0.511 -3.388,0.981 -5.137,1.396 -0.707,0.168 -1.421,0.327 -2.138,0.475 0.502,-0.366 1.007,-0.721 1.511,-1.069 0.185,-0.128 0.37,-0.258 0.555,-0.383 0.693,-0.47 1.423,-0.946 2.172,-1.416 0.713,-0.45 1.469,-0.906 2.247,-1.355 0,0 0,0 10e-4,-10e-4 0,0 0,0 0.001,0 1.838,-1.066 3.746,-2.066 5.671,-2.97 1.409,-0.662 2.87,-1.293 4.34,-1.874 l 0.114,-0.045 c 0.118,-0.046 0.235,-0.092 0.36,-0.138 1.448,-0.551 2.945,-1.035 4.393,-1.504 0.539,-0.174 1.079,-0.349 1.619,-0.527 0.213,-0.071 0.466,-0.177 0.759,-0.299 0.618,-0.259 1.662,-0.695 2.34,-0.695 0.17,0 0.318,0.028 0.429,0.092 0.058,0.034 0.232,0.135 0.29,0.613 0,0 0,0 0,0.001 0.05,0.41 -0.351,0.879 -1.193,1.395 -2.36,1.457 -4.853,2.815 -7.409,4.036 -1.603,0.766 -3.223,1.476 -4.818,2.111 z m 20.09,-5.575 c -1.24,1.751 -3.13,3.073 -5.201,3.605 -2.073,0.532 -4.364,0.285 -6.293,-0.651 1.464,-0.782 2.901,-1.6 4.288,-2.456 0.054,-0.033 0.122,-0.075 0.198,-0.124 0.118,0.039 0.248,0.045 0.375,0.007 2.151,-0.637 4.427,-0.766 6.633,-0.381 z m -13.008,-5.919 c 1.084,-1.396 2.714,-2.131 3.891,-2.502 1.324,-0.417 2.737,-0.607 4.129,-0.758 -0.253,2.072 -1.464,4.05 -3.215,5.18 -0.086,0.056 -0.152,0.13 -0.2,0.214 -0.634,0.158 -1.269,0.422 -1.811,0.649 -0.269,0.113 -0.502,0.21 -0.669,0.265 -0.537,0.177 -1.073,0.351 -1.61,0.525 -0.456,0.147 -0.918,0.298 -1.381,0.45 -0.393,-1.263 -0.066,-2.822 0.866,-4.023 z m -18.445,-5.569 c 5.764,1.732 10.886,5.791 13.832,10.928 -0.444,0.177 -0.883,0.365 -1.323,0.55 -0.256,0.107 -0.514,0.209 -0.768,0.319 -0.55,0.238 -1.091,0.485 -1.63,0.734 -2.169,-3.377 -5.594,-5.963 -9.486,-7.135 -5.126,-1.54 -10.763,-0.314 -15.079,3.279 -2.429,2.021 -4.204,4.585 -5.131,7.412 -2.181,6.622 0.326,14.413 5.961,18.525 2.821,2.057 6.28,3.086 9.741,3.086 3.45,0 6.902,-1.023 9.719,-3.069 0,0 0,0 0,0 5.033,-3.658 7.637,-10.416 6.468,-16.597 0.476,-0.193 0.954,-0.393 1.433,-0.599 0.102,-0.044 0.203,-0.086 0.305,-0.13 0.611,-0.265 1.221,-0.54 1.831,-0.823 0.054,-0.025 0.109,-0.048 0.163,-0.074 2.175,8.837 -1.437,18.935 -8.768,24.262 -6.023,4.376 -14.125,5.384 -21.11,3.035 -0.08,-0.129 -0.206,-0.231 -0.364,-0.275 -2.872,-0.796 -5.339,-4.111 -6.903,-6.753 -3.131,-5.289 -4.493,-11.567 -3.835,-17.679 0.666,-6.181 3.483,-12.483 7.541,-16.885 3.494,-1.983 7.363,-3.019 11.233,-3.019 2.077,0.005 4.153,0.302 6.17,0.908 z m -20.887,4.518 c -2.838,4.19 -4.76,9.307 -5.303,14.347 -0.687,6.379 0.735,12.932 4.002,18.453 0.699,1.181 1.41,2.222 2.128,3.129 -7.656,-5.765 -11.035,-16.46 -8.033,-25.574 1.289,-3.927 3.758,-7.489 7.14,-10.302 0.021,-0.018 0.044,-0.035 0.066,-0.053 z"
   id="path75" />&#10;	<path
   style="fill:#3877b3"
   d="m 213.921,276.766 c -0.132,-2.965 -2.194,-5.587 -4.902,-6.235 -1.859,-0.443 -3.995,0.023 -5.864,1.287 -1.144,0.773 -2.1,1.758 -2.949,2.79 -0.099,-0.255 -0.196,-0.511 -0.294,-0.767 -0.588,-1.534 -1.196,-3.12 -1.854,-4.661 -0.444,-1.041 -1.345,-3.215 -3.849,-3.171 -1.759,0.026 -3.645,0.762 -5.309,1.411 -0.536,0.209 -1.055,0.412 -1.545,0.581 -2.36,0.813 -4.727,1.703 -7.033,2.644 -2.645,1.079 -5.283,2.253 -7.844,3.493 -1.653,0.799 -3.255,1.779 -3.779,3.518 -0.412,1.37 0.004,2.736 0.465,4.017 2.378,6.6 5.219,13.102 8.441,19.325 0.402,0.777 0.953,1.84 1.968,2.472 0.6,0.373 1.301,0.559 2.085,0.559 0.848,0 1.792,-0.218 2.806,-0.654 0.273,-0.117 0.545,-0.243 0.817,-0.369 0.962,-0.446 1.872,-0.867 2.788,-0.877 0.3,-0.004 0.581,-0.153 0.751,-0.401 0.17,-0.248 0.21,-0.563 0.105,-0.845 -0.571,-1.545 -1.187,-3.342 -1.264,-5.119 -0.079,-1.806 0.446,-3.44 1.439,-4.484 1.077,-1.132 2.791,-1.507 3.987,-0.873 1.217,0.644 1.746,2.118 1.837,3.282 0.113,1.475 -0.29,2.998 -0.68,4.471 -0.089,0.336 0.019,0.694 0.278,0.926 0.259,0.233 0.628,0.298 0.952,0.172 l 11.426,-4.456 c 0.231,-0.09 0.417,-0.27 0.514,-0.498 0.098,-0.229 0.099,-0.486 0.005,-0.716 l -3.099,-7.511 c 1.848,-0.178 4.095,-0.748 6.074,-2.249 2.294,-1.739 3.645,-4.445 3.527,-7.062 z m -4.643,5.589 c -1.63,1.236 -3.872,1.926 -6.317,1.943 -0.308,0.002 -0.594,0.157 -0.764,0.413 -0.17,0.256 -0.202,0.58 -0.084,0.864 l 3.238,7.848 -8.885,3.464 c 0.232,-1.069 0.39,-2.198 0.302,-3.34 -0.163,-2.112 -1.241,-3.941 -2.814,-4.774 -1.935,-1.025 -4.538,-0.506 -6.193,1.233 -1.338,1.405 -2.047,3.533 -1.947,5.839 0.071,1.618 0.504,3.183 0.99,4.597 -0.811,0.197 -1.563,0.545 -2.298,0.886 -0.257,0.119 -0.514,0.238 -0.771,0.348 -0.955,0.411 -2.283,0.784 -3.184,0.224 -0.539,-0.336 -0.909,-0.992 -1.303,-1.753 -3.186,-6.151 -5.993,-12.578 -8.344,-19.101 -0.371,-1.032 -0.684,-2.027 -0.434,-2.857 0.334,-1.109 1.627,-1.814 2.814,-2.388 2.525,-1.222 5.128,-2.381 7.737,-3.445 2.275,-0.928 4.609,-1.805 6.938,-2.608 0.513,-0.177 1.055,-0.388 1.615,-0.607 1.593,-0.622 3.24,-1.264 4.665,-1.285 0.012,0 0.023,0 0.035,0 0.906,0 1.435,0.523 2.085,2.048 0.644,1.51 1.246,3.08 1.828,4.598 0.294,0.768 0.589,1.535 0.89,2.299 0.123,0.312 0.406,0.534 0.738,0.578 0.333,0.046 0.663,-0.095 0.864,-0.365 1.002,-1.347 2.121,-2.724 3.513,-3.665 1.439,-0.973 3.042,-1.346 4.398,-1.02 1.893,0.453 3.391,2.395 3.486,4.518 0.089,2.021 -0.983,4.131 -2.798,5.508 z"
   id="path76" />&#10;	<g
   id="g81">&#10;		<path
   style="fill:#ffffff"
   d="m 753.199,207.89 c -2.747,-1.132 -6.018,-1.447 -9.261,-0.919 -1.126,-1.251 -2.477,-2.322 -4.048,-3.168 -3.827,-2.056 -9.692,-1.654 -13.905,-0.59 -3.246,0.82 -6.276,2.348 -8.762,4.42 -2.082,1.735 -4.695,4.615 -5.319,8.483 -0.565,3.498 0.672,7.314 3.308,10.207 2.072,2.278 4.959,3.989 8.389,4.981 -0.618,2.646 -1.236,5.291 -1.851,7.937 -0.093,0.399 0.083,0.813 0.436,1.023 0.149,0.089 0.316,0.133 0.482,0.133 0.225,0 0.448,-0.081 0.626,-0.238 2.328,-2.066 4.095,-4.801 5.037,-7.772 2.065,0.266 4.207,0.133 6.269,-0.38 1.795,1.577 3.931,2.597 6.138,2.917 0.255,2.66 1.032,5.286 2.268,7.643 0.164,0.314 0.489,0.505 0.835,0.505 0.06,0 0.122,-0.006 0.183,-0.018 0.409,-0.081 0.717,-0.422 0.756,-0.837 l 0.702,-7.493 c 4.147,-0.717 7.874,-2.534 10.558,-5.16 0.001,0 0.001,-0.001 0.001,-0.001 3.224,-3.162 4.92,-7.517 4.535,-11.647 -0.433,-4.683 -3.053,-8.244 -7.377,-10.026 z m -25.372,22.512 c -0.49,-0.09 -0.956,0.212 -1.081,0.688 -0.465,1.775 -1.262,3.474 -2.321,4.984 0.406,-1.743 0.814,-3.487 1.221,-5.23 0.117,-0.503 -0.191,-1.006 -0.693,-1.13 -2.414,-0.594 -5.82,-1.885 -8.346,-4.66 -2.253,-2.473 -3.315,-5.701 -2.841,-8.637 0.531,-3.293 2.83,-5.807 4.665,-7.336 2.271,-1.892 5.043,-3.289 8.017,-4.04 1.854,-0.468 4.166,-0.814 6.433,-0.814 2.245,0 4.447,0.34 6.117,1.237 1.035,0.558 1.966,1.219 2.781,1.975 -0.047,0.014 -0.091,0.033 -0.139,0.046 -0.474,0.139 -0.939,0.292 -1.392,0.466 -0.071,0.027 -0.139,0.058 -0.21,0.086 -0.413,0.164 -0.816,0.344 -1.209,0.536 -0.074,0.037 -0.15,0.07 -0.224,0.108 -0.421,0.215 -0.827,0.447 -1.221,0.694 -0.087,0.054 -0.172,0.111 -0.257,0.166 -0.398,0.26 -0.787,0.531 -1.153,0.823 -4.328,3.454 -6.589,9.213 -5.624,14.334 0.056,0.296 0.127,0.59 0.206,0.882 0.025,0.092 0.054,0.183 0.081,0.274 0.06,0.204 0.125,0.406 0.195,0.607 0.035,0.099 0.07,0.198 0.108,0.297 0.077,0.203 0.16,0.404 0.248,0.604 0.037,0.083 0.071,0.167 0.109,0.25 0.128,0.276 0.265,0.549 0.413,0.817 0.019,0.034 0.041,0.067 0.06,0.101 0.132,0.234 0.271,0.463 0.417,0.689 0.055,0.085 0.113,0.169 0.171,0.253 0.119,0.176 0.243,0.349 0.37,0.519 0.065,0.087 0.13,0.172 0.197,0.257 0.043,0.054 0.083,0.111 0.126,0.165 -1.744,0.302 -3.524,0.3 -5.224,-0.011 z m 26.894,-2.185 c -2.557,2.501 -6.193,4.189 -10.239,4.755 -0.433,0.06 -0.767,0.41 -0.808,0.846 l -0.407,4.348 c -0.388,-1.352 -0.628,-2.749 -0.706,-4.148 -0.027,-0.475 -0.404,-0.856 -0.879,-0.888 -2.218,-0.147 -4.412,-1.156 -6.181,-2.842 -1.706,-1.617 -2.878,-3.727 -3.3,-5.939 -0.838,-4.452 1.151,-9.479 4.948,-12.509 0.226,-0.18 0.459,-0.353 0.699,-0.52 0.29,-0.201 0.594,-0.389 0.904,-0.57 1.486,-0.866 3.186,-1.497 5.013,-1.844 1.073,-0.206 2.151,-0.307 3.208,-0.307 1.958,0 3.847,0.349 5.509,1.035 2.578,1.063 5.75,3.392 6.219,8.457 0.331,3.571 -1.156,7.357 -3.98,10.126 z"
   id="path77" />&#10;		<path
   style="fill:#3877b3"
   d="m 755.801,216.835 c -0.08,-0.515 -0.566,-0.866 -1.077,-0.786 l -17.141,2.671 c -0.514,0.08 -0.866,0.562 -0.786,1.076 0.072,0.465 0.474,0.798 0.93,0.798 0.048,0 0.097,-0.004 0.147,-0.011 l 17.14,-2.671 c 0.515,-0.081 0.867,-0.562 0.787,-1.077 z"
   id="path78" />&#10;		<path
   style="fill:#3877b3"
   d="m 755.117,220.018 -15.605,2.628 c -0.514,0.086 -0.86,0.572 -0.773,1.086 0.078,0.46 0.477,0.786 0.928,0.786 0.052,0 0.105,-0.004 0.158,-0.013 l 15.605,-2.628 c 0.514,-0.086 0.86,-0.573 0.773,-1.086 -0.087,-0.514 -0.578,-0.861 -1.086,-0.773 z"
   id="path79" />&#10;		<path
   style="fill:#3877b3"
   d="m 729.495,215.431 -8.832,-1.758 c -0.503,-0.1 -1.006,0.23 -1.108,0.74 -0.102,0.51 0.23,1.007 0.74,1.108 l 8.832,1.759 c 0.062,0.012 0.124,0.018 0.185,0.018 0.44,0 0.834,-0.311 0.923,-0.759 0.102,-0.51 -0.229,-1.006 -0.74,-1.108 z"
   id="path80" />&#10;		<path
   style="fill:#3877b3"
   d="m 728.131,219.723 -7.709,-0.674 c -0.526,-0.047 -0.976,0.338 -1.021,0.857 -0.045,0.519 0.338,0.976 0.857,1.021 l 7.709,0.674 c 0.028,0.003 0.056,0.004 0.083,0.004 0.483,0 0.895,-0.37 0.938,-0.86 0.045,-0.519 -0.339,-0.976 -0.857,-1.022 z"
   id="path81" />&#10;	</g>&#10;	<path
   style="fill:#264370"
   d="m 311.873,216.31 c 2.154,-1.415 2.756,-4.318 1.342,-6.473 -1.415,-2.154 -4.318,-2.756 -6.473,-1.342 -2.154,1.415 -2.756,4.318 -1.342,6.473 1.415,2.155 4.319,2.757 6.473,1.342 z m -4.522,-6.886 c 1.643,-1.079 3.857,-0.62 4.936,1.023 1.079,1.643 0.62,3.857 -1.023,4.936 -1.643,1.079 -3.857,0.62 -4.936,-1.023 -1.079,-1.643 -0.62,-3.857 1.023,-4.936 z"
   id="path82" />&#10;	<path
   style="fill:#264370"
   d="m 332.946,200.753 c -1.949,-2.968 -5.949,-3.797 -8.917,-1.848 -2.968,1.949 -3.797,5.95 -1.849,8.917 1.949,2.968 5.949,3.797 8.918,1.848 2.968,-1.948 3.797,-5.949 1.848,-8.917 z m -9.838,6.46 c -1.613,-2.456 -0.927,-5.768 1.53,-7.381 2.456,-1.613 5.767,-0.927 7.38,1.53 1.613,2.457 0.927,5.768 -1.53,7.381 -2.456,1.613 -5.767,0.927 -7.38,-1.53 z"
   id="path83" />&#10;	<path
   style="fill:#264370"
   d="m 587.893,27.683 c -1.949,-2.968 -5.949,-3.797 -8.917,-1.848 -2.968,1.949 -3.797,5.949 -1.849,8.917 1.949,2.968 5.95,3.797 8.918,1.848 2.968,-1.949 3.797,-5.949 1.848,-8.917 z m -9.838,6.46 c -1.613,-2.457 -0.927,-5.768 1.53,-7.381 2.457,-1.613 5.767,-0.927 7.381,1.53 1.614,2.457 0.927,5.768 -1.53,7.381 -2.456,1.613 -5.768,0.926 -7.381,-1.53 z"
   id="path84" />&#10;	<path
   style="fill:#264370"
   d="m 119.19,87.25 c 0,-2.74 -2.229,-4.968 -4.968,-4.968 -2.74,0 -4.968,2.229 -4.968,4.968 0,2.74 2.229,4.968 4.968,4.968 2.739,0 4.968,-2.229 4.968,-4.968 z m -8.827,0 c 0,-2.128 1.731,-3.859 3.859,-3.859 2.128,0 3.859,1.731 3.859,3.859 0,2.128 -1.731,3.859 -3.859,3.859 -2.128,-10e-4 -3.859,-1.732 -3.859,-3.859 z"
   id="path85" />&#10;	<path
   style="fill:#264370"
   d="m 655.694,208.298 c 2.245,-0.195 3.912,-2.18 3.717,-4.424 -0.195,-2.244 -2.18,-3.911 -4.424,-3.716 -2.244,0.195 -3.912,2.179 -3.717,4.424 0.195,2.243 2.18,3.911 4.424,3.716 z m -0.611,-7.036 c 1.635,-0.142 3.08,1.073 3.222,2.707 0.142,1.635 -1.072,3.08 -2.707,3.223 -1.635,0.142 -3.081,-1.072 -3.223,-2.707 -0.142,-1.635 1.073,-3.081 2.708,-3.223 z"
   id="path86" />&#10;	<path
   style="fill:#264370"
   d="m 679.736,205.76 c -4.426,0.384 -7.713,4.298 -7.328,8.723 0.384,4.425 4.297,7.713 8.723,7.329 4.426,-0.384 7.714,-4.298 7.329,-8.723 -0.385,-4.426 -4.298,-7.714 -8.724,-7.329 z m 1.218,14.018 c -3.304,0.287 -6.226,-2.168 -6.513,-5.472 -0.287,-3.304 2.167,-6.226 5.472,-6.513 3.304,-0.287 6.227,2.168 6.513,5.472 0.287,3.304 -2.168,6.226 -5.472,6.513 z"
   id="path87" />&#10;	<g
   id="g93">&#10;		<path
   style="fill:#ffffff"
   d="m 795.111,266.797 c 0.466,1.486 1.103,3.52 2.685,4.719 1.052,0.798 2.278,1.09 3.585,1.09 1.387,0 2.865,-0.33 4.319,-0.735 l 15.312,-4.264 c 2.34,-0.652 4.923,-1.541 5.971,-3.853 0.911,-2.009 0.206,-4.351 -0.26,-5.9 l -11.129,-37.001 c -0.071,-0.235 -0.133,-0.486 -0.196,-0.743 -0.174,-0.703 -0.371,-1.5 -0.779,-2.149 -1.004,-1.595 -3.104,-1.072 -4.495,-0.724 -0.287,0.072 -0.555,0.139 -0.79,0.183 -4.715,0.866 -9.136,1.878 -13.138,3.009 -2.302,0.65 -4.549,1.361 -6.678,2.113 -0.316,0.112 -0.653,0.217 -0.998,0.326 l -0.314,0.099 c 0,0 0,0 0,0 -1.754,0.556 -3.539,1.237 -4.394,2.892 -0.881,1.702 -0.396,3.624 0.175,5.446 z m -10.074,-40.305 c 0.613,-1.186 2.045,-1.721 3.584,-2.209 0,0 0,0 0,0 l 0.311,-0.098 c 0.361,-0.113 0.713,-0.224 1.045,-0.341 2.101,-0.742 4.319,-1.444 6.593,-2.087 3.962,-1.119 8.34,-2.121 13.012,-2.979 0.26,-0.048 0.558,-0.122 0.876,-0.201 0.725,-0.181 1.394,-0.33 1.929,-0.33 0.482,0 0.855,0.121 1.061,0.449 0.29,0.46 0.451,1.113 0.607,1.744 0.069,0.28 0.137,0.554 0.214,0.809 l 11.129,37.002 c 0.538,1.789 0.968,3.512 0.325,4.931 -0.802,1.77 -3.044,2.524 -5.083,3.091 l -15.312,4.265 c -2.312,0.643 -4.927,1.218 -6.697,-0.125 -1.137,-0.862 -1.669,-2.335 -2.2,-4.03 L 785.304,230.89 c -0.486,-1.548 -0.906,-3.163 -0.267,-4.398 z"
   id="path88" />&#10;		<path
   style="fill:#ffffff"
   d="m 794.792,257.624 c 0.405,1.432 1.017,3.597 2.736,4.698 0.852,0.546 1.814,0.74 2.818,0.74 0.949,0 1.935,-0.174 2.903,-0.39 4.45,-0.994 8.89,-2.262 13.195,-3.767 1.904,-0.666 4.015,-1.541 4.979,-3.504 0.863,-1.758 0.473,-3.734 0,-5.607 -2.142,-8.48 -4.836,-16.916 -8.007,-25.072 -0.079,-0.202 -0.158,-0.43 -0.241,-0.671 -0.369,-1.065 -0.829,-2.391 -1.743,-3.084 -0.922,-0.699 -2.029,-0.42 -2.837,-0.216 -0.101,0.025 -0.201,0.051 -0.298,0.073 -1.992,0.466 -3.983,0.94 -5.974,1.413 l -8.027,1.904 c -2.387,0.566 -5.034,1.359 -6.221,3.624 -1.035,1.976 -0.523,4.257 0.09,6.424 z m -5.491,-29.218 c 0.916,-1.75 3.224,-2.425 5.314,-2.92 l 8.028,-1.904 c 1.989,-0.473 3.977,-0.946 5.969,-1.412 0.104,-0.024 0.212,-0.051 0.32,-0.079 0.769,-0.193 1.299,-0.3 1.664,-0.023 0.58,0.44 0.963,1.547 1.272,2.436 0.09,0.258 0.174,0.503 0.259,0.719 3.151,8.104 5.827,16.485 7.955,24.91 0.41,1.624 0.755,3.322 0.099,4.659 -0.734,1.494 -2.549,2.233 -4.194,2.808 -4.254,1.488 -8.642,2.74 -13.04,3.723 -1.583,0.354 -3.381,0.662 -4.673,-0.165 -1.179,-0.755 -1.69,-2.28 -2.151,-3.909 l -6.627,-23.436 c -0.558,-1.98 -0.994,-3.881 -0.195,-5.407 z"
   id="path89" />&#10;		<path
   style="fill:#ffffff"
   d="m 811.576,260.949 c -1.105,-0.135 -2.217,0.251 -3.049,1.061 -0.85,0.827 -1.275,1.955 -1.167,3.094 0.147,1.546 1.344,2.939 2.848,3.311 0.285,0.071 0.575,0.104 0.865,0.104 1.312,0 2.605,-0.696 3.283,-1.84 0.642,-1.082 0.677,-2.437 0.094,-3.624 -0.574,-1.169 -1.649,-1.956 -2.874,-2.106 z m 1.591,5.024 c -0.516,0.87 -1.646,1.341 -2.627,1.099 -0.936,-0.232 -1.711,-1.134 -1.803,-2.099 -0.068,-0.72 0.207,-1.439 0.754,-1.972 0.462,-0.45 1.052,-0.695 1.651,-0.695 0.088,0 0.177,0.005 0.265,0.016 0.76,0.093 1.434,0.596 1.801,1.344 0.378,0.766 0.362,1.629 -0.041,2.307 z"
   id="path90" />&#10;		<path
   style="fill:#3877b3"
   d="m 810.108,240.462 c -1.69,-1.278 -3.831,-1.803 -6.024,-1.481 -2.535,0.373 -4.96,1.846 -6.488,3.938 -0.921,1.262 -1.458,2.777 -1.512,4.265 0,0 0,0 0,0 -0.114,3.175 1.866,6.331 4.817,7.674 1.085,0.494 2.278,0.734 3.48,0.734 1.968,0 3.958,-0.645 5.527,-1.879 2.031,-1.597 3.286,-4.054 3.357,-6.573 0.073,-2.59 -1.137,-5.149 -3.157,-6.678 z m 1.471,4.475 -6.487,2.842 0.895,-7.481 c 1.026,0.092 2.181,0.432 3.286,1.268 1.098,0.83 1.898,2.034 2.306,3.371 z m -7.294,-4.587 c 0.098,-0.014 0.202,-0.027 0.307,-0.038 l -0.91,7.604 -5.778,-2.706 c 0.205,-0.517 0.474,-1.016 0.808,-1.474 1.315,-1.8 3.398,-3.066 5.573,-3.386 z m 4.768,12.276 c -2.13,1.676 -5.175,2.066 -7.579,0.973 -2.454,-1.117 -4.102,-3.735 -4.007,-6.365 0.008,-0.223 0.034,-0.447 0.069,-0.671 l 6.361,2.979 c 0.095,0.044 0.195,0.066 0.293,0.066 0.07,0 0.138,-0.012 0.204,-0.033 0.05,-0.01 0.099,-0.024 0.146,-0.045 l 7.318,-3.206 c 0.023,0.258 0.033,0.517 0.025,0.777 -0.06,2.114 -1.118,4.179 -2.83,5.525 z"
   id="path91" />&#10;		<path
   style="fill:#3877b3"
   d="m 790.963,232.094 c 0.055,0.014 0.111,0.02 0.166,0.02 0.311,0 0.593,-0.211 0.671,-0.526 l 0.047,-0.192 2.715,8.32 c 0.095,0.291 0.365,0.477 0.657,0.477 0.065,0 0.131,-0.009 0.196,-0.029 l 15.229,-4.502 c -0.176,0.295 -0.326,0.642 -0.299,1.064 0.023,0.366 0.328,0.647 0.69,0.647 0.015,0 0.03,-10e-4 0.045,-10e-4 0.381,-0.024 0.67,-0.354 0.646,-0.735 -0.007,-0.111 0.139,-0.325 0.268,-0.515 0.24,-0.352 0.539,-0.791 0.507,-1.371 -0.03,-0.538 -0.361,-1.046 -0.883,-1.359 -0.39,-0.234 -0.802,-0.323 -1.165,-0.403 -0.375,-0.083 -0.742,0.155 -0.824,0.528 -0.082,0.373 0.155,0.742 0.528,0.823 0.015,0.003 0.03,0.007 0.045,0.01 l -14.534,4.296 -2.572,-7.882 1.042,0.431 c 0.354,0.147 0.758,-0.022 0.903,-0.375 0.146,-0.353 -0.022,-0.757 -0.375,-0.904 l -2.776,-1.148 c -0.186,-0.077 -0.396,-0.069 -0.576,0.022 -0.18,0.091 -0.311,0.256 -0.359,0.451 l -0.498,2.012 c -0.092,0.375 0.135,0.75 0.506,0.841 z"
   id="path92" />&#10;		<path
   style="fill:#3877b3"
   d="m 796.131,237.128 c 0.071,0.023 0.142,0.034 0.212,0.034 0.292,0 0.564,-0.187 0.658,-0.48 l 1.691,-5.249 4.343,1.492 c 0.31,0.106 0.652,-0.02 0.82,-0.302 l 3.281,-5.542 0.313,1.409 c 0.072,0.322 0.357,0.542 0.674,0.542 0.049,0 0.1,-0.005 0.151,-0.017 0.373,-0.083 0.608,-0.452 0.525,-0.825 l -0.575,-2.586 c -0.035,-0.156 -0.106,-0.48 -0.385,-0.717 -0.485,-0.412 -1.083,-0.191 -1.28,-0.118 l -2.083,0.773 c -0.359,0.133 -0.541,0.531 -0.408,0.889 0.133,0.359 0.533,0.541 0.889,0.408 l 0.916,-0.34 -2.921,4.934 -4.477,-1.537 c -0.175,-0.061 -0.368,-0.048 -0.534,0.036 -0.166,0.083 -0.291,0.23 -0.349,0.406 l -1.907,5.92 c -0.117,0.363 0.083,0.753 0.446,0.87 z"
   id="path93" />&#10;	</g>&#10;	<g
   id="g95">&#10;		<path
   style="fill:#ffffff"
   d="m 698.634,272.897 c 1.641,-1.033 1.848,-3.204 1.96,-4.371 l 1.173,-12.266 c 0.117,-1.229 0.263,-2.757 -0.281,-4.151 -0.596,-1.526 -1.902,-2.3 -3.375,-2.724 1.407,-3.143 0.82,-6.995 -1.499,-9.384 -2.568,-2.646 -7.115,-3.029 -9.93,-0.838 -2.565,1.997 -3.338,5.388 -3.685,8.239 l -0.762,-0.098 c -0.859,-0.111 -2.458,-0.316 -3.507,0.735 -0.679,0.68 -0.834,1.61 -0.948,2.289 l -2.518,15.078 c -0.205,1.228 -0.35,2.629 0.523,3.714 0.452,0.562 1.065,0.877 1.667,1.071 0.456,0.147 0.906,0.225 1.275,0.289 l 16.03,2.77 c 1.034,0.181 2.6,0.452 3.877,-0.353 z m -10.918,-32.402 c 2.168,-1.688 5.687,-1.377 7.685,0.682 1.9,1.958 2.319,5.309 1.005,7.857 -0.678,-0.096 -1.349,-0.152 -1.966,-0.202 0.221,-0.792 0.408,-1.648 0.391,-2.534 -0.027,-1.433 -0.636,-2.706 -1.627,-3.405 -1.008,-0.711 -2.449,-0.825 -3.668,-0.289 -1.03,0.452 -1.907,1.331 -2.471,2.475 -0.379,0.77 -0.621,1.681 -0.75,2.752 l -1.648,-0.212 c 0.307,-2.525 0.963,-5.5 3.049,-7.124 z m 0.269,7.551 c 0.106,-0.885 0.297,-1.621 0.593,-2.222 0.388,-0.789 0.97,-1.384 1.637,-1.677 0.69,-0.303 1.484,-0.254 2.019,0.123 0.555,0.391 0.896,1.161 0.913,2.06 0.014,0.765 -0.184,1.553 -0.411,2.327 z m -8.973,20.775 c -0.802,-0.139 -1.55,-0.301 -1.916,-0.756 -0.436,-0.542 -0.318,-1.512 -0.173,-2.379 l 2.518,-15.077 c 0.099,-0.589 0.203,-1.1 0.479,-1.377 0.407,-0.408 1.25,-0.363 2.099,-0.254 l 10.858,1.396 c 0.419,0.054 0.892,0.093 1.394,0.134 1.167,0.096 2.484,0.203 3.571,0.554 0.962,0.31 1.742,0.811 2.075,1.662 0.398,1.019 0.278,2.272 0.173,3.377 l -1.173,12.266 c -0.116,1.216 -0.313,2.558 -1.18,3.104 -0.674,0.424 -1.659,0.299 -2.694,0.12 z"
   id="path94" />&#10;		<path
   style="fill:#3877b3"
   d="m 691.203,261.569 c 0.65,-0.395 1.25,-0.96 1.258,-0.969 0.598,-0.663 0.99,-1.474 1.133,-2.346 0.189,-1.145 0.039,-2.89 -1.006,-4.041 -0.89,-0.98 -2.303,-1.449 -3.878,-1.286 -1.676,0.173 -3.159,1.033 -3.871,2.244 0,0 0,0 0,0 -0.629,1.071 -0.75,2.421 -0.331,3.704 0.319,0.979 0.914,1.803 1.685,2.359 l -2.355,4.839 c -0.131,0.269 -0.109,0.587 0.057,0.836 0.107,0.161 0.265,0.277 0.443,0.335 0.098,0.031 0.202,0.045 0.307,0.039 l 6.822,-0.391 c 0.25,-0.014 0.48,-0.139 0.629,-0.339 0.149,-0.2 0.201,-0.457 0.142,-0.7 z m -5.22,3.95 2.069,-4.253 c 0.101,-0.206 0.112,-0.446 0.032,-0.661 -0.08,-0.216 -0.244,-0.389 -0.455,-0.481 -0.697,-0.302 -1.25,-0.948 -1.52,-1.772 -0.268,-0.824 -0.202,-1.672 0.183,-2.327 0.438,-0.747 1.455,-1.305 2.59,-1.422 1.021,-0.105 1.939,0.172 2.457,0.742 0.596,0.657 0.725,1.827 0.591,2.635 -0.091,0.553 -0.34,1.069 -0.685,1.454 -0.145,0.131 -0.855,0.651 -1.161,0.831 -0.021,0.003 -0.041,0.008 -0.062,0.013 -0.452,0.109 -0.73,0.565 -0.62,1.017 l 0.96,3.972 z"
   id="path95" />&#10;	</g>&#10;	<path
   style="fill:#3877b3"
   d="m 772.833,259.946 c -1.115,-1.71 -3.436,-1.741 -4.551,-1.755 l -28.646,-0.372 c -1.735,-0.022 -3.509,-0.175 -5.226,-0.323 l -0.298,-0.026 c -0.229,-0.019 -0.502,-0.06 -0.799,-0.103 -1.384,-0.2 -3.279,-0.474 -4.407,0.53 -0.56,0.499 -0.882,1.271 -0.93,2.231 -0.103,2.032 -0.153,4.096 -0.201,6.093 -0.037,1.554 -0.076,3.108 -0.137,4.659 l -0.653,16.327 c -0.035,0.876 -0.083,2.076 0.543,3.101 1.092,1.787 3.483,1.917 4.632,1.98 l 37.315,2.035 c 0.018,0.001 0.036,0.002 0.054,0.002 0.501,0 0.924,-0.381 0.972,-0.885 l 2.844,-30.106 c 0.086,-0.907 0.214,-2.275 -0.512,-3.388 z m -41.595,-0.818 c 0.606,0 1.319,0.103 1.796,0.172 0.339,0.049 0.651,0.094 0.911,0.116 l 0.298,0.026 c 1.751,0.151 3.562,0.307 5.368,0.331 l 28.645,0.372 c 0.966,0.013 1.985,0.098 2.592,0.527 l -18.377,15.69 c -0.447,0.381 -0.877,0.723 -1.24,0.725 -10e-4,0 -0.003,0 -0.003,0 -0.294,0 -0.666,-0.223 -1.054,-0.472 -7.413,-4.758 -13.985,-10.626 -19.565,-17.433 0.182,-0.037 0.397,-0.054 0.629,-0.054 z m -2.187,29.814 c -0.14,-0.45 -0.138,-1.02 -0.113,-1.658 l 0.653,-16.328 c 0.062,-1.561 0.1,-3.125 0.138,-4.689 0.039,-1.613 0.086,-3.267 0.154,-4.909 4.783,5.669 10.246,10.686 16.314,14.94 z m 1.655,1.208 17.214,-12.694 c 0.4,0.266 0.792,0.543 1.198,0.803 0.486,0.312 1.218,0.782 2.109,0.782 0.005,0 0.009,0 0.014,0 1.034,-0.006 1.828,-0.626 2.38,-1.093 l 13.488,14.287 -34.842,-1.9 c -0.545,-0.029 -1.081,-0.081 -1.561,-0.185 z m 38.051,0.984 -13.647,-14.455 16.322,-13.935 c -0.01,0.134 -0.018,0.265 -0.031,0.405 z"
   id="path96" />&#10;</g></g></g></svg>
