<?xml version="1.0" encoding="utf-8"?>
<!-- Generator: Adobe Illustrator 27.5.0, SVG Export Plug-In . SVG Version: 6.00 Build 0)  -->
<svg version="1.1" xmlns="http://www.w3.org/2000/svg" xmlns:xlink="http://www.w3.org/1999/xlink" x="0px" y="0px"
	 viewBox="0 0 500 500" style="enable-background:new 0 0 500 500;" xml:space="preserve">
<g id="Background_Simple">
	<g>
		<path style="fill:#92E3A9;" d="M228.01,53.135c124.035-11.047,124.245,58.934,180.132,124.129
			c55.887,65.195,67.847,94.754,46.779,169.908S362.856,481.241,275.029,447.86s-138.14-1.325-193.537-30.967
			C26.094,387.25,5.522,329.98,46.072,262.483C86.621,194.986,75.068,66.756,228.01,53.135z"/>
		<path style="opacity:0.7;fill:#FFFFFF;" d="M228.01,53.135c124.035-11.047,124.245,58.934,180.132,124.129
			c55.887,65.195,67.847,94.754,46.779,169.908S362.856,481.241,275.029,447.86s-138.14-1.325-193.537-30.967
			C26.094,387.25,5.522,329.98,46.072,262.483C86.621,194.986,75.068,66.756,228.01,53.135z"/>
	</g>
</g>
<g id="Glasses">
	<g>
		<path style="opacity:0.2;fill-opacity:0.7;" d="M280.446,405.865l-1.832-0.206c-1.856-0.208-3.188-1.47-3.353-3.238
			c-0.992-10.573-10.12-18.017-21.986-19.349c-10.696-1.201-23.005,3.515-31.081,11.602c-2.183,2.186-5.156,3.425-7.893,3.118
			l-9.104-1.022c-2.737-0.307-4.671-2.098-5.249-4.594c-2.138-9.234-10.421-16.263-21.117-17.464
			c-11.866-1.332-25.232,3.585-33.13,13.16c-1.321,1.601-3.387,2.481-5.242,2.272l-1.832-0.206c-0.833-0.094-1.738,0.5-2.021,1.325
			l-1.512,4.41c-0.233,0.679,0.026,1.325,0.63,1.572l2.079,1.042c1.631,0.818,2.443,2.568,1.996,4.503
			c-3.307,14.305,5.021,26.704,19.688,28.351c14.148,1.589,29.437-7.363,36.228-20.527c1.1-2.132,3.423-3.657,5.746-3.824
			c2.746-0.198,6.207-0.086,9.623,0.999c2.069,0.657,3.264,2.575,2.866,4.814c-2.436,13.682,5.814,25.307,19.981,26.897
			c14.667,1.647,30.563-8.032,36.945-21.992c0.863-1.889,2.77-3.333,4.82-3.737l2.613-0.515c0.723-0.098,1.388-0.64,1.621-1.319
			l1.512-4.41C281.725,406.704,281.279,405.958,280.446,405.865z M160.763,427.419c-13.632-1.531-20.955-13.762-16.326-27.267
			c4.629-13.504,19.485-23.246,33.116-21.715c13.632,1.531,20.955,13.762,16.326,27.267
			C189.25,419.209,174.395,428.95,160.763,427.419z M198.411,403.486c0.193-0.781,0.349-1.556,0.473-2.325
			c0.102-0.633,0.793-1.143,1.43-1.071l16.316,1.832c0.637,0.072,0.94,0.693,0.616,1.302c-0.388,0.729-0.751,1.471-1.084,2.226
			C209.576,402.187,202.325,402.783,198.411,403.486z M235.207,435.779c-13.632-1.531-20.955-13.762-16.326-27.267
			c4.629-13.504,19.485-23.246,33.116-21.715c13.632,1.531,20.955,13.762,16.326,27.267
			C263.695,427.568,248.839,437.309,235.207,435.779z"/>
		<path style="fill:#263238;" d="M268.37,406.665l-105.835-4.45c-5.055-0.212-9.963,1.727-13.507,5.337l-19.008,19.363
			c-0.754,0.768-0.591,2.038,0.332,2.591l0,0c1.947,1.167,4.44,0.848,6.031-0.771l17.566-17.88c2.117-2.155,5.04-3.324,8.059-3.225
			l105.971,3.497L268.37,406.665z"/>
		<path style="fill:#263238;" d="M127.308,390.852l104.623,16.583c4.997,0.792,9.424,3.664,12.184,7.905l14.8,22.741
			c0.587,0.902,0.176,2.115-0.838,2.474l0,0c-2.14,0.759-4.52-0.047-5.759-1.95l-13.68-21.003c-1.649-2.531-4.282-4.256-7.262-4.756
			l-104.568-17.543L127.308,390.852z"/>
		<g>
			<path style="fill:#757575;stroke:#263238;stroke-linecap:round;stroke-linejoin:round;stroke-miterlimit:10;" d="
				M189.372,408.585c1.241,0.469-0.354,9.201-3.781,11.692c-3.427,2.491-5.146-5.286-3.93-7.74
				C182.879,410.085,185.482,407.116,189.372,408.585z"/>
			<path style="fill:#757575;stroke:#263238;stroke-linecap:round;stroke-linejoin:round;stroke-miterlimit:10;" d="
				M207.693,410.642c-1.314,0.182-1.696,9.051,1.093,12.24c2.789,3.189,6.191-4.013,5.549-6.675
				C213.693,413.545,211.813,410.072,207.693,410.642z"/>
		</g>
		<path style="opacity:0.4;fill:#FFFFFF;" d="M146.478,379.884c6.275-3.709,19.22-9.632,30.542,0.147s14.253,18.747,9.696,29.439
			c-4.557,10.692-15.124,24.154-33.424,18.267S126.989,391.403,146.478,379.884z"/>
		<path style="opacity:0.4;fill:#FFFFFF;" d="M220.861,389.221c6.275-3.709,19.22-9.632,30.542,0.147
			c11.323,9.779,14.253,18.746,9.696,29.439c-4.557,10.692-15.125,24.154-33.424,18.267
			C209.375,431.187,201.372,400.74,220.861,389.221z"/>
		<path style="fill:#92E3A9;stroke:#263238;stroke-linecap:round;stroke-linejoin:round;stroke-miterlimit:10;" d="M270.806,405.437
			l-1.832-0.206c-1.856-0.208-3.433-1.48-3.985-3.263c-3.303-10.668-13.849-18.17-25.716-19.502
			c-10.696-1.201-21.658,3.57-27.746,11.739c-1.646,2.208-4.271,3.462-7.008,3.154l-9.104-1.022
			c-2.737-0.307-5.019-2.112-6.134-4.63c-4.125-9.315-13.755-16.399-24.452-17.6c-11.866-1.332-23.814,3.643-29.4,13.313
			c-0.934,1.617-2.754,2.507-4.61,2.298l-1.832-0.206c-0.833-0.093-1.585,0.506-1.678,1.34l-0.5,4.451
			c-0.077,0.686,0.318,1.337,0.962,1.586l2.258,1.05c1.771,0.823,2.95,2.588,2.941,4.542c-0.065,14.438,10.796,26.941,25.463,28.588
			c14.148,1.589,27.08-7.459,30.794-20.75c0.602-2.152,2.531-3.693,4.759-3.865c2.634-0.202,6.034-0.093,9.605,0.998
			c2.163,0.661,3.752,2.596,3.858,4.855c0.648,13.809,11.261,25.53,25.428,27.121c14.667,1.647,28.031-8.136,31.169-22.229
			c0.425-1.907,1.965-3.366,3.875-3.776l2.435-0.523c0.683-0.1,1.213-0.647,1.29-1.333l0.5-4.451
			C272.239,406.282,271.639,405.531,270.806,405.437z M158.854,427.309c-13.632-1.531-23.476-13.866-21.945-27.497
			c1.531-13.632,13.866-23.476,27.497-21.945c13.632,1.531,23.476,13.866,21.945,27.497
			C184.821,418.995,172.486,428.839,158.854,427.309z M190.281,403.12c0.015-0.788-0.003-1.57-0.052-2.346
			c-0.041-0.64,0.521-1.154,1.157-1.083l16.316,1.832c0.637,0.072,1.07,0.698,0.888,1.313c-0.218,0.736-0.407,1.485-0.566,2.247
			C200.881,401.798,193.942,402.407,190.281,403.12z M233.299,435.668c-13.632-1.531-23.476-13.866-21.945-27.497
			c1.531-13.632,13.866-23.476,27.497-21.945c13.632,1.531,23.476,13.866,21.945,27.497
			C259.265,427.354,246.93,437.199,233.299,435.668z"/>
		<path style="opacity:0.5;fill:#FFFFFF;" d="M142.302,415.465c0,0-6.937-13.514,1.871-26.261
			c7.924-11.468,21.62-10.528,27.492-6.739l-18.148,21.76c3.433-8.714,8.766-16.179,8.766-16.179S147.858,398.283,142.302,415.465z"
			/>
		<path style="opacity:0.5;fill:#FFFFFF;" d="M216.694,423.096c0,0-6.937-13.514,1.872-26.261
			c7.924-11.468,21.62-10.527,27.492-6.739l-18.148,21.76c2.573-8.514,8.766-16.179,8.766-16.179S222.25,405.914,216.694,423.096z"
			/>
	</g>
</g>
<g id="Device">
	<g>
		<path style="opacity:0.2;fill-opacity:0.7;" d="M149.499,317.092c0,0-20.233,25.103-21.637,26.684
			c-1.404,1.581-1.024,27.019-4.467,38.455c-3.443,11.436-15.395,23.214-42.08,81.168l-3.603-112.915l19.664-78.649L149.499,317.092
			z"/>
		<g>
			<path style="fill:#FFFFFF;" d="M164.351,316.044c0,0-13.356-61.364-23.923-68.974c-6.12-4.418-15.347-6.002-23.403-5.233
				c-5.835,0.553-11.068,2.339-14.041,5.193c-7.085,6.788-17.337,10.763-22.31,15.174c-4.983,4.411-4.123,18.964-6.753,31.48
				c-2.63,12.507-7.465,13.171-7.851,25.545c-0.395,12.384-2.648,50.328-10.142,61.257c-7.494,10.93-7.197,19.146-9.926,29.983
				c-2.729,10.837-25.006,50.759-25.006,50.759l60.596,8.723c0,0,4.446-24.71,9.572-44.954c2.432-9.608,5.018-18.222,7.347-22.695
				c7.242-13.905,11.312-26.876,11.312-26.876c6.353-7.493,9.131-23.425,9.44-37.252l-0.001-0.009l15.487-9.888
				C146.859,324.195,164.351,316.044,164.351,316.044z"/>
			<path style="opacity:0.4;fill:#92E3A9;" d="M164.351,316.044c0,0-13.356-61.364-23.923-68.974
				c-6.12-4.418-15.347-6.002-23.403-5.233c-18.866,5.866-23.386,16.828-25.827,19.565c-3.248,3.647-6.546,24.891-3.335,36.948
				c3.202,12.058,1.685,16.682-0.018,22.763c-3.772,13.474,10.541,19.762,12.27,24.676c1.729,4.905,2.867,32.902-2.83,42.362
				c-3.034,5.035-10.118,30.479-6.122,36.846c2.432-9.608,5.018-18.222,7.347-22.695c7.242-13.905,11.312-26.876,11.312-26.876
				c6.353-7.493,9.131-23.425,9.44-37.252l-0.001-0.009l15.487-9.888C146.859,324.195,164.351,316.044,164.351,316.044z"/>
			<path style="fill:none;stroke:#263238;stroke-linecap:round;stroke-linejoin:round;stroke-miterlimit:10;" d="M91.491,324.71
				c0,0-3.606-3.772-6.591-3.596"/>
			<path style="fill:none;stroke:#263238;stroke-linecap:round;stroke-linejoin:round;stroke-miterlimit:10;" d="M98.052,310.859
				c0,0-4.092-7.503-9.974-8.841"/>
			<path style="fill:none;stroke:#263238;stroke-linecap:round;stroke-linejoin:round;stroke-miterlimit:10;" d="M88.946,266.022
				c0,0,8.418,3.06,10.077,8.952"/>
			<path style="fill:none;stroke:#263238;stroke-linecap:round;stroke-linejoin:round;stroke-miterlimit:10;" d="M134.747,328.278
				c0,0-2.206-2.491-2.328-4.543"/>
			<path style="fill:none;stroke:#263238;stroke-linecap:round;stroke-linejoin:round;stroke-miterlimit:10;" d="M81.592,469.953
				c0,0,9.678-53.734,16.919-67.649c7.242-13.905,11.312-26.876,11.312-26.876c6.353-7.493,9.13-23.434,9.439-37.261l0.001,0.009
				l-0.001-0.009l15.487-9.888c12.11-4.085,29.601-12.236,29.601-12.236s-13.356-61.364-23.923-68.974
				c-10.558-7.62-30.349-6.819-37.444-0.04c-7.085,6.788-17.337,10.763-22.31,15.174c-4.983,4.411-4.123,18.964-6.753,31.48
				c-2.63,12.507-7.465,13.171-7.851,25.545c-0.395,12.384-2.648,50.328-10.142,61.257s-7.197,19.146-9.926,29.983
				c-2.729,10.837-25.006,50.759-25.006,50.759"/>
		</g>
		<g>
			<path style="fill:#92E3A9;stroke:#263238;stroke-linecap:round;stroke-linejoin:round;stroke-miterlimit:10;" d="M76.593,110.072
				l2.012,18.065l-6.81,0.758c-0.543,0.061-1.032-0.331-1.092-0.873l-1.793-16.1c-0.061-0.543,0.331-1.032,0.873-1.092
				L76.593,110.072z"/>
			<path style="fill:#92E3A9;stroke:#263238;stroke-linecap:round;stroke-linejoin:round;stroke-miterlimit:10;" d="M119.575,91.179
				l-18.065,2.012l-0.758-6.81c-0.061-0.543,0.331-1.032,0.873-1.092l16.1-1.793c0.543-0.06,1.032,0.331,1.092,0.874L119.575,91.179
				z"/>
			<path style="fill:#92E3A9;stroke:#263238;stroke-linecap:round;stroke-linejoin:round;stroke-miterlimit:10;" d="M141.064,88.786
				l-18.065,2.012l-0.758-6.81c-0.061-0.543,0.331-1.032,0.873-1.092l16.1-1.793c0.543-0.061,1.032,0.331,1.092,0.873
				L141.064,88.786z"/>
			<path style="fill:#92E3A9;stroke:#263238;stroke-linecap:round;stroke-linejoin:round;stroke-miterlimit:10;" d="M94.589,325.931
				L70.698,111.44c-1.27-11.402,6.944-21.675,18.346-22.945l312.008-34.752c11.402-1.27,21.675,6.944,22.945,18.346l23.891,214.492
				c1.27,11.402-6.944,21.675-18.346,22.945l-312.008,34.752C106.132,345.548,95.859,337.334,94.589,325.931z"/>
			<path style="fill:#757575;stroke:#263238;stroke-linecap:round;stroke-linejoin:round;stroke-miterlimit:10;" d="
				M429.538,306.807L116.94,341.625c-9.756,1.087-18.546-5.941-19.632-15.697L73.352,110.846
				c-1.087-9.756,5.941-18.545,15.697-19.632l312.598-34.818c9.756-1.087,18.545,5.941,19.632,15.697l23.956,215.082
				C446.322,296.931,439.294,305.72,429.538,306.807z"/>
			<path style="fill:#999999;stroke:#263238;stroke-linecap:round;stroke-linejoin:round;stroke-miterlimit:10;" d="M90.483,217.813
				c0.073,0.652-0.397,1.24-1.049,1.312s-1.24-0.397-1.312-1.049c-0.073-0.652,0.397-1.24,1.049-1.312
				C89.823,216.691,90.41,217.161,90.483,217.813z"/>
			<path style="fill:#263238;" d="M92.757,228.438c0.139,1.247-0.76,2.371-2.007,2.51c-1.247,0.139-2.371-0.759-2.51-2.007
				c-0.139-1.247,0.759-2.371,2.007-2.51C91.494,226.292,92.618,227.191,92.757,228.438z"/>
			<path style="fill:#263238;" d="M89.831,202.167c0.139,1.247-0.759,2.371-2.007,2.51c-1.247,0.139-2.371-0.759-2.51-2.007
				c-0.139-1.247,0.759-2.371,2.007-2.51C88.568,200.022,89.692,200.92,89.831,202.167z"/>
			<path style="fill:#263238;" d="M92.977,235.978c0.101,0.909-0.553,1.728-1.462,1.829c-0.909,0.101-1.728-0.553-1.829-1.462
				c-0.101-0.909,0.553-1.728,1.462-1.829C92.057,234.414,92.876,235.069,92.977,235.978z"/>
			<path style="fill:#FFFFFF;" d="M108.949,327.025L84.795,110.171c-0.536-4.816,2.933-9.154,7.748-9.691l314.371-35.015
				c4.816-0.536,9.154,2.933,9.691,7.748l24.154,216.855c0.536,4.816-2.933,9.154-7.748,9.691L118.64,334.773
				C113.824,335.31,109.485,331.841,108.949,327.025z"/>
			<path style="opacity:0.3;fill:#92E3A9;" d="M407.439,65.406l-315.42,35.132c-4.526,0.504-7.786,4.582-7.282,9.108l24.271,217.903
				c0.504,4.526,4.582,7.787,9.108,7.283l315.42-35.132c4.526-0.504,7.786-4.582,7.282-9.108L416.547,72.688
				C416.042,68.162,411.965,64.902,407.439,65.406z"/>
			<g>
				<path style="fill:#263238;" d="M180.956,118.751l-0.067,0.007l0.086,12.727l-5.093,0.567l-5.26-23.315l3.609-0.402l4.03,18.399
					l0.067-0.007l-0.32-18.813l3.575-0.398l3.91,18.549l0.068-0.008l-0.2-18.962l3.238-0.36l-0.001,23.901l-4.924,0.548
					L180.956,118.751z"/>
				<path style="fill:#263238;" d="M195.275,116.064l5.093-0.567l0.376,3.372l-5.093,0.567l0.77,6.915l6.408-0.714l0.376,3.372
					l-10.118,1.127l-2.63-23.608l10.118-1.127l0.376,3.372l-6.408,0.714L195.275,116.064z"/>
				<path style="fill:#263238;" d="M222.736,126.834l-3.744,0.417l-1.118-4.211l-4.553,0.507l-0.164,4.354l-3.406,0.379
					l1.147-24.029l5.43-0.605L222.736,126.834z M213.436,120.29l3.576-0.398l-3.084-11.745l-0.068,0.008L213.436,120.29z"/>
				<path style="fill:#263238;" d="M232.216,125.778c-0.27-0.585-0.446-0.941-0.661-2.862l-0.413-3.711
					c-0.244-2.192-1.077-2.92-2.763-2.731l-1.282,0.143l1.071,9.612l-3.71,0.414l-2.63-23.608l5.599-0.624
					c3.845-0.428,5.696,1.175,6.102,4.817l0.206,1.855c0.27,2.428-0.332,4.066-1.898,5.025l0.007,0.067
					c1.942,0.57,2.744,2.255,3.019,4.717l0.406,3.643c0.128,1.147,0.255,1.986,0.724,2.822L232.216,125.778z M225.915,105.992
					l0.808,7.251l1.45-0.162c1.383-0.154,2.159-0.854,1.948-2.743l-0.259-2.327c-0.188-1.687-0.844-2.365-2.159-2.218
					L225.915,105.992z"/>
				<path style="fill:#263238;" d="M240.208,111.059l5.093-0.567l0.375,3.372l-5.093,0.567l0.77,6.915l6.408-0.714l0.376,3.372
					l-10.118,1.127l-2.63-23.608l10.118-1.127l0.376,3.372l-6.408,0.714L240.208,111.059z"/>
				<path style="fill:#263238;" d="M259.373,122.753l-3.71,0.414l-2.63-23.608l3.71-0.414l1.127,10.118l4.216-0.469l-1.127-10.118
					l3.777-0.421l2.63,23.608l-3.777,0.421l-1.127-10.118l-4.216,0.469L259.373,122.753z"/>
				<path style="fill:#263238;" d="M267.436,97.954l3.711-0.413l2.629,23.608l-3.71,0.413L267.436,97.954z"/>
				<path style="fill:#263238;" d="M284.233,119.984c-0.271-0.585-0.446-0.941-0.66-2.862l-0.414-3.711
					c-0.244-2.192-1.076-2.919-2.763-2.731l-1.281,0.143l1.07,9.612l-3.71,0.413l-2.629-23.608l5.599-0.623
					c3.845-0.428,5.697,1.175,6.103,4.817l0.206,1.855c0.27,2.428-0.332,4.066-1.898,5.025l0.008,0.067
					c1.941,0.57,2.743,2.255,3.018,4.717l0.405,3.643c0.128,1.147,0.256,1.986,0.725,2.822L284.233,119.984z M277.932,100.199
					l0.808,7.251l1.451-0.162c1.382-0.154,2.158-0.854,1.947-2.743l-0.259-2.327c-0.189-1.686-0.844-2.365-2.16-2.218
					L277.932,100.199z"/>
				<path style="fill:#263238;" d="M287.407,95.729l3.71-0.413l2.63,23.608l-3.71,0.413L287.407,95.729z"/>
				<path style="fill:#263238;" d="M297.914,101.148l-0.067,0.008l1.904,17.1l-3.339,0.372l-2.629-23.608l4.653-0.518l5.317,13.714
					l0.067-0.008l-1.573-14.131l3.306-0.368l2.629,23.608l-3.81,0.424L297.914,101.148z"/>
				<path style="fill:#263238;" d="M314.949,103.247l5.194-0.579l0.834,7.487c0.421,3.777-1.227,6.146-4.869,6.551
					c-3.643,0.406-5.772-1.542-6.192-5.319l-1.368-12.276c-0.421-3.777,1.228-6.147,4.87-6.553c3.642-0.406,5.771,1.544,6.192,5.321
					l0.255,2.293l-3.507,0.391l-0.282-2.529c-0.188-1.687-1.002-2.245-2.182-2.113c-1.18,0.131-1.851,0.855-1.663,2.542l1.42,12.749
					c0.188,1.687,0.998,2.21,2.178,2.079c1.181-0.131,1.855-0.82,1.667-2.507l-0.484-4.352l-1.686,0.188L314.949,103.247z"/>
				<path style="fill:#263238;" d="M323.896,110.274l-1.423-8.48l-1.097-9.848l3.71-0.414l1.097,9.848l0.478,8.586L323.896,110.274z
					 M327.25,111.573l0.398,3.575l-3.575,0.398l-0.397-3.575L327.25,111.573z"/>
			</g>
			<g>
				<path style="fill:#92E3A9;stroke:#263238;stroke-linecap:round;stroke-linejoin:round;stroke-miterlimit:10;" d="
					M297.433,295.552l-54.102,6.026c-8.942,0.996-16.999-5.446-17.995-14.388v0c-0.996-8.942,5.446-16.999,14.388-17.995
					l54.102-6.026c8.942-0.996,16.999,5.446,17.995,14.388l0,0C312.817,286.499,306.375,294.556,297.433,295.552z"/>
				<g>
					<path style="fill:#263238;" d="M258,290.979l-2.427,0.271l-0.725-2.73l-2.952,0.329l-0.107,2.822l-2.209,0.246l0.745-15.58
						l3.521-0.393L258,290.979z M251.971,286.736l2.318-0.258l-2-7.614l-0.044,0.004L251.971,286.736z"/>
					<path style="fill:#263238;" d="M264.963,278.537l0.221,1.989c0.273,2.45-0.76,3.914-3.165,4.183l-1.137,0.126l0.641,5.752
						l-2.405,0.269l-1.705-15.308l3.543-0.395C263.36,274.885,264.689,276.088,264.963,278.537z M260.06,277.466l0.578,5.184
						l1.137-0.127c0.766-0.086,1.142-0.482,1.02-1.575l-0.255-2.296c-0.122-1.093-0.576-1.397-1.342-1.312L260.06,277.466z"/>
					<path style="fill:#263238;" d="M273.208,277.618l0.222,1.989c0.272,2.45-0.76,3.915-3.165,4.183l-1.138,0.127l0.641,5.752
						l-2.405,0.268l-1.705-15.308l3.543-0.395C271.605,273.967,272.935,275.169,273.208,277.618z M268.306,276.548l0.578,5.183
						l1.138-0.127c0.765-0.085,1.142-0.48,1.02-1.574l-0.256-2.296c-0.122-1.093-0.576-1.397-1.342-1.313L268.306,276.548z"/>
					<path style="fill:#263238;" d="M273.903,273.711l2.405-0.268l1.461,13.121l3.959-0.442l0.243,2.187l-6.363,0.709
						L273.903,273.711z"/>
					<path style="fill:#263238;" d="M283.353,283.02l-4.18-9.896l2.515-0.28l2.593,6.774l0.043-0.005l1.038-7.179l2.297-0.256
						l-1.899,10.573l0.564,5.073l-2.405,0.268L283.353,283.02z"/>
				</g>
			</g>
			
				<rect x="239.432" y="313.432" transform="matrix(0.9939 -0.1107 0.1107 0.9939 -33.1356 32.0589)" style="fill:#999999;stroke:#263238;stroke-linecap:round;stroke-linejoin:round;stroke-miterlimit:10;" width="65.438" height="2.025"/>
			<g>
				<path style="fill:#FFFFFF;" d="M398.142,240.435l-258.733,28.817c0,0-11.24-24.162-4.438-39.843
					c6.802-15.681,27.389-6.736,36.105-21.293c8.716-14.557-1.373-24.189,8.221-44.086c9.593-19.896,37.11-30.562,57.65-21.817
					c20.541,8.745,27.494,21.91,40.551,18.225s20.464-20.682,46.376-19.473c25.912,1.209,31.448,37.482,29.949,55.368
					C352.325,214.22,403.922,198.284,398.142,240.435z"/>
				<g>
					<g>
						<defs>
							<polygon id="XMLID_1019_" points="320.819,162.161 320.577,159.995 304.376,161.81 304.864,166.192 305.731,173.972 
								321.933,172.167 							"/>
						</defs>
						<use xlink:href="#XMLID_1019_"  style="overflow:visible;fill:#FFFFFF;"/>
						<clipPath id="XMLID_00000148643763400877229180000009490239849028313492_">
							<use xlink:href="#XMLID_1019_"  style="overflow:visible;"/>
						</clipPath>
						
							<rect x="305.066" y="161.188" transform="matrix(-0.9939 0.1107 -0.1107 -0.9939 637.0048 299.0872)" style="opacity:0.2;clip-path:url(#XMLID_00000148643763400877229180000009490239849028313492_);" width="10.269" height="12.077"/>
						
							<use xlink:href="#XMLID_1019_"  style="overflow:visible;fill:none;stroke:#263238;stroke-linecap:round;stroke-linejoin:round;stroke-miterlimit:10;"/>
					</g>
					
						<line style="fill:none;stroke:#263238;stroke-linecap:round;stroke-linejoin:round;stroke-miterlimit:10;" x1="314.634" y1="160.657" x2="314.754" y2="161.73"/>
					<g>
						<defs>
							<polygon id="XMLID_1020_" points="306.663,187.124 304.811,170.498 313.475,163.935 322.067,162.978 324.515,184.959 							
								"/>
						</defs>
						<use xlink:href="#XMLID_1020_"  style="overflow:visible;fill:#263238;"/>
						<clipPath id="XMLID_00000123430133331525900950000000493116950103899803_">
							<use xlink:href="#XMLID_1020_"  style="overflow:visible;"/>
						</clipPath>
						<polygon style="opacity:0.2;clip-path:url(#XMLID_00000123430133331525900950000000493116950103899803_);" points="
							306.663,187.124 316.306,186.05 313.839,163.895 304.811,170.498 						"/>
						
							<use xlink:href="#XMLID_1020_"  style="overflow:visible;fill:none;stroke:#263238;stroke-linecap:round;stroke-linejoin:round;stroke-miterlimit:10;"/>
					</g>
					
						<line style="opacity:0.2;fill:none;stroke:#FFFFFF;stroke-linecap:round;stroke-linejoin:round;stroke-miterlimit:10;" x1="314.249" y1="167.575" x2="314.765" y2="172.207"/>
					
						<line style="opacity:0.2;fill:none;stroke:#FFFFFF;stroke-linecap:round;stroke-linejoin:round;stroke-miterlimit:10;" x1="315.072" y1="174.972" x2="316.162" y2="184.751"/>
				</g>
				<g>
					<path style="fill:#999999;stroke:#263238;stroke-linecap:round;stroke-linejoin:round;stroke-miterlimit:10;" d="
						M237.127,237.05l3.159-0.352c0.997-0.111,1.715-1.009,1.604-2.006l-0.763-6.847l-6.768,0.754l0.763,6.846
						C235.232,236.443,236.13,237.161,237.127,237.05z"/>
					
						<rect x="237.119" y="236.844" transform="matrix(-0.9939 0.1107 -0.1107 -0.9939 503.7886 455.5263)" style="fill:#757575;stroke:#263238;stroke-linecap:round;stroke-linejoin:round;stroke-miterlimit:10;" width="4.26" height="9.808"/>
					<polygon style="fill:#757575;stroke:#263238;stroke-linecap:round;stroke-linejoin:round;stroke-miterlimit:10;" points="
						233.496,228.696 242.21,227.725 244.602,223.725 230.283,225.32 					"/>
					<path style="fill:#999999;stroke:#263238;stroke-linecap:round;stroke-linejoin:round;stroke-miterlimit:10;" d="
						M257.952,213.093l-11.94,1.33l-4.055-12.592l-1.694-0.044l4.011,13.118l0,0c-0.696,0.077-1.196,0.704-1.119,1.4l0.285,2.559
						c0.197,1.764,1.786,3.035,3.551,2.839l10.277-1.145c0.827-0.092,1.422-0.837,1.33-1.664L257.952,213.093z"/>
					<path style="fill:#BFBFBF;stroke:#263238;stroke-linecap:round;stroke-linejoin:round;stroke-miterlimit:10;" d="
						M259.003,219.385l-0.616,0.069c-0.861,0.096-1.66-0.458-1.873-1.297l-3.508-13.814c-0.35-1.33-1.536-2.268-2.911-2.304
						l-9.831-0.252c-0.755-0.019-1.38-0.593-1.464-1.344l0,0c-0.092-0.83,0.505-1.577,1.335-1.67l1.221-0.136l9.757,0.409
						c2.389,0.1,4.425,1.766,4.997,4.088l3.712,15.079C259.958,218.77,259.573,219.322,259.003,219.385L259.003,219.385"/>
					<g>
						<defs>
							<path id="XMLID_1023_" d="M199.613,175.745l13.695,44.764l30.768-3.427l0.667-4.878l-7.521-24.818l-5.043-16.668
								c-0.658-2.168-2.792-3.585-5.024-3.337l-23.809,2.652c-1.541,0.172-2.765,1.074-3.413,2.3
								C199.4,173.329,199.251,174.537,199.613,175.745z"/>
						</defs>
						<use xlink:href="#XMLID_1023_"  style="overflow:visible;fill:#92E3A9;"/>
						<clipPath id="XMLID_00000116211495011605540020000017703946166242741405_">
							<use xlink:href="#XMLID_1023_"  style="overflow:visible;"/>
						</clipPath>
						<path style="opacity:0.2;clip-path:url(#XMLID_00000116211495011605540020000017703946166242741405_);" d="M199.613,175.745
							l13.695,44.764l30.768-3.427l0.667-4.878l-7.521-24.818l-25.687,2.861l-4.831-15.784c-0.492-1.619-2.073-2.653-3.755-2.466
							l-3.017,0.336C199.4,173.329,199.251,174.537,199.613,175.745z"/>
						
							<use xlink:href="#XMLID_1023_"  style="overflow:visible;fill:none;stroke:#263238;stroke-linecap:round;stroke-linejoin:round;stroke-miterlimit:10;"/>
					</g>
					<path style="fill:#999999;stroke:#263238;stroke-linecap:round;stroke-linejoin:round;stroke-miterlimit:10;" d="
						M223.897,255.338c6.313-4.198,25.882-6.378,32.965-3.672l3.002-1.205c-7.577-3.911-17.954-4.075-17.954-4.075l-4.588,0.511
						c0,0-10.087,2.444-16.618,7.926L223.897,255.338z"/>
					<path style="fill:#BFBFBF;stroke:#263238;stroke-linecap:round;stroke-linejoin:round;stroke-miterlimit:10;" d="
						M256.676,253.504c0.163,1.466,1.484,2.522,2.951,2.359c1.466-0.163,2.522-1.484,2.359-2.951
						c-0.163-1.466-1.484-2.523-2.951-2.359C257.569,250.717,256.512,252.038,256.676,253.504z"/>
					<path style="fill:#BFBFBF;stroke:#263238;stroke-linecap:round;stroke-linejoin:round;stroke-miterlimit:10;" d="
						M219.173,257.681c0.163,1.466,1.484,2.522,2.951,2.359c1.466-0.163,2.523-1.484,2.359-2.951
						c-0.163-1.466-1.484-2.522-2.951-2.359S219.01,256.215,219.173,257.681z"/>
					<g>
						<defs>
							<path id="XMLID_1024_" d="M224.405,227.292l30.117-3.354c5.423-0.604,9.33-5.49,8.726-10.913l-0.005-0.047
								c-0.178-1.601-1.621-2.754-3.221-2.576l-43.959,4.896c-1.601,0.178-2.754,1.621-2.576,3.221l0.005,0.047
								C214.096,223.99,218.982,227.896,224.405,227.292z"/>
						</defs>
						<use xlink:href="#XMLID_1024_"  style="overflow:visible;fill:#92E3A9;"/>
						<clipPath id="XMLID_00000168834645677499761230000006044620747365751687_">
							<use xlink:href="#XMLID_1024_"  style="overflow:visible;"/>
						</clipPath>
						<path style="opacity:0.2;clip-path:url(#XMLID_00000168834645677499761230000006044620747365751687_);" d="M213.464,218.346
							l0.09,0.813c0.568,5.1,5.166,8.768,10.257,8.201l31.301-3.486c5.1-0.568,8.769-5.156,8.201-10.257l-0.091-0.813
							c-0.123-1.102-0.872-1.974-1.864-2.298l0.168,1.513c0.203,1.821-1.108,3.462-2.93,3.665l-27.77,3.093
							c-1.821,0.203-3.462-1.108-3.664-2.93l-0.197-1.765l-11.078,1.234C214.384,215.482,213.297,216.842,213.464,218.346z"/>
						
							<use xlink:href="#XMLID_1024_"  style="overflow:visible;fill:none;stroke:#263238;stroke-linecap:round;stroke-linejoin:round;stroke-miterlimit:10;"/>
					</g>
					<path style="fill:#999999;stroke:#263238;stroke-linecap:round;stroke-linejoin:round;stroke-miterlimit:10;" d="
						M224.326,216.838l-11.94,1.33l-4.055-12.592l-1.694-0.044l4.011,13.118l0,0c-0.696,0.077-1.196,0.704-1.119,1.399l0.285,2.559
						c0.197,1.764,1.786,3.035,3.551,2.839l10.277-1.145c0.827-0.092,1.422-0.837,1.33-1.664L224.326,216.838z"/>
					<path style="fill:#BFBFBF;stroke:#263238;stroke-linecap:round;stroke-linejoin:round;stroke-miterlimit:10;" d="
						M225.376,223.131l-0.616,0.069c-0.861,0.096-1.66-0.458-1.873-1.297l-3.508-13.815c-0.35-1.33-1.536-2.268-2.911-2.303
						l-9.831-0.252c-0.755-0.019-1.38-0.593-1.464-1.344l0,0c-0.092-0.83,0.505-1.577,1.335-1.67l1.221-0.136l9.757,0.409
						c2.389,0.1,4.425,1.766,4.997,4.088l3.712,15.079C226.332,222.516,225.947,223.067,225.376,223.131L225.376,223.131"/>
				</g>
				<g>
					<path style="fill:#999999;stroke:#263238;stroke-linecap:round;stroke-linejoin:round;stroke-miterlimit:10;" d="
						M246.751,191.801l-11.128,1.24l0.067,0.604c0.067,0.602,0.609,1.036,1.211,0.969l0.288-0.032l36.347-4.049
						c0.396-0.044,0.681-0.401,0.637-0.797l-0.109-0.977L246.751,191.801z"/>
					<path style="fill:#BFBFBF;stroke:#263238;stroke-linecap:round;stroke-linejoin:round;stroke-miterlimit:10;" d="
						M280.565,169.265l-1.814,18.015c-0.078,0.774-0.686,1.388-1.459,1.474l-28.048,3.124c-0.712,0.079-1.314-0.522-1.235-1.234
						l1.987-18.039c0.085-0.767,0.69-1.373,1.457-1.459l27.874-3.105C280.036,167.962,280.636,168.556,280.565,169.265z"/>
					<polygon style="fill:#FFFFFF;stroke:#263238;stroke-linecap:round;stroke-linejoin:round;stroke-miterlimit:10;" points="
						265.138,177.833 267.309,177.592 268.139,179.466 266.799,181.583 264.629,181.825 263.798,179.95 					"/>
				</g>
				<g>
					<g>
						<defs>
							<polygon id="XMLID_1022_" points="308.299,163.858 308.058,161.692 291.857,163.507 292.345,167.889 293.211,175.669 
								309.414,173.865 							"/>
						</defs>
						<use xlink:href="#XMLID_1022_"  style="overflow:visible;fill:#FFFFFF;"/>
						<clipPath id="XMLID_00000124135721501634809440000010120881220602868135_">
							<use xlink:href="#XMLID_1022_"  style="overflow:visible;"/>
						</clipPath>
						
							<rect x="292.46" y="162.89" transform="matrix(-0.9939 0.1107 -0.1107 -0.9939 612.081 303.2915)" style="opacity:0.2;clip-path:url(#XMLID_00000124135721501634809440000010120881220602868135_);" width="10.323" height="11.494"/>
						
							<use xlink:href="#XMLID_1022_"  style="overflow:visible;fill:none;stroke:#263238;stroke-linecap:round;stroke-linejoin:round;stroke-miterlimit:10;"/>
					</g>
					
						<line style="fill:none;stroke:#263238;stroke-linecap:round;stroke-linejoin:round;stroke-miterlimit:10;" x1="302.115" y1="162.354" x2="302.234" y2="163.427"/>
					<g>
						<defs>
							<polygon id="XMLID_1021_" points="294.143,188.821 292.291,172.195 300.956,165.632 309.547,164.675 311.996,186.656 							
								"/>
						</defs>
						<use xlink:href="#XMLID_1021_"  style="overflow:visible;fill:#92E3A9;"/>
						<clipPath id="XMLID_00000026136299515177415210000012772907745494321545_">
							<use xlink:href="#XMLID_1021_"  style="overflow:visible;"/>
						</clipPath>
						<polygon style="opacity:0.2;clip-path:url(#XMLID_00000026136299515177415210000012772907745494321545_);" points="
							300.956,165.632 303.414,187.7 294.133,188.734 292.291,172.195 						"/>
						
							<use xlink:href="#XMLID_1021_"  style="overflow:visible;fill:none;stroke:#263238;stroke-linecap:round;stroke-linejoin:round;stroke-miterlimit:10;"/>
					</g>
					
						<line style="fill:none;stroke:#263238;stroke-linecap:round;stroke-linejoin:round;stroke-miterlimit:10;" x1="301.729" y1="169.272" x2="302.245" y2="173.904"/>
					
						<line style="fill:none;stroke:#263238;stroke-linecap:round;stroke-linejoin:round;stroke-miterlimit:10;" x1="302.553" y1="176.669" x2="303.642" y2="186.448"/>
				</g>
				<g>
					<g>
						<defs>
							
								<rect id="XMLID_1018_" x="289.131" y="192.135" transform="matrix(0.9939 -0.1107 0.1107 0.9939 -22.8007 33.6087)" width="4.287" height="60.018"/>
						</defs>
						<use xlink:href="#XMLID_1018_"  style="overflow:visible;fill:#92E3A9;"/>
						<clipPath id="XMLID_00000080889778276233664050000003383677955483313567_">
							<use xlink:href="#XMLID_1018_"  style="overflow:visible;"/>
						</clipPath>
						
							<rect x="289.131" y="192.135" transform="matrix(0.9939 -0.1107 0.1107 0.9939 -22.8007 33.6087)" style="opacity:0.2;clip-path:url(#XMLID_00000080889778276233664050000003383677955483313567_);" width="4.287" height="60.018"/>
						
							<use xlink:href="#XMLID_1018_"  style="overflow:visible;fill:none;stroke:#263238;stroke-linecap:round;stroke-linejoin:round;stroke-miterlimit:10;"/>
					</g>
					<polygon style="fill:#92E3A9;stroke:#263238;stroke-linecap:round;stroke-linejoin:round;stroke-miterlimit:10;" points="
						263.93,194.995 327.287,187.939 333.93,247.587 329.669,248.062 323.416,191.914 264.32,198.496 					"/>
					<g>
						<defs>
							<polygon id="XMLID_1016_" points="314.795,185.974 222.007,196.309 222.374,199.6 329.082,187.715 328.715,184.423 
								320.921,185.291 							"/>
						</defs>
						<use xlink:href="#XMLID_1016_"  style="overflow:visible;fill:#92E3A9;"/>
						<clipPath id="XMLID_00000072966621929492138620000001867200387545778328_">
							<use xlink:href="#XMLID_1016_"  style="overflow:visible;"/>
						</clipPath>
						
							<polygon style="opacity:0.6;clip-path:url(#XMLID_00000072966621929492138620000001867200387545778328_);fill:#FFFFFF;" points="
							314.795,185.974 222.007,196.309 222.374,199.6 329.082,187.715 328.715,184.423 320.921,185.291 						"/>
						
							<use xlink:href="#XMLID_1016_"  style="overflow:visible;fill:none;stroke:#263238;stroke-linecap:round;stroke-linejoin:round;stroke-miterlimit:10;"/>
					</g>
					<g>
						<defs>
							<polygon id="XMLID_1017_" points="230.818,259.072 224.174,199.423 266.572,194.701 273.216,254.35 268.955,254.824 
								262.701,198.676 228.825,202.449 235.079,258.598 							"/>
						</defs>
						<use xlink:href="#XMLID_1017_"  style="overflow:visible;fill:#92E3A9;"/>
						<clipPath id="XMLID_00000018924854404739505060000008746980922578166914_">
							<use xlink:href="#XMLID_1017_"  style="overflow:visible;"/>
						</clipPath>
						
							<polygon style="opacity:0.2;clip-path:url(#XMLID_00000018924854404739505060000008746980922578166914_);fill:#FFFFFF;" points="
							230.818,259.072 224.174,199.423 266.572,194.701 273.216,254.35 268.955,254.824 262.701,198.676 228.825,202.449 
							235.079,258.598 						"/>
						
							<use xlink:href="#XMLID_1017_"  style="overflow:visible;fill:none;stroke:#263238;stroke-linecap:round;stroke-linejoin:round;stroke-miterlimit:10;"/>
					</g>
				</g>
				<g>
					<path style="fill:#757575;stroke:#263238;stroke-linecap:round;stroke-linejoin:round;stroke-miterlimit:10;" d="
						M331.712,203.49c-9.703-7.758-23.858-6.182-31.616,3.521c-7.758,9.703-6.182,23.858,3.521,31.616
						c9.159,7.323,22.281,6.325,30.249-1.969l3.39,2.71l2.581-3.228l-3.39-2.71C342.785,223.832,340.871,210.812,331.712,203.49z
						 M333.035,233.347c-6.787,8.488-19.17,9.868-27.659,3.081c-8.488-6.787-9.868-19.17-3.081-27.659
						c6.787-8.488,19.17-9.868,27.659-3.081C338.442,212.476,339.822,224.859,333.035,233.347z"/>
					<path style="fill:#999999;stroke:#263238;stroke-linecap:round;stroke-linejoin:round;stroke-miterlimit:10;" d="
						M365.57,259.362L365.57,259.362c-1.09,1.363-3.079,1.585-4.442,0.495l-24.638-19.7c-0.29-0.232-0.337-0.654-0.105-0.943
						l3.109-3.888c0.232-0.29,0.654-0.337,0.943-0.105l24.638,19.7C366.439,256.01,366.66,257.999,365.57,259.362z"/>
				</g>
				<g>
					<polygon style="fill:#999999;stroke:#263238;stroke-linecap:round;stroke-linejoin:round;stroke-miterlimit:10;" points="
						200.081,262.495 197.195,262.816 184.18,212.189 186.965,211.472 					"/>
					
						<rect x="165.912" y="192.905" transform="matrix(0.9685 -0.2489 0.2489 0.9685 -45.018 52.1652)" style="fill:#263238;" width="35.693" height="22.369"/>
					<g>
						<g>
							<path style="fill:#92E3A9;" d="M175.281,209.248l0.218,0.848c0.268,1.043-0.088,1.74-1.113,2.003l-0.484,0.125l0.629,2.449
								l-1.024,0.263l-1.675-6.519l1.509-0.388C174.365,207.766,175.013,208.205,175.281,209.248z M173.095,209.085l0.567,2.207
								l0.484-0.125c0.326-0.084,0.464-0.278,0.345-0.744l-0.252-0.977c-0.119-0.466-0.334-0.569-0.66-0.485L173.095,209.085z"/>
							<path style="fill:#92E3A9;" d="M175.662,209.1c-0.268-1.042,0.128-1.779,1.134-2.038c1.006-0.258,1.708,0.196,1.977,1.238
								l0.871,3.39c0.268,1.043-0.128,1.78-1.134,2.038c-1.005,0.258-1.707-0.196-1.976-1.239L175.662,209.1z M177.574,212.29
								c0.12,0.466,0.37,0.59,0.695,0.506c0.326-0.084,0.485-0.313,0.366-0.779l-0.905-3.519c-0.12-0.466-0.37-0.59-0.696-0.506
								c-0.326,0.084-0.485,0.313-0.365,0.779L177.574,212.29z"/>
							<path style="fill:#92E3A9;" d="M180.392,206.138c0.997-0.256,1.662,0.208,1.93,1.25l0.053,0.206l-0.969,0.249l-0.07-0.271
								c-0.12-0.466-0.351-0.595-0.677-0.511c-0.326,0.083-0.466,0.308-0.347,0.774c0.122,0.475,0.418,0.775,1.239,1.189
								c1.05,0.535,1.46,1.006,1.65,1.751c0.268,1.043-0.1,1.772-1.105,2.031c-1.006,0.259-1.681-0.203-1.949-1.246l-0.103-0.4
								l0.969-0.249l0.119,0.465c0.12,0.466,0.368,0.581,0.694,0.497c0.326-0.084,0.488-0.305,0.368-0.771
								c-0.122-0.475-0.417-0.775-1.238-1.19c-1.05-0.533-1.459-1.003-1.65-1.749C179.037,207.122,179.395,206.395,180.392,206.138z
								"/>
							<path style="fill:#92E3A9;" d="M182.517,205.67l1.024-0.263l1.675,6.519l-1.024,0.263L182.517,205.67z"/>
							<path style="fill:#92E3A9;" d="M183.988,205.292l3.165-0.814l0.239,0.932l-1.07,0.275l1.436,5.587l-1.023,0.263l-1.436-5.587
								l-1.071,0.275L183.988,205.292z"/>
							<path style="fill:#92E3A9;" d="M187.602,204.363l1.024-0.263l1.675,6.519l-1.024,0.263L187.602,204.363z"/>
							<path style="fill:#92E3A9;" d="M189.691,205.495c-0.268-1.042,0.128-1.779,1.134-2.038s1.708,0.196,1.976,1.238l0.871,3.39
								c0.268,1.043-0.128,1.78-1.133,2.038c-1.005,0.258-1.709-0.196-1.977-1.239L189.691,205.495z M191.603,208.685
								c0.119,0.466,0.369,0.59,0.695,0.506c0.326-0.084,0.485-0.313,0.365-0.779l-0.904-3.519c-0.12-0.466-0.37-0.59-0.695-0.506
								c-0.326,0.084-0.485,0.313-0.366,0.779L191.603,208.685z"/>
							<path style="fill:#92E3A9;" d="M194.454,204.519l-0.019,0.005l1.213,4.721l-0.922,0.236l-1.675-6.519l1.285-0.33l2.036,3.637
								l0.019-0.004l-1.002-3.902l0.913-0.235l1.675,6.519l-1.052,0.271L194.454,204.519z"/>
						</g>
						<g>
							<path style="fill:#92E3A9;" d="M179.54,202.635c0.114-0.02,0.244-0.053,0.356-0.082c0.326-0.084,0.555-0.271,0.426-0.774
								l-1.278-4.972l1.024-0.264l1.259,4.897c0.335,1.304-0.277,1.818-1.05,2.017c-0.186,0.047-0.326,0.084-0.498,0.108
								L179.54,202.635z"/>
							<path style="fill:#92E3A9;" d="M181.086,197.95c-0.268-1.042,0.129-1.78,1.134-2.038c1.005-0.259,1.708,0.197,1.976,1.239
								l0.871,3.389c0.268,1.043-0.128,1.781-1.133,2.04c-1.005,0.258-1.708-0.197-1.977-1.24L181.086,197.95z M182.998,201.141
								c0.12,0.465,0.37,0.59,0.696,0.506c0.325-0.084,0.485-0.314,0.365-0.779l-0.904-3.52c-0.12-0.465-0.37-0.59-0.696-0.506
								c-0.326,0.083-0.485,0.314-0.366,0.779L182.998,201.141z"/>
							<path style="fill:#92E3A9;" d="M187.906,196.127l0.06,0.232c0.173,0.671,0.076,1.143-0.326,1.474l0.005,0.019
								c0.604,0.074,0.943,0.502,1.121,1.191l0.136,0.53c0.259,1.006-0.134,1.683-1.158,1.946l-1.61,0.414l-1.675-6.518l1.545-0.397
								C187.064,194.746,187.647,195.123,187.906,196.127z M185.721,196.085l0.442,1.723l0.4-0.104
								c0.382-0.098,0.571-0.326,0.438-0.847l-0.093-0.363c-0.12-0.466-0.331-0.629-0.694-0.536L185.721,196.085z M186.403,198.738
								l0.515,2.002l0.586-0.151c0.345-0.089,0.491-0.296,0.366-0.78l-0.146-0.567c-0.156-0.605-0.399-0.741-0.865-0.621
								L186.403,198.738z"/>
						</g>
					</g>
				</g>
				<g>
					<path style="fill:#FFFFFF;stroke:#263238;stroke-linecap:round;stroke-linejoin:round;stroke-miterlimit:10;" d="
						M375.833,137.227l-46.806,5.213c-1.633,0.182-2.809,1.653-2.627,3.285l1.837,16.498c0.182,1.633,1.653,2.809,3.285,2.627
						l5.849-0.651l-3.974,9.966l7.837-10.397l37.094-4.132c1.633-0.182,2.809-1.653,2.627-3.285l-1.838-16.498
						C378.937,138.221,377.466,137.045,375.833,137.227z"/>
					<g>
						<path style="fill:#263238;" d="M335.82,156.079c-0.072-0.155-0.119-0.251-0.176-0.764l-0.11-0.988
							c-0.065-0.585-0.287-0.779-0.736-0.729l-0.342,0.038l0.285,2.563l-0.989,0.11l-0.701-6.295l1.493-0.167
							c1.025-0.114,1.519,0.314,1.627,1.285l0.056,0.494c0.072,0.648-0.089,1.085-0.507,1.34l0.002,0.018
							c0.518,0.153,0.731,0.602,0.805,1.258l0.108,0.971c0.034,0.306,0.067,0.53,0.193,0.752L335.82,156.079z M334.141,150.805
							l0.215,1.933l0.388-0.043c0.368-0.041,0.575-0.229,0.518-0.731l-0.068-0.62c-0.051-0.451-0.226-0.63-0.576-0.591
							L334.141,150.805z"/>
						<path style="fill:#263238;" d="M337.948,152.155l1.358-0.151l0.101,0.899l-1.357,0.151l0.205,1.843l1.708-0.191l0.101,0.899
							l-2.698,0.301l-0.701-6.295l2.698-0.301l0.101,0.9l-1.709,0.19L337.948,152.155z"/>
						<path style="fill:#263238;" d="M340.057,150.765c-0.111-1.008,0.355-1.642,1.326-1.75c0.972-0.108,1.566,0.408,1.678,1.416
							l0.365,3.272c0.039,0.352,0.009,0.654-0.091,0.902c0.058,0.113,0.132,0.123,0.294,0.104l0.09-0.01l0.099,0.881l-0.135,0.015
							c-0.441,0.049-0.738-0.08-0.903-0.335c-0.19,0.093-0.418,0.165-0.68,0.193c-0.971,0.108-1.565-0.408-1.678-1.416
							L340.057,150.765z M341.418,153.99c0.051,0.45,0.267,0.599,0.582,0.564c0.314-0.035,0.493-0.228,0.443-0.678l-0.379-3.399
							c-0.05-0.449-0.267-0.599-0.582-0.564c-0.314,0.035-0.492,0.229-0.442,0.678L341.418,153.99z"/>
						<path style="fill:#263238;" d="M344.473,148.742l0.541,4.857c0.05,0.449,0.266,0.589,0.58,0.554
							c0.315-0.035,0.495-0.219,0.445-0.668l-0.541-4.857l0.935-0.104l0.534,4.794c0.112,1.007-0.327,1.638-1.299,1.746
							c-0.972,0.108-1.538-0.411-1.65-1.417l-0.534-4.794L344.473,148.742z"/>
						<path style="fill:#263238;" d="M347.104,148.449l0.989-0.11l0.701,6.295l-0.989,0.11L347.104,148.449z"/>
						<path style="fill:#263238;" d="M351.581,154.324c-0.072-0.155-0.119-0.251-0.177-0.764l-0.109-0.988
							c-0.065-0.585-0.287-0.779-0.736-0.728l-0.342,0.038l0.285,2.563l-0.989,0.11l-0.701-6.295l1.492-0.166
							c1.025-0.114,1.52,0.313,1.628,1.285l0.055,0.494c0.072,0.648-0.088,1.084-0.506,1.34l0.002,0.018
							c0.518,0.153,0.732,0.602,0.805,1.258l0.108,0.971c0.034,0.306,0.067,0.53,0.192,0.753L351.581,154.324z M349.901,149.049
							l0.215,1.933l0.387-0.043c0.368-0.041,0.575-0.229,0.52-0.731l-0.069-0.62c-0.05-0.451-0.225-0.63-0.575-0.591
							L349.901,149.049z"/>
						<path style="fill:#263238;" d="M353.709,150.4l1.357-0.151l0.101,0.899l-1.358,0.151l0.205,1.843l1.709-0.19l0.1,0.899
							l-2.698,0.301l-0.701-6.295l2.698-0.301l0.1,0.9l-1.708,0.191L353.709,150.4z"/>
						<path style="fill:#263238;" d="M358.314,151.726l0.019-0.002l0.168-4.544l1.375-0.153l0.701,6.295l-0.935,0.104l-0.503-4.514
							l-0.018,0.002l-0.162,4.588l-0.936,0.104l-1.215-4.37l-0.019,0.002l0.496,4.45l-0.863,0.096l-0.701-6.295l1.376-0.153
							L358.314,151.726z"/>
						<path style="fill:#263238;" d="M361.877,149.49l1.357-0.151l0.1,0.899l-1.357,0.151l0.205,1.843l1.709-0.19l0.101,0.899
							l-2.698,0.3l-0.701-6.295l2.698-0.3l0.1,0.9l-1.708,0.19L361.877,149.49z"/>
						<path style="fill:#263238;" d="M364.99,148.214l-0.018,0.002l0.508,4.56l-0.89,0.099l-0.701-6.295l1.241-0.138l1.417,3.657
							l0.018-0.002l-0.42-3.769l0.882-0.098l0.701,6.295l-1.017,0.113L364.99,148.214z"/>
						<path style="fill:#263238;" d="M367.447,146.183l3.059-0.34l0.1,0.9l-1.034,0.115l0.602,5.395l-0.99,0.11l-0.601-5.394
							l-1.034,0.115L367.447,146.183z"/>
						<path style="fill:#263238;" d="M372.257,145.576c0.962-0.107,1.52,0.413,1.633,1.42l0.022,0.198l-0.935,0.104l-0.028-0.262
							c-0.05-0.449-0.25-0.601-0.564-0.566c-0.314,0.035-0.476,0.227-0.426,0.676c0.052,0.458,0.287,0.778,0.998,1.273
							c0.908,0.637,1.228,1.129,1.308,1.848c0.112,1.008-0.327,1.639-1.299,1.748c-0.971,0.108-1.539-0.411-1.651-1.419
							l-0.043-0.386l0.936-0.104l0.05,0.449c0.05,0.45,0.267,0.589,0.581,0.554c0.315-0.035,0.494-0.218,0.444-0.668
							c-0.051-0.458-0.287-0.778-0.998-1.273c-0.908-0.637-1.227-1.129-1.307-1.848
							C370.864,146.313,371.295,145.683,372.257,145.576z"/>
					</g>
				</g>
				
					<line style="fill:none;stroke:#263238;stroke-linecap:round;stroke-linejoin:round;stroke-miterlimit:10;" x1="126.421" y1="270.7" x2="411.321" y2="238.967"/>
			</g>
		</g>
		<g>
			<path style="fill:#FFFFFF;" d="M128.488,266.695c-2.398-1.184-5.533-1.064-8.062,0.353c-1.741,0.964-3.347,2.621-4.704,5.446
				c-3.329,6.935-12.507,22.829-14.103,27.381c-1.605,4.553-4.976,17.179-8.77,22.637c-3.803,5.468-5.576,13.438-5.576,13.438
				l3.007,76.201c1.585-11.139,7.005-23.999,7.005-23.999c8.853-5.388,12.536-12.723,12.536-12.723
				c0.858-1.016,1.651-2.18,2.378-3.482c5.535-9.792,7.485-26.934,7.027-40.128c-0.505-14.952,3.946-21.954,11.012-35.471
				C137.307,282.822,133.751,269.293,128.488,266.695z"/>
			<path style="opacity:0.4;fill:#92E3A9;" d="M128.488,266.695c-2.43-1.116-5.533-1.064-8.062,0.353
				c4.351,0.917,10.102,2.782,9.003,6.131c-1.722,5.288-8.108-2.029-10.941,0.647c-2.842,2.676-12.813,17.651-5.564,23.555
				c7.24,5.913,5.686,16.615,1.174,19.872c-4.52,3.267-1.055,10.18,1.096,21.268c1.305,6.709-0.987,22.215-2.994,33.426
				c5.535-9.792,7.485-26.934,7.027-40.128c-0.505-14.952,3.946-21.954,11.012-35.471
				C137.307,282.822,133.74,269.106,128.488,266.695z"/>
			<path style="fill:none;stroke:#263238;stroke-linecap:round;stroke-linejoin:round;stroke-miterlimit:10;" d="M90.28,412.155
				c1.588-11.139,7.006-24.002,7.006-24.002c8.855-5.391,12.54-12.723,12.54-12.723c7.35-8.672,9.913-28.667,9.404-43.614
				c-0.509-14.947,3.945-21.949,11.009-35.472c7.064-13.522,4.089-26.898-1.752-29.652c-4.071-1.919-9.428-1.138-12.762,5.798
				c-3.334,6.937-12.504,22.83-14.107,27.384c-1.603,4.554-4.976,17.177-8.771,22.643c-3.796,5.466-5.571,13.434-5.571,13.434"/>
			<path style="fill:none;stroke:#263238;stroke-linecap:round;stroke-linejoin:round;stroke-miterlimit:10;" d="M108,300.841
				c0,0,6.126,0.185,9.049,2.323"/>
			<path style="fill:none;stroke:#263238;stroke-linecap:round;stroke-linejoin:round;stroke-miterlimit:10;" d="M84.945,334.536
				c0,0-1.352-2.801,4.703-5.94"/>
		</g>
	</g>
</g>
<g id="Hand">
	<g>
		<path style="opacity:0.2;fill-opacity:0.7;" d="M299.596,277.461c12.225,0.095,27.514,55.175,32.272,61.522
			c0,0,68.251,2.345,76.856,11.863c8.606,9.517,4.334,17.563,10.03,26.595c5.696,9.032,7.279,24.246,7.279,24.246l14.918,25.286
			l-64.289,30.793c0,0-34.35-19.671-42.731-24.12c-8.381-4.448-33.159-14.101-39.759-26.681c-6.6-12.58-6.933-24.314-8.349-29.524
			c-1.416-5.21,26.173-20.77,26.173-20.77L299.596,277.461z"/>
		<g>
			<path style="fill:#FFFFFF;" d="M449.562,431.971c-5.538-5.12-11.36-10.56-16.151-15.056c-0.009-0.005-0.018-0.011-0.02-0.018
				c-6.115-5.738-10.541-9.93-10.541-9.93c-3.644-7.634-6.839-10.209-10.865-16.232c-4.019-6.024-3.416-12.394-4.363-20.818
				c-0.956-8.43-4.358-15.661-6.451-20.626c-2.1-4.963-2.259-10.091-2.678-11.204c-0.419-1.112-6.749-5.978-9.679-9.983
				c-1.312-1.797-2.96-3.361-4.757-4.581c-2.203-1.508-4.622-2.51-6.874-2.809c-1.157-0.153-2.179-0.155-3.101-0.065
				c-2.358,0.218-4.128,1.033-5.98,1.476c-2.585,0.618-9.102-2.53-12.866-2.382c-0.699,0.029-1.39,0.094-2.086,0.199l-0.029,0.007
				c-3.036,0.434-6.076,1.491-9.519,2.567c-3.388,1.048-8.235-1.217-11.735-1.47c-0.016-0.004-0.04-0.006-0.063-0.008
				c-0.865-0.054-1.648,0.01-2.303,0.289c-3.312,1.398-9.637,3.517-9.637,3.517s-1.638-4.314-3.37-10.278
				c-0.301-1.033-0.615-2.025-0.945-2.99l-0.005-0.022c-1.224-3.645-2.558-6.849-3.373-9.871c-0.22-0.792-0.4-1.578-0.532-2.352
				c-0.744-4.366-1.68-7.704-3.389-14.242c-0.061-0.223-0.117-0.456-0.181-0.694c-0.535-2.044-0.982-4.01-1.509-5.765
				c-0.002-0.007-0.009-0.006-0.009-0.006c-1.267-4.241-2.977-7.187-7.412-6.825c-3.876,0.32-6.015,2.804-6.114,9.36
				c-0.106,6.557-1.357,6.396,0.377,15.546c1.727,9.151,1.091,15.383,2.48,19.91c1.382,4.529,2.508,13.67,2.508,13.67
				c-1.927-0.453-3.338,0.645-3.464,1.435c-0.126,0.79,0.285,8.13,0.479,13.403c0.174,4.679-2.904,9.783-3.671,13.221
				c-0.009,0.025-0.01,0.056-0.019,0.081c-0.082,0.396-0.137,0.777-0.146,1.125c-0.109,3.365,1.941,10.014,4.001,18.632
				c2.059,8.612,2.032,18.036,5.561,23.264c0.701,1.038,1.608,1.941,2.671,2.762c4.281,3.298,11.193,5.369,18.284,10.597
				c8.849,6.543,15.178,11.409,20.427,13.04c3.754,1.16,5.578,2.397,6.682,4.351c0.011,0.013,0.012,0.02,0.012,0.02
				c0.438,0.771,0.758,1.661,1.042,2.691c0.495,1.816,1.825,2.979,4.058,4.902c2.262,1.946,5.446,4.67,9.612,9.638
				c2.722,3.242,7.218,9.581,12.027,16.629L449.562,431.971z"/>
			<g>
				<path style="opacity:0.4;fill:#92E3A9;" d="M311.639,299.33c0.132,0.775,0.312,1.561,0.532,2.352
					c-5.737,0.274-15.691,5.517-15.077,8.793c0.755,3.995,2.509,13.447,5.039,15.137c2.53,1.69,7.171,2.062,7.171,2.062
					c-0.322,0.1-0.623,0.218-0.914,0.349c-0.007,0.002-0.013,0.011-0.013,0.011c-0.035,0.016-0.069,0.032-0.096,0.046
					c-1.365,0.649-2.385,1.645-3.112,2.878l-0.005,0.009c-3.168,5.309-1.066,14.901,1.412,19.167
					c10.314,17.714,4.612,35.059,0.885,34.015c-3.725-1.036-7.942-17.391-7.86-21.479c0.089-4.09-0.772-7.115-0.772-7.115
					c-1.583-0.136-4.492,1.312-7.113,2.867c0.009-0.025,0.01-0.056,0.019-0.081c0.767-3.438,3.846-8.542,3.671-13.22
					c-0.194-5.273-0.605-12.613-0.479-13.403c0.126-0.79,1.537-1.887,3.464-1.435c0,0-1.126-9.142-2.508-13.67
					c-1.389-4.527-0.753-10.758-2.48-19.91c-1.734-9.15-0.483-8.988-0.377-15.546c0.098-6.556,2.237-9.04,6.114-9.36
					c4.435-0.362,6.144,2.584,7.412,6.825c-0.585-0.328-1.212-0.639-1.863-0.89c-1.641-0.636-3.444-0.919-5.093-0.272
					c-1.916,0.75-3.178,3.147-3.769,5.522l0.002,0.007c-0.857,3.414-0.331,6.773,1.631,5.121c2.217-1.866,7.517-2.687,10.791-3.025
					C309.959,291.625,310.895,294.963,311.639,299.33z"/>
				<path style="opacity:0.4;fill:#92E3A9;" d="M350.252,434.906c-0.285-1.03-0.605-1.92-1.042-2.691c0,0-0.002-0.007-0.012-0.02
					c-1.104-1.954-2.928-3.192-6.682-4.351c-5.249-1.631-11.578-6.497-20.427-13.04c-7.091-5.228-14.003-7.299-18.284-10.597
					c4.7,1.264,10.072-1.249,12.71,1.89c3.815,4.53,17.842,9.421,17.842,9.421C349.043,424.456,350.252,434.906,350.252,434.906z"/>
				<path style="opacity:0.4;fill:#92E3A9;" d="M331.805,321.037c-1.462,0.05-3.02,10.294-2.59,13.699
					c1.102,8.817,11.843,34.259,6.03,35.019c-2.404,0.314-8.107-11.403-9.652-17.128c-4.697-17.399-5.732-24.843-5.732-24.843
					s-3.575-9.401-4.313-16.209c0.331,0.965,0.644,1.957,0.945,2.99c1.733,5.964,3.371,10.278,3.371,10.278s6.325-2.118,9.637-3.517
					C330.157,321.047,330.939,320.983,331.805,321.037z"/>
				<path style="opacity:0.4;fill:#92E3A9;" d="M353.121,319.948c-2.991,1.007-5.347,4.733-7.716,5.867
					c-2.908,1.386-10.159-4.157-13.537-4.77c3.499,0.254,8.347,2.518,11.735,1.47C347.045,321.439,350.085,320.382,353.121,319.948z
					"/>
				<path style="opacity:0.4;fill:#92E3A9;" d="M374.083,320.648c-0.819,1.455-2.001,5.437-2.109,7.136
					c-0.561,8.539,8.956,38.073,3.814,34.098c-6.701-5.168-6.614-28.662-12.402-36.244c-1.847-2.429-7.131-5.749-8.149-5.897
					c3.764-0.148,10.281,3,12.866,2.382C369.954,321.681,371.725,320.866,374.083,320.648z"/>
				<path style="opacity:0.4;fill:#92E3A9;" d="M433.391,416.896c-5.107-3.576-10.359-6.888-13.507-7.855
					c-7.661-2.344-10.564-5.979-12.776-12.666c-2.207-6.695-0.441-6.949-0.042-14.175c0.397-7.233-5.335-14.675-4.614-12.944
					c0.714,1.733,0.541,14.977-1.643,16.151c-2.192,1.169-4.986-7.052-6.917-13.844c-1.931-6.792-5.829-39.635-8.367-45.629
					c-0.408-0.969-0.905-1.764-1.467-2.413c1.796,1.221,3.444,2.784,4.757,4.581c2.93,4.005,9.259,8.871,9.679,9.983
					c0.419,1.113,0.578,6.24,2.678,11.204c2.093,4.965,5.495,12.196,6.451,20.626c0.947,8.424,0.343,14.794,4.363,20.818
					c4.027,6.023,7.221,8.598,10.865,16.232C422.85,406.966,427.275,411.158,433.391,416.896z"/>
				<path style="opacity:0.4;fill:#92E3A9;" d="M350.568,338.531c1.911,1.24,7.898,22.03,9.996,26.995
					c2.098,4.964,2.375,17.981-0.052,14.601C358.084,376.746,342.781,333.479,350.568,338.531z"/>
			</g>
			<g>
				<path style="fill:none;stroke:#263238;stroke-linecap:round;stroke-linejoin:round;stroke-miterlimit:10;" d="M374.114,463.399
					c-4.1-5.949-7.82-11.127-10.192-13.953c-4.166-4.968-7.35-7.692-9.612-9.638c-2.233-1.923-3.563-3.086-4.058-4.902
					c-0.285-1.03-0.605-1.92-1.042-2.691c0,0-0.002-0.007-0.012-0.02c-1.104-1.954-2.928-3.192-6.682-4.351
					c-5.249-1.631-11.578-6.497-20.427-13.04c-7.091-5.228-14.003-7.299-18.284-10.597c-1.064-0.82-1.97-1.724-2.671-2.762
					c-3.53-5.228-3.503-14.653-5.561-23.264c-2.06-8.619-4.11-15.267-4.001-18.632c0.009-0.348,0.064-0.729,0.146-1.125
					c0.009-0.025,0.01-0.056,0.019-0.081c0.767-3.438,3.846-8.542,3.671-13.22c-0.194-5.273-0.605-12.613-0.479-13.403
					c0.126-0.79,1.537-1.887,3.464-1.435c0,0-1.126-9.142-2.508-13.67c-1.389-4.527-0.753-10.758-2.48-19.91
					c-1.734-9.15-0.483-8.988-0.377-15.546c0.098-6.556,2.237-9.04,6.114-9.36c4.435-0.362,6.144,2.584,7.412,6.825
					c0,0,0.007-0.002,0.009,0.006c0.527,1.755,0.974,3.72,1.509,5.765c0.065,0.238,0.12,0.47,0.181,0.694
					c1.709,6.538,2.645,9.876,3.389,14.242c0.132,0.775,0.312,1.561,0.532,2.352c0.815,3.022,2.148,6.226,3.373,9.871l0.005,0.022
					c0.331,0.965,0.644,1.957,0.945,2.99c1.733,5.964,3.371,10.278,3.371,10.278s6.325-2.118,9.637-3.517
					c0.655-0.279,1.438-0.344,2.303-0.289c0.023,0.002,0.047,0.004,0.063,0.008c3.499,0.254,8.347,2.518,11.735,1.47
					c3.443-1.076,6.483-2.133,9.519-2.567l0.029-0.007c0.696-0.105,1.387-0.17,2.086-0.199c3.764-0.148,10.281,3,12.866,2.382
					c1.852-0.443,3.622-1.257,5.98-1.476c0.923-0.09,1.944-0.089,3.101,0.065c2.251,0.299,4.671,1.301,6.874,2.809
					c1.796,1.221,3.444,2.784,4.757,4.581c2.93,4.005,9.259,8.871,9.679,9.983c0.419,1.113,0.578,6.24,2.678,11.204
					c2.093,4.965,5.495,12.196,6.451,20.626c0.947,8.424,0.343,14.794,4.363,20.818c4.027,6.023,7.221,8.598,10.865,16.232
					c0,0,4.426,4.192,10.541,9.93c0.002,0.007,0.011,0.013,0.02,0.018c4.248,3.986,9.307,8.716,14.261,13.306"/>
				<path style="fill:none;stroke:#263238;stroke-linecap:round;stroke-linejoin:round;stroke-miterlimit:10;" d="M298.391,330.284
					c1.511,6.319,2.813,14.308,2.634,17.793c-0.179,3.484,3.079,14.245,2.417,19.262"/>
				<path style="fill:none;stroke:#263238;stroke-linecap:round;stroke-linejoin:round;stroke-miterlimit:10;" d="M302.836,334.484
					c0,0,3.214-6.032,6.47-6.81s7.014,0.55,10.553,0.109c3.538-0.441,6.517-3.846,9.678-5.246"/>
				<path style="fill:none;stroke:#263238;stroke-linecap:round;stroke-linejoin:round;stroke-miterlimit:10;" d="M299.817,310.845
					c0,0,5.418-3.59,9-2.152"/>
				<path style="fill:none;stroke:#263238;stroke-linecap:round;stroke-linejoin:round;stroke-miterlimit:10;" d="M303.646,306.961
					c0,0,1.701-0.927,4.693-0.269"/>
				<path style="fill:none;stroke:#263238;stroke-linecap:round;stroke-linejoin:round;stroke-miterlimit:10;" d="M298.396,292.021
					c0,0,2.84-1.489,6.087-1.455"/>
				<path style="fill:none;stroke:#263238;stroke-linecap:round;stroke-linejoin:round;stroke-miterlimit:10;" d="M291.736,358.339
					c0,0,3.385-2.778,4.871-3.335"/>
				<path style="fill:none;stroke:#263238;stroke-linecap:round;stroke-linejoin:round;stroke-miterlimit:10;" d="M303.203,361.811
					c0,0-1.427,4.104-1.46,5.933"/>
				<path style="fill:none;stroke:#263238;stroke-linecap:round;stroke-linejoin:round;stroke-miterlimit:10;" d="M294.688,276.509
					c0,0,0.831,7.532,1.904,7.965c1.073,0.433,8.304-0.65,8.577-2.05c0.273-1.4-0.901-6.788-0.901-6.788
					S298.288,269.373,294.688,276.509z"/>
				<path style="fill:none;stroke:#263238;stroke-linecap:round;stroke-linejoin:round;stroke-miterlimit:10;" d="M295.408,345.117
					c0,0,5.164-4.365,4.293-8.638c-0.871-4.273-2.592-3.817-4.786-3.316"/>
				<path style="fill:none;stroke:#263238;stroke-linecap:round;stroke-linejoin:round;stroke-miterlimit:10;" d="M389.292,332.846
					c1.794,6.657,4.548,26.647,5.043,29.566c0.495,2.918,2.442,10.215,2.442,10.215"/>
				<path style="fill:none;stroke:#263238;stroke-linecap:round;stroke-linejoin:round;stroke-miterlimit:10;" d="M343.689,327.539
					c8.52,7.694,1.365,5.71,15.881,48.65"/>
				<path style="fill:none;stroke:#263238;stroke-linecap:round;stroke-linejoin:round;stroke-miterlimit:10;" d="M422.852,406.965
					c0,0-6.643-3.017-8.195-5.278"/>
				<path style="fill:none;stroke:#263238;stroke-linecap:round;stroke-linejoin:round;stroke-miterlimit:10;" d="M344.178,423.593
					c2.344,2.387,4.871,8.239,5.019,8.602c0.011,0.013,0.012,0.02,0.012,0.02"/>
			</g>
		</g>
	</g>
</g>
</svg>
