<?xml version="1.0" encoding="UTF-8" standalone="no"?>
<!-- Created with Inkscape (http://www.inkscape.org/) -->

<svg
   width="233.03732mm"
   height="206.76485mm"
   viewBox="0 0 233.03732 206.76485"
   version="1.1"
   id="svg1"
   xml:space="preserve"
   xmlns:inkscape="http://www.inkscape.org/namespaces/inkscape"
   xmlns:sodipodi="http://sodipodi.sourceforge.net/DTD/sodipodi-0.dtd"
   xmlns="http://www.w3.org/2000/svg"
   xmlns:svg="http://www.w3.org/2000/svg"><sodipodi:namedview
     id="namedview1"
     pagecolor="#ffffff"
     bordercolor="#000000"
     borderopacity="0.25"
     inkscape:showpageshadow="2"
     inkscape:pageopacity="0.0"
     inkscape:pagecheckerboard="0"
     inkscape:deskcolor="#d1d1d1"
     inkscape:document-units="mm" /><defs
     id="defs1" /><g
     inkscape:label="Layer 1"
     inkscape:groupmode="layer"
     id="layer1"
     transform="translate(26.952922,-70.195997)"><g
       id="XMLID_1_"
       transform="matrix(0.26458333,0,0,0.26458333,-82.413556,1.5991654)">&#10;	<g
   id="XMLID_3_">&#10;		&#10;			<linearGradient
   id="XMLID_00000003082041790883282000000004293145334936672444_"
   gradientUnits="userSpaceOnUse"
   x1="906.37872"
   y1="424.6517"
   x2="1058.2277"
   y2="272.80261"
   gradientTransform="matrix(0.9485,-0.3166,0.3166,0.9485,-152.9251,270.5945)">&#10;			<stop
   offset="0.2347"
   style="stop-color:#BA141A"
   id="stop1" />&#10;			<stop
   offset="0.8827"
   style="stop-color:#E11B22"
   id="stop2" />&#10;		</linearGradient>&#10;		<path
   id="XMLID_6_"
   style="fill:url(#XMLID_00000003082041790883282000000004293145334936672444_)"
   d="m 691.425,311.597 c 171.113,-39.797 277.691,-2.336 277.691,-2.336 l 117.38,-39.184 c 0.024,-0.381 0.052,-0.767 0.072,-1.142 -7.496,-2.422 -156.186,-37.405 -395.143,42.662 z" />&#10;		&#10;			<linearGradient
   id="XMLID_00000141437101038602426850000003163143230936589740_"
   gradientUnits="userSpaceOnUse"
   x1="540.73871"
   y1="349.10419"
   x2="1052.1327"
   y2="349.10419"
   gradientTransform="matrix(0.9485,-0.3166,0.3166,0.9485,-152.9251,270.5945)">&#10;			<stop
   offset="0"
   style="stop-color:#F26649"
   id="stop3" />&#10;			<stop
   offset="0.8827"
   style="stop-color:#E11B22"
   id="stop4" />&#10;		</linearGradient>&#10;		<path
   id="XMLID_7_"
   style="fill:url(#XMLID_00000141437101038602426850000003163143230936589740_)"
   d="m 691.425,311.597 c -68.611,22.989 -144.657,55.455 -226.947,100.91 121.824,-34.338 225.158,-52.914 351.727,-52.201 l 152.911,-51.045 c 0,0 -106.578,-37.461 -277.691,2.336 z" />&#10;		&#10;			<linearGradient
   id="XMLID_00000122699294384438502570000004491960528786707641_"
   gradientUnits="userSpaceOnUse"
   x1="964.14471"
   y1="623.25671"
   x2="805.32471"
   y2="464.43671"
   gradientTransform="matrix(0.9485,-0.3166,0.3166,0.9485,-152.9251,270.5945)">&#10;			<stop
   offset="0"
   style="stop-color:#A70E13"
   id="stop5" />&#10;			<stop
   offset="0.5"
   style="stop-color:#790000"
   id="stop6" />&#10;		</linearGradient>&#10;		<path
   id="XMLID_8_"
   style="fill:url(#XMLID_00000122699294384438502570000004491960528786707641_)"
   d="m 617.986,736.396 c 344.912,-161.782 463.271,-384.052 468.511,-466.32 l -117.38,39.184 c -10e-4,0.001 15.616,185.935 -351.131,427.136 z" />&#10;		&#10;			<linearGradient
   id="XMLID_00000062909705438328551170000007382212383187726504_"
   gradientUnits="userSpaceOnUse"
   x1="842.54053"
   y1="631.66217"
   x2="681.64099"
   y2="470.7627"
   gradientTransform="matrix(0.9485,-0.3166,0.3166,0.9485,-152.9251,270.5945)">&#10;			<stop
   offset="0"
   style="stop-color:#94070A"
   id="stop7" />&#10;			<stop
   offset="0.5"
   style="stop-color:#BA141A"
   id="stop8" />&#10;		</linearGradient>&#10;		<path
   id="XMLID_9_"
   style="fill:url(#XMLID_00000062909705438328551170000007382212383187726504_)"
   d="m 969.116,309.261 -152.911,51.045 c -3.976,112.055 -76.42,233.497 -315.506,425.203 41.727,-15.534 80.772,-31.985 117.286,-49.113 C 984.733,495.195 969.116,309.261 969.116,309.261 Z" />&#10;	</g>&#10;	<g
   id="XMLID_46_">&#10;		<path
   id="XMLID_47_"
   style="fill:#1a1a1a"
   d="m 211.095,822.38 h 25.302 v 92.009 h 57.341 v 23.002 h -82.643 z" />&#10;		<path
   id="XMLID_49_"
   style="fill:#1a1a1a"
   d="m 288.804,880.213 v -0.329 c 0,-32.696 25.795,-59.476 61.284,-59.476 35.49,0 60.956,26.453 60.956,59.147 v 0.329 c 0,32.696 -25.795,59.478 -61.284,59.478 -35.489,0 -60.956,-26.453 -60.956,-59.149 z m 95.788,0 v -0.329 c 0,-19.715 -14.459,-36.145 -34.832,-36.145 -20.374,0 -34.503,16.101 -34.503,35.817 v 0.329 c 0,19.717 14.458,36.147 34.831,36.147 20.373,-0.001 34.504,-16.102 34.504,-35.819 z" />&#10;		<path
   id="XMLID_52_"
   style="fill:#1a1a1a"
   d="m 416.129,880.213 v -0.329 c 0,-32.696 25.467,-59.476 60.298,-59.476 20.702,0 33.189,5.586 45.183,15.772 l -15.937,19.223 c -8.873,-7.392 -16.759,-11.664 -30.068,-11.664 -18.401,0 -33.024,16.265 -33.024,35.817 v 0.329 c 0,21.031 14.458,36.475 34.831,36.475 9.201,0 17.416,-2.3 23.824,-6.901 v -16.43 H 475.77 v -21.852 h 49.948 v 49.947 c -11.83,10.023 -28.096,18.238 -49.127,18.238 -35.817,0 -60.462,-25.138 -60.462,-59.149 z" />&#10;		<path
   id="XMLID_54_"
   style="fill:#1a1a1a"
   d="m 532.612,880.213 v -0.329 c 0,-32.696 25.795,-59.476 61.284,-59.476 35.49,0 60.956,26.453 60.956,59.147 v 0.329 c 0,32.696 -25.795,59.478 -61.284,59.478 -35.49,0 -60.956,-26.453 -60.956,-59.149 z m 95.787,0 v -0.329 c 0,-19.715 -14.459,-36.145 -34.832,-36.145 -20.374,0 -34.503,16.101 -34.503,35.817 v 0.329 c 0,19.717 14.458,36.147 34.831,36.147 20.374,-0.001 34.504,-16.102 34.504,-35.819 z" />&#10;		<path
   id="XMLID_57_"
   style="fill:#1a1a1a"
   d="M 728.774,845.711 H 693.778 V 822.38 h 95.295 v 23.331 h -34.996 v 91.68 h -25.302 v -91.68 z" />&#10;		<path
   id="XMLID_59_"
   style="fill:#1a1a1a"
   d="m 796.132,822.38 h 86.752 v 22.508 h -61.613 v 23.331 h 54.219 v 22.51 h -54.219 v 24.152 h 62.434 v 22.51 h -87.573 z" />&#10;		<path
   id="XMLID_61_"
   style="fill:#1a1a1a"
   d="m 925.267,878.899 -38.447,-56.52 h 29.574 l 23.989,37.296 24.481,-37.296 h 28.753 l -38.447,56.191 40.09,58.82 h -29.574 l -25.795,-39.432 -25.96,39.432 h -28.753 z" />&#10;		<path
   id="XMLID_63_"
   style="fill:#1a1a1a"
   d="M 1028.606,845.711 H 993.61 V 822.38 h 95.295 v 23.331 h -34.996 v 91.68 h -25.303 z" />&#10;	</g>&#10;	<g
   id="XMLID_2_">&#10;		<path
   id="XMLID_5_"
   style="fill:#e11b22"
   d="m 211.951,1018.832 v 10.003 h -2.336 v -53.3 h 2.336 v 26.649 c 2.556,-6.133 8.25,-11.025 16.282,-11.025 9.93,0 18.181,7.959 18.181,19.203 v 0.146 c 0,11.171 -8.251,19.203 -18.181,19.203 -8.105,0 -13.8,-4.819 -16.282,-10.879 z m 31.98,-8.251 v -0.146 c 0,-9.711 -6.79,-17.013 -15.917,-17.013 -9.054,0 -16.209,7.448 -16.209,16.94 v 0.146 c 0,9.492 7.228,16.94 16.209,16.94 9.273,0 15.917,-7.01 15.917,-16.867 z" />&#10;		<path
   id="XMLID_12_"
   style="fill:#e11b22"
   d="m 278.766,1013.575 v -21.54 h 2.336 v 21.175 c 0,8.542 4.6,14.311 13.142,14.311 7.74,0 13.873,-6.353 13.873,-14.749 v -20.737 h 2.337 v 36.799 h -2.337 v -8.762 c -1.68,4.381 -6.279,9.638 -14.165,9.638 -9.71,10e-4 -15.186,-6.57 -15.186,-16.135 z" />&#10;		<path
   id="XMLID_14_"
   style="fill:#e11b22"
   d="m 342.512,1024.089 1.388,-1.825 c 4.089,3.212 8.981,5.038 13.727,5.038 5.914,0 10.514,-3.14 10.514,-7.667 v -0.146 c 0,-5.184 -5.549,-6.79 -11.171,-8.324 -6.863,-1.971 -12.778,-3.87 -12.778,-10.003 v -0.146 c 0,-5.476 5.038,-9.638 12.559,-9.638 4.234,0 9.053,1.46 12.923,4.089 l -1.314,1.971 c -3.504,-2.482 -7.812,-3.87 -11.682,-3.87 -6.06,0 -10.076,3.14 -10.076,7.229 v 0.146 c 0,4.6 5.184,6.279 11.171,7.959 6.717,1.825 12.777,3.943 12.777,10.368 v 0.146 c 0,6.06 -5.695,10.076 -13.069,10.076 -5.258,0 -10.953,-2.044 -14.969,-5.403 z" />&#10;		<path
   id="XMLID_16_"
   style="fill:#e11b22"
   d="m 403.923,977.432 h 3.139 v 4.454 h -3.139 z m 0.365,14.603 h 2.409 v 36.799 h -2.409 z" />&#10;		<path
   id="XMLID_19_"
   style="fill:#e11b22"
   d="m 442.623,992.035 h 2.336 v 8.762 c 1.68,-4.381 6.279,-9.638 14.165,-9.638 9.711,0 15.187,6.571 15.187,16.136 v 21.54 h -2.337 v -21.175 c 0,-8.542 -4.6,-14.311 -13.142,-14.311 -7.739,0 -13.873,6.353 -13.873,14.75 v 20.735 h -2.336 z" />&#10;		<path
   id="XMLID_21_"
   style="fill:#e11b22"
   d="m 506.516,1010.435 v -0.146 c 0,-10.806 7.447,-19.13 17.596,-19.13 11.098,0 16.867,9.492 16.867,19.349 v 0.803 h -31.908 c 0.438,10.003 7.52,16.21 15.771,16.21 5.695,0 10.295,-2.994 13.215,-6.791 l 1.753,1.388 c -3.358,4.381 -8.323,7.593 -15.041,7.593 -9.929,0 -18.253,-7.52 -18.253,-19.276 z m 31.907,-1.241 c -0.365,-8.032 -5.257,-15.845 -14.457,-15.845 -8.323,0 -14.457,6.791 -14.895,15.845 z" />&#10;		<path
   id="XMLID_24_"
   style="fill:#e11b22"
   d="m 570.117,1024.089 1.387,-1.825 c 4.089,3.212 8.981,5.038 13.727,5.038 5.914,0 10.514,-3.14 10.514,-7.667 v -0.146 c 0,-5.184 -5.549,-6.79 -11.171,-8.324 -6.863,-1.971 -12.778,-3.87 -12.778,-10.003 v -0.146 c 0,-5.476 5.038,-9.638 12.559,-9.638 4.234,0 9.053,1.46 12.923,4.089 l -1.315,1.971 c -3.504,-2.482 -7.812,-3.87 -11.682,-3.87 -6.06,0 -10.076,3.14 -10.076,7.229 v 0.146 c 0,4.6 5.184,6.279 11.171,7.959 6.717,1.825 12.777,3.943 12.777,10.368 v 0.146 c 0,6.06 -5.695,10.076 -13.069,10.076 -5.255,0 -10.951,-2.044 -14.967,-5.403 z" />&#10;		<path
   id="XMLID_26_"
   style="fill:#e11b22"
   d="m 627.293,1024.089 1.388,-1.825 c 4.089,3.212 8.981,5.038 13.727,5.038 5.914,0 10.514,-3.14 10.514,-7.667 v -0.146 c 0,-5.184 -5.549,-6.79 -11.171,-8.324 -6.863,-1.971 -12.778,-3.87 -12.778,-10.003 v -0.146 c 0,-5.476 5.038,-9.638 12.559,-9.638 4.235,0 9.054,1.46 12.924,4.089 l -1.315,1.971 c -3.504,-2.482 -7.812,-3.87 -11.682,-3.87 -6.06,0 -10.076,3.14 -10.076,7.229 v 0.146 c 0,4.6 5.184,6.279 11.171,7.959 6.717,1.825 12.778,3.943 12.778,10.368 v 0.146 c 0,6.06 -5.695,10.076 -13.07,10.076 -5.257,0 -10.953,-2.044 -14.969,-5.403 z" />&#10;		<path
   id="XMLID_28_"
   style="fill:#e11b22"
   d="m 733.538,1019.416 v -25.262 h -5.622 v -2.118 h 5.622 v -12.34 h 2.336 v 12.34 h 13.362 v 2.118 h -13.362 v 25.043 c 0,5.403 2.848,8.105 7.667,8.105 1.825,0 3.651,-0.438 5.549,-1.315 v 2.264 c -1.825,0.876 -3.724,1.241 -5.768,1.241 -5.914,0 -9.784,-3.432 -9.784,-10.076 z" />&#10;		<path
   id="XMLID_30_"
   style="fill:#e11b22"
   d="m 778.446,1018.467 v -0.146 c 0,-7.667 6.936,-11.829 16.282,-11.829 5.111,0 9.565,0.876 13.143,2.045 v -2.483 c 0,-8.324 -4.965,-12.413 -13.143,-12.413 -4.527,0 -8.324,1.242 -11.974,3.067 l -0.876,-2.044 c 4.088,-1.972 8.104,-3.213 12.996,-3.213 5.038,0 8.981,1.314 11.683,4.016 2.336,2.409 3.651,5.914 3.651,10.441 v 22.927 h -2.337 v -7.667 c -1.898,4.016 -7.009,8.543 -15.479,8.543 -7.083,0 -13.946,-3.797 -13.946,-11.244 z m 29.498,-3.213 v -4.527 c -3.578,-1.168 -7.813,-2.044 -13.289,-2.044 -8.104,0 -13.727,3.431 -13.727,9.492 v 0.146 c 0,6.06 5.476,9.2 11.61,9.2 8.908,0 15.406,-5.696 15.406,-12.267 z" />&#10;		<path
   id="XMLID_33_"
   style="fill:#e11b22"
   d="m 844.237,1035.041 1.388,-1.898 c 4.6,3.505 9.711,5.33 15.406,5.33 9.273,0 15.552,-5.257 15.552,-15.552 v -6.645 c -2.847,5.623 -8.616,9.857 -16.063,9.857 -9.565,0 -17.962,-7.447 -17.962,-17.377 v -0.146 c 0,-10.003 8.397,-17.451 17.962,-17.451 7.447,0 13.216,4.235 16.063,9.711 v -8.835 h 2.41 v 31.178 c 0,5.403 -1.753,9.711 -4.746,12.705 -3.14,3.139 -7.813,4.819 -13.216,4.819 -6.206,-10e-4 -11.756,-1.9 -16.794,-5.696 z m 32.564,-26.285 v -0.146 c 0,-8.543 -7.52,-15.188 -16.063,-15.188 -8.616,0 -15.626,6.426 -15.626,15.115 v 0.146 c 0,8.543 7.083,15.187 15.626,15.187 8.543,0 16.063,-6.571 16.063,-15.114 z" />&#10;		<path
   id="XMLID_36_"
   style="fill:#e11b22"
   d="m 914.922,975.535 h 2.409 v 53.3 h -2.409 z" />&#10;		<path
   id="XMLID_38_"
   style="fill:#e11b22"
   d="m 953.328,977.432 h 3.14 v 4.454 h -3.14 z m 0.367,14.603 h 2.409 v 36.799 h -2.409 z" />&#10;		<path
   id="XMLID_41_"
   style="fill:#e11b22"
   d="m 992.029,992.035 h 2.337 v 8.762 c 1.679,-4.381 6.279,-9.638 14.165,-9.638 9.711,0 15.187,6.571 15.187,16.136 v 21.54 h -2.336 v -21.175 c 0,-8.542 -4.6,-14.311 -13.143,-14.311 -7.74,0 -13.873,6.353 -13.873,14.75 v 20.735 h -2.337 z" />&#10;		<path
   id="XMLID_43_"
   style="fill:#e11b22"
   d="m 1055.923,1010.435 v -0.146 c 0,-10.806 7.448,-19.13 17.597,-19.13 11.098,0 16.866,9.492 16.866,19.349 v 0.803 h -31.907 c 0.439,10.003 7.521,16.21 15.772,16.21 5.695,0 10.295,-2.994 13.216,-6.791 l 1.752,1.388 c -3.359,4.381 -8.324,7.593 -15.041,7.593 -9.931,0 -18.255,-7.52 -18.255,-19.276 z m 31.908,-1.241 c -0.365,-8.032 -5.257,-15.845 -14.457,-15.845 -8.324,0 -14.457,6.791 -14.896,15.845 z" />&#10;	</g>&#10;</g><g
       id="g1"
       transform="matrix(0.26458333,0,0,0.26458333,-319.15892,5.2413237)"><g
         id="OBJECTS">&#10;	&#10;	<g
   id="XMLID_6_-6">&#10;		&#10;		&#10;		&#10;		&#10;			&#10;		&#10;		&#10;		&#10;		<text
   id="XMLID_459_"
   x="177.318"
   y="227.283"><tspan
   style="font-size:7.8741px;font-family:CooperHewitt-Book;letter-spacing:50;fill:#3e3f41"
   id="tspan1">LOGOTYPE - IDENTITY - BRANDING</tspan> </text>&#10;	</g>&#10;	&#10;	<g
   id="XMLID_163_">&#10;		&#10;		&#10;		&#10;		&#10;			&#10;		&#10;			&#10;		<g
   id="XMLID_3628_">&#10;			&#10;			<text
   id="text5"
   x="48.487"
   y="319.166"><tspan
   style="font-size:7.0048px;font-family:CooperHewitt-Book;letter-spacing:50;fill:#3e3f41"
   id="tspan4">LOGO-IDENTITY-BRANDING</tspan> </text>&#10;		</g>&#10;		<g
   id="XMLID_3643_">&#10;			&#10;			<text
   id="text6"
   x="46.227698"
   y="399.36182"><tspan
   style="font-size:7.5748px;font-family:CooperHewitt-Book;letter-spacing:50;fill:#3e3f41"
   id="tspan5">LOGO-IDENTITY-BRANDING</tspan> </text>&#10;		</g>&#10;	</g>&#10;	&#10;	&#10;	&#10;	&#10;	&#10;</g></g></g></svg>
