<?xml version="1.0" encoding="UTF-8" standalone="no"?>
<!-- Created with Inkscape (http://www.inkscape.org/) -->

<svg
   width="661.35553mm"
   height="382.32394mm"
   viewBox="0 0 661.35553 382.32394"
   version="1.1"
   id="svg1"
   xml:space="preserve"
   xmlns:inkscape="http://www.inkscape.org/namespaces/inkscape"
   xmlns:sodipodi="http://sodipodi.sourceforge.net/DTD/sodipodi-0.dtd"
   xmlns="http://www.w3.org/2000/svg"
   xmlns:svg="http://www.w3.org/2000/svg"><sodipodi:namedview
     id="namedview1"
     pagecolor="#ffffff"
     bordercolor="#000000"
     borderopacity="0.25"
     inkscape:showpageshadow="2"
     inkscape:pageopacity="0.0"
     inkscape:pagecheckerboard="0"
     inkscape:deskcolor="#d1d1d1"
     inkscape:document-units="mm" /><defs
     id="defs1"><style
       id="style1">.a{clip-path:url(#b);}.b{fill:#122455;}.c{fill:#00afec;}</style></defs><g
     inkscape:label="Layer 1"
     inkscape:groupmode="layer"
     id="layer1"
     transform="translate(251.85991,121.65895)"><g
       id="g2"
       transform="matrix(1.010995,0,0,1.010995,-251.85991,-121.65895)"><path
         d="M 336.722,104.868 H 231.855 V 0 h 104.867 z"
         fill="#f1511b"
         id="path1-4" /><path
         d="M 452.51,104.868 H 347.642 V 0 H 452.51 Z"
         fill="#80cc28"
         id="path2" /><path
         d="M 336.72,220.693 H 231.855 V 115.828 H 336.72 Z"
         fill="#00adef"
         id="path3" /><path
         d="M 452.51,220.693 H 347.642 V 115.828 H 452.51 Z"
         fill="#fbbc09"
         id="path4" /><path
         d="m 654.158,309.084 v -15.923 h -19.771 v -24.752 l -0.666,0.204 -18.57,5.683 -0.364,0.11 v 18.755 h -29.313 v -10.445 c 0,-4.864 1.088,-8.588 3.229,-11.07 2.131,-2.453 5.176,-3.699 9.06,-3.699 2.793,0 5.686,0.66 8.592,1.955 l 0.729,0.325 v -16.769 l -0.344,-0.127 c -2.717,-0.978 -6.406,-1.468 -10.979,-1.468 -5.767,0 -11.009,1.255 -15.578,3.742 -4.572,2.49 -8.17,6.047 -10.688,10.565 -2.514,4.517 -3.787,9.73 -3.787,15.502 v 11.486 h -13.766 v 15.922 h 13.766 v 67.078 h 19.767 V 309.08 h 29.313 v 42.628 c 0,17.555 8.278,26.452 24.608,26.452 2.688,0 5.51,-0.315 8.396,-0.933 2.936,-0.633 4.936,-1.264 6.108,-1.938 l 0.263,-0.154 v -16.068 l -0.808,0.531 c -1.069,0.715 -2.406,1.299 -3.975,1.732 -1.572,0.442 -2.888,0.663 -3.904,0.663 -3.824,0 -6.651,-1.028 -8.408,-3.063 -1.776,-2.055 -2.68,-5.646 -2.68,-10.664 v -39.188 h 19.771 v 0.006 z m -146.356,52.918 c -7.174,0 -12.83,-2.38 -16.814,-7.066 -4.012,-4.707 -6.043,-11.422 -6.043,-19.951 0,-8.801 2.031,-15.688 6.047,-20.48 3.984,-4.764 9.588,-7.178 16.648,-7.178 6.855,0 12.311,2.309 16.217,6.861 3.93,4.578 5.92,11.414 5.92,20.316 0,9.012 -1.873,15.936 -5.568,20.567 -3.67,4.597 -9.19,6.931 -16.407,6.931 m 0.879,-70.839 c -13.686,0 -24.557,4.01 -32.307,11.921 -7.744,7.909 -11.675,18.856 -11.675,32.538 0,12.994 3.834,23.447 11.396,31.062 7.561,7.619 17.852,11.478 30.582,11.478 13.268,0 23.92,-4.063 31.67,-12.084 7.744,-8.011 11.67,-18.854 11.67,-32.216 0,-13.195 -3.683,-23.729 -10.951,-31.293 -7.267,-7.57 -17.49,-11.406 -30.385,-11.406 m -75.845,0 c -9.31,0 -17.011,2.381 -22.894,7.076 -5.92,4.724 -8.922,10.918 -8.922,18.412 0,3.897 0.647,7.358 1.924,10.295 1.283,2.944 3.27,5.537 5.906,7.715 2.619,2.158 6.66,4.42 12.016,6.72 4.5,1.854 7.857,3.42 9.988,4.653 2.086,1.211 3.563,2.429 4.397,3.613 0.813,1.159 1.228,2.745 1.228,4.704 0,5.574 -4.176,8.287 -12.769,8.287 -3.188,0 -6.821,-0.664 -10.807,-1.976 A 40.67,40.67 0 0 1 401.84,355.05 l -0.82,-0.586 v 19.023 l 0.303,0.143 c 2.797,1.293 6.322,2.381 10.478,3.234 4.147,0.857 7.916,1.296 11.19,1.296 10.103,0 18.236,-2.396 24.173,-7.116 5.975,-4.755 9.002,-11.098 9.002,-18.854 0,-5.596 -1.629,-10.393 -4.843,-14.26 -3.188,-3.838 -8.729,-7.363 -16.45,-10.478 -6.154,-2.471 -10.099,-4.521 -11.724,-6.094 -1.566,-1.521 -2.363,-3.672 -2.363,-6.396 0,-2.412 0.982,-4.347 3.001,-5.914 2.032,-1.571 4.858,-2.373 8.409,-2.373 3.293,0 6.662,0.521 10.015,1.539 3.348,1.021 6.289,2.386 8.744,4.056 l 0.807,0.551 v -18.047 l -0.309,-0.136 c -2.269,-0.972 -5.253,-1.804 -8.882,-2.478 -3.61,-0.659 -6.886,-0.997 -9.735,-0.997 M 349.5,362.002 c -7.172,0 -12.83,-2.38 -16.813,-7.066 -4.012,-4.707 -6.041,-11.42 -6.041,-19.951 0,-8.801 2.031,-15.688 6.044,-20.48 3.984,-4.764 9.584,-7.178 16.65,-7.178 6.852,0 12.307,2.309 16.215,6.861 3.928,4.578 5.92,11.414 5.92,20.316 0,9.012 -1.875,15.936 -5.57,20.567 -3.671,4.597 -9.188,6.931 -16.405,6.931 m 0.88,-70.839 c -13.688,0 -24.56,4.01 -32.304,11.921 -7.746,7.909 -11.678,18.856 -11.678,32.538 0,13 3.838,23.447 11.396,31.062 7.562,7.619 17.852,11.478 30.582,11.478 13.265,0 23.925,-4.063 31.67,-12.084 7.742,-8.011 11.671,-18.854 11.671,-32.216 0,-13.195 -3.685,-23.729 -10.951,-31.293 -7.272,-7.57 -17.497,-11.406 -30.386,-11.406 m -73.984,16.373 v -14.375 h -19.521 v 82.996 h 19.521 v -42.453 c 0,-7.221 1.637,-13.149 4.865,-17.631 3.19,-4.426 7.438,-6.67 12.629,-6.67 1.758,0 3.731,0.291 5.869,0.864 2.116,0.57 3.647,1.188 4.551,1.841 l 0.821,0.594 V 293.02 l -0.315,-0.139 c -1.818,-0.771 -4.391,-1.161 -7.646,-1.161 -4.905,0 -9.297,1.575 -13.059,4.681 -3.299,2.729 -5.686,6.471 -7.512,11.135 z m -54.484,-16.373 c -8.957,0 -16.944,1.92 -23.742,5.707 -6.809,3.793 -12.073,9.214 -15.657,16.103 -3.564,6.871 -5.377,14.897 -5.377,23.852 0,7.844 1.756,15.037 5.227,21.382 3.475,6.353 8.389,11.321 14.609,14.771 6.211,3.443 13.395,5.188 21.344,5.188 9.277,0 17.199,-1.856 23.551,-5.515 l 0.256,-0.146 v -17.887 l -0.819,0.6 a 36.687,36.687 0 0 1 -9.554,4.976 c -3.451,1.202 -6.596,1.813 -9.354,1.813 -7.66,0 -13.812,-2.396 -18.275,-7.123 -4.475,-4.732 -6.742,-11.375 -6.742,-19.738 0,-8.414 2.365,-15.227 7.029,-20.256 4.646,-5.017 10.81,-7.56 18.312,-7.56 6.416,0 12.67,2.173 18.586,6.466 l 0.817,0.594 v -18.85 l -0.266,-0.147 c -2.226,-1.246 -5.262,-2.275 -9.031,-3.056 -3.754,-0.781 -7.426,-1.174 -10.914,-1.174 m -58.224,1.998 h -19.523 v 82.996 h 19.523 z m -9.563,-35.353 c -3.213,0 -6.014,1.093 -8.315,3.261 -2.313,2.176 -3.486,4.912 -3.486,8.141 0,3.179 1.16,5.867 3.449,7.98 2.274,2.109 5.086,3.18 8.354,3.18 3.271,0 6.093,-1.067 8.394,-3.176 2.317,-2.117 3.492,-4.808 3.492,-7.984 0,-3.116 -1.142,-5.823 -3.396,-8.053 -2.254,-2.224 -5.11,-3.349 -8.492,-3.349 m -48.709,29.232 v 89.117 h 19.925 V 260.349 H 97.765 L 62.715,346.37 28.699,260.349 H 0 V 376.158 H 18.725 V 287.03 h 0.643 l 35.919,89.127 h 14.129 l 35.358,-89.116 z"
         fill="#706d6e"
         id="path5" /></g></g></svg>
