<?xml version="1.0" encoding="UTF-8" standalone="no"?>
<!-- Created with Inkscape (http://www.inkscape.org/) -->

<svg
   width="458.27579mm"
   height="306.76904mm"
   viewBox="0 0 458.27579 306.76904"
   version="1.1"
   id="svg1"
   xml:space="preserve"
   xmlns:inkscape="http://www.inkscape.org/namespaces/inkscape"
   xmlns:sodipodi="http://sodipodi.sourceforge.net/DTD/sodipodi-0.dtd"
   xmlns="http://www.w3.org/2000/svg"
   xmlns:svg="http://www.w3.org/2000/svg"><sodipodi:namedview
     id="namedview1"
     pagecolor="#ffffff"
     bordercolor="#000000"
     borderopacity="0.25"
     inkscape:showpageshadow="2"
     inkscape:pageopacity="0.0"
     inkscape:pagecheckerboard="0"
     inkscape:deskcolor="#d1d1d1"
     inkscape:document-units="mm" /><defs
     id="defs1"><style
       id="style1">.a{clip-path:url(#b);}.b{fill:#122455;}.c{fill:#00afec;}</style></defs><g
     inkscape:label="Layer 1"
     inkscape:groupmode="layer"
     id="layer1"
     transform="translate(135.79009,36.586551)"><g
       transform="matrix(0.26458333,0,0,0.26458333,-152.69087,-48.388821)"
       id="g19"
       clip-path="url(#clipPath20)"
       inkscape:export-filename="paytm.svg"
       inkscape:export-xdpi="8.3137712"
       inkscape:export-ydpi="8.3137712"><g
         transform="translate(66.995,890.675)"
         id="g8"><path
           class="b"
           d="m 64.16,123.161 h 90.477 q 61.839,0 89.773,17.6 27.956,17.6 27.939,55.977 0,26.04 -12.219,42.756 a 48.911,48.911 0 0 1 -32.519,20.079 v 1.993 q 27.642,6.159 39.872,23.052 12.219,16.925 12.23,44.947 0,39.779 -28.732,62.032 -28.732,22.292 -78.049,22.281 H 64.16 Z M 125.807,238.3 h 35.8 q 25.033,0 36.283,-7.761 11.228,-7.744 11.229,-25.649 0,-16.694 -12.219,-23.954 -12.236,-7.265 -38.683,-7.265 h -32.41 z m 0,48.921 v 75.759 h 40.169 q 25.446,0 37.571,-9.742 12.125,-9.742 12.143,-29.838 0,-36.179 -51.706,-36.184 z"
           transform="translate(-64.16,-104.48)"
           id="path1-2" /><path
           class="b"
           d="m 247.158,351.688 -8.168,-28.435 h -3.181 q -9.726,15.505 -27.631,23.954 -17.883,8.455 -40.764,8.454 -39.184,0 -59.06,-20.971 Q 88.473,313.7 88.473,274.333 V 129.375 h 60.645 v 129.843 q 0,24.059 8.553,36.1 8.537,12.021 27.235,12.021 25.462,0 36.79,-17 11.344,-16.991 11.328,-56.374 v -104.59 h 60.656 v 222.313 z"
           transform="translate(179.173,-42.288)"
           id="path2-7" /><path
           class="b"
           d="m 280.281,289.464 q 0,34.2 -23.767,52.091 -23.745,17.9 -71.081,17.9 -24.273,0 -41.358,-3.281 a 156.546,156.546 0 0 1 -32.012,-9.643 v -50.11 a 211,211 0 0 0 38.078,13.32 q 21.169,5.383 37.285,5.372 33.008,0 33,-19.088 A 15.907,15.907 0 0 0 216.045,284.4 c -2.906,-2.994 -7.948,-6.363 -15.1,-10.15 -7.152,-3.787 -16.7,-8.179 -28.633,-13.221 q -25.661,-10.75 -37.682,-19.881 -12.038,-9.148 -17.5,-20.982 -5.462,-11.834 -5.46,-29.139 0,-29.623 22.963,-45.828 22.963,-16.205 65.122,-16.199 a 185.016,185.016 0 0 1 78.145,17.488 l -18.3,43.747 q -16.694,-7.15 -31.22,-11.735 a 98.284,98.284 0 0 0 -29.623,-4.568 q -26.849,0 -26.838,14.52 0,8.157 8.653,14.113 8.636,5.961 37.869,17.69 26.057,10.552 38.188,19.7 12.12,9.131 17.889,21.07 5.774,11.927 5.763,28.439 z"
           transform="translate(411.296,-46.081)"
           id="path3-4" /><path
           class="b"
           d="m 131.048,151.087 q 0,-29.624 33,-29.624 33,0 33.014,29.624 0,14.118 -8.256,21.973 -8.256,7.855 -24.758,7.86 -33.006,0 -33,-29.833 z M 194.28,430.864 H 133.624 V 208.551 h 60.656 z"
           transform="translate(605.278,-121.464)"
           id="path4-0" /><path
           class="b"
           d="M 347.788,355.482 H 287.132 V 225.638 q 0,-24.059 -8.542,-36.1 -8.554,-12.021 -27.246,-12.021 -25.462,0 -36.79,17 -11.328,17 -11.328,56.374 v 104.59 H 142.571 V 133.168 h 46.334 l 8.146,28.434 h 3.391 a 64.125,64.125 0 0 1 27.939,-24.361 Q 246.165,129 268.848,129 q 38.771,0 58.862,20.982 20.063,20.971 20.079,60.546 z"
           transform="translate(720.604,-46.081)"
           id="path5-0" /><path
           class="b"
           d="m 279.79,359.455 q -53.7,0 -83.917,-29.623 -30.217,-29.623 -30.218,-83.917 0,-55.862 27.928,-86.394 27.957,-30.531 77.258,-30.521 47.127,0 73.371,26.849 26.255,26.833 26.255,74.163 v 29.425 H 227.093 q 1.007,25.842 15.313,40.367 14.306,14.525 40.169,14.509 a 166.709,166.709 0 0 0 37.979,-4.172 190.424,190.424 0 0 0 37.384,-13.309 v 46.917 a 141.949,141.949 0 0 1 -34,11.823 q -18.102,3.894 -44.148,3.883 z m -8.554,-187.318 q -19.287,0 -30.218,12.241 -10.931,12.219 -12.527,34.687 H 313.6 q -0.413,-22.457 -11.735,-34.687 -11.33,-12.251 -30.628,-12.24 z"
           transform="translate(951.646,-46.081)"
           id="path6" /><path
           class="b"
           d="m 356.128,289.464 q 0,34.2 -23.767,52.091 -23.767,17.891 -71.081,17.9 -24.273,0 -41.358,-3.281 a 156.553,156.553 0 0 1 -32.012,-9.643 v -50.11 a 210.709,210.709 0 0 0 38.078,13.32 q 21.169,5.383 37.274,5.372 33.009,0 33.014,-19.088 A 15.908,15.908 0 0 0 291.895,284.4 c -2.917,-2.994 -7.959,-6.363 -15.1,-10.15 -7.141,-3.787 -16.711,-8.179 -28.644,-13.221 q -25.644,-10.75 -37.67,-19.881 -12.038,-9.148 -17.5,-20.982 -5.462,-11.834 -5.46,-29.139 0,-29.623 22.963,-45.828 Q 233.447,128.994 275.6,129 a 185.006,185.006 0 0 1 78.137,17.492 l -18.3,43.747 q -16.711,-7.15 -31.22,-11.735 a 98.339,98.339 0 0 0 -29.624,-4.568 q -26.849,0 -26.849,14.52 0,8.157 8.653,14.113 8.653,5.956 37.88,17.69 26.056,10.552 38.188,19.7 12.12,9.131 17.889,21.07 5.768,11.923 5.774,28.435 z"
           transform="translate(1170.398,-46.081)"
           id="path7" /><path
           class="b"
           d="m 374.526,289.464 q 0,34.2 -23.767,52.091 -23.767,17.891 -71.081,17.9 -24.274,0 -41.358,-3.281 a 156.86,156.86 0 0 1 -32.023,-9.643 v -50.11 a 211,211 0 0 0 38.078,13.32 q 21.185,5.383 37.285,5.372 33.008,0 33,-19.088 A 15.945,15.945 0 0 0 310.29,284.4 c -2.917,-2.994 -7.959,-6.363 -15.1,-10.15 q -10.75,-5.664 -28.644,-13.221 -25.66,-10.75 -37.682,-19.881 -12.021,-9.148 -17.5,-20.982 -5.465,-11.823 -5.46,-29.139 0,-29.623 22.963,-45.828 Q 251.83,128.994 293.989,129 a 185.016,185.016 0 0 1 78.148,17.492 l -18.3,43.747 q -16.711,-7.15 -31.219,-11.735 a 98.356,98.356 0 0 0 -29.635,-4.568 q -26.849,0 -26.838,14.52 0,8.157 8.653,14.113 8.653,5.956 37.88,17.69 26.057,10.552 38.177,19.7 12.137,9.131 17.889,21.07 5.782,11.923 5.782,28.435 z"
           transform="translate(1354.422,-46.081)"
           id="path8" /></g><g
         transform="translate(800.788,680.735)"
         id="g11"><path
           class="b"
           d="M 191.705,158.4 H 169.9 v 73.44 H 144.7 V 158.4 h -13.882 v -12.139 l 13.882,-6.77 v -6.781 q 0,-15.769 7.761,-23.041 7.778,-7.282 24.868,-7.276 a 64.664,64.664 0 0 1 23.206,3.886 l -6.44,18.505 a 46.918,46.918 0 0 0 -14.036,-2.389 c -3.578,0 -6.176,1.046 -7.772,3.17 A 13.164,13.164 0 0 0 169.9,133.7 v 5.79 h 21.807 z"
           transform="translate(-130.818,-102.393)"
           id="path9" /><path
           class="b"
           d="m 226.7,153.348 q 0,22.556 -11.9,35.271 -11.9,12.731 -33.119,12.736 A 46.375,46.375 0 0 1 158.211,195.521 38.72,38.72 0 0 1 142.6,178.8 q -5.449,-10.9 -5.449,-25.451 0,-22.622 11.823,-35.183 11.79,-12.566 33.2,-12.56 a 46.481,46.481 0 0 1 23.459,5.79 38.479,38.479 0 0 1 15.61,16.6 q 5.451,10.816 5.457,25.352 z m -63.859,0 q 0,13.722 4.491,20.74 c 3.016,4.678 7.893,7.023 14.674,7.023 q 10.073,0 14.5,-6.979 4.409,-6.985 4.414,-20.784 0,-13.705 -4.458,-20.564 -4.458,-6.859 -14.619,-6.858 -10.073,0 -14.531,6.814 -4.472,6.82 -4.467,20.608 z"
           transform="translate(-67.425,-70.246)"
           id="path10" /><path
           class="b"
           d="m 198.718,105.6 a 40.666,40.666 0 0 1 8.521,0.748 l -1.9,23.624 a 28.373,28.373 0 0 0 -7.431,-0.826 q -12.054,0 -18.8,6.187 -6.721,6.192 -6.726,17.36 v 46.995 h -25.2 v -92.344 h 19.077 l 3.721,15.533 h 1.244 a 34.646,34.646 0 0 1 11.6,-12.516 28.615,28.615 0 0 1 15.894,-4.761 z"
           transform="translate(32.908,-70.246)"
           id="path11" /></g><rect
         class="b"
         width="599.01001"
         height="42.140999"
         transform="translate(63.877,761.207)"
         id="rect11"
         x="0"
         y="0" /><rect
         class="c"
         width="599.01001"
         height="42.140999"
         transform="translate(63.877,720.916)"
         id="rect12"
         x="0"
         y="0" /><rect
         class="b"
         width="599.01001"
         height="42.140999"
         transform="translate(1195.951,761.207)"
         id="rect13"
         x="0"
         y="0" /><rect
         class="c"
         width="599.01001"
         height="42.140999"
         transform="translate(1195.951,720.916)"
         id="rect14"
         x="0"
         y="0" /><g
         transform="translate(66.18,44.607)"
         id="g18"><path
           class="c"
           d="M 639.111,128.865 A 114.7,114.7 0 0 0 530.855,52.093 h -1.035 a 114.343,114.343 0 0 0 -82.72,35.26 114.331,114.331 0 0 0 -82.695,-35.26 h -1.035 a 114.3,114.3 0 0 0 -74.8,27.774 V 71.093 A 16.89,16.89 0 0 0 271.76,55.384 h -76.725 a 16.97,16.97 0 0 0 -16.953,17 v 416.762 a 16.951,16.951 0 0 0 16.953,16.975 h 76.728 a 16.949,16.949 0 0 0 16.744,-14.674 l -0.044,-299.13 c 0,-1.013 0.044,-2.015 0.11,-3.005 1.277,-13.364 11.019,-24.328 26.464,-25.693 h 14.179 a 29.409,29.409 0 0 1 16.171,6.253 28.225,28.225 0 0 1 10.413,22.445 l 0.286,297.676 a 16.984,16.984 0 0 0 16.964,16.987 h 76.728 a 16.959,16.959 0 0 0 16.9,-16.171 l -0.066,-298.865 a 28.085,28.085 0 0 1 12.505,-23.976 30.287,30.287 0 0 1 14.1,-4.745 h 14.157 c 16.568,1.475 26.618,14.025 26.574,28.721 l 0.308,297.269 a 16.951,16.951 0 0 0 16.953,16.975 h 76.728 a 16.972,16.972 0 0 0 16.986,-16.975 V 169.475 c 0,-21.786 -2.5,-31.066 -5.812,-40.61"
           transform="translate(1076.825,30.315)"
           id="path14" /><path
           class="c"
           d="M 368.825,131.43 H 324.946 V 60.316 h -0.022 l 0.022,-0.132 a 15.509,15.509 0 0 0 -15.489,-15.577 13.844,13.844 0 0 0 -2.917,0.33 c -48.69,13.331 -38.9,80.735 -127.752,86.492 h -8.642 a 16.673,16.673 0 0 0 -3.71,0.429 h -0.022 a 16.959,16.959 0 0 0 -13.232,16.5 v 76.75 a 16.991,16.991 0 0 0 16.965,16.992 h 46.323 l -0.044,325.373 a 16.779,16.779 0 0 0 16.744,16.81 h 75.869 a 16.81,16.81 0 0 0 16.788,-16.81 L 325.849,242.1 h 42.977 a 16.958,16.958 0 0 0 16.942,-16.986 v -76.75 a 16.932,16.932 0 0 0 -16.942,-16.931"
           transform="translate(827.627,-44.607)"
           id="path15" /><path
           class="b"
           d="M 395.649,52.494 H 318.92 a 16.965,16.965 0 0 0 -16.964,16.931 v 158.707 a 17.954,17.954 0 0 1 -17.944,17.7 H 251.869 A 17.975,17.975 0 0 1 233.9,227.846 L 233.57,69.425 A 16.951,16.951 0 0 0 216.606,52.494 H 139.9 a 16.955,16.955 0 0 0 -16.986,16.931 v 173.91 c 0,66.094 47.116,113.133 113.2,113.133 0,0 49.593,0.022 51.123,0.308 a 17.872,17.872 0 0 1 0.22,35.5 c -0.4,0.066 -0.815,0.154 -1.277,0.22 l -112.23,0.418 A 16.965,16.965 0 0 0 157,409.891 V 486.6 a 16.97,16.97 0 0 0 16.953,16.964 h 125.461 c 66.116,0 113.2,-47.083 113.2,-113.155 V 69.425 A 16.937,16.937 0 0 0 395.65,52.494"
           transform="translate(524.715,34.329)"
           id="path16" /><path
           class="b"
           d="M 248.454,52.492 H 80.72 A 16.638,16.638 0 0 0 64.086,69.148 v 75.143 a 1.013,1.013 0 0 0 0.044,0.286 c 0,0.528 -0.044,0.881 -0.044,1.255 v 340.245 c 0,9.258 6.935,16.766 15.511,17.008 h 78.181 a 16.96,16.96 0 0 0 16.975,-16.964 l 0.286,-116.644 h 73.415 c 61.438,0 104.271,-42.58 104.271,-104.3 V 156.95 c 0,-61.691 -42.833,-104.458 -104.271,-104.458 m -6.737,140.62 v 47.347 a 18,18 0 0 1 -17.966,18 l -48.712,0.044 v -94.926 h 48.712 a 17.984,17.984 0 0 1 17.966,18 z"
           transform="translate(-64.086,34.309)"
           id="path17" /><path
           class="b"
           d="M 260.951,52.532 H 154.5 c -9.412,0 -17.074,7.155 -17.074,15.929 v 29.822 l 0.066,0.605 c -0.022,0.2 -0.066,0.4 -0.066,0.4 v 41.127 c 0,9.3 8.113,16.865 18.1,16.865 L 256.9,157.3 a 17.582,17.582 0 0 1 15.247,16.215 v 9.874 c -0.925,8.708 -7.177,15.048 -14.828,15.775 h -50.187 c -66.787,0 -114.377,44.364 -114.377,106.638 v 89.278 c 0,61.922 40.9,105.977 107.2,105.977 h 139.178 c 24.967,0 45.2,-18.89 45.2,-42.195 V 167.723 c 0,-70.607 -36.4,-115.191 -123.381,-115.191 m 12.23,320.321 v 11.977 a 14.737,14.737 0 0 1 -0.33,2.829 13.437,13.437 0 0 1 -0.7,2.488 v 0.022 a 17.915,17.915 0 0 1 -17.074,11.537 h -31.929 c -9.984,0 -18.076,-7.552 -18.076,-16.876 v -14.476 l -0.044,-0.528 0.044,-38.529 v -12.132 c 0.044,-9.28 8.135,-16.81 18.076,-16.81 h 31.924 c 9.984,0 18.109,7.574 18.109,16.9 z"
           transform="translate(222.843,34.709)"
           id="path18" /></g></g></g></svg>
