<?xml version="1.0" encoding="UTF-8" standalone="no"?>
<!-- Created with Inkscape (http://www.inkscape.org/) -->

<svg
   width="29.538082mm"
   height="31.212631mm"
   viewBox="0 0 29.538082 31.212631"
   version="1.1"
   id="svg1"
   xml:space="preserve"
   xmlns:inkscape="http://www.inkscape.org/namespaces/inkscape"
   xmlns:sodipodi="http://sodipodi.sourceforge.net/DTD/sodipodi-0.dtd"
   xmlns="http://www.w3.org/2000/svg"
   xmlns:svg="http://www.w3.org/2000/svg"><sodipodi:namedview
     id="namedview1"
     pagecolor="#ffffff"
     bordercolor="#000000"
     borderopacity="0.25"
     inkscape:showpageshadow="2"
     inkscape:pageopacity="0.0"
     inkscape:pagecheckerboard="0"
     inkscape:deskcolor="#d1d1d1"
     inkscape:document-units="mm" /><defs
     id="defs1" /><g
     inkscape:label="Layer 1"
     inkscape:groupmode="layer"
     id="layer1"
     transform="translate(-48.909024,-61.142439)"><g
       id="g1"
       transform="matrix(0.26458333,0,0,0.26458333,37.392165,52.797472)"><g
         id="BACKGROUND">&#10;	<rect
   style="fill:#ffffff"
   width="500"
   height="500"
   id="rect1"
   x="0"
   y="0" />&#10;</g><g
         id="OBJECTS">&#10;	<g
   id="g106">&#10;		<g
   id="g10"
   transform="translate(6.0932915,0.67703239)">&#10;			<circle
   style="fill:#fce8e3"
   cx="93.254997"
   cy="93.012001"
   r="55.82"
   id="circle1" />&#10;			<g
   id="g9">&#10;				<rect
   x="78.487999"
   y="85.660004"
   style="fill:#e2988f"
   width="29.533001"
   height="33.358002"
   id="rect2" />&#10;				<g
   id="g8">&#10;					<path
   style="fill:#e2988f"
   d="m 122.178,62.243 c -1.629,-3.895 -4.958,-1.983 -4.958,-1.983 1.922,-17.708 -7.082,-29.397 -23.966,-29.397 -16.884,0 -25.887,11.689 -23.965,29.398 0,0 -3.328,-1.912 -4.958,1.983 -1.629,3.895 1.346,13.032 3.187,15.935 1.842,2.904 5.099,5.099 5.099,5.099 0,0 0.213,3.258 1.062,5.524 0.85,2.266 10.482,12.687 13.315,14.281 3.714,2.186 9.186,2.186 12.52,0 2.833,-1.593 12.465,-12.014 13.315,-14.281 0.85,-2.267 1.062,-5.524 1.062,-5.524 0,0 3.258,-2.196 5.099,-5.099 1.842,-2.904 4.817,-12.04 3.188,-15.936 z"
   id="path2" />&#10;					<g
   id="g6">&#10;						<path
   style="fill:#c46966"
   d="m 93.402,105.088 c -2.32,0 -4.691,-0.56 -6.598,-1.682 -1.715,-0.964 -5.659,-4.911 -8.595,-8.169 l 0.557,-0.502 c 2.989,3.315 6.838,7.135 8.412,8.021 3.593,2.114 8.919,2.119 12.13,0.013 1.597,-0.899 5.445,-4.718 8.435,-8.034 l 0.557,0.502 c -2.936,3.258 -6.88,7.205 -8.602,8.172 -1.704,1.118 -3.974,1.679 -6.296,1.679 z"
   id="path3" />&#10;						&#10;							<rect
   x="71.775002"
   y="75.653999"
   transform="matrix(0.9925,-0.1224,0.1224,0.9925,-9.1835,9.426)"
   style="fill:#c46966"
   width="0.75"
   height="7.6529999"
   id="rect3" />&#10;						&#10;							<rect
   x="110.524"
   y="79.105003"
   transform="matrix(0.1106,-0.9939,0.9939,0.1106,22.7103,184.3371)"
   style="fill:#c46966"
   width="7.6430001"
   height="0.75099999"
   id="rect4" />&#10;						<g
   id="g5">&#10;							<path
   style="fill:#c46966"
   d="m 66.507,71.001 c -0.157,-0.574 -1.484,-5.649 0.348,-7.038 0.605,-0.395 1.1,-0.354 1.413,-0.252 0.933,0.303 1.397,1.455 1.448,1.586 l -0.7,0.269 c -0.103,-0.263 -0.477,-0.979 -0.981,-1.142 -0.229,-0.076 -0.477,-0.025 -0.749,0.153 -1.055,0.801 -0.597,4.246 -0.056,6.226 z"
   id="path4" />&#10;							<path
   style="fill:#c46966"
   d="m 120.002,71.001 -0.723,-0.198 c 0.541,-1.98 1,-5.425 -0.077,-6.242 -0.252,-0.163 -0.497,-0.212 -0.729,-0.137 -0.602,0.195 -0.976,1.132 -0.979,1.141 l -0.701,-0.269 c 0.051,-0.13 0.516,-1.283 1.448,-1.586 0.313,-0.102 0.809,-0.142 1.391,0.237 1.854,1.404 0.527,6.479 0.37,7.054 z"
   id="path5" />&#10;						</g>&#10;					</g>&#10;					<g
   id="g7">&#10;						<path
   style="fill:#4c224b"
   d="m 71.682,69.574 c 5.011,0.026 1.221,-16.143 5.152,-20.056 1.998,-1.988 4.915,-1.665 7.415,-1.027 2.913,0.743 5.921,1.746 8.995,1.827 3.254,0.086 6.339,-1.106 9.459,-1.862 2.421,-0.586 5.054,-0.846 6.971,1.063 3.931,3.913 0.142,20.082 5.152,20.056 -0.347,-3.738 -0.357,-7.835 2.393,-9.313 l 0.002,-0.004 c 1.921,-17.707 -7.084,-29.393 -23.966,-29.393 -16.883,0 -25.888,11.689 -23.966,29.397 v 0 c 2.233,1.45 2.744,5.4 2.393,9.312 z"
   id="path6" />&#10;					</g>&#10;				</g>&#10;				<path
   style="fill:#f4ba5d"
   d="m 140.961,122.007 c -15.761,-7.032 -32.94,-9.525 -32.94,-9.525 -7.883,8.219 -22.565,8.335 -29.533,0 0,0 -17.179,2.493 -32.94,9.525 9.796,16.084 27.497,26.825 47.707,26.825 20.21,0 37.91,-10.741 47.706,-26.825 z"
   id="path8" />&#10;				<polygon
   style="fill:#ffffff"
   points="91.407,117.49 83.503,126.152 74.498,113.05 78.488,105.893 "
   id="polygon8" />&#10;				<polygon
   style="fill:#ffffff"
   points="95.086,117.49 102.991,126.152 111.996,113.05 108.006,105.893 "
   id="polygon9" />&#10;			</g>&#10;		</g>&#10;		<g
   id="g20">&#10;			&#10;				<circle
   transform="matrix(0.2298,-0.9732,0.9732,0.2298,-50.7504,435.874)"
   style="fill:#fce8e3"
   cx="250"
   cy="250"
   id="ellipse10"
   r="55.82" />&#10;			<g
   id="g19">&#10;				<rect
   x="233.45399"
   y="242.64799"
   style="fill:#e2988f"
   width="33.091"
   height="33.358002"
   id="rect10" />&#10;				<g
   id="g18">&#10;					<path
   style="fill:#e2988f"
   d="m 278.923,219.231 c -1.629,-3.895 -4.958,-1.983 -4.958,-1.983 1.922,-17.708 -7.082,-29.397 -23.966,-29.397 -16.884,0 -25.888,11.689 -23.966,29.397 0,0 -3.329,-1.912 -4.958,1.983 -1.629,3.895 1.346,13.031 3.187,15.935 1.842,2.904 5.099,2.218 5.099,2.218 0,0 0.213,6.139 1.063,8.405 0.85,2.266 6.767,15.919 19.575,15.919 12.808,0 18.725,-13.653 19.575,-15.919 0.85,-2.267 1.062,-8.655 1.062,-8.655 0,0 3.258,0.935 5.099,-1.968 1.843,-2.903 4.817,-12.039 3.188,-15.935 z"
   id="path10" />&#10;					<path
   style="fill:#c46966"
   d="m 250,262.084 c -8.05,0 -15.493,-8.637 -16.903,-10.368 l 0.582,-0.474 c 1.372,1.685 8.61,10.092 16.321,10.092 7.768,0 14.906,-8.28 16.258,-9.94 l 0.582,0.474 c -1.39,1.705 -8.734,10.216 -16.84,10.216 z"
   id="path11" />&#10;					&#10;						<rect
   x="228.83099"
   y="232.66499"
   transform="matrix(0.9978,-0.0666,0.0666,0.9978,-15.1342,15.776)"
   style="fill:#c46966"
   width="0.75"
   height="4.7249999"
   id="rect11" />&#10;					&#10;						<rect
   x="268.57599"
   y="234.52699"
   transform="matrix(0.0794,-0.9968,0.9968,0.0794,15.1453,486.205)"
   style="fill:#c46966"
   width="4.4790001"
   height="0.75"
   id="rect12" />&#10;					<path
   style="fill:#c46966"
   d="m 223.291,228.019 c -1.082,-4.157 -0.912,-6.712 0.533,-8.041 l 0.508,0.552 c -1.202,1.106 -1.306,3.494 -0.314,7.301 z"
   id="path12" />&#10;					<path
   style="fill:#c46966"
   d="m 276.878,228.019 -0.727,-0.188 c 0.991,-3.808 0.889,-6.196 -0.315,-7.3 l 0.508,-0.553 c 1.446,1.328 1.616,3.883 0.534,8.041 z"
   id="path13" />&#10;					<path
   style="fill:#f4ba5d"
   d="m 277.202,200.772 c -6.251,-5.05 -12.495,-10.081 -17.321,-11.314 -2.899,-1.051 -6.202,-1.606 -9.881,-1.606 -11.475,0 -21.075,3.532 -22.55,14.42 -5.231,2.207 -4.266,10.736 -3.16,14.51 0,0 0.887,-0.017 1.744,0.467 v 0 c 2.234,1.452 2.744,5.402 2.393,9.313 5.011,0.026 1.222,-16.143 5.152,-20.056 14.875,9.372 34.732,4.431 34.732,4.431 0.562,6.104 -0.262,15.643 3.259,15.625 -0.347,-3.738 -0.357,-7.835 2.393,-9.313 l 0.002,-0.004 c 0.384,-3.544 0.324,-6.842 -0.142,-9.857 1.737,-1.635 3.246,-3.831 3.379,-6.616 z"
   id="path14" />&#10;					<g
   id="g17">&#10;						<path
   style="fill:#ffffff"
   d="m 237.193,237.217 c -5.72,0 -10.373,-4.653 -10.373,-10.373 0,-5.72 4.653,-10.373 10.373,-10.373 5.72,0 10.373,4.653 10.373,10.373 0,5.72 -4.653,10.373 -10.373,10.373 z m 0,-19.996 c -5.307,0 -9.623,4.317 -9.623,9.623 0,5.306 4.316,9.623 9.623,9.623 5.307,0 9.623,-4.317 9.623,-9.623 0,-5.306 -4.316,-9.623 -9.623,-9.623 z"
   id="path15" />&#10;						<path
   style="fill:#ffffff"
   d="m 262.806,237.217 c -5.72,0 -10.373,-4.653 -10.373,-10.373 0,-5.72 4.653,-10.373 10.373,-10.373 5.72,0 10.373,4.653 10.373,10.373 0.001,5.72 -4.653,10.373 -10.373,10.373 z m 0,-19.996 c -5.307,0 -9.623,4.317 -9.623,9.623 0,5.306 4.316,9.623 9.623,9.623 5.307,0 9.623,-4.317 9.623,-9.623 0.001,-5.306 -4.316,-9.623 -9.623,-9.623 z"
   id="path16" />&#10;						<path
   style="fill:#ffffff"
   d="m 252.875,224.601 c -1.061,-0.983 -2.284,-1.466 -3.435,-1.357 -0.916,0.085 -1.701,0.537 -2.269,1.306 l -0.604,-0.446 c 0.688,-0.931 1.684,-1.502 2.802,-1.607 1.362,-0.13 2.794,0.423 4.015,1.555 z"
   id="path17" />&#10;					</g>&#10;				</g>&#10;				<path
   style="fill:#94a5e4"
   d="m 297.707,278.994 c -15.761,-7.032 -31.123,-9.525 -31.123,-9.525 -7.883,8.219 -26.162,8.335 -33.129,0 0,0 -15.4,2.493 -31.161,9.525 9.796,16.084 27.496,26.826 47.706,26.826 20.21,0 37.91,-10.742 47.707,-26.826 z"
   id="path18" />&#10;				<path
   style="fill:#6c82bc"
   d="m 249.472,280.521 c -9.141,0 -17.065,-3.757 -22.123,-9.62 l 0.568,-0.49 c 9.124,10.577 27.861,14.099 46.018,0.365 l 0.453,0.598 c -8.509,6.435 -17.152,9.147 -24.916,9.147 z"
   id="path19" />&#10;			</g>&#10;		</g>&#10;		<g
   id="g34">&#10;			<circle
   style="fill:#fce8e3"
   cx="250.021"
   cy="93.012001"
   r="55.82"
   id="circle20" />&#10;			<g
   id="g33">&#10;				<path
   style="fill:#4c224b"
   d="m 282.525,88.537 c 3.946,-22.979 -5.518,-52.197 -31.539,-53.864 -8.303,-0.532 -16.414,2.52 -20.602,8.405 -14.361,5.66 -15.568,30.879 -13.963,39.559 4.398,23.796 -16.813,19.702 -11.426,42.041 l 44.335,-2.442 h 1.7 l 43.544,0.56 c 3.669,-16.855 -13.837,-15.718 -12.049,-34.259 z"
   id="path20" />&#10;				<rect
   x="236.92599"
   y="85.660004"
   style="fill:#e2988f"
   width="26.148001"
   height="33.358002"
   id="rect20" />&#10;				<g
   id="g21">&#10;					<path
   style="fill:#d85d63"
   d="m 297.996,121.547 c -12.307,-5.172 -34.765,-9.065 -34.765,-9.065 -8.623,7.255 -19.523,7.208 -26.305,0 0,0 -22.736,3.366 -35.57,7.863 9.171,16.293 26.274,27.519 46.08,28.422 0.887,0.027 1.771,0.063 2.667,0.063 20.365,-0.029 38.167,-10.968 47.893,-27.283 z"
   id="path21" />&#10;				</g>&#10;				<g
   id="g32">&#10;					<path
   style="fill:#ffffff"
   d="m 273.145,81.631 c -0.975,0 -1.765,1.406 -1.765,3.141 0,1.735 0.79,3.141 1.765,3.141 0.975,0 1.765,-1.406 1.765,-3.141 0,-1.735 -0.791,-3.141 -1.765,-3.141 z m 0,4.906 c -0.67,0 -1.214,-0.967 -1.214,-2.161 0,-1.194 0.544,-2.162 1.214,-2.162 0.671,0 1.214,0.968 1.214,2.162 0,1.194 -0.543,2.161 -1.214,2.161 z"
   id="path22" />&#10;					<path
   style="fill:#ffffff"
   d="m 225.004,84.772 c 0,1.735 0.79,3.141 1.765,3.141 0.975,0 1.765,-1.406 1.765,-3.141 0,-1.735 -0.79,-3.141 -1.765,-3.141 -0.975,0 -1.765,1.406 -1.765,3.141 z m 0.55,-0.396 c 0,-1.194 0.544,-2.162 1.214,-2.162 0.67,0 1.214,0.968 1.214,2.162 0,1.194 -0.544,2.161 -1.214,2.161 -0.67,0 -1.214,-0.967 -1.214,-2.161 z"
   id="path23" />&#10;					<g
   id="g24">&#10;						<path
   style="fill:#e2988f"
   d="m 249.968,45.266 v 0 0 0 0 c -16.856,0.019 -20.69,12.644 -20.337,25.353 -0.001,9.164 -0.055,15.916 0.795,18.183 0.849,2.264 6.758,15.895 19.543,15.918 v 0 0 0 0 c 12.784,-0.023 18.693,-13.654 19.542,-15.918 0.85,-2.267 0.796,-9.019 0.795,-18.183 0.352,-12.709 -3.482,-25.333 -20.338,-25.353 z"
   id="path24" />&#10;					</g>&#10;					<g
   id="g25">&#10;						<path
   style="fill:#c46966"
   d="m 249.97,105.095 c -5.012,-0.009 -9.532,-2.045 -13.438,-6.053 l 0.537,-0.523 c 3.759,3.857 8.1,5.818 12.9,5.827 4.72,-0.009 8.999,-1.907 12.717,-5.643 l 0.531,0.529 c -3.863,3.881 -8.32,5.854 -13.247,5.863 z"
   id="path25" />&#10;					</g>&#10;					<path
   style="fill:#e2988f"
   d="m 230.371,70.184 c 0,0 -3.388,-4.988 -6.871,-2.071 -3.482,2.918 -0.094,19.482 6.871,16.565 6.965,-2.918 0,-14.494 0,-14.494 z"
   id="path26" />&#10;					<path
   style="fill:#e2988f"
   d="m 269.629,70.184 c 0,0 3.388,-4.988 6.871,-2.071 3.482,2.918 0.094,19.482 -6.871,16.565 -6.965,-2.918 0,-14.494 0,-14.494 z"
   id="path27" />&#10;					&#10;						<rect
   x="229.257"
   y="79.508003"
   transform="matrix(0.9973,-0.074,0.074,0.9973,-5.4523,17.2167)"
   style="fill:#c46966"
   width="0.75"
   height="5.3709998"
   id="rect27" />&#10;					&#10;						<rect
   x="267.384"
   y="81.522003"
   transform="matrix(0.0743,-0.9972,0.9972,0.0743,168.6052,345.4214)"
   style="fill:#c46966"
   width="5.9369998"
   height="0.75"
   id="rect28" />&#10;					<path
   style="fill:#c46966"
   d="m 225.233,76.685 c -0.799,-2.658 -0.807,-4.506 -0.021,-5.493 0.584,-0.735 1.387,-0.691 1.417,-0.689 l -0.049,0.748 0.024,-0.374 -0.02,0.374 c -0.02,10e-4 -0.46,-0.016 -0.797,0.421 -0.344,0.444 -0.78,1.659 0.164,4.796 z"
   id="path28" />&#10;					<path
   style="fill:#c46966"
   d="m 275.049,76.685 -0.719,-0.216 c 0.943,-3.137 0.507,-4.351 0.163,-4.796 -0.337,-0.437 -0.779,-0.421 -0.797,-0.421 l -0.044,-0.749 c 0.029,-0.002 0.833,-0.046 1.417,0.689 0.785,0.987 0.779,2.835 -0.02,5.493 z"
   id="path29" />&#10;					<path
   style="fill:#ffffff"
   d="m 228.25,85.591 c -0.122,-0.003 -0.245,-0.016 -0.364,-0.043 -0.032,-0.009 -0.056,-0.035 -0.085,-0.049 -0.214,0.62 -0.595,1.038 -1.033,1.038 -0.671,0 -1.214,-0.967 -1.214,-2.161 0,-1.188 0.538,-2.151 1.205,-2.16 0.399,-0.047 0.295,-0.598 0,-0.583 -0.97,0.009 -1.755,1.41 -1.755,3.139 0,1.735 0.79,3.141 1.765,3.141 0.815,0 1.493,-0.988 1.697,-2.323 -0.073,0 -0.144,0.003 -0.216,10e-4 z"
   id="path30" />&#10;					<path
   style="fill:#ffffff"
   d="m 273.154,81.633 c -0.295,-0.015 -0.399,0.536 0,0.583 0.667,0.009 1.205,0.972 1.205,2.16 0,1.194 -0.544,2.161 -1.214,2.161 -0.374,0 -0.7,-0.313 -0.923,-0.788 -0.064,0.049 -0.124,0.102 -0.192,0.146 -0.148,0.094 -0.303,0.178 -0.456,0.265 0.287,1.035 0.878,1.752 1.571,1.752 0.975,0 1.765,-1.406 1.765,-3.141 0,-1.728 -0.785,-3.129 -1.756,-3.138 z"
   id="path31" />&#10;					<path
   style="fill:#4c224b"
   d="m 229.523,69.162 c -0.155,-8.929 6.508,-13.567 6.508,-13.567 6,10.518 22.541,14.094 37.646,8.871 0,0 -1.467,-25.271 -25.07,-23.788 -23.603,1.482 -19.084,28.484 -19.084,28.484 z"
   id="path32" />&#10;				</g>&#10;			</g>&#10;		</g>&#10;		<g
   id="g54">&#10;			&#10;				<circle
   transform="matrix(0.7071,-0.7071,0.7071,0.7071,-149.4631,139.1643)"
   style="fill:#fce8e3"
   cx="93.254997"
   cy="250"
   id="ellipse34"
   r="55.82" />&#10;			<g
   id="g53">&#10;				<path
   style="fill:#4c224b"
   d="m 129.772,279.472 c 15.757,-10.686 6.355,-28.233 -7.924,-51.72 -2.062,-3.392 -3.383,-7.16 -4.179,-11.049 -2.329,-11.384 -12.402,-19.948 -24.475,-19.948 -12.171,0 -22.309,8.703 -24.53,20.226 -0.772,4.008 -2.045,7.907 -3.952,11.516 -13.132,24.843 -25.984,44.86 -7.222,50.975 z"
   id="path34" />&#10;				<rect
   x="80.152"
   y="242.64999"
   style="fill:#e2988f"
   width="26.148001"
   height="33.358002"
   id="rect34" />&#10;				<g
   id="g37">&#10;					<path
   style="fill:#f4ba5d"
   d="m 141.221,278.537 c -12.307,-5.172 -34.765,-9.065 -34.765,-9.065 -8.623,7.255 -19.523,7.208 -26.305,0 0,0 -22.736,3.366 -35.57,7.863 9.171,16.293 26.274,27.519 46.08,28.422 0.887,0.027 1.771,0.063 2.667,0.063 20.366,-0.029 38.169,-10.968 47.893,-27.283 z"
   id="path35" />&#10;					<path
   style="fill:#ffffff"
   d="m 80.152,265.678 -5.15,4.624 c 0,0 3.006,12.964 9.147,13.199 6.141,0.235 9.045,-8.617 9.045,-8.617 -5.865,-1.569 -10.212,-4.639 -13.042,-9.206 z"
   id="path36" />&#10;					<path
   style="fill:#ffffff"
   d="m 106.297,265.678 5.15,4.624 c 0,0 -3.006,12.964 -9.147,13.199 -6.141,0.235 -9.045,-8.617 -9.045,-8.617 5.865,-1.569 10.212,-4.639 13.042,-9.206 z"
   id="path37" />&#10;				</g>&#10;				<g
   id="g52">&#10;					&#10;						<circle
   transform="matrix(0.1602,-0.9871,0.9871,0.1602,-117.378,258.5)"
   style="fill:#4c224b"
   cx="93.225998"
   cy="198.231"
   id="ellipse37"
   r="12" />&#10;					<g
   id="g45">&#10;						<g
   id="g38">&#10;							<path
   style="fill:#e2988f"
   d="m 93.194,202.256 v 0 0 0 0 c -16.856,0.019 -20.69,12.643 -20.337,25.354 0,9.164 -0.645,12.135 0.205,14.401 0.474,3.227 7.027,19.699 20.133,19.699 13.106,0 19.102,-15.603 20.257,-19.699 0.85,-2.267 0.081,-5.237 0.08,-14.401 0.352,-12.71 -3.482,-25.334 -20.338,-25.354 z"
   id="path38" />&#10;						</g>&#10;						<g
   id="g39">&#10;							<path
   style="fill:#c46966"
   d="m 93.194,262.086 c -4.909,0 -9.392,-2.22 -13.323,-6.599 l 0.559,-0.501 c 3.783,4.213 8.077,6.35 12.765,6.35 4.79,0 9.105,-2.13 12.826,-6.332 l 0.561,0.497 c -3.87,4.369 -8.374,6.585 -13.388,6.585 z"
   id="path39" />&#10;						</g>&#10;						<path
   style="fill:#e2988f"
   d="m 73.597,227.906 c 0,0 -3.388,-4.372 -6.871,-1.815 -3.482,2.557 -0.094,17.074 6.871,14.517 6.965,-2.556 0,-12.702 0,-12.702 z"
   id="path40" />&#10;						<path
   style="fill:#e2988f"
   d="m 112.855,227.906 c 0,0 3.388,-4.372 6.871,-1.815 3.482,2.557 0.094,17.074 -6.871,14.517 -6.965,-2.556 0,-12.702 0,-12.702 z"
   id="path41" />&#10;						&#10;							<rect
   x="71.973999"
   y="234.64"
   transform="matrix(0.9904,-0.1381,0.1381,0.9904,-32.1497,12.2718)"
   style="fill:#c46966"
   width="0.74900001"
   height="6.3000002"
   id="rect41" />&#10;						&#10;							<rect
   x="111.008"
   y="237.41499"
   transform="matrix(0.0926,-0.9957,0.9957,0.0926,-133.1976,329.4171)"
   style="fill:#c46966"
   width="6.2659998"
   height="0.74900001"
   id="rect42" />&#10;						<path
   style="fill:#c46966"
   d="m 68.464,233.631 c -0.771,-2.245 -0.81,-3.846 -0.116,-4.759 0.589,-0.775 1.472,-0.731 1.505,-0.732 l -0.043,0.749 0.021,-0.374 -0.018,0.374 c -0.03,-0.002 -0.534,-0.015 -0.876,0.446 -0.36,0.485 -0.612,1.582 0.235,4.053 z"
   id="path42" />&#10;						<path
   style="fill:#c46966"
   d="m 118.269,233.631 -0.709,-0.243 c 0.852,-2.484 0.594,-3.58 0.229,-4.063 -0.345,-0.454 -0.857,-0.439 -0.865,-0.437 l -0.043,-0.749 c 0.033,10e-4 0.916,-0.044 1.505,0.732 0.693,0.914 0.654,2.515 -0.117,4.76 z"
   id="path43" />&#10;						<path
   style="fill:#ffffff"
   d="m 118.149,240.019 c 0,0.858 -0.695,1.553 -1.553,1.553 -0.858,0 -1.553,-0.695 -1.553,-1.553 0,-0.858 0.695,-1.553 1.553,-1.553 0.857,0 1.553,0.695 1.553,1.553 z"
   id="path44" />&#10;						<path
   style="fill:#ffffff"
   d="m 71.56,240.019 c 0,0.858 -0.695,1.553 -1.553,1.553 -0.858,0 -1.553,-0.695 -1.553,-1.553 0,-0.858 0.695,-1.553 1.553,-1.553 0.858,0 1.553,0.695 1.553,1.553 z"
   id="path45" />&#10;					</g>&#10;					<path
   style="fill:#4c224b"
   d="m 72.021,221.511 c 13.372,2.828 27.463,3.043 42.409,0 0,0 0.278,-20.641 -20.638,-21.326 -20.916,-0.685 -21.771,21.326 -21.771,21.326 z"
   id="path46" />&#10;					<path
   style="fill:#703870"
   d="m 104.929,200.1 c -7.787,-3.044 -15.685,-3.044 -23.47,0 l -0.273,-0.698 c 7.969,-3.115 16.048,-3.115 24.017,0 z"
   id="path47" />&#10;					<path
   style="fill:#703870"
   d="m 115.061,221.231 c -0.556,-5.847 -2.606,-10.972 -6.096,-15.233 l 0.58,-0.475 c 3.585,4.379 5.692,9.64 6.262,15.637 z"
   id="path48" />&#10;					<path
   style="fill:#703870"
   d="m 71.937,221.231 -0.746,-0.071 c 0.569,-5.997 2.677,-11.258 6.262,-15.637 l 0.58,0.476 c -3.489,4.26 -5.54,9.385 -6.096,15.232 z"
   id="path49" />&#10;					<path
   style="fill:#703870"
   d="m 78.726,222.673 -0.748,-0.061 c 0.269,-3.284 0.942,-6.61 2.003,-9.886 l 0.713,0.231 c -1.044,3.222 -1.706,6.491 -1.968,9.716 z"
   id="path50" />&#10;					<path
   style="fill:#703870"
   d="m 105.602,223.003 -0.75,-0.025 c 0.075,-2.215 -0.279,-4.851 -1.055,-7.835 l 0.727,-0.189 c 0.792,3.054 1.155,5.762 1.078,8.049 z"
   id="path51" />&#10;					<path
   style="fill:#703870"
   d="m 103.068,212.637 c -0.552,-1.721 -1.026,-2.863 -1.03,-2.874 l 0.691,-0.289 c 0.021,0.047 0.49,1.18 1.054,2.934 z"
   id="path52" />&#10;				</g>&#10;			</g>&#10;		</g>&#10;		<g
   id="g62">&#10;			<circle
   style="fill:#fce8e3"
   cx="406.745"
   cy="93.012001"
   r="55.82"
   id="circle54" />&#10;			<g
   id="g61">&#10;				<ellipse
   style="fill:#94a5e4"
   cx="406.57199"
   cy="105.878"
   rx="16.659"
   ry="2.365"
   id="ellipse54" />&#10;				<rect
   x="391.979"
   y="85.660004"
   style="fill:#e2988f"
   width="29.533001"
   height="33.358002"
   id="rect54" />&#10;				<g
   id="g58">&#10;					<path
   style="fill:#e2988f"
   d="m 436.563,64.04 c -1.679,-4.016 -5.111,-2.044 -5.111,-2.044 1.982,-18.256 -7.301,-30.306 -24.706,-30.306 -17.405,0 -26.688,12.05 -24.706,30.306 0,0 -3.431,-1.971 -5.111,2.044 -1.679,4.016 1.387,13.434 3.285,16.428 1.898,2.993 5.257,5.257 5.257,5.257 0,0 0.219,3.359 1.095,5.695 0.876,2.336 10.806,13.079 13.726,14.722 3.829,2.253 9.469,2.253 12.907,0 2.92,-1.643 12.85,-12.385 13.726,-14.722 0.876,-2.337 1.095,-5.695 1.095,-5.695 0,0 3.359,-2.263 5.257,-5.257 1.898,-2.994 4.965,-12.413 3.286,-16.428 z"
   id="path54" />&#10;					<g
   id="g57">&#10;						<g
   id="g56">&#10;							<path
   style="fill:#c46966"
   d="m 379.182,73.065 c -0.162,-0.591 -1.527,-5.816 0.354,-7.243 0.62,-0.404 1.127,-0.363 1.446,-0.258 0.973,0.316 1.465,1.575 1.485,1.628 l -0.7,0.269 c -0.105,-0.272 -0.494,-1.015 -1.019,-1.184 -0.241,-0.078 -0.497,-0.026 -0.782,0.159 -1.093,0.83 -0.621,4.388 -0.061,6.432 z"
   id="path55" />&#10;							<path
   style="fill:#c46966"
   d="m 434.309,73.065 -0.723,-0.198 c 0.401,-1.471 1.171,-5.496 -0.084,-6.447 -0.263,-0.169 -0.518,-0.222 -0.761,-0.143 -0.524,0.169 -0.913,0.912 -1.018,1.184 l -0.7,-0.269 c 0.021,-0.053 0.514,-1.312 1.486,-1.628 0.318,-0.104 0.826,-0.146 1.424,0.243 1.903,1.441 0.538,6.666 0.376,7.258 z"
   id="path56" />&#10;						</g>&#10;					</g>&#10;					<path
   style="fill:#4c224b"
   d="m 406.745,31.69 c -17.405,0 -26.688,12.05 -24.706,30.305 v 0 c 2.303,1.497 2.829,5.569 2.467,9.601 v 0 c 0,10e-4 -0.766,12.832 1.756,18.886 2.522,6.054 6.915,15.51 20.479,15.395 v 0 c 0.001,0 0.002,0 0.002,0 0.001,0 0.002,0 0.003,0 v 0 c 13.564,0.115 17.957,-9.342 20.479,-15.395 2.522,-6.054 1.756,-18.886 1.756,-18.886 v 0 c 0.001,0 0.002,0 0.003,0 -0.358,-3.853 -0.368,-8.077 2.467,-9.601 l 0.002,-0.004 C 433.432,43.738 424.149,31.69 406.745,31.69 Z m 19.046,28.049 c 0,0 -0.336,16.751 -2.924,20.422 -2.588,3.67 -1.783,-4.47 -16.121,-4.612 -14.339,-0.141 -13.539,8.282 -16.127,4.612 -2.583,-3.663 -2.922,-20.347 -2.924,-20.419 0.168,-3.705 0.531,-7.237 2.122,-8.822 2.059,-2.05 5.067,-1.716 7.644,-1.059 3.003,0.766 6.104,1.8 9.272,1.883 3.355,0.088 6.535,-1.141 9.751,-1.92 2.496,-0.604 5.21,-0.872 7.186,1.095 1.592,1.586 1.955,5.123 2.123,8.83 z"
   id="path57" />&#10;				</g>&#10;				<g
   id="g59">&#10;					<path
   style="fill:#94a5e4"
   d="m 457.257,116.778 c -13.991,-3.393 -34.026,-4.297 -34.026,-4.297 -10.345,8.219 -24.175,8.335 -33.317,0 0,0 -19.674,1.281 -33.552,4.578 8.985,18.79 28.167,31.772 50.384,31.772 v 0 c 22.326,0.001 41.583,-13.112 50.511,-32.053 z"
   id="path58" />&#10;				</g>&#10;				<path
   style="fill:#94a5e4"
   d="m 389.913,105.878 v 8.353 c 11.824,8.722 22.94,8.844 33.317,0 v -8.353 c -5.882,3.812 -29.552,3.294 -33.317,0 z"
   id="path59" />&#10;				<path
   style="fill:#6c82bc"
   d="m 406.178,117.599 c -1.615,0 -3.229,-0.069 -4.788,-0.206 -3.091,-0.272 -10.431,-1.26 -11.822,-4.546 l 0.691,-0.292 c 0.854,2.019 5.041,3.548 11.197,4.091 8.537,0.749 19.167,-0.621 21.46,-4.149 l 0.629,0.408 c -2.045,3.147 -9.719,4.694 -17.367,4.694 z"
   id="path60" />&#10;				<path
   style="fill:#6c82bc"
   d="m 406.234,110.65 c -3.032,0 -5.984,-0.14 -8.388,-0.396 -4.237,-0.45 -6.77,-1.194 -7.528,-2.21 l 0.602,-0.448 c 0.284,0.381 1.537,1.331 7.006,1.913 8.683,0.923 21.891,0.18 24.352,-1.971 l 0.494,0.565 c -2.058,1.797 -9.512,2.547 -16.538,2.547 z"
   id="path61" />&#10;			</g>&#10;		</g>&#10;		<g
   id="g74">&#10;			&#10;				<circle
   transform="matrix(0.7071,-0.7071,0.7071,0.7071,-57.6437,360.8357)"
   style="fill:#fce8e3"
   cx="406.745"
   cy="250"
   id="ellipse62"
   r="55.82" />&#10;			<g
   id="g73">&#10;				<g
   id="g66">&#10;					<rect
   x="392.116"
   y="242.64799"
   style="fill:#e2988f"
   width="29.533001"
   height="33.358002"
   id="rect62" />&#10;					<g
   id="g65">&#10;						<path
   style="fill:#ffffff"
   d="m 454.59,278.994 c -15.761,-7.032 -32.94,-9.525 -32.94,-9.525 -7.883,8.219 -22.565,8.335 -29.533,0 0,0 -17.179,2.493 -32.94,9.525 9.796,16.084 27.497,26.826 47.707,26.826 20.209,0 37.909,-10.742 47.706,-26.826 z"
   id="path62" />&#10;						<path
   style="fill:#f4ba5d"
   d="m 424.86,270.021 v 32.839 c 12.484,-4.245 22.982,-12.788 29.73,-23.866 -11.633,-5.19 -24.03,-7.905 -29.73,-8.973 z"
   id="path63" />&#10;						<path
   style="fill:#f4ba5d"
   d="m 388.848,270.032 c -5.726,1.075 -18.078,3.789 -29.671,8.962 6.737,11.061 17.212,19.595 29.671,23.847 z"
   id="path64" />&#10;						<path
   style="fill:#eabfb9"
   d="m 406.465,279.458 c -0.093,0 -0.185,0 -0.278,-0.001 -7.63,-0.081 -14.066,-3.443 -17.657,-9.226 l 0.637,-0.396 c 3.453,5.56 9.66,8.794 17.028,8.872 7.674,0.065 14.733,-3.32 18.351,-8.878 l 0.629,0.409 c -3.713,5.702 -10.863,9.22 -18.71,9.22 z"
   id="path65" />&#10;					</g>&#10;				</g>&#10;				<g
   id="g72">&#10;					<path
   style="fill:#e2988f"
   d="m 435.807,224.878 c -1.629,-3.895 -4.958,-1.983 -4.958,-1.983 1.922,-17.708 -7.082,-29.397 -23.966,-29.397 -16.883,0 -25.888,11.689 -23.966,29.397 0,0 -3.329,-1.912 -4.958,1.983 -1.629,3.895 1.346,13.031 3.187,15.935 1.842,2.904 4.632,1.676 4.632,1.676 0,0 0.681,6.681 1.53,8.948 0.85,2.266 10.482,12.687 13.315,14.281 3.715,2.186 9.186,2.186 12.52,0 2.833,-1.594 12.465,-12.014 13.315,-14.281 0.85,-2.266 1.516,-9.065 1.516,-9.065 0,0 2.804,1.346 4.645,-1.558 1.842,-2.904 4.816,-12.04 3.188,-15.936 z"
   id="path66" />&#10;					<g
   id="g70">&#10;						<path
   style="fill:#c46966"
   d="m 407.031,267.722 c -2.321,0 -4.692,-0.56 -6.599,-1.681 -1.716,-0.966 -5.66,-4.913 -8.595,-8.169 l 0.557,-0.502 c 2.988,3.314 6.837,7.134 8.412,8.021 3.595,2.114 8.918,2.118 12.132,0.013 1.594,-0.898 5.443,-4.718 8.434,-8.034 l 0.557,0.502 c -2.938,3.258 -6.882,7.204 -8.602,8.172 -1.704,1.118 -3.975,1.678 -6.296,1.678 z"
   id="path67" />&#10;						&#10;							<rect
   x="385.16901"
   y="238.304"
   transform="matrix(0.9938,-0.1114,0.1114,0.9938,-24.385,44.4541)"
   style="fill:#c46966"
   width="0.75099999"
   height="4.1989999"
   id="rect67" />&#10;						&#10;							<rect
   x="426.14801"
   y="239.96899"
   transform="matrix(0.1042,-0.9946,0.9946,0.1042,144.517,641.1445)"
   style="fill:#c46966"
   width="4.0770001"
   height="0.75"
   id="rect68" />&#10;						<g
   id="g69">&#10;							<path
   style="fill:#c46966"
   d="m 380.136,233.636 c -0.157,-0.574 -1.484,-5.65 0.348,-7.038 0.604,-0.395 1.102,-0.355 1.412,-0.253 0.933,0.302 1.398,1.456 1.448,1.586 l -0.7,0.269 c -0.103,-0.263 -0.477,-0.98 -0.98,-1.142 -0.232,-0.074 -0.477,-0.025 -0.748,0.153 -1.056,0.8 -0.598,4.246 -0.057,6.226 z"
   id="path68" />&#10;							<path
   style="fill:#c46966"
   d="m 433.631,233.636 -0.723,-0.198 c 0.541,-1.98 0.999,-5.426 -0.078,-6.242 -0.251,-0.162 -0.495,-0.213 -0.728,-0.137 -0.602,0.195 -0.975,1.132 -0.978,1.141 l -0.701,-0.268 c 0.051,-0.13 0.516,-1.284 1.448,-1.586 0.311,-0.102 0.806,-0.143 1.391,0.237 1.853,1.403 0.526,6.479 0.369,7.053 z"
   id="path69" />&#10;						</g>&#10;					</g>&#10;					<g
   id="g71">&#10;						<path
   style="fill:#4c224b"
   d="m 385.31,232.209 c 5.011,0.026 1.221,-16.143 5.152,-20.056 1.997,-1.989 30.922,-1.908 32.839,0 3.931,3.913 0.142,20.082 5.152,20.056 -0.347,-3.738 -0.357,-7.835 2.393,-9.313 l 0.002,-0.004 c 1.921,-17.707 -7.084,-29.393 -23.966,-29.393 -16.883,0 -25.888,11.689 -23.966,29.397 v 0 c 2.235,1.451 2.745,5.401 2.394,9.313 z"
   id="path70" />&#10;					</g>&#10;					<path
   style="fill:#4c224b"
   d="m 406.883,237.572 c 0,0 -11.868,-0.262 -12.362,7.67 h 12.362 12.362 c -0.494,-7.932 -12.362,-7.67 -12.362,-7.67 z"
   id="path71" />&#10;				</g>&#10;			</g>&#10;		</g>&#10;		<g
   id="g86">&#10;			&#10;				<circle
   transform="matrix(0.2298,-0.9732,0.9732,0.2298,-203.5388,556.7936)"
   style="fill:#fce8e3"
   cx="250"
   cy="406.98801"
   id="ellipse74"
   r="55.82" />&#10;			<g
   id="g85">&#10;				<path
   style="fill:#f4ba5d"
   d="m 260.491,423.623 c 3.806,-0.15 7.581,-0.47 11.284,-0.994 6.946,-0.983 13.15,-2.723 16.401,-9.487 3.312,-7.271 -0.476,-18.197 -4.2,-24.976 -2.316,-4.217 -4.643,-8.384 -6.274,-12.92 -2.266,-6.303 -3.952,-13.08 -8.745,-18.047 -0.184,-0.191 -0.372,-0.379 -0.564,-0.562 -4.932,-4.722 -11.593,-7.394 -18.421,-7.395 -9.921,0 -19.511,5.821 -23.824,14.804 -2.952,6.148 -3.954,13.012 -6.783,19.219 -2.965,6.507 -6.493,12.837 -7.703,19.975 -0.78,4.599 0.472,9.236 3.696,12.645 3.896,4.12 9.073,5.844 14.455,6.592 9.969,1.388 20.396,1.552 30.678,1.146 z"
   id="path74" />&#10;				<g
   id="g77">&#10;					<rect
   x="236.96001"
   y="399.78"
   style="fill:#e2988f"
   width="26.148001"
   height="33.358002"
   id="rect74" />&#10;					<g
   id="g75">&#10;						<path
   style="fill:#ffffff"
   d="m 298.03,435.666 c -12.307,-5.172 -34.765,-9.065 -34.765,-9.065 -8.623,7.255 -19.523,7.208 -26.305,0 0,0 -22.736,3.366 -35.57,7.863 9.171,16.293 26.275,27.518 46.08,28.422 0.887,0.027 1.771,0.063 2.667,0.063 20.365,-0.029 38.168,-10.968 47.893,-27.283 z"
   id="path75" />&#10;					</g>&#10;					<path
   style="fill:#94a5e4"
   d="m 231.649,427.459 c -7.503,1.276 -21.294,3.863 -30.259,7.005 8.216,14.596 22.8,25.119 39.988,27.804 0,-10e-4 -8.539,-15.426 -9.729,-34.809 z"
   id="path76" />&#10;					<path
   style="fill:#94a5e4"
   d="m 268.351,427.459 c 7.503,1.276 21.293,3.863 30.259,7.005 -8.216,14.596 -22.8,25.119 -39.988,27.804 0,-10e-4 8.539,-15.426 9.729,-34.809 z"
   id="path77" />&#10;				</g>&#10;				<g
   id="g84">&#10;					<g
   id="g78">&#10;						<path
   style="fill:#e2988f"
   d="m 250.002,359.386 v 0 0 0 0 c -16.856,0.019 -20.69,12.643 -20.337,25.353 -0.001,9.164 -0.645,12.135 0.204,14.401 0.474,3.227 7.027,19.699 20.133,19.699 13.106,0 19.102,-15.603 20.257,-19.699 0.85,-2.267 0.081,-5.237 0.081,-14.401 0.352,-12.71 -3.482,-25.334 -20.338,-25.353 z"
   id="path78" />&#10;					</g>&#10;					<g
   id="g79">&#10;						<path
   style="fill:#c46966"
   d="m 250.002,419.215 c -4.494,0 -9.723,-2.59 -13.322,-6.599 l 0.559,-0.501 c 3.463,3.857 8.474,6.35 12.764,6.35 4.318,0 9.473,-2.544 12.825,-6.332 l 0.563,0.497 c -3.489,3.939 -8.869,6.585 -13.389,6.585 z"
   id="path79" />&#10;					</g>&#10;					<path
   style="fill:#e2988f"
   d="m 230.037,385.956 c 0,0 -3.452,-4.062 -6.999,-1.686 -3.548,2.376 -0.096,15.865 6.999,13.489 7.096,-2.376 0,-11.803 0,-11.803 z"
   id="path80" />&#10;					<path
   style="fill:#e2988f"
   d="m 270.031,385.956 c 0,0 3.452,-4.062 6.999,-1.686 3.548,2.376 0.096,15.865 -6.999,13.489 -7.096,-2.376 0,-11.803 0,-11.803 z"
   id="path81" />&#10;					&#10;						<rect
   x="228.782"
   y="391.76901"
   transform="matrix(0.9904,-0.1381,0.1381,0.9904,-52.3492,35.4357)"
   style="fill:#c46966"
   width="0.74900001"
   height="6.3000002"
   id="rect81" />&#10;					&#10;						<rect
   x="267.81601"
   y="394.54401"
   transform="matrix(0.0926,-0.9957,0.9957,0.0926,-147.3671,628.1273)"
   style="fill:#c46966"
   width="6.2659998"
   height="0.74900001"
   id="rect82" />&#10;					<path
   style="fill:#c46966"
   d="m 224.818,391.295 c -0.764,-2.03 -0.826,-3.503 -0.185,-4.379 0.592,-0.808 1.549,-0.769 1.586,-0.769 l -0.036,0.749 c -0.023,0 -0.598,-0.02 -0.95,0.47 -0.327,0.455 -0.543,1.459 0.286,3.665 z"
   id="path82" />&#10;					<path
   style="fill:#c46966"
   d="m 275.536,391.295 -0.701,-0.264 c 0.829,-2.205 0.613,-3.21 0.287,-3.665 -0.353,-0.49 -0.924,-0.47 -0.951,-0.471 l -0.036,-0.749 c 0.038,-0.001 0.994,-0.04 1.587,0.769 0.64,0.877 0.579,2.35 -0.186,4.38 z"
   id="path83" />&#10;					<path
   style="fill:#f4ba5d"
   d="m 227.41,383.963 c 3.138,-5.61 18.033,-4.87 22.624,-17.679 4.444,14.62 17.574,10.341 23.37,18.158 0,0 -2.766,-29.459 -23.37,-29.459 -20.604,0 -22.624,28.98 -22.624,28.98 z"
   id="path84" />&#10;				</g>&#10;			</g>&#10;		</g>&#10;		<g
   id="g95">&#10;			&#10;				<circle
   transform="matrix(0.7071,-0.7071,0.7071,0.7071,-260.4702,185.145)"
   style="fill:#fce8e3"
   cx="93.254997"
   cy="406.98801"
   id="ellipse86"
   r="55.82" />&#10;			<g
   id="g94">&#10;				<g
   id="g88">&#10;					<rect
   x="78.487999"
   y="399.69501"
   style="fill:#e2988f"
   width="29.533001"
   height="33.358002"
   id="rect86" />&#10;					<g
   id="g87">&#10;						<path
   style="fill:#d85d63"
   d="m 140.961,436.041 c -15.761,-7.032 -32.94,-9.525 -32.94,-9.525 -7.883,8.219 -22.565,8.335 -29.533,0 0,0 -17.179,2.493 -32.94,9.525 9.796,16.084 27.497,26.825 47.707,26.825 20.21,0 37.91,-10.741 47.706,-26.825 z"
   id="path86" />&#10;						<path
   style="fill:#b73d49"
   d="m 92.836,436.504 c -0.093,0 -0.186,0 -0.279,-0.001 -7.63,-0.081 -14.064,-3.444 -17.655,-9.226 l 0.637,-0.395 c 3.453,5.56 9.659,8.793 17.027,8.872 0.09,10e-4 0.181,10e-4 0.271,10e-4 7.596,0 14.506,-3.387 18.08,-8.88 l 0.629,0.409 c -3.712,5.703 -10.862,9.22 -18.71,9.22 z"
   id="path87" />&#10;					</g>&#10;				</g>&#10;				<g
   id="g93">&#10;					<path
   style="fill:#e2988f"
   d="m 121.133,383.46 c -1.57,-3.755 -4.779,-1.911 -4.779,-1.911 0.668,-14.713 -6.826,-24.918 -23.1,-24.918 -16.273,0 -23.677,12.247 -23.1,24.918 0,0 -3.208,-1.843 -4.778,1.911 -1.57,3.755 1.297,12.561 3.072,15.359 1.775,2.799 4.464,1.615 4.464,1.615 0,0 0.656,6.44 1.475,8.624 0.819,2.184 10.103,12.228 12.833,13.764 3.58,2.107 8.854,2.107 12.067,0 2.73,-1.536 12.014,-11.58 12.834,-13.764 0.819,-2.185 1.461,-8.738 1.461,-8.738 0,0 2.702,1.297 4.477,-1.502 1.777,-2.797 4.644,-11.603 3.074,-15.358 z"
   id="path88" />&#10;					<g
   id="g92">&#10;						<path
   style="fill:#c46966"
   d="m 93.393,423.319 c -6.629,0 -11.536,-4.593 -14.649,-8.048 l 0.557,-0.502 c 3.019,3.349 7.763,7.8 14.093,7.8 5.979,0 10.34,-3.943 13.816,-7.8 l 0.557,0.502 c -3.588,3.98 -8.101,8.048 -14.374,8.048 z"
   id="path89" />&#10;						&#10;							<rect
   x="72.311996"
   y="396.401"
   transform="matrix(0.9938,-0.1113,0.1113,0.9938,-43.8747,10.56)"
   style="fill:#c46966"
   width="0.75099999"
   height="4.0469999"
   id="rect89" />&#10;						&#10;							<rect
   x="111.823"
   y="397.992"
   transform="matrix(0.1041,-0.9946,0.9946,0.1041,-294.261,470.0634)"
   style="fill:#c46966"
   width="3.9300001"
   height="0.75"
   id="rect90" />&#10;						<g
   id="g91">&#10;							<path
   style="fill:#c46966"
   d="m 67.461,391.904 c -0.152,-0.554 -1.434,-5.455 0.34,-6.797 0.59,-0.385 1.072,-0.344 1.374,-0.246 0.904,0.294 1.355,1.41 1.404,1.537 l -0.7,0.269 c -0.098,-0.251 -0.456,-0.938 -0.938,-1.093 -0.217,-0.069 -0.451,-0.023 -0.709,0.146 -1.013,0.768 -0.57,4.081 -0.049,5.986 z"
   id="path90" />&#10;							<path
   style="fill:#c46966"
   d="m 119.049,391.904 -0.723,-0.198 c 0.521,-1.905 0.962,-5.219 -0.07,-6.001 -0.236,-0.153 -0.47,-0.2 -0.688,-0.131 -0.481,0.155 -0.84,0.841 -0.938,1.093 l -0.7,-0.269 c 0.049,-0.127 0.5,-1.243 1.404,-1.537 0.305,-0.098 0.786,-0.138 1.353,0.23 1.794,1.359 0.514,6.259 0.362,6.813 z"
   id="path91" />&#10;						</g>&#10;					</g>&#10;					<path
   style="fill:#ffffff"
   d="m 70.155,381.549 c 1.849,1.956 2.654,4.294 3.097,7.422 -0.339,-10.432 4.506,-14.174 4.439,-27.014 -6.39,0.661 -9.055,10.127 -8.24,19.306 z"
   id="path92" />&#10;					<path
   style="fill:#ffffff"
   d="m 116.324,381.549 c -1.849,1.956 -2.654,4.294 -3.097,7.422 0.339,-10.432 -4.506,-14.174 -4.439,-27.014 6.39,0.661 9.055,10.127 8.24,19.306 z"
   id="path93" />&#10;				</g>&#10;			</g>&#10;		</g>&#10;		<g
   id="g105">&#10;			&#10;				<circle
   transform="matrix(0.7071,-0.7071,0.7071,0.7071,-168.651,406.8164)"
   style="fill:#fce8e3"
   cx="406.745"
   cy="406.98801"
   id="ellipse95"
   r="55.82" />&#10;			<g
   id="g104">&#10;				<g
   id="g97">&#10;					<rect
   x="392.117"
   y="399.69501"
   style="fill:#e2988f"
   width="29.533001"
   height="33.358002"
   id="rect95" />&#10;					<g
   id="g96">&#10;						<path
   style="fill:#d85d63"
   d="m 454.59,436.041 c -15.761,-7.032 -32.94,-9.525 -32.94,-9.525 -7.883,8.219 -22.565,8.335 -29.533,0 0,0 -17.179,2.493 -32.94,9.525 9.796,16.084 27.497,26.825 47.707,26.825 20.209,0 37.909,-10.741 47.706,-26.825 z"
   id="path95" />&#10;						<path
   style="fill:#b73d49"
   d="m 406.465,436.504 c -0.093,0 -0.185,0 -0.279,-0.001 -7.63,-0.081 -14.064,-3.444 -17.655,-9.226 l 0.637,-0.395 c 3.453,5.56 9.659,8.793 17.027,8.872 0.09,10e-4 0.181,10e-4 0.271,10e-4 7.596,0 14.506,-3.387 18.08,-8.88 l 0.629,0.409 c -3.712,5.703 -10.863,9.22 -18.71,9.22 z"
   id="path96" />&#10;					</g>&#10;				</g>&#10;				<g
   id="g103">&#10;					<path
   style="fill:#4c224b"
   d="m 434.805,381.305 c 0,15.421 -8.469,35.445 -27.214,35.069 -20.161,0 -27.82,-17.781 -27.82,-33.202 -3.529,-10.023 0.712,-20.899 8.058,-22.902 4.597,-7.668 12.581,-10.133 20.601,-10.133 15.421,-10e-4 30.636,11.335 26.375,31.168 z"
   id="path97" />&#10;					<path
   style="fill:#e2988f"
   d="m 434.761,383.46 c -1.57,-3.755 -4.779,-1.911 -4.779,-1.911 0.668,-14.713 -6.826,-24.918 -23.099,-24.918 -16.273,0 -23.677,12.247 -23.1,24.918 0,0 -3.208,-1.843 -4.778,1.911 -1.57,3.755 1.297,12.561 3.072,15.359 1.775,2.799 4.464,1.615 4.464,1.615 0,0 0.656,6.44 1.475,8.624 0.819,2.184 10.103,12.228 12.833,13.764 3.58,2.107 8.854,2.107 12.067,0 2.73,-1.536 12.014,-11.58 12.834,-13.764 0.819,-2.185 1.462,-8.738 1.462,-8.738 0,0 2.702,1.297 4.477,-1.502 1.775,-2.797 4.642,-11.603 3.072,-15.358 z"
   id="path98" />&#10;					<g
   id="g102">&#10;						<path
   style="fill:#c46966"
   d="m 407.02,423.319 c -6.628,0 -11.535,-4.593 -14.648,-8.048 l 0.557,-0.502 c 3.019,3.349 7.763,7.8 14.092,7.8 5.98,0 10.341,-3.943 13.817,-7.8 l 0.557,0.502 c -3.588,3.98 -8.101,8.048 -14.375,8.048 z"
   id="path99" />&#10;						&#10;							<rect
   x="385.94"
   y="396.401"
   transform="matrix(0.9938,-0.1115,0.1115,0.9938,-42.0144,45.5574)"
   style="fill:#c46966"
   width="0.75099999"
   height="4.0469999"
   id="rect99" />&#10;						&#10;							<rect
   x="425.452"
   y="397.992"
   transform="matrix(0.1041,-0.9946,0.9946,0.1041,-13.284,781.9875)"
   style="fill:#c46966"
   width="3.9300001"
   height="0.75"
   id="rect100" />&#10;						<g
   id="g101">&#10;							<path
   style="fill:#c46966"
   d="m 381.089,391.904 c -0.152,-0.554 -1.433,-5.455 0.34,-6.797 0.589,-0.385 1.071,-0.345 1.375,-0.246 0.904,0.294 1.355,1.41 1.403,1.536 l -0.7,0.269 c -0.098,-0.251 -0.456,-0.938 -0.937,-1.092 -0.216,-0.07 -0.45,-0.024 -0.711,0.146 -1.01,0.767 -0.568,4.081 -0.048,5.986 z"
   id="path100" />&#10;							<path
   style="fill:#c46966"
   d="m 432.678,391.904 -0.723,-0.198 c 0.521,-1.905 0.962,-5.219 -0.07,-6.001 -0.236,-0.153 -0.469,-0.201 -0.689,-0.13 -0.48,0.155 -0.839,0.841 -0.936,1.092 l -0.7,-0.269 c 0.049,-0.126 0.499,-1.242 1.403,-1.536 0.304,-0.099 0.787,-0.14 1.353,0.23 1.794,1.358 0.514,6.258 0.362,6.812 z"
   id="path101" />&#10;						</g>&#10;					</g>&#10;					<path
   style="fill:#4c224b"
   d="m 383.784,381.549 c 1.389,-4.798 3.517,-8.978 6.859,-12.142 9.388,10.941 20.965,18.071 39.341,12.142 l 1.416,-4.66 c 0,0 -2.216,-9.882 -2.216,-10.235 0,-0.353 -7.271,-7.129 -7.271,-7.129 l -9.459,-3.882 h -9.741 l -7.765,2.188 -6.847,5.788 -4.318,8.682 v 9.248 z"
   id="path102" />&#10;				</g>&#10;			</g>&#10;		</g>&#10;	</g>&#10;</g></g></g></svg>
